<?xml version="1.0" encoding="UTF-8" standalone="no"?>
<svg
   xmlns:dc="http://purl.org/dc/elements/1.1/"
   xmlns:cc="http://creativecommons.org/ns#"
   xmlns:rdf="http://www.w3.org/1999/02/22-rdf-syntax-ns#"
   xmlns:svg="http://www.w3.org/2000/svg"
   xmlns="http://www.w3.org/2000/svg"
   xmlns:xlink="http://www.w3.org/1999/xlink"
   xmlns:sodipodi="http://sodipodi.sourceforge.net/DTD/sodipodi-0.dtd"
   xmlns:inkscape="http://www.inkscape.org/namespaces/inkscape"
   height="380"
   style="zoom: 8;"
   cursor="default"
   id="SvgjsSvg1006"
   sodipodi:docname="Baronial.svg"
   inkscape:version="0.92.2 5c3e80d, 2017-08-06"
   width="90"
   version="1.1">
  <metadata
     id="metadata7215">
    <rdf:RDF>
      <cc:Work
         rdf:about="">
        <dc:format>image/svg+xml</dc:format>
        <dc:type
           rdf:resource="http://purl.org/dc/dcmitype/StillImage" />
        <dc:title />
      </cc:Work>
    </rdf:RDF>
  </metadata>
  <sodipodi:namedview
     borderopacity="1"
     inkscape:zoom="2.9512404"
     inkscape:cy="135.24546"
     gridtolerance="10"
     inkscape:cx="0.60449036"
     inkscape:window-height="1006"
     inkscape:measure-start="21.6858,252.097"
     inkscape:pagecheckerboard="true"
     inkscape:window-width="901"
     guidetolerance="10"
     id="namedview7213"
     showgrid="false"
     inkscape:pageopacity="0"
     inkscape:pageshadow="2"
     bordercolor="#666666"
     inkscape:current-layer="SvgjsSvg1006"
     inkscape:window-maximized="0"
     inkscape:window-y="11"
     inkscape:measure-end="21.0081,301.907"
     objecttolerance="10"
     pagecolor="#ffffff"
     inkscape:window-x="496"
     visibility="visible" />
  <defs
     id="SvgjsDefs1007">
    <linearGradient
       inkscape:collect="always"
       id="linearGradient915">
      <stop
         style="stop-color:#e0e0e0;stop-opacity:1;"
         offset="0"
         id="stop911" />
      <stop
         style="stop-color:#d0d0d0;stop-opacity:1;"
         offset="1"
         id="stop913" />
    </linearGradient>
    <linearGradient
       inkscape:collect="always"
       xlink:href="#linearGradient915"
       id="linearGradient919"
       x1="0"
       y1="190"
       x2="90"
       y2="190"
       gradientUnits="userSpaceOnUse" />
    <style
       id="Audiowide_Google_Webfont_import">@import url(https://fonts.googleapis.com/css?family=Raleway);</style>
  </defs>
  <path
     d="M0,0 H90 V380 H0 Z"
     id="SvgjsRect1008"
     style="fill:url(#linearGradient919);fill-opacity:1;stroke:none;stroke-opacity:1"
     visibility="visible" />
  <g
     aria-label="BARONIAL"
     style="font-size:16px;font-family:Raleway;text-anchor:middle;fill:#000000;stroke:none;stroke-width:1px;text-rendering:geometricPrecision"
     id="text36">
    <path
       d="m 7.0703125,11.429688 v 4.273437 h 2.53125 q 1.2734375,0 1.8828125,-0.523437 0.617188,-0.53125 0.617188,-1.617188 0,-1.09375 -0.617188,-1.609375 Q 10.875,11.429688 9.6015625,11.429688 Z m 0,-4.7968755 V 10.148438 H 9.40625 q 1.15625,0 1.71875,-0.429688 0.570313,-0.4375 0.570313,-1.328125 0,-0.8828125 -0.570313,-1.3203125 -0.5625,-0.4375 -1.71875,-0.4375 z m -1.578125,-1.296875 h 4.03125 q 1.8046875,0 2.7812505,0.75 0.976562,0.75 0.976562,2.1328125 0,1.0703125 -0.5,1.703125 -0.5,0.632813 -1.46875,0.789063 1.164063,0.25 1.804688,1.046875 0.648437,0.789062 0.648437,1.976562 0,1.5625 -1.0625,2.414062 Q 11.640625,17 9.6796875,17 h -4.1875 z"
       style="font-size:16px;font-family:Raleway;text-anchor:middle;fill:#000000;stroke:none;stroke-width:1px;text-rendering:geometricPrecision"
       id="path6306" />
    <path
       d="m 20.359375,6.890625 -2.140625,5.804688 h 4.289062 z M 19.46875,5.3359375 h 1.789062 L 25.703125,17 H 24.0625 L 23,14.007813 H 17.742187 L 16.679687,17 h -1.664062 z"
       style="font-size:16px;font-family:Raleway;text-anchor:middle;fill:#000000;stroke:none;stroke-width:1px;text-rendering:geometricPrecision"
       id="path6308" />
    <path
       d="m 32.929687,11.53125 q 0.507813,0.171875 0.984375,0.734375 0.484375,0.5625 0.96875,1.546875 L 36.484375,17 h -1.695313 l -1.492187,-2.992187 q -0.578125,-1.171875 -1.125,-1.554688 -0.539063,-0.382812 -1.476563,-0.382812 h -1.71875 V 17 H 27.398437 V 5.3359375 h 3.5625 q 2,0 2.984375,0.8359375 0.984375,0.8359375 0.984375,2.5234375 0,1.1015625 -0.515625,1.8281255 Q 33.90625,11.25 32.929687,11.53125 Z M 28.976562,6.6328125 v 4.1406255 h 1.984375 q 1.140625,0 1.71875,-0.523438 0.585938,-0.53125 0.585938,-1.5546875 0,-1.0234375 -0.585938,-1.5390625 -0.578125,-0.5234375 -1.71875,-0.5234375 z"
       style="font-size:16px;font-family:Raleway;text-anchor:middle;fill:#000000;stroke:none;stroke-width:1px;text-rendering:geometricPrecision"
       id="path6310" />
    <path
       d="m 43.257812,6.40625 q -1.71875,0 -2.734375,1.28125 -1.007812,1.28125 -1.007812,3.492188 0,2.203125 1.007812,3.484375 1.015625,1.28125 2.734375,1.28125 1.71875,0 2.71875,-1.28125 1.007813,-1.28125 1.007813,-3.484375 0,-2.210938 -1.007813,-3.492188 -1,-1.28125 -2.71875,-1.28125 z m 0,-1.28125 q 2.453125,0 3.921875,1.6484375 1.46875,1.640625 1.46875,4.4062505 0,2.757812 -1.46875,4.40625 -1.46875,1.640624 -3.921875,1.640624 -2.460937,0 -3.9375,-1.640624 -1.46875,-1.640625 -1.46875,-4.40625 0,-2.7656255 1.46875,-4.4062505 Q 40.796875,5.125 43.257812,5.125 Z"
       style="font-size:16px;font-family:Raleway;text-anchor:middle;fill:#000000;stroke:none;stroke-width:1px;text-rendering:geometricPrecision"
       id="path6312" />
    <path
       d="m 51.117187,5.3359375 h 2.125 L 58.414062,15.09375 V 5.3359375 h 1.53125 V 17 h -2.125 L 52.648437,7.2421875 V 17 h -1.53125 z"
       style="font-size:16px;font-family:Raleway;text-anchor:middle;fill:#000000;stroke:none;stroke-width:1px;text-rendering:geometricPrecision"
       id="path6314" />
    <path
       d="m 63.085937,5.3359375 h 1.578125 V 17 h -1.578125 z"
       style="font-size:16px;font-family:Raleway;text-anchor:middle;fill:#000000;stroke:none;stroke-width:1px;text-rendering:geometricPrecision"
       id="path6316" />
    <path
       d="M 71.703125,6.890625 69.5625,12.695313 h 4.289062 z M 70.8125,5.3359375 h 1.789062 L 77.046875,17 H 75.40625 l -1.0625,-2.992187 H 69.085937 L 68.023437,17 h -1.664062 z"
       style="font-size:16px;font-family:Raleway;text-anchor:middle;fill:#000000;stroke:none;stroke-width:1px;text-rendering:geometricPrecision"
       id="path6318" />
    <path
       d="m 78.742187,5.3359375 h 1.578125 V 15.671875 H 86 V 17 h -7.257813 z"
       style="font-size:16px;font-family:Raleway;text-anchor:middle;fill:#000000;stroke:none;stroke-width:1px;text-rendering:geometricPrecision"
       id="path6320" />
  </g>
  <path
     style="fill:none;stroke:#222222"
     d="M 5,22 H 85 V 72 H 5 Z"
     id="rect12" />
  <path
     style="fill:url(#linearGradient919);fill-opacity:1;stroke:none;stroke-opacity:1"
     d="M 30,67 H 60 V 77 H 30 Z"
     id="rect14" />
  <g
     aria-label="ATTACK"
     style="font-size:8px;font-family:Raleway;text-anchor:middle;fill:#000000;stroke:none;stroke-width:1px;text-rendering:geometricPrecision"
     id="text16">
    <path
       d="m 32.703125,69.445312 -1.070313,2.902344 h 2.144532 z m -0.445313,-0.777343 h 0.894532 L 35.375,74.5 h -0.820313 l -0.53125,-1.496094 H 31.394531 L 30.863281,74.5 H 30.03125 Z"
       style="font-size:8px;font-family:Raleway;text-anchor:middle;fill:#000000;stroke:none;stroke-width:1px;text-rendering:geometricPrecision"
       id="path6325" />
    <path
       d="m 34.789062,68.667969 h 4.933594 v 0.664062 H 37.652344 V 74.5 h -0.792969 v -5.167969 h -2.070313 z"
       style="font-size:8px;font-family:Raleway;text-anchor:middle;fill:#000000;stroke:none;stroke-width:1px;text-rendering:geometricPrecision"
       id="path6327" />
    <path
       d="m 39.546875,68.667969 h 4.933594 v 0.664062 H 42.410156 V 74.5 h -0.792969 v -5.167969 h -2.070312 z"
       style="font-size:8px;font-family:Raleway;text-anchor:middle;fill:#000000;stroke:none;stroke-width:1px;text-rendering:geometricPrecision"
       id="path6329" />
    <path
       d="m 46.578125,69.445312 -1.070313,2.902344 h 2.144532 z m -0.445313,-0.777343 h 0.894532 L 49.25,74.5 h -0.820313 l -0.53125,-1.496094 H 45.269531 L 44.738281,74.5 H 43.90625 Z"
       style="font-size:8px;font-family:Raleway;text-anchor:middle;fill:#000000;stroke:none;stroke-width:1px;text-rendering:geometricPrecision"
       id="path6331" />
    <path
       d="m 54.332031,69.117187 v 0.832032 q -0.398437,-0.371094 -0.851562,-0.554688 -0.449219,-0.183594 -0.957032,-0.183594 -1,0 -1.53125,0.613282 -0.53125,0.609375 -0.53125,1.765625 0,1.152343 0.53125,1.765625 0.53125,0.609375 1.53125,0.609375 0.507813,0 0.957032,-0.183594 0.453125,-0.183594 0.851562,-0.554688 v 0.824219 q -0.414062,0.28125 -0.878906,0.421875 -0.460938,0.140625 -0.976563,0.140625 -1.324218,0 -2.085937,-0.808594 -0.761719,-0.8125 -0.761719,-2.214843 0,-1.40625 0.761719,-2.214844 0.761719,-0.8125 2.085937,-0.8125 0.523438,0 0.984375,0.140625 0.464844,0.136719 0.871094,0.414062 z"
       style="font-size:8px;font-family:Raleway;text-anchor:middle;fill:#000000;stroke:none;stroke-width:1px;text-rendering:geometricPrecision"
       id="path6333" />
    <path
       d="m 55.566406,68.667969 h 0.789063 v 2.464843 l 2.617187,-2.464843 h 1.015625 L 57.09375,71.386719 60.195312,74.5 H 59.15625 L 56.355469,71.691406 V 74.5 h -0.789063 z"
       style="font-size:8px;font-family:Raleway;text-anchor:middle;fill:#000000;stroke:none;stroke-width:1px;text-rendering:geometricPrecision"
       id="path6335" />
  </g>
  <path
     style="fill:none;stroke:#222222"
     d="m 5,82 h 80 v 50 H 5 Z"
     id="rect18" />
  <path
     style="fill:url(#linearGradient919);fill-opacity:1;stroke:none;stroke-opacity:1"
     d="m 32,127 h 26 v 10 H 32 Z"
     id="rect20" />
  <g
     aria-label="DECAY"
     style="font-size:8px;font-family:Raleway;text-anchor:middle;fill:#000000;stroke:none;stroke-width:1px;text-rendering:geometricPrecision"
     id="text22">
    <path
       d="m 33.300781,129.31641 v 4.53515 h 0.953125 q 1.207031,0 1.765625,-0.54687 0.5625,-0.54688 0.5625,-1.72657 0,-1.17187 -0.5625,-1.71484 -0.558594,-0.54687 -1.765625,-0.54687 z m -0.789062,-0.64844 h 1.621093 q 1.695313,0 2.488282,0.70703 0.792968,0.70312 0.792968,2.20312 0,1.50782 -0.796875,2.21485 Q 35.820312,134.5 34.132812,134.5 h -1.621093 z"
       style="font-size:8px;font-family:Raleway;text-anchor:middle;fill:#000000;stroke:none;stroke-width:1px;text-rendering:geometricPrecision"
       id="path6340" />
    <path
       d="m 38.667969,128.66797 h 3.6875 v 0.66406 h -2.898438 v 1.72656 h 2.777344 v 0.66407 h -2.777344 v 2.11328 h 2.96875 V 134.5 h -3.757812 z"
       style="font-size:8px;font-family:Raleway;text-anchor:middle;fill:#000000;stroke:none;stroke-width:1px;text-rendering:geometricPrecision"
       id="path6342" />
    <path
       d="m 48.097656,129.11719 v 0.83203 q -0.398437,-0.3711 -0.851562,-0.55469 -0.449219,-0.18359 -0.957032,-0.18359 -1,0 -1.53125,0.61328 -0.53125,0.60937 -0.53125,1.76562 0,1.15235 0.53125,1.76563 0.53125,0.60937 1.53125,0.60937 0.507813,0 0.957032,-0.18359 0.453125,-0.18359 0.851562,-0.55469 v 0.82422 q -0.414062,0.28125 -0.878906,0.42188 -0.460938,0.14062 -0.976563,0.14062 -1.324218,0 -2.085937,-0.80859 -0.761719,-0.8125 -0.761719,-2.21485 0,-1.40625 0.761719,-2.21484 0.761719,-0.8125 2.085937,-0.8125 0.523438,0 0.984375,0.14062 0.464844,0.13672 0.871094,0.41407 z"
       style="font-size:8px;font-family:Raleway;text-anchor:middle;fill:#000000;stroke:none;stroke-width:1px;text-rendering:geometricPrecision"
       id="path6344" />
    <path
       d="m 51.273437,129.44531 -1.070312,2.90235 h 2.144531 z m -0.445312,-0.77734 h 0.894531 L 53.945312,134.5 H 53.125 l -0.53125,-1.49609 H 49.964844 L 49.433594,134.5 h -0.832032 z"
       style="font-size:8px;font-family:Raleway;text-anchor:middle;fill:#000000;stroke:none;stroke-width:1px;text-rendering:geometricPrecision"
       id="path6346" />
    <path
       d="m 53.367187,128.66797 h 0.847657 l 1.617187,2.39844 1.605469,-2.39844 h 0.847656 l -2.0625,3.05469 V 134.5 h -0.792969 v -2.77734 z"
       style="font-size:8px;font-family:Raleway;text-anchor:middle;fill:#000000;stroke:none;stroke-width:1px;text-rendering:geometricPrecision"
       id="path6348" />
  </g>
  <path
     style="fill:none;stroke:#222222"
     d="M 5,142 H 85 V 242 H 5 Z"
     id="rect24" />
  <path
     style="fill:url(#linearGradient919);fill-opacity:1;stroke:none;stroke-opacity:1"
     d="m 28,237 h 34 v 10 H 28 Z"
     id="rect26" />
  <g
     aria-label="SUSTAIN"
     style="font-size:8px;font-family:Raleway;text-anchor:middle;fill:#000000;stroke:none;stroke-width:1px;text-rendering:geometricPrecision"
     id="text28">
    <path
       d="m 32.234375,238.85937 v 0.76954 q -0.449219,-0.21485 -0.847656,-0.32032 -0.398438,-0.10547 -0.769532,-0.10547 -0.644531,0 -0.996093,0.25 -0.347657,0.25 -0.347657,0.71094 0,0.38672 0.230469,0.58594 0.234375,0.19531 0.882813,0.31641 l 0.476562,0.0977 q 0.882813,0.16797 1.300781,0.59375 0.421875,0.42188 0.421875,1.13281 0,0.84766 -0.570312,1.28516 -0.566406,0.4375 -1.664063,0.4375 -0.414062,0 -0.882812,-0.0937 -0.464844,-0.0937 -0.964844,-0.27734 v -0.8125 q 0.480469,0.26953 0.941406,0.40625 0.460938,0.13672 0.90625,0.13672 0.675782,0 1.042969,-0.26563 0.367188,-0.26562 0.367188,-0.75781 0,-0.42969 -0.265625,-0.67188 -0.261719,-0.24218 -0.863282,-0.36328 l -0.480468,-0.0937 q -0.882813,-0.17578 -1.277344,-0.55078 -0.394531,-0.375 -0.394531,-1.04297 0,-0.77344 0.542968,-1.21875 0.546875,-0.44531 1.503907,-0.44531 0.410156,0 0.835937,0.0742 0.425781,0.0742 0.871094,0.22265 z"
       style="font-size:8px;font-family:Raleway;text-anchor:middle;fill:#000000;stroke:none;stroke-width:1px;text-rendering:geometricPrecision"
       id="path6353" />
    <path
       d="m 33.726562,238.66797 h 0.792969 v 3.54297 q 0,0.9375 0.339844,1.35156 0.339844,0.41016 1.101562,0.41016 0.757813,0 1.097657,-0.41016 0.339843,-0.41406 0.339843,-1.35156 v -3.54297 h 0.792969 v 3.64062 q 0,1.14063 -0.566406,1.72266 -0.5625,0.58203 -1.664063,0.58203 -1.105468,0 -1.671875,-0.58203 -0.5625,-0.58203 -0.5625,-1.72266 z"
       style="font-size:8px;font-family:Raleway;text-anchor:middle;fill:#000000;stroke:none;stroke-width:1px;text-rendering:geometricPrecision"
       id="path6355" />
    <path
       d="m 43.171875,238.85937 v 0.76954 q -0.449219,-0.21485 -0.847656,-0.32032 -0.398438,-0.10547 -0.769532,-0.10547 -0.644531,0 -0.996093,0.25 -0.347657,0.25 -0.347657,0.71094 0,0.38672 0.230469,0.58594 0.234375,0.19531 0.882813,0.31641 l 0.476562,0.0977 q 0.882813,0.16797 1.300781,0.59375 0.421875,0.42188 0.421875,1.13281 0,0.84766 -0.570312,1.28516 -0.566406,0.4375 -1.664063,0.4375 -0.414062,0 -0.882812,-0.0937 -0.464844,-0.0937 -0.964844,-0.27734 v -0.8125 q 0.480469,0.26953 0.941406,0.40625 0.460938,0.13672 0.90625,0.13672 0.675782,0 1.042969,-0.26563 0.367188,-0.26562 0.367188,-0.75781 0,-0.42969 -0.265625,-0.67188 -0.261719,-0.24218 -0.863282,-0.36328 l -0.480468,-0.0937 q -0.882813,-0.17578 -1.277344,-0.55078 -0.394531,-0.375 -0.394531,-1.04297 0,-0.77344 0.542968,-1.21875 0.546875,-0.44531 1.503907,-0.44531 0.410156,0 0.835937,0.0742 0.425781,0.0742 0.871094,0.22265 z"
       style="font-size:8px;font-family:Raleway;text-anchor:middle;fill:#000000;stroke:none;stroke-width:1px;text-rendering:geometricPrecision"
       id="path6357" />
    <path
       d="m 43.945312,238.66797 h 4.933594 v 0.66406 H 46.808594 V 244.5 h -0.792969 v -5.16797 h -2.070313 z"
       style="font-size:8px;font-family:Raleway;text-anchor:middle;fill:#000000;stroke:none;stroke-width:1px;text-rendering:geometricPrecision"
       id="path6359" />
    <path
       d="m 50.96875,239.44531 -1.070313,2.90235 h 2.144532 z m -0.445313,-0.77734 h 0.894532 L 53.640625,244.5 h -0.820313 l -0.53125,-1.49609 H 49.660156 L 49.128906,244.5 h -0.832031 z"
       style="font-size:8px;font-family:Raleway;text-anchor:middle;fill:#000000;stroke:none;stroke-width:1px;text-rendering:geometricPrecision"
       id="path6361" />
    <path
       d="m 54.488281,238.66797 h 0.789063 V 244.5 h -0.789063 z"
       style="font-size:8px;font-family:Raleway;text-anchor:middle;fill:#000000;stroke:none;stroke-width:1px;text-rendering:geometricPrecision"
       id="path6363" />
    <path
       d="m 56.847656,238.66797 h 1.0625 l 2.585938,4.8789 v -4.8789 h 0.765625 V 244.5 h -1.0625 l -2.585938,-4.87891 V 244.5 h -0.765625 z"
       style="font-size:8px;font-family:Raleway;text-anchor:middle;fill:#000000;stroke:none;stroke-width:1px;text-rendering:geometricPrecision"
       id="path6365" />
  </g>
  <path
     style="fill:none;stroke:#222222"
     d="m 5,252 h 80 v 50 H 5 Z"
     id="rect30" />
  <path
     style="fill:url(#linearGradient919);fill-opacity:1;stroke:none;stroke-opacity:1"
     d="m 27,297 h 36 v 10 H 27 Z"
     id="rect32" />
  <g
     aria-label="RELEASE"
     style="font-size:8px;font-family:Raleway;text-anchor:middle;fill:#000000;stroke:none;stroke-width:1px;text-rendering:geometricPrecision"
     id="text34">
    <path
       d="m 30.675781,301.76562 q 0.253906,0.0859 0.492188,0.36719 0.242187,0.28125 0.484375,0.77344 L 32.453125,304.5 h -0.847656 l -0.746094,-1.49609 q -0.289063,-0.58594 -0.5625,-0.77735 -0.269531,-0.1914 -0.738281,-0.1914 H 28.699219 V 304.5 h -0.789063 v -5.83203 h 1.78125 q 1,0 1.492188,0.41797 0.492187,0.41797 0.492187,1.26172 0,0.55078 -0.257812,0.91406 -0.253907,0.36328 -0.742188,0.5039 z m -1.976562,-2.44921 v 2.07031 h 0.992187 q 0.570313,0 0.859375,-0.26172 0.292969,-0.26563 0.292969,-0.77734 0,-0.51172 -0.292969,-0.76954 -0.289062,-0.26171 -0.859375,-0.26171 z"
       style="font-size:8px;font-family:Raleway;text-anchor:middle;fill:#000000;stroke:none;stroke-width:1px;text-rendering:geometricPrecision"
       id="path6370" />
    <path
       d="m 33.472656,298.66797 h 3.6875 v 0.66406 h -2.898437 v 1.72656 h 2.777343 v 0.66407 h -2.777343 v 2.11328 h 2.96875 V 304.5 h -3.757813 z"
       style="font-size:8px;font-family:Raleway;text-anchor:middle;fill:#000000;stroke:none;stroke-width:1px;text-rendering:geometricPrecision"
       id="path6372" />
    <path
       d="m 38.535156,298.66797 h 0.789063 v 5.16797 h 2.839843 V 304.5 h -3.628906 z"
       style="font-size:8px;font-family:Raleway;text-anchor:middle;fill:#000000;stroke:none;stroke-width:1px;text-rendering:geometricPrecision"
       id="path6374" />
    <path
       d="m 42.988281,298.66797 h 3.6875 v 0.66406 h -2.898437 v 1.72656 h 2.777343 v 0.66407 h -2.777343 v 2.11328 h 2.96875 V 304.5 h -3.757813 z"
       style="font-size:8px;font-family:Raleway;text-anchor:middle;fill:#000000;stroke:none;stroke-width:1px;text-rendering:geometricPrecision"
       id="path6376" />
    <path
       d="m 50,299.44531 -1.070313,2.90235 h 2.144532 z m -0.445313,-0.77734 h 0.894532 L 52.671875,304.5 h -0.820313 l -0.53125,-1.49609 H 48.691406 L 48.160156,304.5 h -0.832031 z"
       style="font-size:8px;font-family:Raleway;text-anchor:middle;fill:#000000;stroke:none;stroke-width:1px;text-rendering:geometricPrecision"
       id="path6378" />
    <path
       d="m 57.015625,298.85937 v 0.76954 q -0.449219,-0.21485 -0.847656,-0.32032 -0.398438,-0.10547 -0.769532,-0.10547 -0.644531,0 -0.996093,0.25 -0.347657,0.25 -0.347657,0.71094 0,0.38672 0.230469,0.58594 0.234375,0.19531 0.882813,0.31641 l 0.476562,0.0976 q 0.882813,0.16797 1.300781,0.59375 0.421875,0.42188 0.421875,1.13281 0,0.84766 -0.570312,1.28516 -0.566406,0.4375 -1.664063,0.4375 -0.414062,0 -0.882812,-0.0937 -0.464844,-0.0937 -0.964844,-0.27734 v -0.8125 q 0.480469,0.26953 0.941406,0.40625 0.460938,0.13672 0.90625,0.13672 0.675782,0 1.042969,-0.26563 0.367188,-0.26562 0.367188,-0.75781 0,-0.42969 -0.265625,-0.67188 -0.261719,-0.24218 -0.863282,-0.36328 l -0.480468,-0.0937 q -0.882813,-0.17578 -1.277344,-0.55078 -0.394531,-0.375 -0.394531,-1.04297 0,-0.77344 0.542968,-1.21875 0.546875,-0.44531 1.503907,-0.44531 0.410156,0 0.835937,0.0742 0.425781,0.0742 0.871094,0.22265 z"
       style="font-size:8px;font-family:Raleway;text-anchor:middle;fill:#000000;stroke:none;stroke-width:1px;text-rendering:geometricPrecision"
       id="path6380" />
    <path
       d="m 58.597656,298.66797 h 3.6875 v 0.66406 h -2.898437 v 1.72656 h 2.777343 v 0.66407 h -2.777343 v 2.11328 h 2.96875 V 304.5 h -3.757813 z"
       style="font-size:8px;font-family:Raleway;text-anchor:middle;fill:#000000;stroke:none;stroke-width:1px;text-rendering:geometricPrecision"
       id="path6382" />
  </g>
  <g
     aria-label="CV"
     style="font-size:6px;font-family:Raleway;text-anchor:middle;fill:#000000;stroke:none;stroke-width:1px;text-rendering:geometricPrecision"
     id="text7">
    <path
       d="m 17.21582,61.962891 v 0.624023 q -0.298828,-0.27832 -0.638672,-0.416016 -0.336914,-0.137695 -0.717773,-0.137695 -0.75,0 -1.148437,0.459961 -0.398438,0.457031 -0.398438,1.324219 0,0.864258 0.398438,1.324219 0.398437,0.457031 1.148437,0.457031 0.380859,0 0.717773,-0.137696 0.339844,-0.137695 0.638672,-0.416015 v 0.618164 q -0.310547,0.210937 -0.659179,0.316406 -0.345704,0.105469 -0.732422,0.105469 -0.993164,0 -1.564453,-0.606445 -0.571289,-0.609375 -0.571289,-1.661133 0,-1.054688 0.571289,-1.661133 0.571289,-0.609375 1.564453,-0.609375 0.392578,0 0.738281,0.105469 0.348633,0.102539 0.65332,0.310547 z"
       style="font-size:6px;font-family:Raleway;text-anchor:middle;fill:#000000;stroke:none;stroke-width:1px;text-rendering:geometricPrecision"
       id="path6385" />
    <path
       d="M 19.263672,66 17.59375,61.625977 h 0.618164 l 1.385742,3.682617 1.388672,-3.682617 h 0.615234 L 19.93457,66 Z"
       style="font-size:6px;font-family:Raleway;text-anchor:middle;fill:#000000;stroke:none;stroke-width:1px;text-rendering:geometricPrecision"
       id="path6387" />
  </g>
  <g
     aria-label="TIME"
     style="font-size:6px;font-family:Raleway;text-anchor:middle;fill:#000000;stroke:none;stroke-width:1px;text-rendering:geometricPrecision"
     id="text37">
    <path
       d="m 37.775391,61.625977 h 3.700195 v 0.498046 H 39.922852 V 66 h -0.594727 v -3.875977 h -1.552734 z"
       style="font-size:6px;font-family:Raleway;text-anchor:middle;fill:#000000;stroke:none;stroke-width:1px;text-rendering:geometricPrecision"
       id="path6390" />
    <path
       d="m 42.049805,61.625977 h 0.591797 V 66 h -0.591797 z"
       style="font-size:6px;font-family:Raleway;text-anchor:middle;fill:#000000;stroke:none;stroke-width:1px;text-rendering:geometricPrecision"
       id="path6392" />
    <path
       d="m 43.819336,61.625977 h 0.881836 l 1.116211,2.976562 1.12207,-2.976562 h 0.881836 V 66 h -0.577148 v -3.84082 l -1.12793,3 h -0.594727 l -1.127929,-3 V 66 h -0.574219 z"
       style="font-size:6px;font-family:Raleway;text-anchor:middle;fill:#000000;stroke:none;stroke-width:1px;text-rendering:geometricPrecision"
       id="path6394" />
    <path
       d="m 48.999023,61.625977 h 2.765625 v 0.498046 H 49.59082 v 1.294922 h 2.083008 v 0.498047 H 49.59082 v 1.584961 h 2.226563 V 66 h -2.81836 z"
       style="font-size:6px;font-family:Raleway;text-anchor:middle;fill:#000000;stroke:none;stroke-width:1px;text-rendering:geometricPrecision"
       id="path6396" />
  </g>
  <g
     aria-label="0"
     style="font-size:5px;font-family:Raleway;text-anchor:middle;fill:#000000;stroke:none;stroke-width:1px;text-rendering:geometricPrecision"
     id="text39">
    <path
       d="m 33.497559,57.679687 q -0.38086,0 -0.573731,0.375977 -0.19043,0.373535 -0.19043,1.125488 0,0.749512 0.19043,1.125489 0.192871,0.373535 0.573731,0.373535 0.3833,0 0.57373,-0.373535 0.192871,-0.375977 0.192871,-1.125489 0,-0.751953 -0.192871,-1.125488 -0.19043,-0.375977 -0.57373,-0.375977 z m 0,-0.390625 q 0.612793,0 0.935058,0.48584 0.324707,0.483399 0.324707,1.40625 0,0.92041 -0.324707,1.40625 -0.322265,0.483399 -0.935058,0.483399 -0.612793,0 -0.9375,-0.483399 -0.322266,-0.48584 -0.322266,-1.40625 0,-0.922851 0.322266,-1.40625 0.324707,-0.48584 0.9375,-0.48584 z"
       style="font-size:5px;font-family:Raleway;text-anchor:middle;fill:#000000;stroke:none;stroke-width:1px;text-rendering:geometricPrecision"
       id="path6399" />
  </g>
  <g
     aria-label="5"
     style="font-size:5px;font-family:Raleway;text-anchor:middle;fill:#000000;stroke:none;stroke-width:1px;text-rendering:geometricPrecision"
     id="text41">
    <path
       d="m 55.447754,57.35498 h 1.936035 v 0.41504 h -1.484375 v 0.893554 q 0.107422,-0.03662 0.214844,-0.05371 0.107422,-0.01953 0.214844,-0.01953 0.610351,0 0.966796,0.334473 0.356446,0.334472 0.356446,0.905761 0,0.588379 -0.366211,0.915528 -0.366211,0.324707 -1.032715,0.324707 -0.229492,0 -0.46875,-0.03906 -0.236816,-0.03906 -0.490723,-0.117187 v -0.495606 q 0.219727,0.119629 0.454102,0.178223 0.234375,0.05859 0.495605,0.05859 0.422364,0 0.668946,-0.222168 0.246582,-0.222168 0.246582,-0.603028 0,-0.380859 -0.246582,-0.603027 -0.246582,-0.222168 -0.668946,-0.222168 -0.197754,0 -0.395507,0.04395 -0.195313,0.04395 -0.400391,0.136719 z"
       style="font-size:5px;font-family:Raleway;text-anchor:middle;fill:#000000;stroke:none;stroke-width:1px;text-rendering:geometricPrecision"
       id="path6402" />
  </g>
  <g
     aria-label="EXP"
     style="font-size:6px;font-family:Raleway;text-anchor:middle;fill:#000000;stroke:none;stroke-width:1px;text-rendering:geometricPrecision"
     id="text43">
    <path
       d="m 66.323242,25.625977 h 2.765625 v 0.498046 h -2.173828 v 1.294922 h 2.083008 v 0.498047 h -2.083008 v 1.584961 h 2.226563 V 30 h -2.81836 z"
       style="font-size:6px;font-family:Raleway;text-anchor:middle;fill:#000000;stroke:none;stroke-width:1px;text-rendering:geometricPrecision"
       id="path6405" />
    <path
       d="m 69.90918,25.625977 h 0.635742 l 1.086914,1.625976 1.092773,-1.625976 h 0.635743 l -1.40625,2.100585 1.5,2.273438 H 72.818359 L 71.587891,28.139648 70.348633,30 h -0.638672 l 1.561523,-2.334961 z"
       style="font-size:6px;font-family:Raleway;text-anchor:middle;fill:#000000;stroke:none;stroke-width:1px;text-rendering:geometricPrecision"
       id="path6407" />
    <path
       d="m 74.825195,26.112305 v 1.643554 h 0.744141 q 0.413086,0 0.638672,-0.213867 0.225586,-0.213867 0.225586,-0.609375 0,-0.392578 -0.225586,-0.606445 -0.225586,-0.213867 -0.638672,-0.213867 z m -0.591797,-0.486328 h 1.335938 q 0.735351,0 1.110351,0.333984 0.37793,0.331055 0.37793,0.972656 0,0.647461 -0.37793,0.978516 -0.375,0.331054 -1.110351,0.331054 H 74.825195 V 30 h -0.591797 z"
       style="font-size:6px;font-family:Raleway;text-anchor:middle;fill:#000000;stroke:none;stroke-width:1px;text-rendering:geometricPrecision"
       id="path6409" />
  </g>
  <g
     aria-label="LIN"
     style="font-size:6px;font-family:Raleway;text-anchor:middle;fill:#000000;stroke:none;stroke-width:1px;text-rendering:geometricPrecision"
     id="text45">
    <path
       d="m 68.290039,61.625977 h 0.591797 v 3.875976 h 2.129883 V 66 h -2.72168 z"
       style="font-size:6px;font-family:Raleway;text-anchor:middle;fill:#000000;stroke:none;stroke-width:1px;text-rendering:geometricPrecision"
       id="path6412" />
    <path
       d="M 71.629883,61.625977 H 72.22168 V 66 h -0.591797 z"
       style="font-size:6px;font-family:Raleway;text-anchor:middle;fill:#000000;stroke:none;stroke-width:1px;text-rendering:geometricPrecision"
       id="path6414" />
    <path
       d="m 73.399414,61.625977 h 0.796875 l 1.939453,3.659179 v -3.659179 h 0.574219 V 66 H 75.913086 L 73.973633,62.34082 V 66 h -0.574219 z"
       style="font-size:6px;font-family:Raleway;text-anchor:middle;fill:#000000;stroke:none;stroke-width:1px;text-rendering:geometricPrecision"
       id="path6416" />
  </g>
  <g
     aria-label="CV"
     style="font-size:6px;font-family:Raleway;text-anchor:middle;fill:#000000;stroke:none;stroke-width:1px;text-rendering:geometricPrecision"
     id="text47">
    <path
       d="m 17.21582,121.96289 v 0.62402 q -0.298828,-0.27832 -0.638672,-0.41601 -0.336914,-0.1377 -0.717773,-0.1377 -0.75,0 -1.148437,0.45996 -0.398438,0.45704 -0.398438,1.32422 0,0.86426 0.398438,1.32422 0.398437,0.45703 1.148437,0.45703 0.380859,0 0.717773,-0.13769 0.339844,-0.1377 0.638672,-0.41602 v 0.61817 q -0.310547,0.21093 -0.659179,0.3164 -0.345704,0.10547 -0.732422,0.10547 -0.993164,0 -1.564453,-0.60644 -0.571289,-0.60938 -0.571289,-1.66114 0,-1.05468 0.571289,-1.66113 0.571289,-0.60937 1.564453,-0.60937 0.392578,0 0.738281,0.10546 0.348633,0.10254 0.65332,0.31055 z"
       style="font-size:6px;font-family:Raleway;text-anchor:middle;fill:#000000;stroke:none;stroke-width:1px;text-rendering:geometricPrecision"
       id="path6419" />
    <path
       d="m 19.263672,126 -1.669922,-4.37402 h 0.618164 l 1.385742,3.68261 1.388672,-3.68261 h 0.615234 L 19.93457,126 Z"
       style="font-size:6px;font-family:Raleway;text-anchor:middle;fill:#000000;stroke:none;stroke-width:1px;text-rendering:geometricPrecision"
       id="path6421" />
  </g>
  <g
     aria-label="TIME"
     style="font-size:6px;font-family:Raleway;text-anchor:middle;fill:#000000;stroke:none;stroke-width:1px;text-rendering:geometricPrecision"
     id="text49">
    <path
       d="m 37.775391,121.62598 h 3.700195 v 0.49804 H 39.922852 V 126 h -0.594727 v -3.87598 h -1.552734 z"
       style="font-size:6px;font-family:Raleway;text-anchor:middle;fill:#000000;stroke:none;stroke-width:1px;text-rendering:geometricPrecision"
       id="path6424" />
    <path
       d="m 42.049805,121.62598 h 0.591797 V 126 h -0.591797 z"
       style="font-size:6px;font-family:Raleway;text-anchor:middle;fill:#000000;stroke:none;stroke-width:1px;text-rendering:geometricPrecision"
       id="path6426" />
    <path
       d="m 43.819336,121.62598 h 0.881836 l 1.116211,2.97656 1.12207,-2.97656 h 0.881836 V 126 h -0.577148 v -3.84082 l -1.12793,3 h -0.594727 l -1.127929,-3 V 126 h -0.574219 z"
       style="font-size:6px;font-family:Raleway;text-anchor:middle;fill:#000000;stroke:none;stroke-width:1px;text-rendering:geometricPrecision"
       id="path6428" />
    <path
       d="m 48.999023,121.62598 h 2.765625 v 0.49804 H 49.59082 v 1.29493 h 2.083008 v 0.49804 H 49.59082 v 1.58496 h 2.226563 V 126 h -2.81836 z"
       style="font-size:6px;font-family:Raleway;text-anchor:middle;fill:#000000;stroke:none;stroke-width:1px;text-rendering:geometricPrecision"
       id="path6430" />
  </g>
  <g
     aria-label="0"
     style="font-size:5px;font-family:Raleway;text-anchor:middle;fill:#000000;stroke:none;stroke-width:1px;text-rendering:geometricPrecision"
     id="text51">
    <path
       d="m 33.497559,117.67969 q -0.38086,0 -0.573731,0.37597 -0.19043,0.37354 -0.19043,1.12549 0,0.74951 0.19043,1.12549 0.192871,0.37354 0.573731,0.37354 0.3833,0 0.57373,-0.37354 0.192871,-0.37598 0.192871,-1.12549 0,-0.75195 -0.192871,-1.12549 -0.19043,-0.37597 -0.57373,-0.37597 z m 0,-0.39063 q 0.612793,0 0.935058,0.48584 0.324707,0.4834 0.324707,1.40625 0,0.92041 -0.324707,1.40625 -0.322265,0.4834 -0.935058,0.4834 -0.612793,0 -0.9375,-0.4834 -0.322266,-0.48584 -0.322266,-1.40625 0,-0.92285 0.322266,-1.40625 0.324707,-0.48584 0.9375,-0.48584 z"
       style="font-size:5px;font-family:Raleway;text-anchor:middle;fill:#000000;stroke:none;stroke-width:1px;text-rendering:geometricPrecision"
       id="path6433" />
  </g>
  <g
     aria-label="5"
     style="font-size:5px;font-family:Raleway;text-anchor:middle;fill:#000000;stroke:none;stroke-width:1px;text-rendering:geometricPrecision"
     id="text53">
    <path
       d="m 55.447754,117.35498 h 1.936035 v 0.41504 h -1.484375 v 0.89355 q 0.107422,-0.0366 0.214844,-0.0537 0.107422,-0.0195 0.214844,-0.0195 0.610351,0 0.966796,0.33447 0.356446,0.33448 0.356446,0.90577 0,0.58838 -0.366211,0.91552 -0.366211,0.32471 -1.032715,0.32471 -0.229492,0 -0.46875,-0.0391 -0.236816,-0.0391 -0.490723,-0.11719 v -0.4956 q 0.219727,0.11962 0.454102,0.17822 0.234375,0.0586 0.495605,0.0586 0.422364,0 0.668946,-0.22217 0.246582,-0.22216 0.246582,-0.60302 0,-0.38086 -0.246582,-0.60303 -0.246582,-0.22217 -0.668946,-0.22217 -0.197754,0 -0.395507,0.0439 -0.195313,0.0439 -0.400391,0.13672 z"
       style="font-size:5px;font-family:Raleway;text-anchor:middle;fill:#000000;stroke:none;stroke-width:1px;text-rendering:geometricPrecision"
       id="path6436" />
  </g>
  <g
     aria-label="EXP"
     style="font-size:6px;font-family:Raleway;text-anchor:middle;fill:#000000;stroke:none;stroke-width:1px;text-rendering:geometricPrecision"
     id="text55">
    <path
       d="m 66.323242,85.625977 h 2.765625 v 0.498046 h -2.173828 v 1.294922 h 2.083008 v 0.498047 h -2.083008 v 1.584961 h 2.226563 V 90 h -2.81836 z"
       style="font-size:6px;font-family:Raleway;text-anchor:middle;fill:#000000;stroke:none;stroke-width:1px;text-rendering:geometricPrecision"
       id="path6439" />
    <path
       d="m 69.90918,85.625977 h 0.635742 l 1.086914,1.625976 1.092773,-1.625976 h 0.635743 l -1.40625,2.100585 1.5,2.273438 H 72.818359 L 71.587891,88.139648 70.348633,90 h -0.638672 l 1.561523,-2.334961 z"
       style="font-size:6px;font-family:Raleway;text-anchor:middle;fill:#000000;stroke:none;stroke-width:1px;text-rendering:geometricPrecision"
       id="path6441" />
    <path
       d="m 74.825195,86.112305 v 1.643554 h 0.744141 q 0.413086,0 0.638672,-0.213867 0.225586,-0.213867 0.225586,-0.609375 0,-0.392578 -0.225586,-0.606445 -0.225586,-0.213867 -0.638672,-0.213867 z m -0.591797,-0.486328 h 1.335938 q 0.735351,0 1.110351,0.333984 0.37793,0.331055 0.37793,0.972656 0,0.647461 -0.37793,0.978516 -0.375,0.331054 -1.110351,0.331054 H 74.825195 V 90 h -0.591797 z"
       style="font-size:6px;font-family:Raleway;text-anchor:middle;fill:#000000;stroke:none;stroke-width:1px;text-rendering:geometricPrecision"
       id="path6443" />
  </g>
  <g
     aria-label="LIN"
     style="font-size:6px;font-family:Raleway;text-anchor:middle;fill:#000000;stroke:none;stroke-width:1px;text-rendering:geometricPrecision"
     id="text57">
    <path
       d="m 68.290039,121.62598 h 0.591797 v 3.87597 h 2.129883 V 126 h -2.72168 z"
       style="font-size:6px;font-family:Raleway;text-anchor:middle;fill:#000000;stroke:none;stroke-width:1px;text-rendering:geometricPrecision"
       id="path6446" />
    <path
       d="M 71.629883,121.62598 H 72.22168 V 126 h -0.591797 z"
       style="font-size:6px;font-family:Raleway;text-anchor:middle;fill:#000000;stroke:none;stroke-width:1px;text-rendering:geometricPrecision"
       id="path6448" />
    <path
       d="m 73.399414,121.62598 h 0.796875 l 1.939453,3.65918 v -3.65918 h 0.574219 V 126 h -0.796875 l -1.939453,-3.65918 V 126 h -0.574219 z"
       style="font-size:6px;font-family:Raleway;text-anchor:middle;fill:#000000;stroke:none;stroke-width:1px;text-rendering:geometricPrecision"
       id="path6450" />
  </g>
  <g
     aria-label="CV"
     style="font-size:6px;font-family:Raleway;text-anchor:middle;fill:#000000;stroke:none;stroke-width:1px;text-rendering:geometricPrecision"
     id="text59">
    <path
       d="m 22.21582,181.96289 v 0.62402 q -0.298828,-0.27832 -0.638672,-0.41601 -0.336914,-0.1377 -0.717773,-0.1377 -0.75,0 -1.148438,0.45996 -0.398437,0.45704 -0.398437,1.32422 0,0.86426 0.398437,1.32422 0.398438,0.45703 1.148438,0.45703 0.380859,0 0.717773,-0.13769 0.339844,-0.1377 0.638672,-0.41602 v 0.61817 q -0.310547,0.21093 -0.659179,0.3164 -0.345704,0.10547 -0.732422,0.10547 -0.993164,0 -1.564453,-0.60644 -0.571289,-0.60938 -0.571289,-1.66114 0,-1.05468 0.571289,-1.66113 0.571289,-0.60938 1.564453,-0.60938 0.392578,0 0.738281,0.10547 0.348633,0.10254 0.65332,0.31055 z"
       style="font-size:6px;font-family:Raleway;text-anchor:middle;fill:#000000;stroke:none;stroke-width:1px;text-rendering:geometricPrecision"
       id="path6453" />
    <path
       d="m 24.263672,186 -1.669922,-4.37402 h 0.618164 l 1.385742,3.68261 1.388672,-3.68261 h 0.615234 L 24.93457,186 Z"
       style="font-size:6px;font-family:Raleway;text-anchor:middle;fill:#000000;stroke:none;stroke-width:1px;text-rendering:geometricPrecision"
       id="path6455" />
  </g>
  <g
     aria-label="TIME"
     style="font-size:6px;font-family:Raleway;text-anchor:middle;fill:#000000;stroke:none;stroke-width:1px;text-rendering:geometricPrecision"
     id="text61">
    <path
       d="m 60.275391,181.62598 h 3.700195 v 0.49804 H 62.422852 V 186 h -0.594727 v -3.87598 h -1.552734 z"
       style="font-size:6px;font-family:Raleway;text-anchor:middle;fill:#000000;stroke:none;stroke-width:1px;text-rendering:geometricPrecision"
       id="path6458" />
    <path
       d="m 64.549805,181.62598 h 0.591797 V 186 h -0.591797 z"
       style="font-size:6px;font-family:Raleway;text-anchor:middle;fill:#000000;stroke:none;stroke-width:1px;text-rendering:geometricPrecision"
       id="path6460" />
    <path
       d="m 66.319336,181.62598 h 0.881836 l 1.116211,2.97656 1.12207,-2.97656 h 0.881836 V 186 h -0.577148 v -3.84082 l -1.12793,3 h -0.594727 l -1.127929,-3 V 186 h -0.574219 z"
       style="font-size:6px;font-family:Raleway;text-anchor:middle;fill:#000000;stroke:none;stroke-width:1px;text-rendering:geometricPrecision"
       id="path6462" />
    <path
       d="m 71.499023,181.62598 h 2.765625 v 0.49804 H 72.09082 v 1.29493 h 2.083008 v 0.49804 H 72.09082 v 1.58496 h 2.226563 V 186 h -2.81836 z"
       style="font-size:6px;font-family:Raleway;text-anchor:middle;fill:#000000;stroke:none;stroke-width:1px;text-rendering:geometricPrecision"
       id="path6464" />
  </g>
  <g
     aria-label="0"
     style="font-size:5px;font-family:Raleway;text-anchor:middle;fill:#000000;stroke:none;stroke-width:1px;text-rendering:geometricPrecision"
     id="text63">
    <path
       d="m 55.997559,177.67969 q -0.38086,0 -0.573731,0.37597 -0.19043,0.37354 -0.19043,1.12549 0,0.74951 0.19043,1.12549 0.192871,0.37354 0.573731,0.37354 0.3833,0 0.57373,-0.37354 0.192871,-0.37598 0.192871,-1.12549 0,-0.75195 -0.192871,-1.12549 -0.19043,-0.37597 -0.57373,-0.37597 z m 0,-0.39063 q 0.612793,0 0.935058,0.48584 0.324707,0.4834 0.324707,1.40625 0,0.92041 -0.324707,1.40625 -0.322265,0.4834 -0.935058,0.4834 -0.612793,0 -0.9375,-0.4834 -0.322266,-0.48584 -0.322266,-1.40625 0,-0.92285 0.322266,-1.40625 0.324707,-0.48584 0.9375,-0.48584 z"
       style="font-size:5px;font-family:Raleway;text-anchor:middle;fill:#000000;stroke:none;stroke-width:1px;text-rendering:geometricPrecision"
       id="path6467" />
  </g>
  <g
     aria-label="5"
     style="font-size:5px;font-family:Raleway;text-anchor:middle;fill:#000000;stroke:none;stroke-width:1px;text-rendering:geometricPrecision"
     id="text65">
    <path
       d="m 77.947754,177.35498 h 1.936035 v 0.41504 h -1.484375 v 0.89355 q 0.107422,-0.0366 0.214844,-0.0537 0.107422,-0.0195 0.214844,-0.0195 0.610351,0 0.966796,0.33447 0.356446,0.33448 0.356446,0.90577 0,0.58838 -0.366211,0.91552 -0.366211,0.32471 -1.032715,0.32471 -0.229492,0 -0.46875,-0.0391 -0.236816,-0.0391 -0.490723,-0.11719 v -0.4956 q 0.219727,0.11962 0.454102,0.17822 0.234375,0.0586 0.495605,0.0586 0.422364,0 0.668946,-0.22217 0.246582,-0.22216 0.246582,-0.60302 0,-0.38086 -0.246582,-0.60303 -0.246582,-0.22217 -0.668946,-0.22217 -0.197754,0 -0.395507,0.0439 -0.195313,0.0439 -0.400391,0.13672 z"
       style="font-size:5px;font-family:Raleway;text-anchor:middle;fill:#000000;stroke:none;stroke-width:1px;text-rendering:geometricPrecision"
       id="path6470" />
  </g>
  <path
     style="stroke:#222222"
     d="M 30,191 H 60"
     id="line67" />
  <g
     aria-label="CV"
     style="font-size:6px;font-family:Raleway;text-anchor:middle;fill:#000000;stroke:none;stroke-width:1px;text-rendering:geometricPrecision"
     id="text69">
    <path
       d="m 22.21582,231.96289 v 0.62402 q -0.298828,-0.27832 -0.638672,-0.41601 -0.336914,-0.1377 -0.717773,-0.1377 -0.75,0 -1.148438,0.45996 -0.398437,0.45704 -0.398437,1.32422 0,0.86426 0.398437,1.32422 0.398438,0.45703 1.148438,0.45703 0.380859,0 0.717773,-0.13769 0.339844,-0.1377 0.638672,-0.41602 v 0.61817 q -0.310547,0.21093 -0.659179,0.3164 -0.345704,0.10547 -0.732422,0.10547 -0.993164,0 -1.564453,-0.60644 -0.571289,-0.60938 -0.571289,-1.66114 0,-1.05468 0.571289,-1.66113 0.571289,-0.60938 1.564453,-0.60938 0.392578,0 0.738281,0.10547 0.348633,0.10254 0.65332,0.31055 z"
       style="font-size:6px;font-family:Raleway;text-anchor:middle;fill:#000000;stroke:none;stroke-width:1px;text-rendering:geometricPrecision"
       id="path6474" />
    <path
       d="m 24.263672,236 -1.669922,-4.37402 h 0.618164 l 1.385742,3.68261 1.388672,-3.68261 h 0.615234 L 24.93457,236 Z"
       style="font-size:6px;font-family:Raleway;text-anchor:middle;fill:#000000;stroke:none;stroke-width:1px;text-rendering:geometricPrecision"
       id="path6476" />
  </g>
  <g
     aria-label="LEVEL"
     style="font-size:6px;font-family:Raleway;text-anchor:middle;fill:#000000;stroke:none;stroke-width:1px;text-rendering:geometricPrecision"
     id="text71">
    <path
       d="m 58.901367,231.62598 h 0.591797 v 3.87597 h 2.129883 V 236 h -2.72168 z"
       style="font-size:6px;font-family:Raleway;text-anchor:middle;fill:#000000;stroke:none;stroke-width:1px;text-rendering:geometricPrecision"
       id="path6479" />
    <path
       d="m 62.241211,231.62598 h 2.765625 v 0.49804 h -2.173828 v 1.29493 h 2.083008 v 0.49804 h -2.083008 v 1.58496 H 65.05957 V 236 h -2.818359 z"
       style="font-size:6px;font-family:Raleway;text-anchor:middle;fill:#000000;stroke:none;stroke-width:1px;text-rendering:geometricPrecision"
       id="path6481" />
    <path
       d="m 67.166016,236 -1.669922,-4.37402 h 0.618164 l 1.385742,3.68261 1.388672,-3.68261 h 0.615234 L 67.836914,236 Z"
       style="font-size:6px;font-family:Raleway;text-anchor:middle;fill:#000000;stroke:none;stroke-width:1px;text-rendering:geometricPrecision"
       id="path6483" />
    <path
       d="m 70.139648,231.62598 h 2.765625 v 0.49804 h -2.173828 v 1.29493 h 2.083008 v 0.49804 h -2.083008 v 1.58496 h 2.226563 V 236 h -2.81836 z"
       style="font-size:6px;font-family:Raleway;text-anchor:middle;fill:#000000;stroke:none;stroke-width:1px;text-rendering:geometricPrecision"
       id="path6485" />
    <path
       d="m 73.936523,231.62598 h 0.591797 v 3.87597 h 2.129883 V 236 h -2.72168 z"
       style="font-size:6px;font-family:Raleway;text-anchor:middle;fill:#000000;stroke:none;stroke-width:1px;text-rendering:geometricPrecision"
       id="path6487" />
  </g>
  <g
     aria-label="0"
     style="font-size:5px;font-family:Raleway;text-anchor:middle;fill:#000000;stroke:none;stroke-width:1px;text-rendering:geometricPrecision"
     id="text73">
    <path
       d="m 55.997559,227.67969 q -0.38086,0 -0.573731,0.37597 -0.19043,0.37354 -0.19043,1.12549 0,0.74951 0.19043,1.12549 0.192871,0.37354 0.573731,0.37354 0.3833,0 0.57373,-0.37354 0.192871,-0.37598 0.192871,-1.12549 0,-0.75195 -0.192871,-1.12549 -0.19043,-0.37597 -0.57373,-0.37597 z m 0,-0.39063 q 0.612793,0 0.935058,0.48584 0.324707,0.4834 0.324707,1.40625 0,0.92041 -0.324707,1.40625 -0.322265,0.4834 -0.935058,0.4834 -0.612793,0 -0.9375,-0.4834 -0.322266,-0.48584 -0.322266,-1.40625 0,-0.92285 0.322266,-1.40625 0.324707,-0.48584 0.9375,-0.48584 z"
       style="font-size:5px;font-family:Raleway;text-anchor:middle;fill:#000000;stroke:none;stroke-width:1px;text-rendering:geometricPrecision"
       id="path6490" />
  </g>
  <g
     aria-label="5"
     style="font-size:5px;font-family:Raleway;text-anchor:middle;fill:#000000;stroke:none;stroke-width:1px;text-rendering:geometricPrecision"
     id="text75">
    <path
       d="m 77.947754,227.35498 h 1.936035 v 0.41504 h -1.484375 v 0.89355 q 0.107422,-0.0366 0.214844,-0.0537 0.107422,-0.0195 0.214844,-0.0195 0.610351,0 0.966796,0.33447 0.356446,0.33448 0.356446,0.90577 0,0.58838 -0.366211,0.91552 -0.366211,0.32471 -1.032715,0.32471 -0.229492,0 -0.46875,-0.0391 -0.236816,-0.0391 -0.490723,-0.11719 v -0.4956 q 0.219727,0.11962 0.454102,0.17822 0.234375,0.0586 0.495605,0.0586 0.422364,0 0.668946,-0.22217 0.246582,-0.22216 0.246582,-0.60302 0,-0.38086 -0.246582,-0.60303 -0.246582,-0.22217 -0.668946,-0.22217 -0.197754,0 -0.395507,0.0439 -0.195313,0.0439 -0.400391,0.13672 z"
       style="font-size:5px;font-family:Raleway;text-anchor:middle;fill:#000000;stroke:none;stroke-width:1px;text-rendering:geometricPrecision"
       id="path6493" />
  </g>
  <g
     aria-label="CV"
     style="font-size:6px;font-family:Raleway;text-anchor:middle;fill:#000000;stroke:none;stroke-width:1px;text-rendering:geometricPrecision"
     id="text77">
    <path
       d="m 17.21582,291.96289 v 0.62402 q -0.298828,-0.27832 -0.638672,-0.41601 -0.336914,-0.1377 -0.717773,-0.1377 -0.75,0 -1.148437,0.45996 -0.398438,0.45704 -0.398438,1.32422 0,0.86426 0.398438,1.32422 0.398437,0.45703 1.148437,0.45703 0.380859,0 0.717773,-0.13769 0.339844,-0.1377 0.638672,-0.41602 v 0.61817 q -0.310547,0.21093 -0.659179,0.3164 -0.345704,0.10547 -0.732422,0.10547 -0.993164,0 -1.564453,-0.60644 -0.571289,-0.60938 -0.571289,-1.66114 0,-1.05468 0.571289,-1.66113 0.571289,-0.60938 1.564453,-0.60938 0.392578,0 0.738281,0.10547 0.348633,0.10254 0.65332,0.31055 z"
       style="font-size:6px;font-family:Raleway;text-anchor:middle;fill:#000000;stroke:none;stroke-width:1px;text-rendering:geometricPrecision"
       id="path6496" />
    <path
       d="m 19.263672,296 -1.669922,-4.37402 h 0.618164 l 1.385742,3.68261 1.388672,-3.68261 h 0.615234 L 19.93457,296 Z"
       style="font-size:6px;font-family:Raleway;text-anchor:middle;fill:#000000;stroke:none;stroke-width:1px;text-rendering:geometricPrecision"
       id="path6498" />
  </g>
  <g
     aria-label="TIME"
     style="font-size:6px;font-family:Raleway;text-anchor:middle;fill:#000000;stroke:none;stroke-width:1px;text-rendering:geometricPrecision"
     id="text79">
    <path
       d="m 37.775391,291.62598 h 3.700195 v 0.49804 H 39.922852 V 296 h -0.594727 v -3.87598 h -1.552734 z"
       style="font-size:6px;font-family:Raleway;text-anchor:middle;fill:#000000;stroke:none;stroke-width:1px;text-rendering:geometricPrecision"
       id="path6501" />
    <path
       d="m 42.049805,291.62598 h 0.591797 V 296 h -0.591797 z"
       style="font-size:6px;font-family:Raleway;text-anchor:middle;fill:#000000;stroke:none;stroke-width:1px;text-rendering:geometricPrecision"
       id="path6503" />
    <path
       d="m 43.819336,291.62598 h 0.881836 l 1.116211,2.97656 1.12207,-2.97656 h 0.881836 V 296 h -0.577148 v -3.84082 l -1.12793,3 h -0.594727 l -1.127929,-3 V 296 h -0.574219 z"
       style="font-size:6px;font-family:Raleway;text-anchor:middle;fill:#000000;stroke:none;stroke-width:1px;text-rendering:geometricPrecision"
       id="path6505" />
    <path
       d="m 48.999023,291.62598 h 2.765625 v 0.49804 H 49.59082 v 1.29493 h 2.083008 v 0.49804 H 49.59082 v 1.58496 h 2.226563 V 296 h -2.81836 z"
       style="font-size:6px;font-family:Raleway;text-anchor:middle;fill:#000000;stroke:none;stroke-width:1px;text-rendering:geometricPrecision"
       id="path6507" />
  </g>
  <g
     aria-label="0"
     style="font-size:5px;font-family:Raleway;text-anchor:middle;fill:#000000;stroke:none;stroke-width:1px;text-rendering:geometricPrecision"
     id="text81">
    <path
       d="m 33.497559,287.67969 q -0.38086,0 -0.573731,0.37597 -0.19043,0.37354 -0.19043,1.12549 0,0.74951 0.19043,1.12549 0.192871,0.37354 0.573731,0.37354 0.3833,0 0.57373,-0.37354 0.192871,-0.37598 0.192871,-1.12549 0,-0.75195 -0.192871,-1.12549 -0.19043,-0.37597 -0.57373,-0.37597 z m 0,-0.39063 q 0.612793,0 0.935058,0.48584 0.324707,0.4834 0.324707,1.40625 0,0.92041 -0.324707,1.40625 -0.322265,0.4834 -0.935058,0.4834 -0.612793,0 -0.9375,-0.4834 -0.322266,-0.48584 -0.322266,-1.40625 0,-0.92285 0.322266,-1.40625 0.324707,-0.48584 0.9375,-0.48584 z"
       style="font-size:5px;font-family:Raleway;text-anchor:middle;fill:#000000;stroke:none;stroke-width:1px;text-rendering:geometricPrecision"
       id="path6510" />
  </g>
  <g
     aria-label="5"
     style="font-size:5px;font-family:Raleway;text-anchor:middle;fill:#000000;stroke:none;stroke-width:1px;text-rendering:geometricPrecision"
     id="text83">
    <path
       d="m 55.447754,287.35498 h 1.936035 v 0.41504 h -1.484375 v 0.89355 q 0.107422,-0.0366 0.214844,-0.0537 0.107422,-0.0195 0.214844,-0.0195 0.610351,0 0.966796,0.33447 0.356446,0.33448 0.356446,0.90577 0,0.58838 -0.366211,0.91552 -0.366211,0.32471 -1.032715,0.32471 -0.229492,0 -0.46875,-0.0391 -0.236816,-0.0391 -0.490723,-0.11719 v -0.4956 q 0.219727,0.11962 0.454102,0.17822 0.234375,0.0586 0.495605,0.0586 0.422364,0 0.668946,-0.22217 0.246582,-0.22216 0.246582,-0.60302 0,-0.38086 -0.246582,-0.60303 -0.246582,-0.22217 -0.668946,-0.22217 -0.197754,0 -0.395507,0.0439 -0.195313,0.0439 -0.400391,0.13672 z"
       style="font-size:5px;font-family:Raleway;text-anchor:middle;fill:#000000;stroke:none;stroke-width:1px;text-rendering:geometricPrecision"
       id="path6513" />
  </g>
  <g
     aria-label="EXP"
     style="font-size:6px;font-family:Raleway;text-anchor:middle;fill:#000000;stroke:none;stroke-width:1px;text-rendering:geometricPrecision"
     id="text85">
    <path
       d="m 66.323242,255.62598 h 2.765625 v 0.49804 h -2.173828 v 1.29493 h 2.083008 v 0.49804 h -2.083008 v 1.58496 h 2.226563 V 260 h -2.81836 z"
       style="font-size:6px;font-family:Raleway;text-anchor:middle;fill:#000000;stroke:none;stroke-width:1px;text-rendering:geometricPrecision"
       id="path6516" />
    <path
       d="m 69.90918,255.62598 h 0.635742 l 1.086914,1.62597 1.092773,-1.62597 h 0.635743 l -1.40625,2.10058 1.5,2.27344 H 72.818359 L 71.587891,258.13965 70.348633,260 h -0.638672 l 1.561523,-2.33496 z"
       style="font-size:6px;font-family:Raleway;text-anchor:middle;fill:#000000;stroke:none;stroke-width:1px;text-rendering:geometricPrecision"
       id="path6518" />
    <path
       d="m 74.825195,256.1123 v 1.64356 h 0.744141 q 0.413086,0 0.638672,-0.21387 0.225586,-0.21387 0.225586,-0.60937 0,-0.39258 -0.225586,-0.60645 -0.225586,-0.21387 -0.638672,-0.21387 z m -0.591797,-0.48632 h 1.335938 q 0.735351,0 1.110351,0.33398 0.37793,0.33106 0.37793,0.97266 0,0.64746 -0.37793,0.97851 -0.375,0.33106 -1.110351,0.33106 H 74.825195 V 260 h -0.591797 z"
       style="font-size:6px;font-family:Raleway;text-anchor:middle;fill:#000000;stroke:none;stroke-width:1px;text-rendering:geometricPrecision"
       id="path6520" />
  </g>
  <g
     aria-label="LIN"
     style="font-size:6px;font-family:Raleway;text-anchor:middle;fill:#000000;stroke:none;stroke-width:1px;text-rendering:geometricPrecision"
     id="text87">
    <path
       d="m 68.290039,291.62598 h 0.591797 v 3.87597 h 2.129883 V 296 h -2.72168 z"
       style="font-size:6px;font-family:Raleway;text-anchor:middle;fill:#000000;stroke:none;stroke-width:1px;text-rendering:geometricPrecision"
       id="path6523" />
    <path
       d="M 71.629883,291.62598 H 72.22168 V 296 h -0.591797 z"
       style="font-size:6px;font-family:Raleway;text-anchor:middle;fill:#000000;stroke:none;stroke-width:1px;text-rendering:geometricPrecision"
       id="path6525" />
    <path
       d="m 73.399414,291.62598 h 0.796875 l 1.939453,3.65918 v -3.65918 h 0.574219 V 296 h -0.796875 l -1.939453,-3.65918 V 296 h -0.574219 z"
       style="font-size:6px;font-family:Raleway;text-anchor:middle;fill:#000000;stroke:none;stroke-width:1px;text-rendering:geometricPrecision"
       id="path6527" />
  </g>
  <g
     aria-label="GATE"
     style="font-size:6px;font-family:Raleway;text-anchor:middle;fill:#000000;stroke:none;stroke-width:1px;text-rendering:geometricPrecision"
     id="text89">
    <path
       d="m 18.196289,345.37598 v -1.17481 h -0.966797 v -0.48633 h 1.552735 v 1.87793 q -0.342774,0.24317 -0.75586,0.36914 -0.413086,0.12305 -0.881836,0.12305 -1.02539,0 -1.605468,-0.59766 -0.577149,-0.60058 -0.577149,-1.66992 0,-1.07226 0.577149,-1.66992 0.580078,-0.60059 1.605468,-0.60059 0.427735,0 0.811524,0.10547 0.386718,0.10547 0.711914,0.31055 v 0.62988 q -0.328125,-0.27832 -0.697266,-0.41894 -0.369141,-0.14063 -0.776367,-0.14063 -0.802734,0 -1.207031,0.44825 -0.401367,0.44824 -0.401367,1.33593 0,0.88477 0.401367,1.33301 0.404297,0.44824 1.207031,0.44824 0.313476,0 0.55957,-0.0527 0.246094,-0.0557 0.442383,-0.16992 z"
       style="font-size:6px;font-family:Raleway;text-anchor:middle;fill:#000000;stroke:none;stroke-width:1px;text-rendering:geometricPrecision"
       id="path6530" />
    <path
       d="m 21.328125,342.20898 -0.802734,2.17676 h 1.608398 z m -0.333984,-0.583 h 0.670898 L 23.332031,346 h -0.615234 l -0.398438,-1.12207 H 20.34668 L 19.948242,346 h -0.624023 z"
       style="font-size:6px;font-family:Raleway;text-anchor:middle;fill:#000000;stroke:none;stroke-width:1px;text-rendering:geometricPrecision"
       id="path6532" />
    <path
       d="m 22.892578,341.62598 h 3.700195 v 0.49804 H 25.040039 V 346 h -0.594727 v -3.87598 h -1.552734 z"
       style="font-size:6px;font-family:Raleway;text-anchor:middle;fill:#000000;stroke:none;stroke-width:1px;text-rendering:geometricPrecision"
       id="path6534" />
    <path
       d="m 27.166992,341.62598 h 2.765625 v 0.49804 h -2.173828 v 1.29493 h 2.083008 v 0.49804 h -2.083008 v 1.58496 h 2.226563 V 346 h -2.81836 z"
       style="font-size:6px;font-family:Raleway;text-anchor:middle;fill:#000000;stroke:none;stroke-width:1px;text-rendering:geometricPrecision"
       id="path6536" />
  </g>
  <g
     aria-label="OUT"
     style="font-size:6px;font-family:Raleway;text-anchor:middle;fill:#000000;stroke:none;stroke-width:1px;text-rendering:geometricPrecision"
     id="text91">
    <path
       d="m 63.47168,342.02734 q -0.644532,0 -1.025391,0.48047 -0.37793,0.48047 -0.37793,1.30957 0,0.82617 0.37793,1.30664 0.380859,0.48047 1.025391,0.48047 0.644531,0 1.019531,-0.48047 0.37793,-0.48047 0.37793,-1.30664 0,-0.8291 -0.37793,-1.30957 -0.375,-0.48047 -1.019531,-0.48047 z m 0,-0.48047 q 0.919922,0 1.470703,0.61817 0.550781,0.61523 0.550781,1.65234 0,1.03418 -0.550781,1.65235 -0.550781,0.61523 -1.470703,0.61523 -0.922852,0 -1.476563,-0.61523 -0.550781,-0.61524 -0.550781,-1.65235 0,-1.03711 0.550781,-1.65234 0.553711,-0.61817 1.476563,-0.61817 z"
       style="font-size:6px;font-family:Raleway;text-anchor:middle;fill:#000000;stroke:none;stroke-width:1px;text-rendering:geometricPrecision"
       id="path6539" />
    <path
       d="m 66.351562,341.62598 h 0.594727 v 2.65722 q 0,0.70313 0.254883,1.01367 0.254883,0.30762 0.826172,0.30762 0.568359,0 0.823242,-0.30762 0.254883,-0.31054 0.254883,-1.01367 v -2.65722 h 0.594726 v 2.73047 q 0,0.85546 -0.424804,1.29199 -0.421875,0.43652 -1.248047,0.43652 -0.829102,0 -1.253907,-0.43652 -0.421875,-0.43653 -0.421875,-1.29199 z"
       style="font-size:6px;font-family:Raleway;text-anchor:middle;fill:#000000;stroke:none;stroke-width:1px;text-rendering:geometricPrecision"
       id="path6541" />
    <path
       d="m 70.207031,341.62598 h 3.700196 v 0.49804 H 72.354492 V 346 h -0.594726 v -3.87598 h -1.552735 z"
       style="font-size:6px;font-family:Raleway;text-anchor:middle;fill:#000000;stroke:none;stroke-width:1px;text-rendering:geometricPrecision"
       id="path6543" />
  </g>
  <g
     aria-label="dk"
     style="font-style:normal;font-variant:normal;font-weight:normal;font-stretch:normal;font-size:32px;font-family:'Circuit board';-inkscape-font-specification:'Circuit board';letter-spacing:0px;word-spacing:0px;text-anchor:middle;fill:#000000;fill-opacity:1;stroke:none"
     id="text850">
    <path
       d="m 44.7385,376.536 q -0.096,0.384 -0.416,0.576 -0.32,0.224 -0.672,0.16 -0.512,-0.096 -0.672,-0.64 l -2.304,-1.152 0.032,-24.224 1.696,-1.44 q -0.032,-0.128 0,-0.256 0.064,-0.384 0.384,-0.576 0.32,-0.192 0.704,-0.128 0.352,0.064 0.576,0.384 0.224,0.32 0.16,0.704 -0.096,0.384 -0.416,0.576 -0.32,0.192 -0.672,0.128 h -0.064 l -1.408,1.184 v 22.752 l 1.824,0.928 q 0.32,-0.096 0.544,-0.064 0.352,0.064 0.544,0.384 0.224,0.32 0.16,0.704 z m -4.352,-28.864 q -0.096,0.352 -0.352,0.544 l -0.032,23.808 -2.048,2.88 h -7.36 v -16.192 h 4.608 q 0.32,-0.512 0.96,-0.384 0.352,0.064 0.576,0.384 0.224,0.32 0.16,0.704 -0.096,0.384 -0.416,0.576 -0.32,0.192 -0.672,0.128 -0.32,-0.032 -0.48,-0.256 h -3.744 l -0.032,13.888 5.984,-0.032 1.344,-1.856 0.064,-23.648 q -0.48,-0.384 -0.384,-0.928 0.096,-0.384 0.416,-0.576 0.32,-0.192 0.704,-0.128 0.352,0.064 0.544,0.384 0.224,0.32 0.16,0.704 z m -1.568,2.368 q -0.096,0.352 -0.384,0.576 v 10.816 l -5.344,-0.064 v 10.592 l 2.848,0.032 q 0.288,-0.448 0.928,-0.352 0.352,0.064 0.544,0.384 0.224,0.32 0.16,0.704 -0.096,0.384 -0.416,0.576 -0.32,0.192 -0.672,0.128 -0.352,-0.096 -0.544,-0.384 l -3.808,0.032 0.064,-12.704 5.152,-0.064 -0.064,-9.76 q -0.384,-0.352 -0.288,-0.896 0.096,-0.384 0.384,-0.576 0.32,-0.192 0.704,-0.128 0.352,0.064 0.576,0.384 0.224,0.32 0.16,0.704 z m 4.864,-0.224 q 0.064,-0.384 -0.288,-0.448 -0.384,-0.064 -0.448,0.288 -0.16,0.448 0.288,0.48 0.352,0.064 0.448,-0.32 z m -3.808,-2.24 q 0.064,-0.416 -0.32,-0.48 -0.416,-0.064 -0.448,0.32 -0.096,0.384 0.288,0.448 0.32,0.064 0.48,-0.288 z m -1.6,2.368 q 0.032,-0.416 -0.288,-0.48 -0.416,-0.064 -0.448,0.32 -0.096,0.384 0.288,0.448 0.352,0.064 0.448,-0.288 z m -1.888,9.376 q 0.064,-0.416 -0.32,-0.48 -0.416,-0.064 -0.448,0.32 -0.096,0.384 0.288,0.448 0.32,0.064 0.48,-0.288 z m 7.84,17.12 q 0.064,-0.384 -0.288,-0.448 -0.448,-0.032 -0.48,0.288 -0.064,0.16 0.032,0.288 0.128,0.16 0.288,0.192 0.352,0.064 0.448,-0.32 z m -7.168,-3.84 q 0.064,-0.384 -0.288,-0.448 -0.448,-0.032 -0.48,0.288 -0.064,0.16 0.032,0.32 0.128,0.128 0.288,0.16 0.352,0.064 0.448,-0.32 z"
       style="font-style:normal;font-variant:normal;font-weight:normal;font-stretch:normal;font-size:32px;font-family:'Circuit board';-inkscape-font-specification:'Circuit board';letter-spacing:0px;word-spacing:0px;text-anchor:middle;fill:#000000;fill-opacity:1;stroke:none"
       id="path6546" />
    <path
       d="m 57.636,363.512 q 0,0.256 -0.192,0.48 -0.16,0.192 -0.448,0.224 l -1.888,3.168 h -2.24 -1.344 L 51.492,356.12 q -0.16,-0.16 -0.256,-0.416 -0.064,-0.288 0.096,-0.512 0.192,-0.256 0.48,-0.32 0.32,-0.064 0.544,0.096 0.256,0.16 0.32,0.448 0.096,0.48 -0.352,0.768 v 10.4 h 1.024 1.344 l 1.6,-2.72 q -0.032,-0.064 -0.064,-0.16 -0.032,-0.096 -0.032,-0.192 0,-0.288 0.224,-0.48 0.224,-0.224 0.512,-0.224 0.32,0 0.512,0.224 0.192,0.192 0.192,0.48 z M 51.3,354.264 q 0,0.352 -0.32,0.576 v 21.408 q 0.352,0.256 0.256,0.736 -0.064,0.288 -0.288,0.448 -0.224,0.16 -0.544,0.096 -0.288,-0.064 -0.48,-0.32 -0.16,-0.224 -0.096,-0.512 0.16,-0.352 0.32,-0.48 L 50.18,354.84 q -0.288,-0.224 -0.288,-0.576 0,-0.288 0.192,-0.48 0.224,-0.224 0.512,-0.224 0.32,0 0.512,0.224 0.192,0.192 0.192,0.48 z m 9.088,20.192 q 0,0.288 -0.192,0.512 -0.192,0.192 -0.512,0.192 -0.288,0 -0.512,-0.192 -0.192,-0.224 -0.192,-0.512 0,-0.096 0.032,-0.192 0.032,-0.096 0.064,-0.16 l -4.384,-5.472 h -1.344 -1.024 v 6.304 q 0.448,0.288 0.352,0.768 -0.064,0.288 -0.32,0.448 -0.224,0.16 -0.544,0.096 -0.288,-0.064 -0.48,-0.32 -0.16,-0.224 -0.096,-0.512 0.096,-0.256 0.256,-0.416 l 0.032,-7.168 1.344,-0.032 h 2.24 l 4.672,5.952 q 0.288,0.032 0.448,0.256 0.16,0.192 0.16,0.448 z m -10.432,1.184 q -0.064,0.288 -0.32,0.448 -0.224,0.16 -0.544,0.096 -0.288,-0.064 -0.448,-0.32 -0.16,-0.256 -0.096,-0.544 0.096,-0.32 0.32,-0.448 l 0.032,-17.536 -1.504,-1.248 q -0.064,0 -0.16,0.032 -0.064,0 -0.128,-0.032 -0.288,-0.064 -0.448,-0.32 -0.16,-0.256 -0.096,-0.544 0.064,-0.288 0.288,-0.448 0.256,-0.16 0.544,-0.096 0.576,0.16 0.576,0.672 l 1.728,1.504 -0.032,18.048 q 0.384,0.288 0.288,0.736 z m 2.304,-20.128 q -0.032,-0.32 -0.352,-0.256 -0.32,0.032 -0.256,0.384 0.096,0.288 0.384,0.224 0.384,-0.064 0.224,-0.352 z m -1.344,-1.152 q 0.16,-0.288 -0.256,-0.352 -0.256,-0.064 -0.352,0.224 -0.064,0.32 0.224,0.352 0.352,0.064 0.384,-0.224 z m 6.304,9.088 q -0.032,-0.288 -0.352,-0.224 -0.32,0.032 -0.256,0.352 0.032,0.288 0.384,0.224 0.384,-0.064 0.224,-0.352 z m -9.664,-8 q 0.128,-0.32 -0.224,-0.384 -0.256,-0.064 -0.384,0.256 -0.064,0.32 0.256,0.352 0.32,0.064 0.352,-0.224 z m 12.448,19.072 q 0.064,-0.128 -0.032,-0.224 -0.064,-0.128 -0.224,-0.16 -0.32,-0.064 -0.352,0.256 -0.064,0.32 0.224,0.352 0.352,0.064 0.384,-0.224 z m -7.744,1.088 q 0.16,-0.288 -0.224,-0.352 -0.288,-0.064 -0.384,0.224 -0.064,0.352 0.256,0.384 0.32,0.064 0.352,-0.256 z m -2.72,-0.064 q 0.16,-0.288 -0.224,-0.352 -0.256,-0.064 -0.352,0.224 -0.064,0.32 0.224,0.352 0.32,0.064 0.352,-0.224 z m 1.28,1.376 q 0.064,-0.128 -0.032,-0.256 -0.064,-0.096 -0.224,-0.128 -0.192,-0.032 -0.352,0.256 -0.064,0.32 0.256,0.352 0.32,0.064 0.352,-0.224 z"
       style="font-style:normal;font-variant:normal;font-weight:normal;font-stretch:normal;font-size:32px;font-family:'Circuit board';-inkscape-font-specification:'Circuit board';letter-spacing:0px;word-spacing:0px;text-anchor:middle;fill:#000000;fill-opacity:1;stroke:none"
       id="path6548" />
  </g>
  <path
     style="stroke:#000000;stroke-width:0.75"
     d="M 45,42.5 35.595436,55.444271"
     id="SvgjsLine1007" />
  <path
     style="stroke:#000000;stroke-width:0.75"
     d="M 45,42.5 32.671787,52.698784"
     id="SvgjsLine1008" />
  <path
     style="stroke:#000000;stroke-width:0.75"
     d="M 45,42.5 30.522768,49.312469"
     id="SvgjsLine1009" />
  <path
     style="stroke:#000000;stroke-width:0.75"
     d="M 45,42.5 29.283403,45.4981"
     id="SvgjsLine1010" />
  <path
     style="stroke:#000000;stroke-width:0.75"
     d="M 45,42.5 29.031572,41.49535"
     id="SvgjsLine1011" />
  <path
     style="stroke:#000000;stroke-width:0.75"
     d="M 45,42.5 29.783096,37.555729"
     id="SvgjsLine1012" />
  <path
     style="stroke:#000000;stroke-width:0.75"
     d="M 45,42.5 31.490753,33.926773"
     id="SvgjsLine1013" />
  <path
     style="stroke:#000000;stroke-width:0.75"
     d="M 45,42.5 34.047245,30.836502"
     id="SvgjsLine1014" />
  <path
     style="stroke:#000000;stroke-width:0.75"
     d="M 45,42.5 37.291943,28.479094"
     id="SvgjsLine1015" />
  <path
     style="stroke:#000000;stroke-width:0.75"
     d="M 45,42.5 41.020962,27.00267"
     id="SvgjsLine1016" />
  <path
     style="stroke:#000000;stroke-width:0.75"
     d="m 45,42.5 v -16"
     id="SvgjsLine1017" />
  <path
     style="stroke:#000000;stroke-width:0.75"
     d="M 45,42.5 48.979038,27.00267"
     id="SvgjsLine1018" />
  <path
     style="stroke:#000000;stroke-width:0.75"
     d="M 45,42.5 52.708057,28.479094"
     id="SvgjsLine1019" />
  <path
     style="stroke:#000000;stroke-width:0.75"
     d="M 45,42.5 55.952755,30.836502"
     id="SvgjsLine1020" />
  <path
     style="stroke:#000000;stroke-width:0.75"
     d="M 45,42.5 58.509247,33.926773"
     id="SvgjsLine1021" />
  <path
     style="stroke:#000000;stroke-width:0.75"
     d="M 45,42.5 60.216904,37.555729"
     id="SvgjsLine1022" />
  <path
     style="stroke:#000000;stroke-width:0.75"
     d="M 45,42.5 60.968426,41.49535"
     id="SvgjsLine1023" />
  <path
     style="stroke:#000000;stroke-width:0.75"
     d="m 45,42.5 15.716595,2.9981"
     id="SvgjsLine1024" />
  <path
     style="stroke:#000000;stroke-width:0.75"
     d="m 45,42.5 14.477234,6.812469"
     id="SvgjsLine1025" />
  <path
     style="stroke:#000000;stroke-width:0.75"
     d="M 45,42.5 57.328213,52.698784"
     id="SvgjsLine1026" />
  <path
     style="stroke:#000000;stroke-width:0.75"
     d="m 45,42.5 9.404564,12.944271"
     id="SvgjsLine1027" />
  <path
     style="fill:#aaaaaa;stroke:#111111;stroke-width:0.75"
     d="m 58,42.5 a 13,13 0 0 1 -13,13 13,13 0 0 1 -13,-13 13,13 0 0 1 13,-13 13,13 0 0 1 13,13 z"
     id="SvgjsCircle1028" />
  <path
     style="stroke:#000000;stroke-width:0.75"
     d="m 45,102.5 -9.404564,12.94427"
     id="SvgjsLine1029" />
  <path
     style="stroke:#000000;stroke-width:0.75"
     d="M 45,102.5 32.671787,112.69878"
     id="SvgjsLine1030" />
  <path
     style="stroke:#000000;stroke-width:0.75"
     d="m 45,102.5 -14.477232,6.81247"
     id="SvgjsLine1031" />
  <path
     style="stroke:#000000;stroke-width:0.75"
     d="m 45,102.5 -15.716597,2.9981"
     id="SvgjsLine1032" />
  <path
     style="stroke:#000000;stroke-width:0.75"
     d="M 45,102.5 29.031572,101.49535"
     id="SvgjsLine1033" />
  <path
     style="stroke:#000000;stroke-width:0.75"
     d="M 45,102.5 29.783096,97.555725"
     id="SvgjsLine1034" />
  <path
     style="stroke:#000000;stroke-width:0.75"
     d="M 45,102.5 31.490753,93.926773"
     id="SvgjsLine1035" />
  <path
     style="stroke:#000000;stroke-width:0.75"
     d="M 45,102.5 34.047245,90.836502"
     id="SvgjsLine1036" />
  <path
     style="stroke:#000000;stroke-width:0.75"
     d="M 45,102.5 37.291943,88.479095"
     id="SvgjsLine1037" />
  <path
     style="stroke:#000000;stroke-width:0.75"
     d="M 45,102.5 41.020962,87.00267"
     id="SvgjsLine1038" />
  <path
     style="stroke:#000000;stroke-width:0.75"
     d="m 45,102.5 v -16"
     id="SvgjsLine1039" />
  <path
     style="stroke:#000000;stroke-width:0.75"
     d="M 45,102.5 48.979038,87.00267"
     id="SvgjsLine1040" />
  <path
     style="stroke:#000000;stroke-width:0.75"
     d="M 45,102.5 52.708057,88.479095"
     id="SvgjsLine1041" />
  <path
     style="stroke:#000000;stroke-width:0.75"
     d="M 45,102.5 55.952755,90.836502"
     id="SvgjsLine1042" />
  <path
     style="stroke:#000000;stroke-width:0.75"
     d="M 45,102.5 58.509247,93.926773"
     id="SvgjsLine1043" />
  <path
     style="stroke:#000000;stroke-width:0.75"
     d="M 45,102.5 60.216904,97.555725"
     id="SvgjsLine1044" />
  <path
     style="stroke:#000000;stroke-width:0.75"
     d="m 45,102.5 15.968426,-1.00465"
     id="SvgjsLine1045" />
  <path
     style="stroke:#000000;stroke-width:0.75"
     d="m 45,102.5 15.716595,2.9981"
     id="SvgjsLine1046" />
  <path
     style="stroke:#000000;stroke-width:0.75"
     d="m 45,102.5 14.477234,6.81247"
     id="SvgjsLine1047" />
  <path
     style="stroke:#000000;stroke-width:0.75"
     d="m 45,102.5 12.328213,10.19878"
     id="SvgjsLine1048" />
  <path
     style="stroke:#000000;stroke-width:0.75"
     d="m 45,102.5 9.404564,12.94427"
     id="SvgjsLine1049" />
  <path
     style="fill:#aaaaaa;stroke:#111111;stroke-width:0.75"
     d="m 58,102.5 a 13,13 0 0 1 -13,13 13,13 0 0 1 -13,-13 13,13 0 0 1 13,-13 13,13 0 0 1 13,13 z"
     id="SvgjsCircle1050" />
  <path
     style="stroke:#000000;stroke-width:0.75"
     d="m 67.5,162.5 -9.404564,12.94427"
     id="SvgjsLine1051" />
  <path
     style="stroke:#000000;stroke-width:0.75"
     d="M 67.5,162.5 55.171787,172.69878"
     id="SvgjsLine1052" />
  <path
     style="stroke:#000000;stroke-width:0.75"
     d="m 67.5,162.5 -14.477234,6.81247"
     id="SvgjsLine1053" />
  <path
     style="stroke:#000000;stroke-width:0.75"
     d="m 67.5,162.5 -15.716595,2.99811"
     id="SvgjsLine1054" />
  <path
     style="stroke:#000000;stroke-width:0.75"
     d="M 67.5,162.5 51.531574,161.49535"
     id="SvgjsLine1055" />
  <path
     style="stroke:#000000;stroke-width:0.75"
     d="M 67.5,162.5 52.283096,157.55573"
     id="SvgjsLine1056" />
  <path
     style="stroke:#000000;stroke-width:0.75"
     d="M 67.5,162.5 53.990753,153.92677"
     id="SvgjsLine1057" />
  <path
     style="stroke:#000000;stroke-width:0.75"
     d="M 67.5,162.5 56.547245,150.8365"
     id="SvgjsLine1058" />
  <path
     style="stroke:#000000;stroke-width:0.75"
     d="M 67.5,162.5 59.791943,148.4791"
     id="SvgjsLine1059" />
  <path
     style="stroke:#000000;stroke-width:0.75"
     d="M 67.5,162.5 63.520962,147.00267"
     id="SvgjsLine1060" />
  <path
     style="stroke:#000000;stroke-width:0.75"
     d="m 67.5,162.5 v -16"
     id="SvgjsLine1061" />
  <path
     style="stroke:#000000;stroke-width:0.75"
     d="m 67.5,162.5 3.979034,-15.49733"
     id="SvgjsLine1062" />
  <path
     style="stroke:#000000;stroke-width:0.75"
     d="m 67.5,162.5 7.708061,-14.0209"
     id="SvgjsLine1063" />
  <path
     style="stroke:#000000;stroke-width:0.75"
     d="M 67.5,162.5 78.452751,150.8365"
     id="SvgjsLine1064" />
  <path
     style="stroke:#000000;stroke-width:0.75"
     d="m 67.5,162.5 13.509247,-8.57323"
     id="SvgjsLine1065" />
  <path
     style="stroke:#000000;stroke-width:0.75"
     d="m 67.5,162.5 15.216904,-4.94427"
     id="SvgjsLine1066" />
  <path
     style="stroke:#000000;stroke-width:0.75"
     d="m 67.5,162.5 15.96843,-1.00465"
     id="SvgjsLine1067" />
  <path
     style="stroke:#000000;stroke-width:0.75"
     d="m 67.5,162.5 15.716599,2.99811"
     id="SvgjsLine1068" />
  <path
     style="stroke:#000000;stroke-width:0.75"
     d="m 67.5,162.5 14.477234,6.81247"
     id="SvgjsLine1069" />
  <path
     style="stroke:#000000;stroke-width:0.75"
     d="m 67.5,162.5 12.328209,10.19878"
     id="SvgjsLine1070" />
  <path
     style="stroke:#000000;stroke-width:0.75"
     d="m 67.5,162.5 9.404564,12.94427"
     id="SvgjsLine1071" />
  <path
     style="fill:#aaaaaa;stroke:#111111;stroke-width:0.75"
     d="m 80.5,162.5 a 13,13 0 0 1 -13,13 13,13 0 0 1 -13,-13 13,13 0 0 1 13,-13 13,13 0 0 1 13,13 z"
     id="SvgjsCircle1072" />
  <path
     style="stroke:#000000;stroke-width:0.75"
     d="m 67.5,212.5 -9.404564,12.94427"
     id="SvgjsLine1073" />
  <path
     style="stroke:#000000;stroke-width:0.75"
     d="M 67.5,212.5 55.171787,222.69878"
     id="SvgjsLine1074" />
  <path
     style="stroke:#000000;stroke-width:0.75"
     d="m 67.5,212.5 -14.477234,6.81247"
     id="SvgjsLine1075" />
  <path
     style="stroke:#000000;stroke-width:0.75"
     d="m 67.5,212.5 -15.716595,2.99811"
     id="SvgjsLine1076" />
  <path
     style="stroke:#000000;stroke-width:0.75"
     d="M 67.5,212.5 51.531574,211.49535"
     id="SvgjsLine1077" />
  <path
     style="stroke:#000000;stroke-width:0.75"
     d="M 67.5,212.5 52.283096,207.55573"
     id="SvgjsLine1078" />
  <path
     style="stroke:#000000;stroke-width:0.75"
     d="M 67.5,212.5 53.990753,203.92677"
     id="SvgjsLine1079" />
  <path
     style="stroke:#000000;stroke-width:0.75"
     d="M 67.5,212.5 56.547245,200.8365"
     id="SvgjsLine1080" />
  <path
     style="stroke:#000000;stroke-width:0.75"
     d="M 67.5,212.5 59.791943,198.4791"
     id="SvgjsLine1081" />
  <path
     style="stroke:#000000;stroke-width:0.75"
     d="M 67.5,212.5 63.520962,197.00267"
     id="SvgjsLine1082" />
  <path
     style="stroke:#000000;stroke-width:0.75"
     d="m 67.5,212.5 v -16"
     id="SvgjsLine1083" />
  <path
     style="stroke:#000000;stroke-width:0.75"
     d="m 67.5,212.5 3.979034,-15.49733"
     id="SvgjsLine1084" />
  <path
     style="stroke:#000000;stroke-width:0.75"
     d="m 67.5,212.5 7.708061,-14.0209"
     id="SvgjsLine1085" />
  <path
     style="stroke:#000000;stroke-width:0.75"
     d="M 67.5,212.5 78.452751,200.8365"
     id="SvgjsLine1086" />
  <path
     style="stroke:#000000;stroke-width:0.75"
     d="m 67.5,212.5 13.509247,-8.57323"
     id="SvgjsLine1087" />
  <path
     style="stroke:#000000;stroke-width:0.75"
     d="m 67.5,212.5 15.216904,-4.94427"
     id="SvgjsLine1088" />
  <path
     style="stroke:#000000;stroke-width:0.75"
     d="m 67.5,212.5 15.96843,-1.00465"
     id="SvgjsLine1089" />
  <path
     style="stroke:#000000;stroke-width:0.75"
     d="m 67.5,212.5 15.716599,2.99811"
     id="SvgjsLine1090" />
  <path
     style="stroke:#000000;stroke-width:0.75"
     d="m 67.5,212.5 14.477234,6.81247"
     id="SvgjsLine1091" />
  <path
     style="stroke:#000000;stroke-width:0.75"
     d="m 67.5,212.5 12.328209,10.19878"
     id="SvgjsLine1092" />
  <path
     style="stroke:#000000;stroke-width:0.75"
     d="m 67.5,212.5 9.404564,12.94427"
     id="SvgjsLine1093" />
  <path
     style="fill:#aaaaaa;stroke:#111111;stroke-width:0.75"
     d="m 80.5,212.5 a 13,13 0 0 1 -13,13 13,13 0 0 1 -13,-13 13,13 0 0 1 13,-13 13,13 0 0 1 13,13 z"
     id="SvgjsCircle1094" />
  <path
     style="stroke:#000000;stroke-width:0.75"
     d="m 45,272.5 -9.404564,12.94427"
     id="SvgjsLine1095" />
  <path
     style="stroke:#000000;stroke-width:0.75"
     d="M 45,272.5 32.671787,282.69879"
     id="SvgjsLine1096" />
  <path
     style="stroke:#000000;stroke-width:0.75"
     d="m 45,272.5 -14.477232,6.81247"
     id="SvgjsLine1097" />
  <path
     style="stroke:#000000;stroke-width:0.75"
     d="m 45,272.5 -15.716597,2.99811"
     id="SvgjsLine1098" />
  <path
     style="stroke:#000000;stroke-width:0.75"
     d="M 45,272.5 29.031572,271.49536"
     id="SvgjsLine1099" />
  <path
     style="stroke:#000000;stroke-width:0.75"
     d="M 45,272.5 29.783096,267.55573"
     id="SvgjsLine1100" />
  <path
     style="stroke:#000000;stroke-width:0.75"
     d="M 45,272.5 31.490753,263.92676"
     id="SvgjsLine1101" />
  <path
     style="stroke:#000000;stroke-width:0.75"
     d="M 45,272.5 34.047245,260.83649"
     id="SvgjsLine1102" />
  <path
     style="stroke:#000000;stroke-width:0.75"
     d="M 45,272.5 37.291943,258.4791"
     id="SvgjsLine1103" />
  <path
     style="stroke:#000000;stroke-width:0.75"
     d="M 45,272.5 41.020962,257.00266"
     id="SvgjsLine1104" />
  <path
     style="stroke:#000000;stroke-width:0.75"
     d="m 45,272.5 v -16"
     id="SvgjsLine1105" />
  <path
     style="stroke:#000000;stroke-width:0.75"
     d="m 45,272.5 3.979038,-15.49734"
     id="SvgjsLine1106" />
  <path
     style="stroke:#000000;stroke-width:0.75"
     d="m 45,272.5 7.708057,-14.0209"
     id="SvgjsLine1107" />
  <path
     style="stroke:#000000;stroke-width:0.75"
     d="M 45,272.5 55.952755,260.83649"
     id="SvgjsLine1108" />
  <path
     style="stroke:#000000;stroke-width:0.75"
     d="m 45,272.5 13.509247,-8.57324"
     id="SvgjsLine1109" />
  <path
     style="stroke:#000000;stroke-width:0.75"
     d="m 45,272.5 15.216904,-4.94427"
     id="SvgjsLine1110" />
  <path
     style="stroke:#000000;stroke-width:0.75"
     d="m 45,272.5 15.968426,-1.00464"
     id="SvgjsLine1111" />
  <path
     style="stroke:#000000;stroke-width:0.75"
     d="m 45,272.5 15.716595,2.99811"
     id="SvgjsLine1112" />
  <path
     style="stroke:#000000;stroke-width:0.75"
     d="m 45,272.5 14.477234,6.81247"
     id="SvgjsLine1113" />
  <path
     style="stroke:#000000;stroke-width:0.75"
     d="m 45,272.5 12.328213,10.19879"
     id="SvgjsLine1114" />
  <path
     style="stroke:#000000;stroke-width:0.75"
     d="m 45,272.5 9.404564,12.94427"
     id="SvgjsLine1115" />
  <path
     style="fill:#aaaaaa;stroke:#111111;stroke-width:0.75"
     d="m 58,272.5 a 13,13 0 0 1 -13,13 13,13 0 0 1 -13,-13 13,13 0 0 1 13,-13 13,13 0 0 1 13,13 z"
     id="SvgjsCircle1116" />
</svg>
