<?xml version="1.0" encoding="UTF-8" standalone="no"?>
<svg
   xmlns:osb="http://www.openswatchbook.org/uri/2009/osb"
   xmlns:dc="http://purl.org/dc/elements/1.1/"
   xmlns:cc="http://creativecommons.org/ns#"
   xmlns:rdf="http://www.w3.org/1999/02/22-rdf-syntax-ns#"
   xmlns:svg="http://www.w3.org/2000/svg"
   xmlns="http://www.w3.org/2000/svg"
   xmlns:xlink="http://www.w3.org/1999/xlink"
   xmlns:sodipodi="http://sodipodi.sourceforge.net/DTD/sodipodi-0.dtd"
   xmlns:inkscape="http://www.inkscape.org/namespaces/inkscape"
   height="380"
   style="zoom: 8;"
   cursor="default"
   id="SvgjsSvg1006"
   sodipodi:docname="BD9.svg"
   inkscape:version="0.92.2 5c3e80d, 2017-08-06"
   width="90"
   version="1.1">
  <metadata
     id="metadata7215">
    <rdf:RDF>
      <cc:Work
         rdf:about="">
        <dc:format>image/svg+xml</dc:format>
        <dc:type
           rdf:resource="http://purl.org/dc/dcmitype/StillImage" />
        <dc:title />
      </cc:Work>
    </rdf:RDF>
  </metadata>
  <sodipodi:namedview
     borderopacity="1"
     inkscape:zoom="2.9512404"
     inkscape:cy="189.45995"
     gridtolerance="10"
     inkscape:cx="23.476229"
     inkscape:window-height="1006"
     inkscape:measure-start="21.6858,252.097"
     inkscape:pagecheckerboard="true"
     inkscape:window-width="901"
     guidetolerance="10"
     id="namedview7213"
     showgrid="false"
     inkscape:pageopacity="0"
     inkscape:pageshadow="2"
     bordercolor="#666666"
     inkscape:current-layer="SvgjsSvg1006"
     inkscape:window-maximized="0"
     inkscape:window-y="11"
     inkscape:measure-end="21.0081,301.907"
     objecttolerance="10"
     pagecolor="#ffffff"
     inkscape:window-x="496"
     visibility="visible" />
  <defs
     id="SvgjsDefs1007">
    <linearGradient
       id="linearGradient2396"
       osb:paint="gradient">
      <stop
         style="stop-color:#ff8f00;stop-opacity:1;"
         offset="0"
         id="stop2392" />
      <stop
         style="stop-color:#ff8f00;stop-opacity:0;"
         offset="1"
         id="stop2394" />
    </linearGradient>
    <linearGradient
       id="linearGradient2384"
       osb:paint="solid">
      <stop
         style="stop-color:#ff8f00;stop-opacity:1;"
         offset="0"
         id="stop2382" />
    </linearGradient>
    <linearGradient
       id="linearGradient898"
       osb:paint="solid">
      <stop
         style="stop-color:#ff8f00;stop-opacity:1;"
         offset="0"
         id="stop896" />
    </linearGradient>
    <linearGradient
       inkscape:collect="always"
       id="linearGradient915">
      <stop
         style="stop-color:#e0e0e0;stop-opacity:1;"
         offset="0"
         id="stop911" />
      <stop
         style="stop-color:#d0d0d0;stop-opacity:1;"
         offset="1"
         id="stop913" />
    </linearGradient>
    <linearGradient
       inkscape:collect="always"
       xlink:href="#linearGradient915"
       id="linearGradient919"
       x1="0"
       y1="190"
       x2="90"
       y2="190"
       gradientUnits="userSpaceOnUse" />
    <style
       id="Audiowide_Google_Webfont_import">@import url(https://fonts.googleapis.com/css?family=Raleway);</style>
  </defs>
  <path
     d="M0,0 H90 V380 H0 Z"
     id="SvgjsRect1008"
     style="fill:url(#linearGradient919);fill-opacity:1;stroke:none;stroke-opacity:1"
     visibility="visible" />
  <g
     aria-label="BD-9"
     style="font-size:12px;font-family:Raleway;text-anchor:middle;fill:#000000;stroke:none;stroke-width:1px;text-rendering:geometricPrecision"
     id="text5">
    <path
       d="m 32.642578,20.822266 v 3.205078 h 1.898438 q 0.955078,0 1.412109,-0.392578 0.462891,-0.398438 0.462891,-1.212891 0,-0.820313 -0.462891,-1.207031 -0.457031,-0.392578 -1.412109,-0.392578 z m 0,-3.597657 v 2.636719 h 1.751953 q 0.867188,0 1.289063,-0.322266 0.427734,-0.328125 0.427734,-0.996093 0,-0.66211 -0.427734,-0.990235 -0.421875,-0.328125 -1.289063,-0.328125 z m -1.183594,-0.972656 h 3.023438 q 1.353515,0 2.085937,0.5625 0.732422,0.5625 0.732422,1.599609 0,0.802735 -0.375,1.277344 -0.375,0.47461 -1.101562,0.591797 0.873047,0.1875 1.353515,0.785156 0.486328,0.591797 0.486328,1.482422 0,1.171875 -0.796875,1.810547 Q 36.070312,25 34.599609,25 h -3.140625 z"
       style="font-size:12px;font-family:Raleway;text-anchor:middle;fill:#000000;stroke:none;stroke-width:1px;text-rendering:geometricPrecision"
       id="path162" />
    <path
       d="m 40.869141,17.224609 v 6.802735 h 1.429687 q 1.810547,0 2.648438,-0.820313 0.84375,-0.820312 0.84375,-2.589844 0,-1.757812 -0.84375,-2.572265 -0.837891,-0.820313 -2.648438,-0.820313 z m -1.183594,-0.972656 h 2.43164 q 2.542969,0 3.732422,1.060547 1.189453,1.054687 1.189453,3.304687 0,2.261719 -1.195312,3.322266 Q 44.648437,25 42.117187,25 h -2.43164 z"
       style="font-size:12px;font-family:Raleway;text-anchor:middle;fill:#000000;stroke:none;stroke-width:1px;text-rendering:geometricPrecision"
       id="path164" />
    <path
       d="m 48.328125,21.232422 h 3.158203 v 0.960937 h -3.158203 z"
       style="font-size:12px;font-family:Raleway;text-anchor:middle;fill:#000000;stroke:none;stroke-width:1px;text-rendering:geometricPrecision"
       id="path166" />
    <path
       d="m 53.396484,24.818359 v -1.078125 q 0.445313,0.210938 0.902344,0.322266 0.457031,0.111328 0.896484,0.111328 1.171875,0 1.78711,-0.785156 0.621094,-0.791016 0.708984,-2.396485 -0.339844,0.503907 -0.861328,0.773438 -0.521484,0.269531 -1.154297,0.269531 -1.3125,0 -2.080078,-0.791015 -0.761719,-0.796875 -0.761719,-2.173829 0,-1.347656 0.796875,-2.162109 0.796875,-0.814453 2.121094,-0.814453 1.517578,0 2.314453,1.166016 0.802735,1.160156 0.802735,3.375 0,2.068359 -0.984375,3.304687 -0.978516,1.230469 -2.636719,1.230469 -0.445313,0 -0.902344,-0.08789 -0.457031,-0.08789 -0.949219,-0.263672 z m 2.355469,-3.708984 q 0.796875,0 1.259766,-0.544922 0.46875,-0.544922 0.46875,-1.494141 0,-0.943359 -0.46875,-1.488281 -0.462891,-0.550781 -1.259766,-0.550781 -0.796875,0 -1.265625,0.550781 -0.462891,0.544922 -0.462891,1.488281 0,0.949219 0.462891,1.494141 0.46875,0.544922 1.265625,0.544922 z"
       style="font-size:12px;font-family:Raleway;text-anchor:middle;fill:#000000;stroke:none;stroke-width:1px;text-rendering:geometricPrecision"
       id="path168" />
  </g>
  <g
     aria-label="SELECT CV"
     style="font-size:8px;font-family:Raleway;text-anchor:middle;fill:#000000;stroke:none;stroke-width:1px;text-rendering:geometricPrecision"
     id="text7">
    <path
       d="m 4.90625,57.359375 v 0.769531 Q 4.4570312,57.914062 4.0585937,57.808594 3.6601563,57.703125 3.2890625,57.703125 q -0.6445312,0 -0.9960937,0.25 -0.3476563,0.25 -0.3476563,0.710937 0,0.386719 0.2304688,0.585938 0.234375,0.195312 0.8828125,0.316406 l 0.4765625,0.09766 q 0.8828124,0.167969 1.3007812,0.59375 0.421875,0.421875 0.421875,1.132813 0,0.847656 -0.5703125,1.285156 -0.5664063,0.4375 -1.6640625,0.4375 -0.4140625,0 -0.8828125,-0.09375 -0.4648438,-0.09375 -0.9648438,-0.277344 v -0.8125 q 0.4804688,0.269532 0.9414063,0.40625 0.4609375,0.136719 0.90625,0.136719 0.6757813,0 1.0429687,-0.265625 0.3671875,-0.265625 0.3671875,-0.757812 0,-0.429688 -0.265625,-0.671875 Q 3.90625,60.535156 3.3046875,60.414062 L 2.8242188,60.320312 Q 1.9414062,60.144531 1.546875,59.769531 q -0.3945313,-0.375 -0.3945313,-1.042969 0,-0.773437 0.5429688,-1.21875 0.546875,-0.445312 1.5039063,-0.445312 0.4101562,0 0.8359374,0.07422 0.4257813,0.07422 0.8710938,0.222656 z"
       style="font-size:8px;font-family:Raleway;text-anchor:middle;fill:#000000;stroke:none;stroke-width:1px;text-rendering:geometricPrecision"
       id="path171" />
    <path
       d="m 6.4882812,57.167969 h 3.6874998 v 0.664062 H 7.2773437 v 1.726563 h 2.7773443 v 0.664062 H 7.2773437 v 2.113281 H 10.246094 V 63 H 6.4882812 Z"
       style="font-size:8px;font-family:Raleway;text-anchor:middle;fill:#000000;stroke:none;stroke-width:1px;text-rendering:geometricPrecision"
       id="path173" />
    <path
       d="m 11.550781,57.167969 h 0.789063 v 5.167968 h 2.839844 V 63 h -3.628907 z"
       style="font-size:8px;font-family:Raleway;text-anchor:middle;fill:#000000;stroke:none;stroke-width:1px;text-rendering:geometricPrecision"
       id="path175" />
    <path
       d="m 16.003906,57.167969 h 3.6875 v 0.664062 h -2.898437 v 1.726563 h 2.777343 v 0.664062 h -2.777343 v 2.113281 h 2.96875 V 63 h -3.757813 z"
       style="font-size:8px;font-family:Raleway;text-anchor:middle;fill:#000000;stroke:none;stroke-width:1px;text-rendering:geometricPrecision"
       id="path177" />
    <path
       d="m 25.433594,57.617187 v 0.832032 Q 25.035156,58.078125 24.582031,57.894531 24.132812,57.710937 23.625,57.710937 q -1,0 -1.53125,0.613282 -0.53125,0.609375 -0.53125,1.765625 0,1.152343 0.53125,1.765625 0.53125,0.609375 1.53125,0.609375 0.507812,0 0.957031,-0.183594 0.453125,-0.183594 0.851563,-0.554688 v 0.824219 q -0.414063,0.28125 -0.878907,0.421875 -0.460937,0.140625 -0.976562,0.140625 -1.324219,0 -2.085938,-0.808594 -0.761718,-0.8125 -0.761718,-2.214843 0,-1.40625 0.761718,-2.214844 0.761719,-0.8125 2.085938,-0.8125 0.523437,0 0.984375,0.140625 0.464844,0.136719 0.871094,0.414062 z"
       style="font-size:8px;font-family:Raleway;text-anchor:middle;fill:#000000;stroke:none;stroke-width:1px;text-rendering:geometricPrecision"
       id="path179" />
    <path
       d="m 25.851562,57.167969 h 4.933594 v 0.664062 H 28.714844 V 63 h -0.792969 v -5.167969 h -2.070313 z"
       style="font-size:8px;font-family:Raleway;text-anchor:middle;fill:#000000;stroke:none;stroke-width:1px;text-rendering:geometricPrecision"
       id="path181" />
    <path
       d="m 38.464844,57.617187 v 0.832032 q -0.398438,-0.371094 -0.851563,-0.554688 -0.449219,-0.183594 -0.957031,-0.183594 -1,0 -1.53125,0.613282 -0.53125,0.609375 -0.53125,1.765625 0,1.152343 0.53125,1.765625 0.53125,0.609375 1.53125,0.609375 0.507812,0 0.957031,-0.183594 0.453125,-0.183594 0.851563,-0.554688 v 0.824219 q -0.414063,0.28125 -0.878907,0.421875 -0.460937,0.140625 -0.976562,0.140625 -1.324219,0 -2.085938,-0.808594 -0.761718,-0.8125 -0.761718,-2.214843 0,-1.40625 0.761718,-2.214844 0.761719,-0.8125 2.085938,-0.8125 0.523437,0 0.984375,0.140625 0.464844,0.136719 0.871094,0.414062 z"
       style="font-size:8px;font-family:Raleway;text-anchor:middle;fill:#000000;stroke:none;stroke-width:1px;text-rendering:geometricPrecision"
       id="path183" />
    <path
       d="M 41.195312,63 38.96875,57.167969 h 0.824219 l 1.847656,4.910156 1.851562,-4.910156 H 44.3125 L 42.089844,63 Z"
       style="font-size:8px;font-family:Raleway;text-anchor:middle;fill:#000000;stroke:none;stroke-width:1px;text-rendering:geometricPrecision"
       id="path185" />
  </g>
  <g
     aria-label="TUNE CV"
     style="font-size:8px;font-family:Raleway;text-anchor:middle;fill:#000000;stroke:none;stroke-width:1px;text-rendering:geometricPrecision"
     id="text29">
    <path
       d="m 49.773437,57.167969 h 4.933594 v 0.664062 H 52.636719 V 63 H 51.84375 v -5.167969 h -2.070313 z"
       style="font-size:8px;font-family:Raleway;text-anchor:middle;fill:#000000;stroke:none;stroke-width:1px;text-rendering:geometricPrecision"
       id="path188" />
    <path
       d="m 55.382812,57.167969 h 0.792969 v 3.542968 q 0,0.9375 0.339844,1.351563 0.339844,0.410156 1.101562,0.410156 0.757813,0 1.097657,-0.410156 0.339843,-0.414063 0.339843,-1.351563 v -3.542968 h 0.792969 v 3.640625 q 0,1.140625 -0.566406,1.722656 -0.5625,0.582031 -1.664063,0.582031 -1.105468,0 -1.671875,-0.582031 -0.5625,-0.582031 -0.5625,-1.722656 z"
       style="font-size:8px;font-family:Raleway;text-anchor:middle;fill:#000000;stroke:none;stroke-width:1px;text-rendering:geometricPrecision"
       id="path190" />
    <path
       d="m 61.332031,57.167969 h 1.0625 l 2.585938,4.878906 v -4.878906 h 0.765625 V 63 h -1.0625 L 62.097656,58.121094 V 63 h -0.765625 z"
       style="font-size:8px;font-family:Raleway;text-anchor:middle;fill:#000000;stroke:none;stroke-width:1px;text-rendering:geometricPrecision"
       id="path192" />
    <path
       d="m 67.316406,57.167969 h 3.6875 v 0.664062 h -2.898437 v 1.726563 h 2.777343 v 0.664062 h -2.777343 v 2.113281 h 2.96875 V 63 h -3.757813 z"
       style="font-size:8px;font-family:Raleway;text-anchor:middle;fill:#000000;stroke:none;stroke-width:1px;text-rendering:geometricPrecision"
       id="path194" />
    <path
       d="m 79.292969,57.617187 v 0.832032 q -0.398438,-0.371094 -0.851563,-0.554688 -0.449219,-0.183594 -0.957031,-0.183594 -1,0 -1.53125,0.613282 -0.53125,0.609375 -0.53125,1.765625 0,1.152343 0.53125,1.765625 0.53125,0.609375 1.53125,0.609375 0.507812,0 0.957031,-0.183594 0.453125,-0.183594 0.851563,-0.554688 v 0.824219 q -0.414063,0.28125 -0.878907,0.421875 -0.460937,0.140625 -0.976562,0.140625 -1.324219,0 -2.085938,-0.808594 -0.761718,-0.8125 -0.761718,-2.214843 0,-1.40625 0.761718,-2.214844 0.761719,-0.8125 2.085938,-0.8125 0.523437,0 0.984375,0.140625 0.464844,0.136719 0.871094,0.414062 z"
       style="font-size:8px;font-family:Raleway;text-anchor:middle;fill:#000000;stroke:none;stroke-width:1px;text-rendering:geometricPrecision"
       id="path196" />
    <path
       d="m 82.023437,63 -2.226562,-5.832031 h 0.824219 l 1.847656,4.910156 1.851562,-4.910156 h 0.820313 L 82.917969,63 Z"
       style="font-size:8px;font-family:Raleway;text-anchor:middle;fill:#000000;stroke:none;stroke-width:1px;text-rendering:geometricPrecision"
       id="path198" />
  </g>
  <g
     aria-label="TUNE"
     style="font-size:8px;font-family:Raleway;text-anchor:middle;fill:#000000;stroke:none;stroke-width:1px;text-rendering:geometricPrecision"
     id="text21">
    <path
       d="m 56.578125,106.16797 h 4.933594 v 0.66406 H 59.441406 V 112 h -0.792969 v -5.16797 h -2.070312 z"
       style="font-size:8px;font-family:Raleway;text-anchor:middle;fill:#000000;stroke:none;stroke-width:1px;text-rendering:geometricPrecision"
       id="path201" />
    <path
       d="m 62.1875,106.16797 h 0.792969 v 3.54297 q 0,0.9375 0.339843,1.35156 0.339844,0.41016 1.101563,0.41016 0.757812,0 1.097656,-0.41016 0.339844,-0.41406 0.339844,-1.35156 v -3.54297 h 0.792969 v 3.64062 q 0,1.14063 -0.566407,1.72266 -0.5625,0.58203 -1.664062,0.58203 -1.105469,0 -1.671875,-0.58203 -0.5625,-0.58203 -0.5625,-1.72266 z"
       style="font-size:8px;font-family:Raleway;text-anchor:middle;fill:#000000;stroke:none;stroke-width:1px;text-rendering:geometricPrecision"
       id="path203" />
    <path
       d="m 68.136719,106.16797 h 1.0625 l 2.585937,4.87891 v -4.87891 h 0.765625 V 112 h -1.0625 l -2.585937,-4.87891 V 112 h -0.765625 z"
       style="font-size:8px;font-family:Raleway;text-anchor:middle;fill:#000000;stroke:none;stroke-width:1px;text-rendering:geometricPrecision"
       id="path205" />
    <path
       d="m 74.121094,106.16797 h 3.6875 v 0.66406 h -2.898438 v 1.72656 H 77.6875 v 0.66407 h -2.777344 v 2.11328 h 2.96875 V 112 h -3.757812 z"
       style="font-size:8px;font-family:Raleway;text-anchor:middle;fill:#000000;stroke:none;stroke-width:1px;text-rendering:geometricPrecision"
       id="path207" />
  </g>
  <g
     aria-label="SELECT"
     style="font-size:8px;font-family:Raleway;text-anchor:middle;fill:#000000;stroke:none;stroke-width:1px;text-rendering:geometricPrecision"
     id="text23">
    <path
       d="m 11.710938,106.35938 v 0.76953 q -0.449219,-0.21485 -0.847657,-0.32032 -0.398437,-0.10546 -0.769531,-0.10546 -0.6445312,0 -0.9960937,0.25 Q 8.75,107.20313 8.75,107.66406 q 0,0.38672 0.2304688,0.58594 0.234375,0.19531 0.8828125,0.31641 l 0.4765627,0.0977 q 0.882812,0.16797 1.300781,0.59375 0.421875,0.42188 0.421875,1.13282 0,0.84765 -0.570312,1.28515 -0.566407,0.4375 -1.664063,0.4375 -0.4140625,0 -0.8828125,-0.0937 -0.4648437,-0.0937 -0.9648438,-0.27734 v -0.8125 q 0.4804688,0.26953 0.9414063,0.40625 0.4609375,0.13672 0.90625,0.13672 0.675781,0 1.042969,-0.26563 0.367187,-0.26562 0.367187,-0.75781 0,-0.42969 -0.265625,-0.67188 -0.261718,-0.24218 -0.863281,-0.36328 l -0.4804687,-0.0937 q -0.8828125,-0.17578 -1.2773438,-0.55078 -0.3945313,-0.375 -0.3945313,-1.04297 0,-0.77343 0.5429688,-1.21875 0.546875,-0.44531 1.503906,-0.44531 0.410157,0 0.835938,0.0742 0.425781,0.0742 0.871094,0.22266 z"
       style="font-size:8px;font-family:Raleway;text-anchor:middle;fill:#000000;stroke:none;stroke-width:1px;text-rendering:geometricPrecision"
       id="path210" />
    <path
       d="m 13.292969,106.16797 h 3.6875 v 0.66406 h -2.898438 v 1.72656 h 2.777344 v 0.66407 h -2.777344 v 2.11328 h 2.96875 V 112 h -3.757812 z"
       style="font-size:8px;font-family:Raleway;text-anchor:middle;fill:#000000;stroke:none;stroke-width:1px;text-rendering:geometricPrecision"
       id="path212" />
    <path
       d="m 18.355469,106.16797 h 0.789062 v 5.16797 h 2.839844 V 112 h -3.628906 z"
       style="font-size:8px;font-family:Raleway;text-anchor:middle;fill:#000000;stroke:none;stroke-width:1px;text-rendering:geometricPrecision"
       id="path214" />
    <path
       d="m 22.808594,106.16797 h 3.6875 v 0.66406 h -2.898438 v 1.72656 H 26.375 v 0.66407 h -2.777344 v 2.11328 h 2.96875 V 112 h -3.757812 z"
       style="font-size:8px;font-family:Raleway;text-anchor:middle;fill:#000000;stroke:none;stroke-width:1px;text-rendering:geometricPrecision"
       id="path216" />
    <path
       d="m 32.238281,106.61719 v 0.83203 q -0.398437,-0.37109 -0.851562,-0.55469 -0.449219,-0.18359 -0.957032,-0.18359 -1,0 -1.53125,0.61328 -0.53125,0.60937 -0.53125,1.76562 0,1.15235 0.53125,1.76563 0.53125,0.60937 1.53125,0.60937 0.507813,0 0.957032,-0.18359 0.453125,-0.18359 0.851562,-0.55469 v 0.82422 q -0.414062,0.28125 -0.878906,0.42188 -0.460938,0.14062 -0.976563,0.14062 -1.324218,0 -2.085937,-0.80859 -0.761719,-0.8125 -0.761719,-2.21485 0,-1.40625 0.761719,-2.21484 0.761719,-0.8125 2.085937,-0.8125 0.523438,0 0.984375,0.14063 0.464844,0.13671 0.871094,0.41406 z"
       style="font-size:8px;font-family:Raleway;text-anchor:middle;fill:#000000;stroke:none;stroke-width:1px;text-rendering:geometricPrecision"
       id="path218" />
    <path
       d="m 32.65625,106.16797 h 4.933594 v 0.66406 H 35.519531 V 112 h -0.792969 v -5.16797 H 32.65625 Z"
       style="font-size:8px;font-family:Raleway;text-anchor:middle;fill:#000000;stroke:none;stroke-width:1px;text-rendering:geometricPrecision"
       id="path220" />
  </g>
  <g
     aria-label="GATE"
     style="font-size:8px;font-family:Raleway;text-anchor:middle;fill:#000000;stroke:none;stroke-width:1px;text-rendering:geometricPrecision"
     id="text25">
    <path
       d="m 16.761719,152.16797 v -1.56641 h -1.289063 v -0.64844 h 2.070313 v 2.50391 q -0.457032,0.32422 -1.007813,0.49219 -0.550781,0.16406 -1.175781,0.16406 -1.367187,0 -2.140625,-0.79687 -0.769531,-0.80079 -0.769531,-2.22657 0,-1.42968 0.769531,-2.22656 0.773438,-0.80078 2.140625,-0.80078 0.570313,0 1.082031,0.14062 0.515625,0.14063 0.949219,0.41407 v 0.83984 q -0.4375,-0.37109 -0.929688,-0.55859 -0.492187,-0.1875 -1.035156,-0.1875 -1.070312,0 -1.609375,0.59765 -0.535156,0.59766 -0.535156,1.78125 0,1.17969 0.535156,1.77735 0.539063,0.59765 1.609375,0.59765 0.417969,0 0.746094,-0.0703 0.328125,-0.0742 0.589844,-0.22656 z"
       style="font-size:8px;font-family:Raleway;text-anchor:middle;fill:#000000;stroke:none;stroke-width:1px;text-rendering:geometricPrecision"
       id="path223" />
    <path
       d="m 20.9375,147.94531 -1.070313,2.90235 h 2.144532 z m -0.445313,-0.77734 h 0.894532 L 23.609375,153 h -0.820313 l -0.53125,-1.49609 H 19.628906 L 19.097656,153 h -0.832031 z"
       style="font-size:8px;font-family:Raleway;text-anchor:middle;fill:#000000;stroke:none;stroke-width:1px;text-rendering:geometricPrecision"
       id="path225" />
    <path
       d="m 23.023437,147.16797 h 4.933594 v 0.66406 H 25.886719 V 153 H 25.09375 v -5.16797 h -2.070313 z"
       style="font-size:8px;font-family:Raleway;text-anchor:middle;fill:#000000;stroke:none;stroke-width:1px;text-rendering:geometricPrecision"
       id="path227" />
    <path
       d="m 28.722656,147.16797 h 3.6875 v 0.66406 h -2.898437 v 1.72656 h 2.777343 v 0.66407 h -2.777343 v 2.11328 h 2.96875 V 153 h -3.757813 z"
       style="font-size:8px;font-family:Raleway;text-anchor:middle;fill:#000000;stroke:none;stroke-width:1px;text-rendering:geometricPrecision"
       id="path229" />
  </g>
  <g
     aria-label="OUT"
     style="font-size:8px;font-family:Raleway;text-anchor:middle;fill:#000000;stroke:none;stroke-width:1px;text-rendering:geometricPrecision"
     id="text31">
    <path
       d="m 62.128906,147.70312 q -0.859375,0 -1.367187,0.64063 -0.503907,0.64062 -0.503907,1.74609 0,1.10157 0.503907,1.74219 0.507812,0.64063 1.367187,0.64063 0.859375,0 1.359375,-0.64063 0.503906,-0.64062 0.503906,-1.74219 0,-1.10547 -0.503906,-1.74609 -0.5,-0.64063 -1.359375,-0.64063 z m 0,-0.64062 q 1.226563,0 1.960938,0.82422 0.734375,0.82031 0.734375,2.20312 0,1.37891 -0.734375,2.20313 -0.734375,0.82031 -1.960938,0.82031 -1.230469,0 -1.96875,-0.82031 -0.734375,-0.82031 -0.734375,-2.20313 0,-1.38281 0.734375,-2.20312 0.738281,-0.82422 1.96875,-0.82422 z"
       style="font-size:8px;font-family:Raleway;text-anchor:middle;fill:#000000;stroke:none;stroke-width:1px;text-rendering:geometricPrecision"
       id="path232" />
    <path
       d="m 65.96875,147.16797 h 0.792969 v 3.54297 q 0,0.9375 0.339843,1.35156 0.339844,0.41016 1.101563,0.41016 0.757812,0 1.097656,-0.41016 0.339844,-0.41406 0.339844,-1.35156 v -3.54297 h 0.792969 v 3.64062 q 0,1.14063 -0.566407,1.72266 -0.5625,0.58203 -1.664062,0.58203 -1.105469,0 -1.671875,-0.58203 -0.5625,-0.58203 -0.5625,-1.72266 z"
       style="font-size:8px;font-family:Raleway;text-anchor:middle;fill:#000000;stroke:none;stroke-width:1px;text-rendering:geometricPrecision"
       id="path234" />
    <path
       d="m 71.109375,147.16797 h 4.933594 v 0.66406 H 73.972656 V 153 h -0.792969 v -5.16797 h -2.070312 z"
       style="font-size:8px;font-family:Raleway;text-anchor:middle;fill:#000000;stroke:none;stroke-width:1px;text-rendering:geometricPrecision"
       id="path236" />
  </g>
  <path
     style="stroke:#222222"
     d="M 0,190 H 90"
     id="line28" />
  <g
     aria-label="BD-9"
     style="font-size:12px;font-family:Raleway;text-anchor:middle;fill:#000000;stroke:none;stroke-width:1px;text-rendering:geometricPrecision"
     id="text30">
    <path
       d="m 32.642578,210.82227 v 3.20507 h 1.898438 q 0.955078,0 1.412109,-0.39257 0.462891,-0.39844 0.462891,-1.2129 0,-0.82031 -0.462891,-1.20703 -0.457031,-0.39257 -1.412109,-0.39257 z m 0,-3.59766 v 2.63672 h 1.751953 q 0.867188,0 1.289063,-0.32227 0.427734,-0.32812 0.427734,-0.99609 0,-0.66211 -0.427734,-0.99024 -0.421875,-0.32812 -1.289063,-0.32812 z m -1.183594,-0.97266 h 3.023438 q 1.353515,0 2.085937,0.5625 0.732422,0.5625 0.732422,1.59961 0,0.80274 -0.375,1.27735 -0.375,0.47461 -1.101562,0.59179 0.873047,0.1875 1.353515,0.78516 0.486328,0.5918 0.486328,1.48242 0,1.17188 -0.796875,1.81055 Q 36.070312,215 34.599609,215 h -3.140625 z"
       style="font-size:12px;font-family:Raleway;text-anchor:middle;fill:#000000;stroke:none;stroke-width:1px;text-rendering:geometricPrecision"
       id="path240" />
    <path
       d="m 40.869141,207.22461 v 6.80273 h 1.429687 q 1.810547,0 2.648438,-0.82031 0.84375,-0.82031 0.84375,-2.58984 0,-1.75782 -0.84375,-2.57227 -0.837891,-0.82031 -2.648438,-0.82031 z m -1.183594,-0.97266 h 2.43164 q 2.542969,0 3.732422,1.06055 1.189453,1.05469 1.189453,3.30469 0,2.26172 -1.195312,3.32226 Q 44.648437,215 42.117187,215 h -2.43164 z"
       style="font-size:12px;font-family:Raleway;text-anchor:middle;fill:#000000;stroke:none;stroke-width:1px;text-rendering:geometricPrecision"
       id="path242" />
    <path
       d="m 48.328125,211.23242 h 3.158203 v 0.96094 h -3.158203 z"
       style="font-size:12px;font-family:Raleway;text-anchor:middle;fill:#000000;stroke:none;stroke-width:1px;text-rendering:geometricPrecision"
       id="path244" />
    <path
       d="m 53.396484,214.81836 v -1.07813 q 0.445313,0.21094 0.902344,0.32227 0.457031,0.11133 0.896484,0.11133 1.171875,0 1.78711,-0.78516 0.621094,-0.79101 0.708984,-2.39648 -0.339844,0.5039 -0.861328,0.77343 -0.521484,0.26954 -1.154297,0.26954 -1.3125,0 -2.080078,-0.79102 -0.761719,-0.79687 -0.761719,-2.17383 0,-1.34765 0.796875,-2.16211 0.796875,-0.81445 2.121094,-0.81445 1.517578,0 2.314453,1.16602 0.802735,1.16015 0.802735,3.375 0,2.06835 -0.984375,3.30468 -0.978516,1.23047 -2.636719,1.23047 -0.445313,0 -0.902344,-0.0879 -0.457031,-0.0879 -0.949219,-0.26367 z m 2.355469,-3.70899 q 0.796875,0 1.259766,-0.54492 0.46875,-0.54492 0.46875,-1.49414 0,-0.94336 -0.46875,-1.48828 -0.462891,-0.55078 -1.259766,-0.55078 -0.796875,0 -1.265625,0.55078 -0.462891,0.54492 -0.462891,1.48828 0,0.94922 0.462891,1.49414 0.46875,0.54492 1.265625,0.54492 z"
       style="font-size:12px;font-family:Raleway;text-anchor:middle;fill:#000000;stroke:none;stroke-width:1px;text-rendering:geometricPrecision"
       id="path246" />
  </g>
  <g
     aria-label="SELECT CV"
     style="font-size:8px;font-family:Raleway;text-anchor:middle;fill:#000000;stroke:none;stroke-width:1px;text-rendering:geometricPrecision"
     id="text33">
    <path
       d="m 4.90625,247.35937 v 0.76954 q -0.4492188,-0.21485 -0.8476563,-0.32032 -0.3984374,-0.10547 -0.7695312,-0.10547 -0.6445312,0 -0.9960937,0.25 -0.3476563,0.25 -0.3476563,0.71094 0,0.38672 0.2304688,0.58594 0.234375,0.19531 0.8828125,0.31641 l 0.4765625,0.0977 q 0.8828124,0.16797 1.3007812,0.59375 0.421875,0.42188 0.421875,1.13281 0,0.84766 -0.5703125,1.28516 -0.5664063,0.4375 -1.6640625,0.4375 -0.4140625,0 -0.8828125,-0.0937 -0.4648438,-0.0937 -0.9648438,-0.27734 v -0.8125 q 0.4804688,0.26953 0.9414063,0.40625 0.4609375,0.13672 0.90625,0.13672 0.6757813,0 1.0429687,-0.26563 0.3671875,-0.26562 0.3671875,-0.75781 0,-0.42969 -0.265625,-0.67188 -0.2617187,-0.24218 -0.8632812,-0.36328 l -0.4804687,-0.0937 q -0.8828126,-0.17578 -1.2773438,-0.55078 -0.3945313,-0.375 -0.3945313,-1.04297 0,-0.77344 0.5429688,-1.21875 0.546875,-0.44531 1.5039063,-0.44531 0.4101562,0 0.8359374,0.0742 0.4257813,0.0742 0.8710938,0.22265 z"
       style="font-size:8px;font-family:Raleway;text-anchor:middle;fill:#000000;stroke:none;stroke-width:1px;text-rendering:geometricPrecision"
       id="path249" />
    <path
       d="m 6.4882812,247.16797 h 3.6874998 v 0.66406 H 7.2773437 v 1.72656 h 2.7773443 v 0.66407 H 7.2773437 v 2.11328 H 10.246094 V 253 H 6.4882812 Z"
       style="font-size:8px;font-family:Raleway;text-anchor:middle;fill:#000000;stroke:none;stroke-width:1px;text-rendering:geometricPrecision"
       id="path251" />
    <path
       d="m 11.550781,247.16797 h 0.789063 v 5.16797 h 2.839844 V 253 h -3.628907 z"
       style="font-size:8px;font-family:Raleway;text-anchor:middle;fill:#000000;stroke:none;stroke-width:1px;text-rendering:geometricPrecision"
       id="path253" />
    <path
       d="m 16.003906,247.16797 h 3.6875 v 0.66406 h -2.898437 v 1.72656 h 2.777343 v 0.66407 h -2.777343 v 2.11328 h 2.96875 V 253 h -3.757813 z"
       style="font-size:8px;font-family:Raleway;text-anchor:middle;fill:#000000;stroke:none;stroke-width:1px;text-rendering:geometricPrecision"
       id="path255" />
    <path
       d="m 25.433594,247.61719 v 0.83203 q -0.398438,-0.3711 -0.851563,-0.55469 -0.449219,-0.18359 -0.957031,-0.18359 -1,0 -1.53125,0.61328 -0.53125,0.60937 -0.53125,1.76562 0,1.15235 0.53125,1.76563 0.53125,0.60937 1.53125,0.60937 0.507812,0 0.957031,-0.18359 0.453125,-0.18359 0.851563,-0.55469 v 0.82422 q -0.414063,0.28125 -0.878907,0.42188 -0.460937,0.14062 -0.976562,0.14062 -1.324219,0 -2.085938,-0.80859 -0.761718,-0.8125 -0.761718,-2.21485 0,-1.40625 0.761718,-2.21484 0.761719,-0.8125 2.085938,-0.8125 0.523437,0 0.984375,0.14062 0.464844,0.13672 0.871094,0.41407 z"
       style="font-size:8px;font-family:Raleway;text-anchor:middle;fill:#000000;stroke:none;stroke-width:1px;text-rendering:geometricPrecision"
       id="path257" />
    <path
       d="m 25.851562,247.16797 h 4.933594 v 0.66406 H 28.714844 V 253 h -0.792969 v -5.16797 h -2.070313 z"
       style="font-size:8px;font-family:Raleway;text-anchor:middle;fill:#000000;stroke:none;stroke-width:1px;text-rendering:geometricPrecision"
       id="path259" />
    <path
       d="m 38.464844,247.61719 v 0.83203 q -0.398438,-0.3711 -0.851563,-0.55469 -0.449219,-0.18359 -0.957031,-0.18359 -1,0 -1.53125,0.61328 -0.53125,0.60937 -0.53125,1.76562 0,1.15235 0.53125,1.76563 0.53125,0.60937 1.53125,0.60937 0.507812,0 0.957031,-0.18359 0.453125,-0.18359 0.851563,-0.55469 v 0.82422 q -0.414063,0.28125 -0.878907,0.42188 -0.460937,0.14062 -0.976562,0.14062 -1.324219,0 -2.085938,-0.80859 -0.761718,-0.8125 -0.761718,-2.21485 0,-1.40625 0.761718,-2.21484 0.761719,-0.8125 2.085938,-0.8125 0.523437,0 0.984375,0.14062 0.464844,0.13672 0.871094,0.41407 z"
       style="font-size:8px;font-family:Raleway;text-anchor:middle;fill:#000000;stroke:none;stroke-width:1px;text-rendering:geometricPrecision"
       id="path261" />
    <path
       d="m 41.195312,253 -2.226562,-5.83203 h 0.824219 l 1.847656,4.91015 1.851562,-4.91015 H 44.3125 L 42.089844,253 Z"
       style="font-size:8px;font-family:Raleway;text-anchor:middle;fill:#000000;stroke:none;stroke-width:1px;text-rendering:geometricPrecision"
       id="path263" />
  </g>
  <g
     aria-label="SELECT"
     style="font-size:8px;font-family:Raleway;text-anchor:middle;fill:#000000;stroke:none;stroke-width:1px;text-rendering:geometricPrecision"
     id="text35">
    <path
       d="m 11.710938,296.35937 v 0.76954 q -0.449219,-0.21485 -0.847657,-0.32032 -0.398437,-0.10547 -0.769531,-0.10547 -0.6445312,0 -0.9960937,0.25 Q 8.75,297.20312 8.75,297.66406 q 0,0.38672 0.2304688,0.58594 0.234375,0.19531 0.8828125,0.31641 l 0.4765627,0.0976 q 0.882812,0.16797 1.300781,0.59375 0.421875,0.42188 0.421875,1.13281 0,0.84766 -0.570312,1.28516 -0.566407,0.4375 -1.664063,0.4375 -0.4140625,0 -0.8828125,-0.0937 -0.4648437,-0.0937 -0.9648438,-0.27734 v -0.8125 q 0.4804688,0.26953 0.9414063,0.40625 0.4609375,0.13672 0.90625,0.13672 0.675781,0 1.042969,-0.26563 0.367187,-0.26562 0.367187,-0.75781 0,-0.42969 -0.265625,-0.67188 -0.261718,-0.24218 -0.863281,-0.36328 l -0.4804687,-0.0937 q -0.8828125,-0.17578 -1.2773438,-0.55078 -0.3945313,-0.375 -0.3945313,-1.04297 0,-0.77344 0.5429688,-1.21875 0.546875,-0.44531 1.503906,-0.44531 0.410157,0 0.835938,0.0742 0.425781,0.0742 0.871094,0.22265 z"
       style="font-size:8px;font-family:Raleway;text-anchor:middle;fill:#000000;stroke:none;stroke-width:1px;text-rendering:geometricPrecision"
       id="path266" />
    <path
       d="m 13.292969,296.16797 h 3.6875 v 0.66406 h -2.898438 v 1.72656 h 2.777344 v 0.66407 h -2.777344 v 2.11328 h 2.96875 V 302 h -3.757812 z"
       style="font-size:8px;font-family:Raleway;text-anchor:middle;fill:#000000;stroke:none;stroke-width:1px;text-rendering:geometricPrecision"
       id="path268" />
    <path
       d="m 18.355469,296.16797 h 0.789062 v 5.16797 h 2.839844 V 302 h -3.628906 z"
       style="font-size:8px;font-family:Raleway;text-anchor:middle;fill:#000000;stroke:none;stroke-width:1px;text-rendering:geometricPrecision"
       id="path270" />
    <path
       d="m 22.808594,296.16797 h 3.6875 v 0.66406 h -2.898438 v 1.72656 H 26.375 v 0.66407 h -2.777344 v 2.11328 h 2.96875 V 302 h -3.757812 z"
       style="font-size:8px;font-family:Raleway;text-anchor:middle;fill:#000000;stroke:none;stroke-width:1px;text-rendering:geometricPrecision"
       id="path272" />
    <path
       d="m 32.238281,296.61719 v 0.83203 q -0.398437,-0.3711 -0.851562,-0.55469 -0.449219,-0.18359 -0.957032,-0.18359 -1,0 -1.53125,0.61328 -0.53125,0.60937 -0.53125,1.76562 0,1.15235 0.53125,1.76563 0.53125,0.60937 1.53125,0.60937 0.507813,0 0.957032,-0.18359 0.453125,-0.18359 0.851562,-0.55469 v 0.82422 q -0.414062,0.28125 -0.878906,0.42188 -0.460938,0.14062 -0.976563,0.14062 -1.324218,0 -2.085937,-0.80859 -0.761719,-0.8125 -0.761719,-2.21485 0,-1.40625 0.761719,-2.21484 0.761719,-0.8125 2.085937,-0.8125 0.523438,0 0.984375,0.14062 0.464844,0.13672 0.871094,0.41407 z"
       style="font-size:8px;font-family:Raleway;text-anchor:middle;fill:#000000;stroke:none;stroke-width:1px;text-rendering:geometricPrecision"
       id="path274" />
    <path
       d="m 32.65625,296.16797 h 4.933594 v 0.66406 H 35.519531 V 302 h -0.792969 v -5.16797 H 32.65625 Z"
       style="font-size:8px;font-family:Raleway;text-anchor:middle;fill:#000000;stroke:none;stroke-width:1px;text-rendering:geometricPrecision"
       id="path276" />
  </g>
  <g
     aria-label="TUNE CV"
     style="font-size:8px;font-family:Raleway;text-anchor:middle;fill:#000000;stroke:none;stroke-width:1px;text-rendering:geometricPrecision"
     id="text34">
    <path
       d="m 49.773437,247.16797 h 4.933594 v 0.66406 H 52.636719 V 253 H 51.84375 v -5.16797 h -2.070313 z"
       style="font-size:8px;font-family:Raleway;text-anchor:middle;fill:#000000;stroke:none;stroke-width:1px;text-rendering:geometricPrecision"
       id="path279" />
    <path
       d="m 55.382812,247.16797 h 0.792969 v 3.54297 q 0,0.9375 0.339844,1.35156 0.339844,0.41016 1.101562,0.41016 0.757813,0 1.097657,-0.41016 0.339843,-0.41406 0.339843,-1.35156 v -3.54297 h 0.792969 v 3.64062 q 0,1.14063 -0.566406,1.72266 -0.5625,0.58203 -1.664063,0.58203 -1.105468,0 -1.671875,-0.58203 -0.5625,-0.58203 -0.5625,-1.72266 z"
       style="font-size:8px;font-family:Raleway;text-anchor:middle;fill:#000000;stroke:none;stroke-width:1px;text-rendering:geometricPrecision"
       id="path281" />
    <path
       d="m 61.332031,247.16797 h 1.0625 l 2.585938,4.8789 v -4.8789 h 0.765625 V 253 h -1.0625 l -2.585938,-4.87891 V 253 h -0.765625 z"
       style="font-size:8px;font-family:Raleway;text-anchor:middle;fill:#000000;stroke:none;stroke-width:1px;text-rendering:geometricPrecision"
       id="path283" />
    <path
       d="m 67.316406,247.16797 h 3.6875 v 0.66406 h -2.898437 v 1.72656 h 2.777343 v 0.66407 h -2.777343 v 2.11328 h 2.96875 V 253 h -3.757813 z"
       style="font-size:8px;font-family:Raleway;text-anchor:middle;fill:#000000;stroke:none;stroke-width:1px;text-rendering:geometricPrecision"
       id="path285" />
    <path
       d="m 79.292969,247.61719 v 0.83203 q -0.398438,-0.3711 -0.851563,-0.55469 -0.449219,-0.18359 -0.957031,-0.18359 -1,0 -1.53125,0.61328 -0.53125,0.60937 -0.53125,1.76562 0,1.15235 0.53125,1.76563 0.53125,0.60937 1.53125,0.60937 0.507812,0 0.957031,-0.18359 0.453125,-0.18359 0.851563,-0.55469 v 0.82422 q -0.414063,0.28125 -0.878907,0.42188 -0.460937,0.14062 -0.976562,0.14062 -1.324219,0 -2.085938,-0.80859 -0.761718,-0.8125 -0.761718,-2.21485 0,-1.40625 0.761718,-2.21484 0.761719,-0.8125 2.085938,-0.8125 0.523437,0 0.984375,0.14062 0.464844,0.13672 0.871094,0.41407 z"
       style="font-size:8px;font-family:Raleway;text-anchor:middle;fill:#000000;stroke:none;stroke-width:1px;text-rendering:geometricPrecision"
       id="path287" />
    <path
       d="m 82.023437,253 -2.226562,-5.83203 h 0.824219 l 1.847656,4.91015 1.851562,-4.91015 h 0.820313 L 82.917969,253 Z"
       style="font-size:8px;font-family:Raleway;text-anchor:middle;fill:#000000;stroke:none;stroke-width:1px;text-rendering:geometricPrecision"
       id="path289" />
  </g>
  <g
     aria-label="TUNE"
     style="font-size:8px;font-family:Raleway;text-anchor:middle;fill:#000000;stroke:none;stroke-width:1px;text-rendering:geometricPrecision"
     id="text36">
    <path
       d="m 56.578125,296.16797 h 4.933594 v 0.66406 H 59.441406 V 302 h -0.792969 v -5.16797 h -2.070312 z"
       style="font-size:8px;font-family:Raleway;text-anchor:middle;fill:#000000;stroke:none;stroke-width:1px;text-rendering:geometricPrecision"
       id="path292" />
    <path
       d="m 62.1875,296.16797 h 0.792969 v 3.54297 q 0,0.9375 0.339843,1.35156 0.339844,0.41016 1.101563,0.41016 0.757812,0 1.097656,-0.41016 0.339844,-0.41406 0.339844,-1.35156 v -3.54297 h 0.792969 v 3.64062 q 0,1.14063 -0.566407,1.72266 -0.5625,0.58203 -1.664062,0.58203 -1.105469,0 -1.671875,-0.58203 -0.5625,-0.58203 -0.5625,-1.72266 z"
       style="font-size:8px;font-family:Raleway;text-anchor:middle;fill:#000000;stroke:none;stroke-width:1px;text-rendering:geometricPrecision"
       id="path294" />
    <path
       d="m 68.136719,296.16797 h 1.0625 l 2.585937,4.8789 v -4.8789 h 0.765625 V 302 h -1.0625 l -2.585937,-4.87891 V 302 h -0.765625 z"
       style="font-size:8px;font-family:Raleway;text-anchor:middle;fill:#000000;stroke:none;stroke-width:1px;text-rendering:geometricPrecision"
       id="path296" />
    <path
       d="m 74.121094,296.16797 h 3.6875 v 0.66406 h -2.898438 v 1.72656 H 77.6875 v 0.66407 h -2.777344 v 2.11328 h 2.96875 V 302 h -3.757812 z"
       style="font-size:8px;font-family:Raleway;text-anchor:middle;fill:#000000;stroke:none;stroke-width:1px;text-rendering:geometricPrecision"
       id="path298" />
  </g>
  <g
     aria-label="GATE"
     style="font-size:8px;font-family:Raleway;text-anchor:middle;fill:#000000;stroke:none;stroke-width:1px;text-rendering:geometricPrecision"
     id="text38">
    <path
       d="m 16.761719,342.16797 v -1.56641 h -1.289063 v -0.64844 h 2.070313 v 2.50391 q -0.457032,0.32422 -1.007813,0.49219 -0.550781,0.16406 -1.175781,0.16406 -1.367187,0 -2.140625,-0.79687 -0.769531,-0.80079 -0.769531,-2.22657 0,-1.42968 0.769531,-2.22656 0.773438,-0.80078 2.140625,-0.80078 0.570313,0 1.082031,0.14062 0.515625,0.14063 0.949219,0.41407 v 0.83984 q -0.4375,-0.37109 -0.929688,-0.55859 -0.492187,-0.1875 -1.035156,-0.1875 -1.070312,0 -1.609375,0.59765 -0.535156,0.59766 -0.535156,1.78125 0,1.17969 0.535156,1.77735 0.539063,0.59765 1.609375,0.59765 0.417969,0 0.746094,-0.0703 0.328125,-0.0742 0.589844,-0.22656 z"
       style="font-size:8px;font-family:Raleway;text-anchor:middle;fill:#000000;stroke:none;stroke-width:1px;text-rendering:geometricPrecision"
       id="path301" />
    <path
       d="m 20.9375,337.94531 -1.070313,2.90235 h 2.144532 z m -0.445313,-0.77734 h 0.894532 L 23.609375,343 h -0.820313 l -0.53125,-1.49609 H 19.628906 L 19.097656,343 h -0.832031 z"
       style="font-size:8px;font-family:Raleway;text-anchor:middle;fill:#000000;stroke:none;stroke-width:1px;text-rendering:geometricPrecision"
       id="path303" />
    <path
       d="m 23.023437,337.16797 h 4.933594 v 0.66406 H 25.886719 V 343 H 25.09375 v -5.16797 h -2.070313 z"
       style="font-size:8px;font-family:Raleway;text-anchor:middle;fill:#000000;stroke:none;stroke-width:1px;text-rendering:geometricPrecision"
       id="path305" />
    <path
       d="m 28.722656,337.16797 h 3.6875 v 0.66406 h -2.898437 v 1.72656 h 2.777343 v 0.66407 h -2.777343 v 2.11328 h 2.96875 V 343 h -3.757813 z"
       style="font-size:8px;font-family:Raleway;text-anchor:middle;fill:#000000;stroke:none;stroke-width:1px;text-rendering:geometricPrecision"
       id="path307" />
  </g>
  <g
     aria-label="OUT"
     style="font-size:8px;font-family:Raleway;text-anchor:middle;fill:#000000;stroke:none;stroke-width:1px;text-rendering:geometricPrecision"
     id="text40">
    <path
       d="m 62.128906,337.70312 q -0.859375,0 -1.367187,0.64063 -0.503907,0.64062 -0.503907,1.74609 0,1.10157 0.503907,1.74219 0.507812,0.64063 1.367187,0.64063 0.859375,0 1.359375,-0.64063 0.503906,-0.64062 0.503906,-1.74219 0,-1.10547 -0.503906,-1.74609 -0.5,-0.64063 -1.359375,-0.64063 z m 0,-0.64062 q 1.226563,0 1.960938,0.82422 0.734375,0.82031 0.734375,2.20312 0,1.37891 -0.734375,2.20313 -0.734375,0.82031 -1.960938,0.82031 -1.230469,0 -1.96875,-0.82031 -0.734375,-0.82031 -0.734375,-2.20313 0,-1.38281 0.734375,-2.20312 0.738281,-0.82422 1.96875,-0.82422 z"
       style="font-size:8px;font-family:Raleway;text-anchor:middle;fill:#000000;stroke:none;stroke-width:1px;text-rendering:geometricPrecision"
       id="path310" />
    <path
       d="m 65.96875,337.16797 h 0.792969 v 3.54297 q 0,0.9375 0.339843,1.35156 0.339844,0.41016 1.101563,0.41016 0.757812,0 1.097656,-0.41016 0.339844,-0.41406 0.339844,-1.35156 v -3.54297 h 0.792969 v 3.64062 q 0,1.14063 -0.566407,1.72266 -0.5625,0.58203 -1.664062,0.58203 -1.105469,0 -1.671875,-0.58203 -0.5625,-0.58203 -0.5625,-1.72266 z"
       style="font-size:8px;font-family:Raleway;text-anchor:middle;fill:#000000;stroke:none;stroke-width:1px;text-rendering:geometricPrecision"
       id="path312" />
    <path
       d="m 71.109375,337.16797 h 4.933594 v 0.66406 H 73.972656 V 343 h -0.792969 v -5.16797 h -2.070312 z"
       style="font-size:8px;font-family:Raleway;text-anchor:middle;fill:#000000;stroke:none;stroke-width:1px;text-rendering:geometricPrecision"
       id="path314" />
  </g>
  <g
     aria-label="dk"
     style="font-style:normal;font-variant:normal;font-weight:normal;font-stretch:normal;font-size:32px;font-family:'Circuit board';-inkscape-font-specification:'Circuit board';letter-spacing:0px;word-spacing:0px;text-anchor:middle;fill:#000000;fill-opacity:1;stroke:none"
     id="text850">
    <path
       d="m 44.7385,373.536 q -0.096,0.384 -0.416,0.576 -0.32,0.224 -0.672,0.16 -0.512,-0.096 -0.672,-0.64 l -2.304,-1.152 0.032,-24.224 1.696,-1.44 q -0.032,-0.128 0,-0.256 0.064,-0.384 0.384,-0.576 0.32,-0.192 0.704,-0.128 0.352,0.064 0.576,0.384 0.224,0.32 0.16,0.704 -0.096,0.384 -0.416,0.576 -0.32,0.192 -0.672,0.128 h -0.064 l -1.408,1.184 v 22.752 l 1.824,0.928 q 0.32,-0.096 0.544,-0.064 0.352,0.064 0.544,0.384 0.224,0.32 0.16,0.704 z m -4.352,-28.864 q -0.096,0.352 -0.352,0.544 l -0.032,23.808 -2.048,2.88 h -7.36 v -16.192 h 4.608 q 0.32,-0.512 0.96,-0.384 0.352,0.064 0.576,0.384 0.224,0.32 0.16,0.704 -0.096,0.384 -0.416,0.576 -0.32,0.192 -0.672,0.128 -0.32,-0.032 -0.48,-0.256 h -3.744 l -0.032,13.888 5.984,-0.032 1.344,-1.856 0.064,-23.648 q -0.48,-0.384 -0.384,-0.928 0.096,-0.384 0.416,-0.576 0.32,-0.192 0.704,-0.128 0.352,0.064 0.544,0.384 0.224,0.32 0.16,0.704 z m -1.568,2.368 q -0.096,0.352 -0.384,0.576 v 10.816 l -5.344,-0.064 v 10.592 l 2.848,0.032 q 0.288,-0.448 0.928,-0.352 0.352,0.064 0.544,0.384 0.224,0.32 0.16,0.704 -0.096,0.384 -0.416,0.576 -0.32,0.192 -0.672,0.128 -0.352,-0.096 -0.544,-0.384 l -3.808,0.032 0.064,-12.704 5.152,-0.064 -0.064,-9.76 q -0.384,-0.352 -0.288,-0.896 0.096,-0.384 0.384,-0.576 0.32,-0.192 0.704,-0.128 0.352,0.064 0.576,0.384 0.224,0.32 0.16,0.704 z m 4.864,-0.224 q 0.064,-0.384 -0.288,-0.448 -0.384,-0.064 -0.448,0.288 -0.16,0.448 0.288,0.48 0.352,0.064 0.448,-0.32 z m -3.808,-2.24 q 0.064,-0.416 -0.32,-0.48 -0.416,-0.064 -0.448,0.32 -0.096,0.384 0.288,0.448 0.32,0.064 0.48,-0.288 z m -1.6,2.368 q 0.032,-0.416 -0.288,-0.48 -0.416,-0.064 -0.448,0.32 -0.096,0.384 0.288,0.448 0.352,0.064 0.448,-0.288 z m -1.888,9.376 q 0.064,-0.416 -0.32,-0.48 -0.416,-0.064 -0.448,0.32 -0.096,0.384 0.288,0.448 0.32,0.064 0.48,-0.288 z m 7.84,17.12 q 0.064,-0.384 -0.288,-0.448 -0.448,-0.032 -0.48,0.288 -0.064,0.16 0.032,0.288 0.128,0.16 0.288,0.192 0.352,0.064 0.448,-0.32 z m -7.168,-3.84 q 0.064,-0.384 -0.288,-0.448 -0.448,-0.032 -0.48,0.288 -0.064,0.16 0.032,0.32 0.128,0.128 0.288,0.16 0.352,0.064 0.448,-0.32 z"
       style="font-style:normal;font-variant:normal;font-weight:normal;font-stretch:normal;font-size:32px;font-family:'Circuit board';-inkscape-font-specification:'Circuit board';letter-spacing:0px;word-spacing:0px;text-anchor:middle;fill:#000000;fill-opacity:1;stroke:none"
       id="path317" />
    <path
       d="m 57.636,360.512 q 0,0.256 -0.192,0.48 -0.16,0.192 -0.448,0.224 l -1.888,3.168 h -2.24 -1.344 L 51.492,353.12 q -0.16,-0.16 -0.256,-0.416 -0.064,-0.288 0.096,-0.512 0.192,-0.256 0.48,-0.32 0.32,-0.064 0.544,0.096 0.256,0.16 0.32,0.448 0.096,0.48 -0.352,0.768 v 10.4 h 1.024 1.344 l 1.6,-2.72 q -0.032,-0.064 -0.064,-0.16 -0.032,-0.096 -0.032,-0.192 0,-0.288 0.224,-0.48 0.224,-0.224 0.512,-0.224 0.32,0 0.512,0.224 0.192,0.192 0.192,0.48 z M 51.3,351.264 q 0,0.352 -0.32,0.576 v 21.408 q 0.352,0.256 0.256,0.736 -0.064,0.288 -0.288,0.448 -0.224,0.16 -0.544,0.096 -0.288,-0.064 -0.48,-0.32 -0.16,-0.224 -0.096,-0.512 0.16,-0.352 0.32,-0.48 L 50.18,351.84 q -0.288,-0.224 -0.288,-0.576 0,-0.288 0.192,-0.48 0.224,-0.224 0.512,-0.224 0.32,0 0.512,0.224 0.192,0.192 0.192,0.48 z m 9.088,20.192 q 0,0.288 -0.192,0.512 -0.192,0.192 -0.512,0.192 -0.288,0 -0.512,-0.192 -0.192,-0.224 -0.192,-0.512 0,-0.096 0.032,-0.192 0.032,-0.096 0.064,-0.16 l -4.384,-5.472 h -1.344 -1.024 v 6.304 q 0.448,0.288 0.352,0.768 -0.064,0.288 -0.32,0.448 -0.224,0.16 -0.544,0.096 -0.288,-0.064 -0.48,-0.32 -0.16,-0.224 -0.096,-0.512 0.096,-0.256 0.256,-0.416 l 0.032,-7.168 1.344,-0.032 h 2.24 l 4.672,5.952 q 0.288,0.032 0.448,0.256 0.16,0.192 0.16,0.448 z m -10.432,1.184 q -0.064,0.288 -0.32,0.448 -0.224,0.16 -0.544,0.096 -0.288,-0.064 -0.448,-0.32 -0.16,-0.256 -0.096,-0.544 0.096,-0.32 0.32,-0.448 l 0.032,-17.536 -1.504,-1.248 q -0.064,0 -0.16,0.032 -0.064,0 -0.128,-0.032 -0.288,-0.064 -0.448,-0.32 -0.16,-0.256 -0.096,-0.544 0.064,-0.288 0.288,-0.448 0.256,-0.16 0.544,-0.096 0.576,0.16 0.576,0.672 l 1.728,1.504 -0.032,18.048 q 0.384,0.288 0.288,0.736 z m 2.304,-20.128 q -0.032,-0.32 -0.352,-0.256 -0.32,0.032 -0.256,0.384 0.096,0.288 0.384,0.224 0.384,-0.064 0.224,-0.352 z m -1.344,-1.152 q 0.16,-0.288 -0.256,-0.352 -0.256,-0.064 -0.352,0.224 -0.064,0.32 0.224,0.352 0.352,0.064 0.384,-0.224 z m 6.304,9.088 q -0.032,-0.288 -0.352,-0.224 -0.32,0.032 -0.256,0.352 0.032,0.288 0.384,0.224 0.384,-0.064 0.224,-0.352 z m -9.664,-8 q 0.128,-0.32 -0.224,-0.384 -0.256,-0.064 -0.384,0.256 -0.064,0.32 0.256,0.352 0.32,0.064 0.352,-0.224 z m 12.448,19.072 q 0.064,-0.128 -0.032,-0.224 -0.064,-0.128 -0.224,-0.16 -0.32,-0.064 -0.352,0.256 -0.064,0.32 0.224,0.352 0.352,0.064 0.384,-0.224 z m -7.744,1.088 q 0.16,-0.288 -0.224,-0.352 -0.288,-0.064 -0.384,0.224 -0.064,0.352 0.256,0.384 0.32,0.064 0.352,-0.256 z m -2.72,-0.064 q 0.16,-0.288 -0.224,-0.352 -0.256,-0.064 -0.352,0.224 -0.064,0.32 0.224,0.352 0.32,0.064 0.352,-0.224 z m 1.28,1.376 q 0.064,-0.128 -0.032,-0.256 -0.064,-0.096 -0.224,-0.128 -0.192,-0.032 -0.352,0.256 -0.064,0.32 0.256,0.352 0.32,0.064 0.352,-0.224 z"
       style="font-style:normal;font-variant:normal;font-weight:normal;font-stretch:normal;font-size:32px;font-family:'Circuit board';-inkscape-font-specification:'Circuit board';letter-spacing:0px;word-spacing:0px;text-anchor:middle;fill:#000000;fill-opacity:1;stroke:none"
       id="path319" />
  </g>
  <path
     style="stroke:#111111;stroke-width:0.75"
     d="M 22.5,85.5 7.6235762,91.389992"
     id="SvgjsLine1007" />
  <path
     style="stroke:#111111;stroke-width:0.75"
     d="M 22.5,85.5 6.6109047,87.3806"
     id="SvgjsLine1008" />
  <path
     style="stroke:#111111;stroke-width:0.75"
     d="M 22.5,85.5 6.6596212,83.245583"
     id="SvgjsLine1009" />
  <path
     style="stroke:#111111;stroke-width:0.75"
     d="M 22.5,85.5 7.7664723,79.261154"
     id="SvgjsLine1010" />
  <path
     style="stroke:#111111;stroke-width:0.75"
     d="M 22.5,85.5 9.8575201,75.693489"
     id="SvgjsLine1011" />
  <path
     style="stroke:#111111;stroke-width:0.75"
     d="M 22.5,85.5 12.793082,72.780891"
     id="SvgjsLine1012" />
  <path
     style="stroke:#111111;stroke-width:0.75"
     d="M 22.5,85.5 16.377066,70.717926"
     id="SvgjsLine1013" />
  <path
     style="stroke:#111111;stroke-width:0.75"
     d="M 22.5,85.5 20.370058,69.642403"
     id="SvgjsLine1014" />
  <path
     style="stroke:#111111;stroke-width:0.75"
     d="M 22.5,85.5 24.505331,69.626167"
     id="SvgjsLine1015" />
  <path
     style="stroke:#111111;stroke-width:0.75"
     d="M 22.5,85.5 28.506649,70.670296"
     id="SvgjsLine1016" />
  <path
     style="stroke:#111111;stroke-width:0.75"
     d="M 22.5,85.5 32.106724,72.705048"
     id="SvgjsLine1017" />
  <path
     style="stroke:#111111;stroke-width:0.75"
     d="M 22.5,85.5 35.065071,75.594498"
     id="SvgjsLine1018" />
  <path
     style="stroke:#111111;stroke-width:0.75"
     d="M 22.5,85.5 37.184074,79.145638"
     id="SvgjsLine1019" />
  <path
     style="stroke:#111111;stroke-width:0.75"
     d="M 22.5,85.5 38.322186,83.121239"
     id="SvgjsLine1020" />
  <path
     style="stroke:#111111;stroke-width:0.75"
     d="m 22.5,85.5 15.903374,1.755753"
     id="SvgjsLine1021" />
  <path
     style="stroke:#111111;stroke-width:0.75"
     d="m 22.5,85.5 14.922226,5.772972"
     id="SvgjsLine1022" />
  <path
     style="fill:#a8a8a8;stroke:#111111;stroke-width:0.75"
     d="m 35.5,85.5 a 13,13 0 0 1 -13,13 13,13 0 0 1 -13,-13 13,13 0 0 1 13,-13 13,13 0 0 1 13,13 z"
     id="SvgjsCircle1023" />
  <path
     style="stroke:#111111;stroke-width:0.75"
     d="m 67.5,85.5 h 16"
     id="SvgjsLine1024" />
  <path
     style="stroke:#111111;stroke-width:0.75"
     d="m 67.5,85.5 14.915024,1.594398"
     id="SvgjsLine1025" />
  <path
     style="stroke:#111111;stroke-width:0.75"
     d="m 67.5,85.5 14.661049,3.170738"
     id="SvgjsLine1026" />
  <path
     style="stroke:#111111;stroke-width:0.75"
     d="m 67.5,85.5 14.240967,4.711151"
     id="SvgjsLine1027" />
  <path
     style="stroke:#111111;stroke-width:0.75"
     d="m 67.5,85.5 13.659523,6.198181"
     id="SvgjsLine1028" />
  <path
     style="stroke:#111111;stroke-width:0.75"
     d="m 67.5,85.5 13.784866,8.12265"
     id="SvgjsLine1029" />
  <path
     style="stroke:#111111;stroke-width:0.75"
     d="M 67.5,85.5 53.302368,92.87748"
     id="SvgjsLine1030" />
  <path
     style="stroke:#111111;stroke-width:0.75"
     d="M 67.5,85.5 53.529957,90.96241"
     id="SvgjsLine1031" />
  <path
     style="stroke:#111111;stroke-width:0.75"
     d="M 67.5,85.5 53.028481,89.446541"
     id="SvgjsLine1032" />
  <path
     style="stroke:#111111;stroke-width:0.75"
     d="M 67.5,85.5 52.690975,87.885956"
     id="SvgjsLine1033" />
  <path
     style="stroke:#111111;stroke-width:0.75"
     d="M 67.5,85.5 52.521259,86.298332"
     id="SvgjsLine1034" />
  <path
     style="stroke:#111111;stroke-width:0.75"
     d="M 67.5,85.5 51.522678,84.648445"
     id="SvgjsLine1035" />
  <path
     style="stroke:#111111;stroke-width:0.75"
     d="M 67.5,85.5 52.690975,83.114044"
     id="SvgjsLine1036" />
  <path
     style="stroke:#111111;stroke-width:0.75"
     d="M 67.5,85.5 53.028481,81.553459"
     id="SvgjsLine1037" />
  <path
     style="stroke:#111111;stroke-width:0.75"
     d="M 67.5,85.5 53.529957,80.03759"
     id="SvgjsLine1038" />
  <path
     style="stroke:#111111;stroke-width:0.75"
     d="M 67.5,85.5 54.18972,78.583611"
     id="SvgjsLine1039" />
  <path
     style="stroke:#111111;stroke-width:0.75"
     d="M 67.5,85.5 54.166977,76.655197"
     id="SvgjsLine1040" />
  <path
     style="stroke:#111111;stroke-width:0.75"
     d="M 67.5,85.5 55.952492,75.926338"
     id="SvgjsLine1041" />
  <path
     style="stroke:#111111;stroke-width:0.75"
     d="M 67.5,85.5 57.035526,74.753151"
     id="SvgjsLine1042" />
  <path
     style="stroke:#111111;stroke-width:0.75"
     d="M 67.5,85.5 58.237129,73.701729"
     id="SvgjsLine1043" />
  <path
     style="stroke:#111111;stroke-width:0.75"
     d="M 67.5,85.5 59.543686,72.783981"
     id="SvgjsLine1044" />
  <path
     style="stroke:#111111;stroke-width:0.75"
     d="M 67.5,85.5 60.503082,71.111008"
     id="SvgjsLine1045" />
  <path
     style="stroke:#111111;stroke-width:0.75"
     d="M 67.5,85.5 62.411419,71.389496"
     id="SvgjsLine1046" />
  <path
     style="stroke:#111111;stroke-width:0.75"
     d="M 67.5,85.5 63.940098,70.928551"
     id="SvgjsLine1047" />
  <path
     style="stroke:#111111;stroke-width:0.75"
     d="M 67.5,85.5 65.509117,70.632706"
     id="SvgjsLine1048" />
  <path
     style="stroke:#111111;stroke-width:0.75"
     d="M 67.5,85.5 67.100693,70.505318"
     id="SvgjsLine1049" />
  <path
     style="stroke:#111111;stroke-width:0.75"
     d="M 67.5,85.5 68.776581,69.55101"
     id="SvgjsLine1050" />
  <path
     style="stroke:#111111;stroke-width:0.75"
     d="M 67.5,85.5 70.279327,70.759735"
     id="SvgjsLine1051" />
  <path
     style="stroke:#111111;stroke-width:0.75"
     d="M 67.5,85.5 71.830376,71.138672"
     id="SvgjsLine1052" />
  <path
     style="stroke:#111111;stroke-width:0.75"
     d="M 67.5,85.5 73.332359,71.680321"
     id="SvgjsLine1053" />
  <path
     style="stroke:#111111;stroke-width:0.75"
     d="M 67.5,85.5 74.768265,72.378555"
     id="SvgjsLine1054" />
  <path
     style="stroke:#111111;stroke-width:0.75"
     d="M 67.5,85.5 76.696602,72.407158"
     id="SvgjsLine1055" />
  <path
     style="stroke:#111111;stroke-width:0.75"
     d="M 67.5,85.5 77.37767,74.211441"
     id="SvgjsLine1056" />
  <path
     style="stroke:#111111;stroke-width:0.75"
     d="M 67.5,85.5 78.521614,75.325325"
     id="SvgjsLine1057" />
  <path
     style="stroke:#111111;stroke-width:0.75"
     d="M 67.5,85.5 79.540672,76.554489"
     id="SvgjsLine1058" />
  <path
     style="stroke:#111111;stroke-width:0.75"
     d="M 67.5,85.5 80.423309,77.88501"
     id="SvgjsLine1059" />
  <path
     style="stroke:#111111;stroke-width:0.75"
     d="M 67.5,85.5 82.07016,78.888603"
     id="SvgjsLine1060" />
  <path
     style="stroke:#111111;stroke-width:0.75"
     d="M 67.5,85.5 81.740967,80.788849"
     id="SvgjsLine1061" />
  <path
     style="stroke:#111111;stroke-width:0.75"
     d="M 67.5,85.5 82.161049,82.329262"
     id="SvgjsLine1062" />
  <path
     style="stroke:#111111;stroke-width:0.75"
     d="M 67.5,85.5 82.415024,83.905602"
     id="SvgjsLine1063" />
  <path
     style="stroke:#111111;stroke-width:0.75"
     d="m 67.5,85.5 h 15"
     id="SvgjsLine1064" />
  <path
     style="fill:#888888;stroke:#111111;stroke-width:0.75"
     d="m 80.5,85.5 a 13,13 0 0 1 -13,13 13,13 0 0 1 -13,-13 13,13 0 0 1 13,-13 13,13 0 0 1 13,13 z"
     id="SvgjsCircle1065" />
  <path
     style="stroke:#111111;stroke-width:0.75"
     d="M 22.5,275.5 7.6235762,281.38998"
     id="SvgjsLine1066" />
  <path
     style="stroke:#111111;stroke-width:0.75"
     d="M 22.5,275.5 6.6109047,277.38058"
     id="SvgjsLine1067" />
  <path
     style="stroke:#111111;stroke-width:0.75"
     d="M 22.5,275.5 6.6596212,273.24557"
     id="SvgjsLine1068" />
  <path
     style="stroke:#111111;stroke-width:0.75"
     d="M 22.5,275.5 7.7664723,269.26117"
     id="SvgjsLine1069" />
  <path
     style="stroke:#111111;stroke-width:0.75"
     d="M 22.5,275.5 9.8575201,265.69348"
     id="SvgjsLine1070" />
  <path
     style="stroke:#111111;stroke-width:0.75"
     d="M 22.5,275.5 12.793082,262.78088"
     id="SvgjsLine1071" />
  <path
     style="stroke:#111111;stroke-width:0.75"
     d="M 22.5,275.5 16.377066,260.71793"
     id="SvgjsLine1072" />
  <path
     style="stroke:#111111;stroke-width:0.75"
     d="M 22.5,275.5 20.370058,259.6424"
     id="SvgjsLine1073" />
  <path
     style="stroke:#111111;stroke-width:0.75"
     d="m 22.5,275.5 2.005331,-15.87384"
     id="SvgjsLine1074" />
  <path
     style="stroke:#111111;stroke-width:0.75"
     d="m 22.5,275.5 6.006649,-14.82971"
     id="SvgjsLine1075" />
  <path
     style="stroke:#111111;stroke-width:0.75"
     d="m 22.5,275.5 9.606724,-12.79495"
     id="SvgjsLine1076" />
  <path
     style="stroke:#111111;stroke-width:0.75"
     d="m 22.5,275.5 12.565071,-9.90552"
     id="SvgjsLine1077" />
  <path
     style="stroke:#111111;stroke-width:0.75"
     d="m 22.5,275.5 14.684074,-6.35437"
     id="SvgjsLine1078" />
  <path
     style="stroke:#111111;stroke-width:0.75"
     d="m 22.5,275.5 15.822186,-2.37875"
     id="SvgjsLine1079" />
  <path
     style="stroke:#111111;stroke-width:0.75"
     d="m 22.5,275.5 15.903374,1.75574"
     id="SvgjsLine1080" />
  <path
     style="stroke:#111111;stroke-width:0.75"
     d="m 22.5,275.5 14.922226,5.77298"
     id="SvgjsLine1081" />
  <path
     style="fill:#a8a8a8;stroke:#111111;stroke-width:0.75"
     d="m 35.5,275.5 a 13,13 0 0 1 -13,13 13,13 0 0 1 -13,-13 13,13 0 0 1 13,-13 13,13 0 0 1 13,13 z"
     id="SvgjsCircle1082" />
  <path
     style="stroke:#111111;stroke-width:0.75"
     d="m 67.5,275.5 h 16"
     id="SvgjsLine1083" />
  <path
     style="stroke:#111111;stroke-width:0.75"
     d="m 67.5,275.5 14.915024,1.59439"
     id="SvgjsLine1084" />
  <path
     style="stroke:#111111;stroke-width:0.75"
     d="m 67.5,275.5 14.661049,3.17075"
     id="SvgjsLine1085" />
  <path
     style="stroke:#111111;stroke-width:0.75"
     d="m 67.5,275.5 14.240967,4.71115"
     id="SvgjsLine1086" />
  <path
     style="stroke:#111111;stroke-width:0.75"
     d="m 67.5,275.5 13.659523,6.19818"
     id="SvgjsLine1087" />
  <path
     style="stroke:#111111;stroke-width:0.75"
     d="m 67.5,275.5 13.784866,8.12265"
     id="SvgjsLine1088" />
  <path
     style="stroke:#111111;stroke-width:0.75"
     d="m 67.5,275.5 -14.197632,7.37747"
     id="SvgjsLine1089" />
  <path
     style="stroke:#111111;stroke-width:0.75"
     d="m 67.5,275.5 -13.970043,5.4624"
     id="SvgjsLine1090" />
  <path
     style="stroke:#111111;stroke-width:0.75"
     d="m 67.5,275.5 -14.471519,3.94653"
     id="SvgjsLine1091" />
  <path
     style="stroke:#111111;stroke-width:0.75"
     d="m 67.5,275.5 -14.809025,2.38596"
     id="SvgjsLine1092" />
  <path
     style="stroke:#111111;stroke-width:0.75"
     d="m 67.5,275.5 -14.978741,0.79834"
     id="SvgjsLine1093" />
  <path
     style="stroke:#111111;stroke-width:0.75"
     d="M 67.5,275.5 51.522678,274.64844"
     id="SvgjsLine1094" />
  <path
     style="stroke:#111111;stroke-width:0.75"
     d="M 67.5,275.5 52.690975,273.11404"
     id="SvgjsLine1095" />
  <path
     style="stroke:#111111;stroke-width:0.75"
     d="M 67.5,275.5 53.028481,271.55347"
     id="SvgjsLine1096" />
  <path
     style="stroke:#111111;stroke-width:0.75"
     d="M 67.5,275.5 53.529957,270.0376"
     id="SvgjsLine1097" />
  <path
     style="stroke:#111111;stroke-width:0.75"
     d="M 67.5,275.5 54.18972,268.58362"
     id="SvgjsLine1098" />
  <path
     style="stroke:#111111;stroke-width:0.75"
     d="M 67.5,275.5 54.166977,266.65521"
     id="SvgjsLine1099" />
  <path
     style="stroke:#111111;stroke-width:0.75"
     d="M 67.5,275.5 55.952492,265.92633"
     id="SvgjsLine1100" />
  <path
     style="stroke:#111111;stroke-width:0.75"
     d="M 67.5,275.5 57.035526,264.75314"
     id="SvgjsLine1101" />
  <path
     style="stroke:#111111;stroke-width:0.75"
     d="M 67.5,275.5 58.237129,263.70172"
     id="SvgjsLine1102" />
  <path
     style="stroke:#111111;stroke-width:0.75"
     d="M 67.5,275.5 59.543686,262.784"
     id="SvgjsLine1103" />
  <path
     style="stroke:#111111;stroke-width:0.75"
     d="M 67.5,275.5 60.503082,261.11099"
     id="SvgjsLine1104" />
  <path
     style="stroke:#111111;stroke-width:0.75"
     d="M 67.5,275.5 62.411419,261.3895"
     id="SvgjsLine1105" />
  <path
     style="stroke:#111111;stroke-width:0.75"
     d="M 67.5,275.5 63.940098,260.92856"
     id="SvgjsLine1106" />
  <path
     style="stroke:#111111;stroke-width:0.75"
     d="M 67.5,275.5 65.509117,260.63272"
     id="SvgjsLine1107" />
  <path
     style="stroke:#111111;stroke-width:0.75"
     d="M 67.5,275.5 67.100693,260.50531"
     id="SvgjsLine1108" />
  <path
     style="stroke:#111111;stroke-width:0.75"
     d="m 67.5,275.5 1.276581,-15.94901"
     id="SvgjsLine1109" />
  <path
     style="stroke:#111111;stroke-width:0.75"
     d="m 67.5,275.5 2.779327,-14.74026"
     id="SvgjsLine1110" />
  <path
     style="stroke:#111111;stroke-width:0.75"
     d="m 67.5,275.5 4.330376,-14.36133"
     id="SvgjsLine1111" />
  <path
     style="stroke:#111111;stroke-width:0.75"
     d="m 67.5,275.5 5.832359,-13.81967"
     id="SvgjsLine1112" />
  <path
     style="stroke:#111111;stroke-width:0.75"
     d="m 67.5,275.5 7.268265,-13.12146"
     id="SvgjsLine1113" />
  <path
     style="stroke:#111111;stroke-width:0.75"
     d="m 67.5,275.5 9.196602,-13.09283"
     id="SvgjsLine1114" />
  <path
     style="stroke:#111111;stroke-width:0.75"
     d="m 67.5,275.5 9.87767,-11.28857"
     id="SvgjsLine1115" />
  <path
     style="stroke:#111111;stroke-width:0.75"
     d="M 67.5,275.5 78.521614,265.32532"
     id="SvgjsLine1116" />
  <path
     style="stroke:#111111;stroke-width:0.75"
     d="m 67.5,275.5 12.040672,-8.9455"
     id="SvgjsLine1117" />
  <path
     style="stroke:#111111;stroke-width:0.75"
     d="m 67.5,275.5 12.923309,-7.61499"
     id="SvgjsLine1118" />
  <path
     style="stroke:#111111;stroke-width:0.75"
     d="m 67.5,275.5 14.57016,-6.61139"
     id="SvgjsLine1119" />
  <path
     style="stroke:#111111;stroke-width:0.75"
     d="m 67.5,275.5 14.240967,-4.71115"
     id="SvgjsLine1120" />
  <path
     style="stroke:#111111;stroke-width:0.75"
     d="m 67.5,275.5 14.661049,-3.17075"
     id="SvgjsLine1121" />
  <path
     style="stroke:#111111;stroke-width:0.75"
     d="m 67.5,275.5 14.915024,-1.59439"
     id="SvgjsLine1122" />
  <path
     style="stroke:#111111;stroke-width:0.75"
     d="m 67.5,275.5 h 15"
     id="SvgjsLine1123" />
  <path
     style="fill:#888888;stroke:#111111;stroke-width:0.75"
     d="m 80.5,275.5 a 13,13 0 0 1 -13,13 13,13 0 0 1 -13,-13 13,13 0 0 1 13,-13 13,13 0 0 1 13,13 z"
     id="SvgjsCircle1124" />
</svg>
