<svg xmlns:osb="http://www.openswatchbook.org/uri/2009/osb" xmlns="http://www.w3.org/2000/svg" xmlns:xlink="http://www.w3.org/1999/xlink" height="380" style="zoom:8" cursor="default" id="SvgjsSvg1006" width="45"><defs id="SvgjsDefs1007"><linearGradient id="linearGradient2396" osb:paint="gradient"><stop offset="0" id="stop2392" stop-color="#ff8f00"/><stop offset="1" id="stop2394" stop-color="#ff8f00" stop-opacity="0"/></linearGradient><linearGradient id="linearGradient2384" osb:paint="solid"><stop offset="0" id="stop2382" stop-color="#ff8f00"/></linearGradient><linearGradient id="linearGradient898" osb:paint="solid"><stop offset="0" id="stop896" stop-color="#ff8f00"/></linearGradient><linearGradient id="linearGradient915"><stop offset="0" id="stop911" stop-color="#e0e0e0"/><stop offset="1" id="stop913" stop-color="#d0d0d0"/></linearGradient><linearGradient xlink:href="#linearGradient915" id="linearGradient919" y1="190" x2="45" y2="190" gradientUnits="userSpaceOnUse"/><style id="Audiowide_Google_Webfont_import">@import url(https://fonts.googleapis.com/css?family=Raleway);</style></defs><path d="M0 0h45v380H0z" id="SvgjsRect1008" fill="url(#linearGradient919)"/><g aria-label="HH-C" id="text5" font-size="12" font-family="Raleway" text-anchor="middle" text-rendering="geometricPrecision"><path d="M8.291 16.252h1.184v3.586h4.3v-3.586h1.184V25h-1.184v-4.166h-4.3V25H8.29z" id="path871"/><path d="M17.314 16.252h1.184v3.586h4.3v-3.586h1.184V25H22.8v-4.166h-4.301V25h-1.184z" id="path873"/><path d="M25.746 21.232h3.158v.961h-3.158z" id="path875"/><path d="M37.225 16.926v1.248q-.598-.557-1.278-.832-.674-.276-1.435-.276-1.5 0-2.297.92-.797.914-.797 2.649 0 1.728.797 2.648.797.914 2.297.914.761 0 1.435-.275.68-.276 1.278-.832v1.236q-.621.422-1.319.633-.691.21-1.465.21-1.986 0-3.129-1.212-1.142-1.219-1.142-3.322 0-2.11 1.142-3.323 1.143-1.218 3.13-1.218.785 0 1.476.21.697.206 1.307.622z" id="path877"/></g><g aria-label="GATE" id="text7" font-size="8" font-family="Raleway" text-anchor="middle" text-rendering="geometricPrecision"><path d="M16.762 62.168v-1.566h-1.29v-.649h2.071v2.504q-.457.324-1.008.492-.55.164-1.176.164-1.367 0-2.14-.797-.77-.8-.77-2.226 0-1.43.77-2.227.773-.8 2.14-.8.57 0 1.082.14.516.14.95.414v.84q-.438-.371-.93-.559-.492-.187-1.035-.187-1.07 0-1.61.598-.535.597-.535 1.78 0 1.18.535 1.778.54.598 1.61.598.418 0 .746-.07.328-.075.59-.227z" id="path880"/><path d="M20.938 57.945l-1.07 2.903h2.144zm-.446-.777h.895L23.609 63h-.82l-.531-1.496h-2.63L19.099 63h-.832z" id="path882"/><path d="M23.023 57.168h4.934v.664h-2.07V63h-.793v-5.168h-2.07z" id="path884"/><path d="M28.723 57.168h3.687v.664h-2.898v1.727h2.777v.664h-2.777v2.113h2.968V63h-3.757z" id="path886"/></g><g aria-label="SELECT" id="text29" font-size="8" font-family="Raleway" text-anchor="middle" text-rendering="geometricPrecision"><path d="M11.71 106.36v.769q-.448-.215-.847-.32-.398-.106-.77-.106-.644 0-.995.25-.348.25-.348.711 0 .387.23.586.235.195.883.316l.477.098q.883.168 1.3.594.423.422.423 1.133 0 .847-.57 1.285-.567.437-1.665.437-.414 0-.883-.093-.465-.094-.965-.278v-.812q.48.27.942.406.46.137.906.137.676 0 1.043-.266.367-.265.367-.758 0-.43-.265-.672-.262-.242-.864-.363l-.48-.094q-.883-.175-1.277-.55-.395-.375-.395-1.043 0-.774.543-1.219.547-.445 1.504-.445.41 0 .836.074t.87.223z" id="path889"/><path d="M13.293 106.168h3.687v.664h-2.898v1.727h2.777v.664h-2.777v2.113h2.969V112h-3.758z" id="path891"/><path d="M18.355 106.168h.79v5.168h2.84V112h-3.63z" id="path893"/><path d="M22.809 106.168h3.687v.664h-2.898v1.727h2.777v.664h-2.777v2.113h2.968V112H22.81z" id="path895"/><path d="M32.238 106.617v.832q-.398-.37-.851-.554-.45-.184-.957-.184-1 0-1.532.613-.53.61-.53 1.766 0 1.152.53 1.765.532.61 1.532.61.507 0 .957-.184.453-.183.851-.554v.824q-.414.281-.879.422-.46.14-.976.14-1.324 0-2.086-.808-.762-.813-.762-2.215 0-1.406.762-2.215.762-.812 2.086-.812.523 0 .984.14.465.137.871.414z" id="path897"/><path d="M32.656 106.168h4.934v.664h-2.07V112h-.793v-5.168h-2.07z" id="path899"/></g><g aria-label="OUT" id="text31" font-size="8" font-family="Raleway" text-anchor="middle" text-rendering="geometricPrecision"><path d="M17.129 147.703q-.86 0-1.367.64-.504.641-.504 1.747 0 1.101.504 1.742.508.64 1.367.64.86 0 1.36-.64.503-.64.503-1.742 0-1.106-.504-1.746-.5-.64-1.36-.64zm0-.64q1.226 0 1.96.824.735.82.735 2.203 0 1.379-.734 2.203-.735.82-1.961.82-1.23 0-1.969-.82-.734-.82-.734-2.203t.734-2.203q.738-.825 1.969-.825z" id="path902"/><path d="M20.969 147.168h.793v3.543q0 .937.34 1.351.34.41 1.101.41.758 0 1.098-.41.34-.414.34-1.351v-3.543h.793v3.64q0 1.141-.567 1.723-.562.582-1.664.582-1.105 0-1.672-.582-.562-.582-.562-1.722z" id="path904"/><path d="M26.11 147.168h4.933v.664h-2.07V153h-.793v-5.168h-2.07z" id="path906"/></g><path d="M0 190h45" id="line22" stroke="#222"/><g aria-label="HH-C" id="text24" font-size="12" font-family="Raleway" text-anchor="middle" text-rendering="geometricPrecision"><path d="M8.291 206.252h1.184v3.586h4.3v-3.586h1.184V215h-1.184v-4.166h-4.3V215H8.29z" id="path910"/><path d="M17.314 206.252h1.184v3.586h4.3v-3.586h1.184V215H22.8v-4.166h-4.301V215h-1.184z" id="path912"/><path d="M25.746 211.232h3.158v.961h-3.158z" id="path914"/><path d="M37.225 206.926v1.248q-.598-.557-1.278-.832-.674-.276-1.435-.276-1.5 0-2.297.92-.797.914-.797 2.649 0 1.728.797 2.648.797.914 2.297.914.761 0 1.435-.275.68-.276 1.278-.832v1.236q-.621.422-1.319.633-.691.21-1.465.21-1.986 0-3.129-1.212-1.142-1.219-1.142-3.322 0-2.11 1.142-3.322 1.143-1.22 3.13-1.22.785 0 1.476.212.697.205 1.307.62z" id="path916"/></g><g aria-label="GATE" id="text33" font-size="8" font-family="Raleway" text-anchor="middle" text-rendering="geometricPrecision"><path d="M16.762 252.168v-1.566h-1.29v-.649h2.071v2.504q-.457.324-1.008.492-.55.164-1.176.164-1.367 0-2.14-.797-.77-.8-.77-2.226 0-1.43.77-2.227.773-.8 2.14-.8.57 0 1.082.14.516.14.95.414v.84q-.438-.371-.93-.559-.492-.187-1.035-.187-1.07 0-1.61.598-.535.597-.535 1.78 0 1.18.535 1.778.54.598 1.61.598.418 0 .746-.07.328-.075.59-.227z" id="path919"/><path d="M20.938 247.945l-1.07 2.903h2.144zm-.446-.777h.895L23.609 253h-.82l-.531-1.496h-2.63l-.53 1.496h-.832z" id="path921"/><path d="M23.023 247.168h4.934v.664h-2.07V253h-.793v-5.168h-2.07z" id="path923"/><path d="M28.723 247.168h3.687v.664h-2.898v1.727h2.777v.664h-2.777v2.113h2.968V253h-3.757z" id="path925"/></g><g aria-label="SELECT" id="text35" font-size="8" font-family="Raleway" text-anchor="middle" text-rendering="geometricPrecision"><path d="M11.71 296.36v.769q-.448-.215-.847-.32-.398-.106-.77-.106-.644 0-.995.25-.348.25-.348.711 0 .387.23.586.235.195.883.316l.477.098q.883.168 1.3.594.423.422.423 1.133 0 .847-.57 1.285-.567.437-1.665.437-.414 0-.883-.093-.465-.094-.965-.278v-.812q.48.27.942.406.46.137.906.137.676 0 1.043-.266.367-.266.367-.758 0-.43-.265-.672-.262-.242-.864-.363l-.48-.094q-.883-.175-1.277-.55-.395-.375-.395-1.043 0-.774.543-1.22.547-.444 1.504-.444.41 0 .836.074t.87.222z" id="path928"/><path d="M13.293 296.168h3.687v.664h-2.898v1.727h2.777v.664h-2.777v2.113h2.969V302h-3.758z" id="path930"/><path d="M18.355 296.168h.79v5.168h2.84V302h-3.63z" id="path932"/><path d="M22.809 296.168h3.687v.664h-2.898v1.727h2.777v.664h-2.777v2.113h2.968V302H22.81z" id="path934"/><path d="M32.238 296.617v.832q-.398-.37-.851-.554-.45-.184-.957-.184-1 0-1.532.613-.53.61-.53 1.766 0 1.152.53 1.765.532.61 1.532.61.507 0 .957-.184.453-.183.851-.554v.824q-.414.281-.879.422-.46.14-.976.14-1.324 0-2.086-.808-.762-.813-.762-2.215 0-1.406.762-2.215.762-.812 2.086-.812.523 0 .984.14.465.137.871.414z" id="path936"/><path d="M32.656 296.168h4.934v.664h-2.07V302h-.793v-5.168h-2.07z" id="path938"/></g><g aria-label="OUT" id="text36" font-size="8" font-family="Raleway" text-anchor="middle" text-rendering="geometricPrecision"><path d="M17.129 337.703q-.86 0-1.367.64-.504.641-.504 1.747 0 1.101.504 1.742.508.64 1.367.64.86 0 1.36-.64.503-.64.503-1.742 0-1.106-.504-1.746-.5-.64-1.36-.64zm0-.64q1.226 0 1.96.824.735.82.735 2.203 0 1.379-.734 2.203-.735.82-1.961.82-1.23 0-1.969-.82-.734-.82-.734-2.203t.734-2.203q.738-.824 1.969-.824z" id="path941"/><path d="M20.969 337.168h.793v3.543q0 .937.34 1.352.34.41 1.101.41.758 0 1.098-.41.34-.415.34-1.352v-3.543h.793v3.64q0 1.141-.567 1.723-.562.582-1.664.582-1.105 0-1.672-.582-.562-.582-.562-1.722z" id="path943"/><path d="M26.11 337.168h4.933v.664h-2.07V343h-.793v-5.168h-2.07z" id="path945"/></g><g aria-label="dk" style="-inkscape-font-specification:'Circuit board'" id="text850" font-weight="400" font-size="32" font-family="Circuit board" letter-spacing="0" word-spacing="0" text-anchor="middle"><path d="M22.238 373.536q-.096.384-.416.576-.32.224-.672.16-.512-.096-.672-.64l-2.304-1.152.032-24.224 1.696-1.44q-.032-.128 0-.256.064-.384.384-.576.32-.192.704-.128.353.064.577.384.224.32.16.704-.096.384-.416.576-.32.192-.672.128h-.064l-1.408 1.184v22.752l1.823.928q.32-.096.545-.064.352.064.544.384.224.32.16.704zm-4.352-28.864q-.096.352-.352.544l-.032 23.808-2.048 2.88h-7.36v-16.192h4.608q.32-.512.96-.384.352.064.576.384.224.32.16.704-.096.384-.416.576-.32.192-.672.128-.32-.032-.48-.256H9.086l-.032 13.888 5.984-.032 1.344-1.856.064-23.648q-.48-.384-.384-.928.096-.384.416-.576.32-.192.704-.128.352.064.544.384.224.32.16.704zm-1.568 2.368q-.096.352-.384.576v10.816l-5.344-.064v10.592l2.848.032q.288-.448.928-.352.352.064.544.384.224.32.16.704-.096.384-.416.576-.32.192-.672.128-.352-.096-.544-.384l-3.808.032.064-12.704 5.152-.064-.064-9.76q-.384-.352-.288-.896.096-.384.384-.576.32-.192.704-.128.352.064.576.384.224.32.16.704zm4.864-.224q.064-.384-.288-.448-.384-.064-.448.288-.16.448.288.48.352.064.448-.32zm-3.808-2.24q.064-.416-.32-.48-.416-.064-.448.32-.096.384.288.448.32.064.48-.288zm-1.6 2.368q.032-.416-.288-.48-.416-.064-.448.32-.096.384.288.448.352.064.448-.288zm-1.888 9.376q.064-.416-.32-.48-.416-.064-.448.32-.096.384.288.448.32.064.48-.288zm7.84 17.12q.064-.384-.288-.448-.448-.032-.48.288-.064.16.032.288.128.16.288.192.352.064.448-.32zm-7.168-3.84q.064-.384-.288-.448-.448-.032-.48.288-.064.16.032.32.128.128.288.16.352.064.448-.32z" style="-inkscape-font-specification:'Circuit board'" id="path948"/><path d="M35.136 360.512q0 .256-.192.48-.16.192-.448.224l-1.888 3.168H29.024l-.032-11.264q-.16-.16-.256-.416-.064-.288.096-.512.192-.256.48-.32.32-.064.544.096.256.16.32.448.096.48-.352.768v10.4H32.192l1.6-2.72q-.032-.064-.064-.16t-.032-.192q0-.288.224-.48.224-.224.512-.224.32 0 .512.224.192.192.192.48zm-6.336-9.248q0 .352-.32.576v21.408q.352.256.256.736-.064.288-.288.448-.224.16-.544.096-.288-.064-.48-.32-.16-.224-.096-.512.16-.352.32-.48l.032-21.376q-.288-.224-.288-.576 0-.288.192-.48.224-.224.512-.224.32 0 .512.224.192.192.192.48zm9.088 20.192q0 .288-.192.512-.192.192-.512.192-.288 0-.512-.192-.192-.224-.192-.512 0-.096.032-.192t.064-.16l-4.384-5.472H29.824v6.304q.448.288.352.768-.064.288-.32.448-.224.16-.544.096-.288-.064-.48-.32-.16-.224-.096-.512.096-.256.256-.416l.032-7.168 1.344-.032h2.24l4.672 5.952q.288.032.448.256.16.192.16.448zm-10.432 1.184q-.064.288-.32.448-.224.16-.544.096-.288-.064-.448-.32-.16-.256-.096-.544.096-.32.32-.448l.032-17.536-1.504-1.248q-.064 0-.16.032-.064 0-.128-.032-.288-.064-.448-.32-.16-.256-.096-.544.064-.288.288-.448.256-.16.544-.096.576.16.576.672l1.728 1.504-.032 18.048q.384.288.288.736zm2.304-20.128q-.032-.32-.352-.256-.32.032-.256.384.096.288.384.224.384-.064.224-.352zm-1.344-1.152q.16-.288-.256-.352-.256-.064-.352.224-.064.32.224.352.352.064.384-.224zm6.304 9.088q-.032-.288-.352-.224-.32.032-.256.352.032.288.384.224.384-.064.224-.352zm-9.664-8q.128-.32-.224-.384-.256-.064-.384.256-.064.32.256.352.32.064.352-.224zm12.448 19.072q.064-.128-.032-.224-.064-.128-.224-.16-.32-.064-.352.256-.064.32.224.352.352.064.384-.224zm-7.744 1.088q.16-.288-.224-.352-.288-.064-.384.224-.064.352.256.384.32.064.352-.256zm-2.72-.064q.16-.288-.224-.352-.256-.064-.352.224-.064.32.224.352.32.064.352-.224zm1.28 1.376q.064-.128-.032-.256-.064-.096-.224-.128-.192-.032-.352.256-.064.32.256.352.32.064.352-.224z" style="-inkscape-font-specification:'Circuit board'" id="path950"/></g><path d="M22.5 85.5L5.764 92.126" id="SvgjsLine1007" stroke="#000" stroke-width=".75"/><path d="M22.5 85.5L4.589 87.284" id="SvgjsLine1008" stroke="#000" stroke-width=".75"/><path d="M22.5 85.5L4.786 82.305" id="SvgjsLine1009" stroke="#000" stroke-width=".75"/><path d="M22.5 85.5L6.34 77.57" id="SvgjsLine1010" stroke="#000" stroke-width=".75"/><path d="M22.5 85.5L9.133 73.444" id="SvgjsLine1011" stroke="#000" stroke-width=".75"/><path d="M22.5 85.5l-9.55-15.258" id="SvgjsLine1012" stroke="#000" stroke-width=".75"/><path d="M22.5 85.5l-5-17.292" id="SvgjsLine1013" stroke="#000" stroke-width=".75"/><path d="M22.5 85.5l-.068-18" id="SvgjsLine1014" stroke="#000" stroke-width=".75"/><path d="M22.5 85.5l4.87-17.329" id="SvgjsLine1015" stroke="#000" stroke-width=".75"/><path d="M22.5 85.5l9.434-15.33" id="SvgjsLine1016" stroke="#000" stroke-width=".75"/><path d="M22.5 85.5l13.275-12.156" id="SvgjsLine1017" stroke="#000" stroke-width=".75"/><path d="M22.5 85.5l16.1-8.05" id="SvgjsLine1018" stroke="#000" stroke-width=".75"/><path d="M22.5 85.5l17.69-3.328" id="SvgjsLine1019" stroke="#000" stroke-width=".75"/><path d="M22.5 85.5l17.924 1.649" id="SvgjsLine1020" stroke="#000" stroke-width=".75"/><path d="M22.5 85.5L39.285 92" id="SvgjsLine1021" stroke="#000" stroke-width=".75"/><path d="M37.5 85.5a15 15 0 0 1-15 15 15 15 0 0 1-15-15 15 15 0 0 1 15-15 15 15 0 0 1 15 15z" id="SvgjsCircle1022" fill="#a8a8a8" stroke="#111" stroke-width=".75"/><path d="M22.5 275.5l-16.736 6.626" id="SvgjsLine1023" stroke="#000" stroke-width=".75"/><path d="M22.5 275.5l-17.911 1.784" id="SvgjsLine1024" stroke="#000" stroke-width=".75"/><path d="M22.5 275.5l-17.714-3.195" id="SvgjsLine1025" stroke="#000" stroke-width=".75"/><path d="M22.5 275.5l-16.16-7.93" id="SvgjsLine1026" stroke="#000" stroke-width=".75"/><path d="M22.5 275.5L9.133 263.444" id="SvgjsLine1027" stroke="#000" stroke-width=".75"/><path d="M22.5 275.5l-9.55-15.258" id="SvgjsLine1028" stroke="#000" stroke-width=".75"/><path d="M22.5 275.5l-5-17.292" id="SvgjsLine1029" stroke="#000" stroke-width=".75"/><path d="M22.5 275.5l-.068-18" id="SvgjsLine1030" stroke="#000" stroke-width=".75"/><path d="M22.5 275.5l4.87-17.329" id="SvgjsLine1031" stroke="#000" stroke-width=".75"/><path d="M22.5 275.5l9.434-15.33" id="SvgjsLine1032" stroke="#000" stroke-width=".75"/><path d="M22.5 275.5l13.275-12.156" id="SvgjsLine1033" stroke="#000" stroke-width=".75"/><path d="M22.5 275.5l16.1-8.05" id="SvgjsLine1034" stroke="#000" stroke-width=".75"/><path d="M22.5 275.5l17.69-3.328" id="SvgjsLine1035" stroke="#000" stroke-width=".75"/><path d="M22.5 275.5l17.924 1.649" id="SvgjsLine1036" stroke="#000" stroke-width=".75"/><path d="M22.5 275.5l16.785 6.5" id="SvgjsLine1037" stroke="#000" stroke-width=".75"/><path d="M37.5 275.5a15 15 0 0 1-15 15 15 15 0 0 1-15-15 15 15 0 0 1 15-15 15 15 0 0 1 15 15z" id="SvgjsCircle1038" fill="#a8a8a8" stroke="#111" stroke-width=".75"/></svg>