<svg xmlns:osb="http://www.openswatchbook.org/uri/2009/osb" xmlns="http://www.w3.org/2000/svg" xmlns:xlink="http://www.w3.org/1999/xlink" height="380" style="zoom:8" cursor="default" id="SvgjsSvg1006" width="45"><defs id="SvgjsDefs1007"><linearGradient id="linearGradient2396" osb:paint="gradient"><stop offset="0" id="stop2392" stop-color="#ff8f00"/><stop offset="1" id="stop2394" stop-color="#ff8f00" stop-opacity="0"/></linearGradient><linearGradient id="linearGradient2384" osb:paint="solid"><stop offset="0" id="stop2382" stop-color="#ff8f00"/></linearGradient><linearGradient id="linearGradient898" osb:paint="solid"><stop offset="0" id="stop896" stop-color="#ff8f00"/></linearGradient><linearGradient id="linearGradient915"><stop offset="0" id="stop911" stop-color="#e0e0e0"/><stop offset="1" id="stop913" stop-color="#d0d0d0"/></linearGradient><linearGradient xlink:href="#linearGradient915" id="linearGradient919" y1="190" x2="45" y2="190" gradientUnits="userSpaceOnUse"/><style id="Audiowide_Google_Webfont_import">@import url(https://fonts.googleapis.com/css?family=Raleway);</style></defs><path d="M0 0h45v380H0z" id="SvgjsRect1008" fill="url(#linearGradient919)"/><g aria-label="CR78" id="text5" font-size="12" font-family="Raleway" text-anchor="middle" text-rendering="geometricPrecision"><path d="M14.22 16.926v1.248q-.597-.557-1.277-.832-.673-.276-1.435-.276-1.5 0-2.297.92-.797.914-.797 2.649 0 1.728.797 2.648.797.914 2.297.914.762 0 1.435-.275.68-.276 1.278-.832v1.236q-.621.422-1.319.633-.691.21-1.464.21-1.987 0-3.13-1.212-1.142-1.219-1.142-3.322 0-2.11 1.143-3.323 1.142-1.218 3.129-1.218.785 0 1.476.21.697.206 1.307.622z" id="path889"/><path d="M20.209 20.898q.38.13.738.551.364.422.727 1.16L22.875 25h-1.271l-1.12-2.244q-.433-.879-.843-1.166-.405-.287-1.108-.287h-1.289V25h-1.183v-8.748h2.671q1.5 0 2.239.627.738.627.738 1.892 0 .827-.387 1.372-.38.544-1.113.755zm-2.965-3.673v3.105h1.488q.856 0 1.29-.392.439-.399.439-1.167 0-.767-.44-1.154-.433-.392-1.289-.392z" id="path891"/><path d="M24.21 16.252h5.626v.504L26.66 25h-1.236l2.988-7.752h-4.201z" id="path893"/><path d="M34.682 20.846q-.844 0-1.33.45-.48.452-.48 1.243 0 .791.48 1.242.486.451 1.33.451.843 0 1.33-.45.486-.458.486-1.243 0-.791-.486-1.242-.48-.451-1.33-.451zm-1.184-.504q-.762-.188-1.19-.71-.421-.52-.421-1.27 0-1.05.744-1.659.75-.61 2.05-.61 1.307 0 2.051.61.745.61.745 1.658 0 .75-.428 1.272-.422.521-1.178.709.856.199 1.33.78.48.58.48 1.417 0 1.272-.779 1.951-.773.68-2.22.68-1.448 0-2.227-.68-.773-.68-.773-1.95 0-.839.48-1.419.48-.58 1.336-.78zm-.434-1.87q0 .68.422 1.061.428.381 1.196.381.761 0 1.19-.38.433-.382.433-1.061 0-.68-.434-1.06-.428-.382-1.19-.382-.767 0-1.195.381-.422.381-.422 1.06z" id="path895"/></g><g aria-label="mk2" id="text19" font-size="10" font-family="Raleway" text-anchor="middle" text-rendering="geometricPrecision"><path d="M16.743 30.581q.337-.605.806-.894.469-.288 1.103-.288.855 0 1.319.601.464.596.464 1.7V35h-.904v-3.271q0-.787-.278-1.167-.278-.381-.85-.381-.698 0-1.103.464-.405.463-.405 1.264V35h-.904v-3.271q0-.792-.278-1.167-.278-.381-.86-.381-.688 0-1.093.468-.406.464-.406 1.26V35h-.903v-5.469h.903v.85q.308-.503.738-.742.43-.24 1.02-.24.596 0 1.011.303.42.303.62.88z" id="path898"/><path d="M22.197 27.402h.904v4.488l2.68-2.359h1.148l-2.9 2.559L27.05 35h-1.172L23.1 32.33V35h-.904z" id="path900"/><path d="M29.009 34.17h3.442V35h-4.629v-.83q.562-.581 1.529-1.558.971-.981 1.22-1.264.474-.533.66-.899.19-.37.19-.727 0-.581-.41-.948-.406-.366-1.06-.366-.464 0-.981.161-.513.161-1.099.489v-.996q.596-.24 1.113-.362.518-.122.948-.122 1.132 0 1.806.567.674.566.674 1.513 0 .45-.17.855-.167.4-.611.947-.122.142-.777.82-.654.674-1.845 1.89z" id="path902"/></g><g aria-label="V/OCT" id="text7" font-size="8" font-family="Raleway" text-anchor="middle" text-rendering="geometricPrecision"><path d="M12.313 98l-2.227-5.832h.824l1.848 4.91 1.851-4.91h.82L13.208 98z" id="path905"/><path d="M17.523 92.168h.665l-2.032 6.574h-.664z" id="path907"/><path d="M21.348 92.703q-.86 0-1.368.64-.503.641-.503 1.747 0 1.101.503 1.742.508.64 1.368.64.859 0 1.359-.64.504-.64.504-1.742 0-1.106-.504-1.746-.5-.64-1.36-.64zm0-.64q1.226 0 1.96.824.735.82.735 2.203 0 1.379-.734 2.203-.735.82-1.961.82-1.23 0-1.97-.82-.733-.82-.733-2.203t.734-2.203q.738-.825 1.969-.825z" id="path909"/><path d="M29.645 92.617v.832q-.399-.37-.852-.554-.45-.184-.957-.184-1 0-1.531.613-.532.61-.532 1.766 0 1.152.532 1.765.53.61 1.53.61.509 0 .958-.184.453-.183.852-.554v.824q-.415.281-.88.422-.46.14-.976.14-1.324 0-2.086-.808-.762-.813-.762-2.215 0-1.406.762-2.215.762-.813 2.086-.813.523 0 .984.141.465.137.872.414z" id="path911"/><path d="M30.063 92.168h4.933v.664h-2.07V98h-.793v-5.168h-2.07z" id="path913"/></g><g aria-label="GATE" id="text31" font-size="8" font-family="Raleway" text-anchor="middle" text-rendering="geometricPrecision"><path d="M16.762 157.168v-1.566h-1.29v-.649h2.071v2.504q-.457.324-1.008.492-.55.164-1.176.164-1.367 0-2.14-.797-.77-.8-.77-2.226 0-1.43.77-2.227.773-.8 2.14-.8.57 0 1.082.14.516.14.95.414v.84q-.438-.371-.93-.559-.492-.187-1.035-.187-1.07 0-1.61.598-.535.597-.535 1.78 0 1.18.535 1.778.54.598 1.61.598.418 0 .746-.07.328-.075.59-.227z" id="path916"/><path d="M20.938 152.945l-1.07 2.903h2.144zm-.446-.777h.895L23.609 158h-.82l-.531-1.496h-2.63l-.53 1.496h-.832z" id="path918"/><path d="M23.023 152.168h4.934v.664h-2.07V158h-.793v-5.168h-2.07z" id="path920"/><path d="M28.723 152.168h3.687v.664h-2.898v1.727h2.777v.664h-2.777v2.113h2.968V158h-3.757z" id="path922"/></g><g aria-label="TUNE" id="text23" font-size="8" font-family="Raleway" text-anchor="middle" text-rendering="geometricPrecision"><path d="M11.578 212.168h4.934v.664h-2.07V218h-.794v-5.168h-2.07z" id="path925"/><path d="M17.188 212.168h.792v3.543q0 .937.34 1.351.34.41 1.102.41.758 0 1.098-.41.34-.414.34-1.351v-3.543h.792v3.64q0 1.141-.566 1.723-.563.582-1.664.582-1.106 0-1.672-.582-.563-.582-.563-1.722z" id="path927"/><path d="M23.137 212.168h1.062l2.586 4.879v-4.879h.766V218h-1.063l-2.586-4.879V218h-.765z" id="path929"/><path d="M29.121 212.168h3.688v.664H29.91v1.727h2.777v.664H29.91v2.113h2.969V218H29.12z" id="path931"/></g><g aria-label="TUNE CV" id="text33" font-size="8" font-family="Raleway" text-anchor="middle" text-rendering="geometricPrecision"><path d="M4.773 272.168h4.934v.664h-2.07V278h-.793v-5.168h-2.07z" id="path934"/><path d="M10.383 272.168h.793v3.543q0 .937.34 1.352.34.41 1.101.41.758 0 1.098-.41.34-.415.34-1.352v-3.543h.793v3.64q0 1.141-.567 1.723-.562.582-1.664.582-1.105 0-1.672-.582-.562-.582-.562-1.722z" id="path936"/><path d="M16.332 272.168h1.063l2.585 4.879v-4.879h.766V278h-1.062l-2.586-4.879V278h-.766z" id="path938"/><path d="M22.316 272.168h3.688v.664h-2.899v1.727h2.778v.664h-2.778v2.113h2.97V278h-3.759z" id="path940"/><path d="M34.293 272.617v.832q-.398-.37-.852-.554-.449-.184-.957-.184-1 0-1.53.613-.532.61-.532 1.766 0 1.152.531 1.765.531.61 1.531.61.508 0 .957-.184.454-.183.852-.554v.824q-.414.281-.879.422-.46.14-.977.14-1.324 0-2.085-.808-.762-.813-.762-2.215 0-1.406.762-2.215.761-.812 2.086-.812.523 0 .984.14.465.137.871.414z" id="path942"/><path d="M37.023 278l-2.226-5.832h.824l1.848 4.91 1.851-4.91h.82L37.919 278z" id="path944"/></g><g aria-label="OUT" id="text36" font-size="8" font-family="Raleway" text-anchor="middle" text-rendering="geometricPrecision"><path d="M17.129 332.703q-.86 0-1.367.64-.504.641-.504 1.747 0 1.101.504 1.742.508.64 1.367.64.86 0 1.36-.64.503-.64.503-1.742 0-1.106-.504-1.746-.5-.64-1.36-.64zm0-.64q1.226 0 1.96.824.735.82.735 2.203 0 1.379-.734 2.203-.735.82-1.961.82-1.23 0-1.969-.82-.734-.82-.734-2.203t.734-2.203q.738-.824 1.969-.824z" id="path947"/><path d="M20.969 332.168h.793v3.543q0 .937.34 1.352.34.41 1.101.41.758 0 1.098-.41.34-.415.34-1.352v-3.543h.793v3.64q0 1.141-.567 1.723-.562.582-1.664.582-1.105 0-1.672-.582-.562-.582-.562-1.722z" id="path949"/><path d="M26.11 332.168h4.933v.664h-2.07V338h-.793v-5.168h-2.07z" id="path951"/></g><g aria-label="dk" style="-inkscape-font-specification:'Circuit board'" id="text850" font-weight="400" font-size="32" font-family="Circuit board" letter-spacing="0" word-spacing="0" text-anchor="middle"><path d="M22.238 373.536q-.096.384-.416.576-.32.224-.672.16-.512-.096-.672-.64l-2.304-1.152.032-24.224 1.696-1.44q-.032-.128 0-.256.064-.384.384-.576.32-.192.704-.128.353.064.577.384.224.32.16.704-.096.384-.416.576-.32.192-.672.128h-.064l-1.408 1.184v22.752l1.823.928q.32-.096.545-.064.352.064.544.384.224.32.16.704zm-4.352-28.864q-.096.352-.352.544l-.032 23.808-2.048 2.88h-7.36v-16.192h4.608q.32-.512.96-.384.352.064.576.384.224.32.16.704-.096.384-.416.576-.32.192-.672.128-.32-.032-.48-.256H9.086l-.032 13.888 5.984-.032 1.344-1.856.064-23.648q-.48-.384-.384-.928.096-.384.416-.576.32-.192.704-.128.352.064.544.384.224.32.16.704zm-1.568 2.368q-.096.352-.384.576v10.816l-5.344-.064v10.592l2.848.032q.288-.448.928-.352.352.064.544.384.224.32.16.704-.096.384-.416.576-.32.192-.672.128-.352-.096-.544-.384l-3.808.032.064-12.704 5.152-.064-.064-9.76q-.384-.352-.288-.896.096-.384.384-.576.32-.192.704-.128.352.064.576.384.224.32.16.704zm4.864-.224q.064-.384-.288-.448-.384-.064-.448.288-.16.448.288.48.352.064.448-.32zm-3.808-2.24q.064-.416-.32-.48-.416-.064-.448.32-.096.384.288.448.32.064.48-.288zm-1.6 2.368q.032-.416-.288-.48-.416-.064-.448.32-.096.384.288.448.352.064.448-.288zm-1.888 9.376q.064-.416-.32-.48-.416-.064-.448.32-.096.384.288.448.32.064.48-.288zm7.84 17.12q.064-.384-.288-.448-.448-.032-.48.288-.064.16.032.288.128.16.288.192.352.064.448-.32zm-7.168-3.84q.064-.384-.288-.448-.448-.032-.48.288-.064.16.032.32.128.128.288.16.352.064.448-.32z" style="-inkscape-font-specification:'Circuit board'" id="path954"/><path d="M35.136 360.512q0 .256-.192.48-.16.192-.448.224l-1.888 3.168H29.024l-.032-11.264q-.16-.16-.256-.416-.064-.288.096-.512.192-.256.48-.32.32-.064.544.096.256.16.32.448.096.48-.352.768v10.4H32.192l1.6-2.72q-.032-.064-.064-.16t-.032-.192q0-.288.224-.48.224-.224.512-.224.32 0 .512.224.192.192.192.48zm-6.336-9.248q0 .352-.32.576v21.408q.352.256.256.736-.064.288-.288.448-.224.16-.544.096-.288-.064-.48-.32-.16-.224-.096-.512.16-.352.32-.48l.032-21.376q-.288-.224-.288-.576 0-.288.192-.48.224-.224.512-.224.32 0 .512.224.192.192.192.48zm9.088 20.192q0 .288-.192.512-.192.192-.512.192-.288 0-.512-.192-.192-.224-.192-.512 0-.096.032-.192t.064-.16l-4.384-5.472H29.824v6.304q.448.288.352.768-.064.288-.32.448-.224.16-.544.096-.288-.064-.48-.32-.16-.224-.096-.512.096-.256.256-.416l.032-7.168 1.344-.032h2.24l4.672 5.952q.288.032.448.256.16.192.16.448zm-10.432 1.184q-.064.288-.32.448-.224.16-.544.096-.288-.064-.448-.32-.16-.256-.096-.544.096-.32.32-.448l.032-17.536-1.504-1.248q-.064 0-.16.032-.064 0-.128-.032-.288-.064-.448-.32-.16-.256-.096-.544.064-.288.288-.448.256-.16.544-.096.576.16.576.672l1.728 1.504-.032 18.048q.384.288.288.736zm2.304-20.128q-.032-.32-.352-.256-.32.032-.256.384.096.288.384.224.384-.064.224-.352zm-1.344-1.152q.16-.288-.256-.352-.256-.064-.352.224-.064.32.224.352.352.064.384-.224zm6.304 9.088q-.032-.288-.352-.224-.32.032-.256.352.032.288.384.224.384-.064.224-.352zm-9.664-8q.128-.32-.224-.384-.256-.064-.384.256-.064.32.256.352.32.064.352-.224zm12.448 19.072q.064-.128-.032-.224-.064-.128-.224-.16-.32-.064-.352.256-.064.32.224.352.352.064.384-.224zm-7.744 1.088q.16-.288-.224-.352-.288-.064-.384.224-.064.352.256.384.32.064.352-.256zm-2.72-.064q.16-.288-.224-.352-.256-.064-.352.224-.064.32.224.352.32.064.352-.224zm1.28 1.376q.064-.128-.032-.256-.064-.096-.224-.128-.192-.032-.352.256-.064.32.256.352.32.064.352-.224z" style="-inkscape-font-specification:'Circuit board'" id="path956"/></g><path d="M22.5 190h16" id="SvgjsLine1007" stroke="#000" stroke-width=".75"/><path d="M22.5 190l14.915 1.594" id="SvgjsLine1008" stroke="#000" stroke-width=".75"/><path d="M22.5 190l14.661 3.17" id="SvgjsLine1009" stroke="#000" stroke-width=".75"/><path d="M22.5 190l14.241 4.711" id="SvgjsLine1010" stroke="#000" stroke-width=".75"/><path d="M22.5 190l13.66 6.198" id="SvgjsLine1011" stroke="#000" stroke-width=".75"/><path d="M22.5 190l13.785 8.123" id="SvgjsLine1012" stroke="#000" stroke-width=".75"/><path d="M22.5 190l12.04 8.946" id="SvgjsLine1013" stroke="#000" stroke-width=".75"/><path d="M22.5 190l11.022 10.175" id="SvgjsLine1014" stroke="#000" stroke-width=".75"/><path d="M22.5 190l9.878 11.289" id="SvgjsLine1015" stroke="#000" stroke-width=".75"/><path d="M22.5 190l8.622 12.275" id="SvgjsLine1016" stroke="#000" stroke-width=".75"/><path d="M22.5 190l7.753 13.996" id="SvgjsLine1017" stroke="#000" stroke-width=".75"/><path d="M22.5 190l-8.487 13.564" id="SvgjsLine1018" stroke="#000" stroke-width=".75"/><path d="M22.5 190l-9.263 11.798" id="SvgjsLine1019" stroke="#000" stroke-width=".75"/><path d="M22.5 190l-10.464 10.747" id="SvgjsLine1020" stroke="#000" stroke-width=".75"/><path d="M22.5 190l-11.548 9.574" id="SvgjsLine1021" stroke="#000" stroke-width=".75"/><path d="M22.5 190L10 198.292" id="SvgjsLine1022" stroke="#000" stroke-width=".75"/><path d="M22.5 190l-14.198 7.377" id="SvgjsLine1023" stroke="#000" stroke-width=".75"/><path d="M22.5 190l-13.97 5.462" id="SvgjsLine1024" stroke="#000" stroke-width=".75"/><path d="M22.5 190l-14.472 3.947" id="SvgjsLine1025" stroke="#000" stroke-width=".75"/><path d="M22.5 190l-14.809 2.386" id="SvgjsLine1026" stroke="#000" stroke-width=".75"/><path d="M22.5 190l-14.979.798" id="SvgjsLine1027" stroke="#000" stroke-width=".75"/><path d="M22.5 190l-15.977-.852" id="SvgjsLine1028" stroke="#000" stroke-width=".75"/><path d="M22.5 190l-14.809-2.386" id="SvgjsLine1029" stroke="#000" stroke-width=".75"/><path d="M22.5 190l-14.472-3.947" id="SvgjsLine1030" stroke="#000" stroke-width=".75"/><path d="M22.5 190l-13.97-5.462" id="SvgjsLine1031" stroke="#000" stroke-width=".75"/><path d="M22.5 190l-13.31-6.916" id="SvgjsLine1032" stroke="#000" stroke-width=".75"/><path d="M22.5 190l-13.333-8.845" id="SvgjsLine1033" stroke="#000" stroke-width=".75"/><path d="M22.5 190l-11.548-9.574" id="SvgjsLine1034" stroke="#000" stroke-width=".75"/><path d="M22.5 190l-10.464-10.747" id="SvgjsLine1035" stroke="#000" stroke-width=".75"/><path d="M22.5 190l-9.263-11.798" id="SvgjsLine1036" stroke="#000" stroke-width=".75"/><path d="M22.5 190l-7.956-12.716" id="SvgjsLine1037" stroke="#000" stroke-width=".75"/><path d="M22.5 190l-6.997-14.389" id="SvgjsLine1038" stroke="#000" stroke-width=".75"/><path d="M22.5 190l-5.089-14.11" id="SvgjsLine1039" stroke="#000" stroke-width=".75"/><path d="M22.5 190l-3.56-14.571" id="SvgjsLine1040" stroke="#000" stroke-width=".75"/><path d="M22.5 190l-1.99-14.867" id="SvgjsLine1041" stroke="#000" stroke-width=".75"/><path d="M22.5 190l-.4-14.995" id="SvgjsLine1042" stroke="#000" stroke-width=".75"/><path d="M22.5 190l1.277-15.949" id="SvgjsLine1043" stroke="#000" stroke-width=".75"/><path d="M22.5 190l2.78-14.74" id="SvgjsLine1044" stroke="#000" stroke-width=".75"/><path d="M22.5 190l4.33-14.361" id="SvgjsLine1045" stroke="#000" stroke-width=".75"/><path d="M22.5 190l5.832-13.82" id="SvgjsLine1046" stroke="#000" stroke-width=".75"/><path d="M22.5 190l7.268-13.121" id="SvgjsLine1047" stroke="#000" stroke-width=".75"/><path d="M22.5 190l9.197-13.093" id="SvgjsLine1048" stroke="#000" stroke-width=".75"/><path d="M22.5 190l9.878-11.289" id="SvgjsLine1049" stroke="#000" stroke-width=".75"/><path d="M22.5 190l11.022-10.175" id="SvgjsLine1050" stroke="#000" stroke-width=".75"/><path d="M22.5 190l12.04-8.946" id="SvgjsLine1051" stroke="#000" stroke-width=".75"/><path d="M22.5 190l12.923-7.615" id="SvgjsLine1052" stroke="#000" stroke-width=".75"/><path d="M22.5 190l14.57-6.611" id="SvgjsLine1053" stroke="#000" stroke-width=".75"/><path d="M22.5 190l14.241-4.711" id="SvgjsLine1054" stroke="#000" stroke-width=".75"/><path d="M22.5 190l14.661-3.17" id="SvgjsLine1055" stroke="#000" stroke-width=".75"/><path d="M22.5 190l14.915-1.594" id="SvgjsLine1056" stroke="#000" stroke-width=".75"/><path d="M22.5 190h15" id="SvgjsLine1057" stroke="#000" stroke-width=".75"/><path d="M35.5 190a13 13 0 0 1-13 13 13 13 0 0 1-13-13 13 13 0 0 1 13-13 13 13 0 0 1 13 13z" id="SvgjsCircle1058" fill="#888" stroke="#111" stroke-width=".75"/></svg>