<svg xmlns:osb="http://www.openswatchbook.org/uri/2009/osb" xmlns="http://www.w3.org/2000/svg" xmlns:xlink="http://www.w3.org/1999/xlink" height="380" style="zoom:8" cursor="default" id="SvgjsSvg1006" width="45"><defs id="SvgjsDefs1007"><linearGradient id="linearGradient2396" osb:paint="gradient"><stop offset="0" id="stop2392" stop-color="#ff8f00"/><stop offset="1" id="stop2394" stop-color="#ff8f00" stop-opacity="0"/></linearGradient><linearGradient id="linearGradient2384" osb:paint="solid"><stop offset="0" id="stop2382" stop-color="#ff8f00"/></linearGradient><linearGradient id="linearGradient898" osb:paint="solid"><stop offset="0" id="stop896" stop-color="#ff8f00"/></linearGradient><linearGradient id="linearGradient915"><stop offset="0" id="stop911" stop-color="#e0e0e0"/><stop offset="1" id="stop913" stop-color="#d0d0d0"/></linearGradient><linearGradient xlink:href="#linearGradient915" id="linearGradient919" y1="190" x2="45" y2="190" gradientUnits="userSpaceOnUse"/><style id="Audiowide_Google_Webfont_import">@import url(https://fonts.googleapis.com/css?family=Raleway);</style></defs><path d="M0 0h45v380H0z" id="SvgjsRect1008" fill="url(#linearGradient919)"/><g aria-label="DMX" id="text5" font-size="12" font-family="Raleway" text-anchor="middle" text-rendering="geometricPrecision"><path d="M10.951 17.225v6.802h1.43q1.81 0 2.648-.82.844-.82.844-2.59 0-1.758-.844-2.572-.838-.82-2.648-.82zm-1.183-.973h2.431q2.543 0 3.733 1.06 1.19 1.055 1.19 3.305 0 2.262-1.196 3.322Q14.73 25 12.199 25H9.768z" id="path856"/><path d="M19.002 16.252h1.764l2.232 5.953 2.244-5.953h1.764V25h-1.154v-7.682l-2.256 6h-1.19l-2.256-6V25h-1.148z" id="path858"/><path d="M28.94 16.252h1.27l2.175 3.252 2.185-3.252h1.272l-2.813 4.201 3 4.547h-1.271l-2.461-3.72L29.818 25h-1.277l3.123-4.67z" id="path860"/></g><g aria-label="V/OCT" id="text7" font-size="8" font-family="Raleway" text-anchor="middle" text-rendering="geometricPrecision"><path d="M12.313 63l-2.227-5.832h.824l1.848 4.91 1.851-4.91h.82L13.208 63z" id="path863"/><path d="M17.523 57.168h.665l-2.032 6.574h-.664z" id="path865"/><path d="M21.348 57.703q-.86 0-1.368.64-.503.641-.503 1.747 0 1.101.503 1.742.508.64 1.368.64.859 0 1.359-.64.504-.64.504-1.742 0-1.106-.504-1.746-.5-.64-1.36-.64zm0-.64q1.226 0 1.96.824.735.82.735 2.203 0 1.379-.734 2.203-.735.82-1.961.82-1.23 0-1.97-.82-.733-.82-.733-2.203t.734-2.203q.738-.825 1.969-.825z" id="path867"/><path d="M29.645 57.617v.832q-.399-.37-.852-.554-.45-.184-.957-.184-1 0-1.531.613-.532.61-.532 1.766 0 1.152.532 1.765.53.61 1.53.61.509 0 .958-.184.453-.183.852-.554v.824q-.415.281-.88.422-.46.14-.976.14-1.324 0-2.086-.808-.762-.813-.762-2.215 0-1.406.762-2.215.762-.813 2.086-.813.523 0 .984.141.465.137.872.414z" id="path869"/><path d="M30.063 57.168h4.933v.664h-2.07V63h-.793v-5.168h-2.07z" id="path871"/></g><g aria-label="OUT" id="text31" font-size="8" font-family="Raleway" text-anchor="middle" text-rendering="geometricPrecision"><path d="M17.129 147.703q-.86 0-1.367.64-.504.641-.504 1.747 0 1.101.504 1.742.508.64 1.367.64.86 0 1.36-.64.503-.64.503-1.742 0-1.106-.504-1.746-.5-.64-1.36-.64zm0-.64q1.226 0 1.96.824.735.82.735 2.203 0 1.379-.734 2.203-.735.82-1.961.82-1.23 0-1.969-.82-.734-.82-.734-2.203t.734-2.203q.738-.825 1.969-.825z" id="path874"/><path d="M20.969 147.168h.793v3.543q0 .937.34 1.351.34.41 1.101.41.758 0 1.098-.41.34-.414.34-1.351v-3.543h.793v3.64q0 1.141-.567 1.723-.562.582-1.664.582-1.105 0-1.672-.582-.562-.582-.562-1.722z" id="path876"/><path d="M26.11 147.168h4.933v.664h-2.07V153h-.793v-5.168h-2.07z" id="path878"/></g><path d="M0 190h45" id="line21" stroke="#222"/><g aria-label="DMX" id="text23" font-size="12" font-family="Raleway" text-anchor="middle" text-rendering="geometricPrecision"><path d="M10.951 207.225v6.802h1.43q1.81 0 2.648-.82.844-.82.844-2.59 0-1.758-.844-2.572-.838-.82-2.648-.82zm-1.183-.973h2.431q2.543 0 3.733 1.06 1.19 1.055 1.19 3.305 0 2.262-1.196 3.322Q14.73 215 12.199 215H9.768z" id="path882"/><path d="M19.002 206.252h1.764l2.232 5.953 2.244-5.953h1.764V215h-1.154v-7.682l-2.256 6h-1.19l-2.256-6V215h-1.148z" id="path884"/><path d="M28.94 206.252h1.27l2.175 3.252 2.185-3.252h1.272l-2.813 4.201 3 4.547h-1.271l-2.461-3.72-2.479 3.72h-1.277l3.123-4.67z" id="path886"/></g><g aria-label="V/OCT" id="text33" font-size="8" font-family="Raleway" text-anchor="middle" text-rendering="geometricPrecision"><path d="M12.313 253l-2.227-5.832h.824l1.848 4.91 1.851-4.91h.82L13.208 253z" id="path889"/><path d="M17.523 247.168h.665l-2.032 6.574h-.664z" id="path891"/><path d="M21.348 247.703q-.86 0-1.368.64-.503.641-.503 1.747 0 1.101.503 1.742.508.64 1.368.64.859 0 1.359-.64.504-.64.504-1.742 0-1.106-.504-1.746-.5-.64-1.36-.64zm0-.64q1.226 0 1.96.824.735.82.735 2.203 0 1.379-.734 2.203-.735.82-1.961.82-1.23 0-1.97-.82-.733-.82-.733-2.203t.734-2.203q.738-.825 1.969-.825z" id="path893"/><path d="M29.645 247.617v.832q-.399-.37-.852-.554-.45-.184-.957-.184-1 0-1.531.613-.532.61-.532 1.766 0 1.152.532 1.765.53.61 1.53.61.509 0 .958-.184.453-.183.852-.554v.824q-.415.281-.88.422-.46.14-.976.14-1.324 0-2.086-.808-.762-.813-.762-2.215 0-1.406.762-2.215.762-.813 2.086-.813.523 0 .984.141.465.137.872.414z" id="path895"/><path d="M30.063 247.168h4.933v.664h-2.07V253h-.793v-5.168h-2.07z" id="path897"/></g><g aria-label="OUT" id="text36" font-size="8" font-family="Raleway" text-anchor="middle" text-rendering="geometricPrecision"><path d="M17.129 337.703q-.86 0-1.367.64-.504.641-.504 1.747 0 1.101.504 1.742.508.64 1.367.64.86 0 1.36-.64.503-.64.503-1.742 0-1.106-.504-1.746-.5-.64-1.36-.64zm0-.64q1.226 0 1.96.824.735.82.735 2.203 0 1.379-.734 2.203-.735.82-1.961.82-1.23 0-1.969-.82-.734-.82-.734-2.203t.734-2.203q.738-.824 1.969-.824z" id="path900"/><path d="M20.969 337.168h.793v3.543q0 .937.34 1.352.34.41 1.101.41.758 0 1.098-.41.34-.415.34-1.352v-3.543h.793v3.64q0 1.141-.567 1.723-.562.582-1.664.582-1.105 0-1.672-.582-.562-.582-.562-1.722z" id="path902"/><path d="M26.11 337.168h4.933v.664h-2.07V343h-.793v-5.168h-2.07z" id="path904"/></g><g aria-label="dk" style="-inkscape-font-specification:'Circuit board'" id="text850" font-weight="400" font-size="32" font-family="Circuit board" letter-spacing="0" word-spacing="0" text-anchor="middle"><path d="M22.238 373.536q-.096.384-.416.576-.32.224-.672.16-.512-.096-.672-.64l-2.304-1.152.032-24.224 1.696-1.44q-.032-.128 0-.256.064-.384.384-.576.32-.192.704-.128.353.064.577.384.224.32.16.704-.096.384-.416.576-.32.192-.672.128h-.064l-1.408 1.184v22.752l1.823.928q.32-.096.545-.064.352.064.544.384.224.32.16.704zm-4.352-28.864q-.096.352-.352.544l-.032 23.808-2.048 2.88h-7.36v-16.192h4.608q.32-.512.96-.384.352.064.576.384.224.32.16.704-.096.384-.416.576-.32.192-.672.128-.32-.032-.48-.256H9.086l-.032 13.888 5.984-.032 1.344-1.856.064-23.648q-.48-.384-.384-.928.096-.384.416-.576.32-.192.704-.128.352.064.544.384.224.32.16.704zm-1.568 2.368q-.096.352-.384.576v10.816l-5.344-.064v10.592l2.848.032q.288-.448.928-.352.352.064.544.384.224.32.16.704-.096.384-.416.576-.32.192-.672.128-.352-.096-.544-.384l-3.808.032.064-12.704 5.152-.064-.064-9.76q-.384-.352-.288-.896.096-.384.384-.576.32-.192.704-.128.352.064.576.384.224.32.16.704zm4.864-.224q.064-.384-.288-.448-.384-.064-.448.288-.16.448.288.48.352.064.448-.32zm-3.808-2.24q.064-.416-.32-.48-.416-.064-.448.32-.096.384.288.448.32.064.48-.288zm-1.6 2.368q.032-.416-.288-.48-.416-.064-.448.32-.096.384.288.448.352.064.448-.288zm-1.888 9.376q.064-.416-.32-.48-.416-.064-.448.32-.096.384.288.448.32.064.48-.288zm7.84 17.12q.064-.384-.288-.448-.448-.032-.48.288-.064.16.032.288.128.16.288.192.352.064.448-.32zm-7.168-3.84q.064-.384-.288-.448-.448-.032-.48.288-.064.16.032.32.128.128.288.16.352.064.448-.32z" style="-inkscape-font-specification:'Circuit board'" id="path907"/><path d="M35.136 360.512q0 .256-.192.48-.16.192-.448.224l-1.888 3.168H29.024l-.032-11.264q-.16-.16-.256-.416-.064-.288.096-.512.192-.256.48-.32.32-.064.544.096.256.16.32.448.096.48-.352.768v10.4H32.192l1.6-2.72q-.032-.064-.064-.16t-.032-.192q0-.288.224-.48.224-.224.512-.224.32 0 .512.224.192.192.192.48zm-6.336-9.248q0 .352-.32.576v21.408q.352.256.256.736-.064.288-.288.448-.224.16-.544.096-.288-.064-.48-.32-.16-.224-.096-.512.16-.352.32-.48l.032-21.376q-.288-.224-.288-.576 0-.288.192-.48.224-.224.512-.224.32 0 .512.224.192.192.192.48zm9.088 20.192q0 .288-.192.512-.192.192-.512.192-.288 0-.512-.192-.192-.224-.192-.512 0-.096.032-.192t.064-.16l-4.384-5.472H29.824v6.304q.448.288.352.768-.064.288-.32.448-.224.16-.544.096-.288-.064-.48-.32-.16-.224-.096-.512.096-.256.256-.416l.032-7.168 1.344-.032h2.24l4.672 5.952q.288.032.448.256.16.192.16.448zm-10.432 1.184q-.064.288-.32.448-.224.16-.544.096-.288-.064-.448-.32-.16-.256-.096-.544.096-.32.32-.448l.032-17.536-1.504-1.248q-.064 0-.16.032-.064 0-.128-.032-.288-.064-.448-.32-.16-.256-.096-.544.064-.288.288-.448.256-.16.544-.096.576.16.576.672l1.728 1.504-.032 18.048q.384.288.288.736zm2.304-20.128q-.032-.32-.352-.256-.32.032-.256.384.096.288.384.224.384-.064.224-.352zm-1.344-1.152q.16-.288-.256-.352-.256-.064-.352.224-.064.32.224.352.352.064.384-.224zm6.304 9.088q-.032-.288-.352-.224-.32.032-.256.352.032.288.384.224.384-.064.224-.352zm-9.664-8q.128-.32-.224-.384-.256-.064-.384.256-.064.32.256.352.32.064.352-.224zm12.448 19.072q.064-.128-.032-.224-.064-.128-.224-.16-.32-.064-.352.256-.064.32.224.352.352.064.384-.224zm-7.744 1.088q.16-.288-.224-.352-.288-.064-.384.224-.064.352.256.384.32.064.352-.256zm-2.72-.064q.16-.288-.224-.352-.256-.064-.352.224-.064.32.224.352.32.064.352-.224zm1.28 1.376q.064-.128-.032-.256-.064-.096-.224-.128-.192-.032-.352.256-.064.32.256.352.32.064.352-.224z" style="-inkscape-font-specification:'Circuit board'" id="path909"/></g></svg>