<?xml version="1.0" encoding="UTF-8" standalone="no"?>
<svg
   xmlns:osb="http://www.openswatchbook.org/uri/2009/osb"
   xmlns:dc="http://purl.org/dc/elements/1.1/"
   xmlns:cc="http://creativecommons.org/ns#"
   xmlns:rdf="http://www.w3.org/1999/02/22-rdf-syntax-ns#"
   xmlns:svg="http://www.w3.org/2000/svg"
   xmlns="http://www.w3.org/2000/svg"
   xmlns:xlink="http://www.w3.org/1999/xlink"
   xmlns:sodipodi="http://sodipodi.sourceforge.net/DTD/sodipodi-0.dtd"
   xmlns:inkscape="http://www.inkscape.org/namespaces/inkscape"
   height="380"
   style="zoom: 8;"
   cursor="default"
   id="SvgjsSvg1006"
   sodipodi:docname="Gnome.svg"
   inkscape:version="0.92.2 5c3e80d, 2017-08-06"
   width="135"
   version="1.1">
  <metadata
     id="metadata7215">
    <rdf:RDF>
      <cc:Work
         rdf:about="">
        <dc:format>image/svg+xml</dc:format>
        <dc:type
           rdf:resource="http://purl.org/dc/dcmitype/StillImage" />
        <dc:title />
      </cc:Work>
    </rdf:RDF>
  </metadata>
  <sodipodi:namedview
     borderopacity="1"
     inkscape:zoom="2.9512404"
     inkscape:cy="135.24546"
     gridtolerance="10"
     inkscape:cx="-57.845509"
     inkscape:window-height="1006"
     inkscape:measure-start="21.6858,252.097"
     inkscape:pagecheckerboard="true"
     inkscape:window-width="901"
     guidetolerance="10"
     id="namedview7213"
     showgrid="false"
     inkscape:pageopacity="0"
     inkscape:pageshadow="2"
     bordercolor="#666666"
     inkscape:current-layer="SvgjsSvg1006"
     inkscape:window-maximized="0"
     inkscape:window-y="11"
     inkscape:measure-end="21.0081,301.907"
     objecttolerance="10"
     pagecolor="#ffffff"
     inkscape:window-x="496"
     visibility="visible" />
  <defs
     id="SvgjsDefs1007">
    <linearGradient
       id="linearGradient2396"
       osb:paint="gradient">
      <stop
         style="stop-color:#ff8f00;stop-opacity:1;"
         offset="0"
         id="stop2392" />
      <stop
         style="stop-color:#ff8f00;stop-opacity:0;"
         offset="1"
         id="stop2394" />
    </linearGradient>
    <linearGradient
       id="linearGradient2384"
       osb:paint="solid">
      <stop
         style="stop-color:#ff8f00;stop-opacity:1;"
         offset="0"
         id="stop2382" />
    </linearGradient>
    <linearGradient
       id="linearGradient898"
       osb:paint="solid">
      <stop
         style="stop-color:#ff8f00;stop-opacity:1;"
         offset="0"
         id="stop896" />
    </linearGradient>
    <linearGradient
       inkscape:collect="always"
       id="linearGradient915">
      <stop
         style="stop-color:#e0e0e0;stop-opacity:1;"
         offset="0"
         id="stop911" />
      <stop
         style="stop-color:#d0d0d0;stop-opacity:1;"
         offset="1"
         id="stop913" />
    </linearGradient>
    <linearGradient
       inkscape:collect="always"
       xlink:href="#linearGradient915"
       id="linearGradient919"
       x1="0"
       y1="190"
       x2="135"
       y2="190"
       gradientUnits="userSpaceOnUse" />
    <style
       id="Audiowide_Google_Webfont_import">@import url(https://fonts.googleapis.com/css?family=Raleway);</style>
  </defs>
  <path
     d="M0,0 H135 V380 H0 Z"
     id="SvgjsRect1008"
     style="fill:url(#linearGradient919);fill-opacity:1;stroke:none;stroke-opacity:1"
     visibility="visible" />
  <g
     aria-label="GNOME"
     style="font-size:12px;font-family:Raleway;text-anchor:middle;fill:#000000;stroke:none;stroke-width:1px;text-rendering:geometricPrecision"
     id="text5">
    <path
       d="m 51.802734,23.751953 v -2.349609 h -1.933593 v -0.972657 h 3.105468 v 3.75586 q -0.685547,0.486328 -1.511718,0.738281 -0.826172,0.246094 -1.763672,0.246094 -2.050782,0 -3.210938,-1.195313 -1.154297,-1.201172 -1.154297,-3.339843 0,-2.144532 1.154297,-3.339844 1.160156,-1.201172 3.210938,-1.201172 0.855468,0 1.623047,0.210937 0.773437,0.210938 1.423828,0.621094 v 1.259766 q -0.65625,-0.556641 -1.394532,-0.837891 -0.738281,-0.28125 -1.552734,-0.28125 -1.605469,0 -2.414062,0.896485 -0.802735,0.896484 -0.802735,2.671875 0,1.769531 0.802735,2.666015 0.808593,0.896485 2.414062,0.896485 0.626953,0 1.119141,-0.105469 0.492187,-0.111328 0.884765,-0.339844 z"
       style="font-size:12px;font-family:Raleway;text-anchor:middle;fill:#000000;stroke:none;stroke-width:1px;text-rendering:geometricPrecision"
       id="path161" />
    <path
       d="m 55.142578,16.251953 h 1.59375 l 3.878906,7.318359 v -7.318359 h 1.148438 V 25 h -1.59375 L 56.291016,17.681641 V 25 h -1.148438 z"
       style="font-size:12px;font-family:Raleway;text-anchor:middle;fill:#000000;stroke:none;stroke-width:1px;text-rendering:geometricPrecision"
       id="path163" />
    <path
       d="m 67.669922,17.054687 q -1.289063,0 -2.050781,0.960938 -0.75586,0.960937 -0.75586,2.619141 0,1.652343 0.75586,2.613281 0.761718,0.960937 2.050781,0.960937 1.289062,0 2.039062,-0.960937 0.75586,-0.960938 0.75586,-2.613281 0,-1.658204 -0.75586,-2.619141 -0.75,-0.960938 -2.039062,-0.960938 z m 0,-0.960937 q 1.839844,0 2.941406,1.236328 1.101563,1.230469 1.101563,3.304688 0,2.068359 -1.101563,3.304687 -1.101562,1.230469 -2.941406,1.230469 -1.845703,0 -2.953125,-1.230469 -1.101563,-1.230469 -1.101563,-3.304687 0,-2.074219 1.101563,-3.304688 1.107422,-1.236328 2.953125,-1.236328 z"
       style="font-size:12px;font-family:Raleway;text-anchor:middle;fill:#000000;stroke:none;stroke-width:1px;text-rendering:geometricPrecision"
       id="path165" />
    <path
       d="m 73.564453,16.251953 h 1.763672 l 2.232422,5.953125 2.24414,-5.953125 h 1.763672 V 25 h -1.154297 v -7.681641 l -2.255859,6 H 76.96875 l -2.255859,-6 V 25 h -1.148438 z"
       style="font-size:12px;font-family:Raleway;text-anchor:middle;fill:#000000;stroke:none;stroke-width:1px;text-rendering:geometricPrecision"
       id="path167" />
    <path
       d="m 83.923828,16.251953 h 5.53125 v 0.996094 h -4.347656 v 2.589844 h 4.166015 v 0.996093 h -4.166015 v 3.169922 h 4.453125 V 25 h -5.636719 z"
       style="font-size:12px;font-family:Raleway;text-anchor:middle;fill:#000000;stroke:none;stroke-width:1px;text-rendering:geometricPrecision"
       id="path169" />
  </g>
  <path
     style="opacity:1;fill:#004200;fill-opacity:1;stroke:none;stroke-width:1;stroke-opacity:1"
     d="m 60,74 h 70 v 84 H 60 Z"
     id="rect19" />
  <g
     aria-label="RUN"
     style="font-size:8px;font-family:Raleway;text-anchor:middle;fill:#000000;stroke:none;stroke-width:1px;text-rendering:geometricPrecision"
     id="text7">
    <path
       d="m 17.347656,64.265625 q 0.253906,0.08594 0.492188,0.367187 0.242187,0.28125 0.484375,0.773438 L 19.125,67 H 18.277344 L 17.53125,65.503906 q -0.289063,-0.585937 -0.5625,-0.777344 -0.269531,-0.191406 -0.738281,-0.191406 H 15.371094 V 67 h -0.789063 v -5.832031 h 1.78125 q 1,0 1.492188,0.417968 0.492187,0.417969 0.492187,1.261719 0,0.550781 -0.257812,0.914063 -0.253907,0.363281 -0.742188,0.503906 z m -1.976562,-2.449219 v 2.070313 h 0.992187 q 0.570313,0 0.859375,-0.261719 0.292969,-0.265625 0.292969,-0.777344 0,-0.511719 -0.292969,-0.769531 -0.289062,-0.261719 -0.859375,-0.261719 z"
       style="font-size:8px;font-family:Raleway;text-anchor:middle;fill:#000000;stroke:none;stroke-width:1px;text-rendering:geometricPrecision"
       id="path173" />
    <path
       d="m 20.054687,61.167969 h 0.792969 v 3.542968 q 0,0.9375 0.339844,1.351563 0.339844,0.410156 1.101562,0.410156 0.757813,0 1.097657,-0.410156 0.339843,-0.414063 0.339843,-1.351563 v -3.542968 h 0.792969 v 3.640625 q 0,1.140625 -0.566406,1.722656 -0.5625,0.582031 -1.664063,0.582031 -1.105468,0 -1.671875,-0.582031 -0.5625,-0.582031 -0.5625,-1.722656 z"
       style="font-size:8px;font-family:Raleway;text-anchor:middle;fill:#000000;stroke:none;stroke-width:1px;text-rendering:geometricPrecision"
       id="path175" />
    <path
       d="m 26.003906,61.167969 h 1.0625 l 2.585938,4.878906 v -4.878906 h 0.765625 V 67 h -1.0625 L 26.769531,62.121094 V 67 h -0.765625 z"
       style="font-size:8px;font-family:Raleway;text-anchor:middle;fill:#000000;stroke:none;stroke-width:1px;text-rendering:geometricPrecision"
       id="path177" />
  </g>
  <g
     aria-label="SWING"
     style="font-size:8px;font-family:Raleway;text-anchor:middle;fill:#000000;stroke:none;stroke-width:1px;text-rendering:geometricPrecision"
     id="text22">
    <path
       d="m 80.515625,61.359375 v 0.769531 q -0.449219,-0.214844 -0.847656,-0.320312 -0.398438,-0.105469 -0.769532,-0.105469 -0.644531,0 -0.996093,0.25 -0.347657,0.25 -0.347657,0.710937 0,0.386719 0.230469,0.585938 0.234375,0.195312 0.882813,0.316406 l 0.476562,0.09766 q 0.882813,0.167969 1.300781,0.59375 0.421875,0.421875 0.421875,1.132813 0,0.847656 -0.570312,1.285156 -0.566406,0.4375 -1.664063,0.4375 -0.414062,0 -0.882812,-0.09375 -0.464844,-0.09375 -0.964844,-0.277344 v -0.8125 q 0.480469,0.269532 0.941406,0.40625 0.460938,0.136719 0.90625,0.136719 0.675782,0 1.042969,-0.265625 0.367188,-0.265625 0.367188,-0.757812 0,-0.429688 -0.265625,-0.671875 -0.261719,-0.242188 -0.863282,-0.363282 l -0.480468,-0.09375 q -0.882813,-0.175781 -1.277344,-0.550781 -0.394531,-0.375 -0.394531,-1.042969 0,-0.773437 0.542968,-1.21875 0.546875,-0.445312 1.503907,-0.445312 0.410156,0 0.835937,0.07422 0.425781,0.07422 0.871094,0.222656 z"
       style="font-size:8px;font-family:Raleway;text-anchor:middle;fill:#000000;stroke:none;stroke-width:1px;text-rendering:geometricPrecision"
       id="path180" />
    <path
       d="M 81.578125,61.167969 H 82.375 l 1.226562,4.929687 1.222657,-4.929687 h 0.886718 l 1.226563,4.929687 1.222656,-4.929687 h 0.800781 L 87.496094,67 H 86.503906 L 85.273437,61.9375 84.03125,67 h -0.992188 z"
       style="font-size:8px;font-family:Raleway;text-anchor:middle;fill:#000000;stroke:none;stroke-width:1px;text-rendering:geometricPrecision"
       id="path182" />
    <path
       d="m 90.003906,61.167969 h 0.789063 V 67 h -0.789063 z"
       style="font-size:8px;font-family:Raleway;text-anchor:middle;fill:#000000;stroke:none;stroke-width:1px;text-rendering:geometricPrecision"
       id="path184" />
    <path
       d="m 92.363281,61.167969 h 1.0625 l 2.585938,4.878906 v -4.878906 h 0.765625 V 67 h -1.0625 L 93.128906,62.121094 V 67 h -0.765625 z"
       style="font-size:8px;font-family:Raleway;text-anchor:middle;fill:#000000;stroke:none;stroke-width:1px;text-rendering:geometricPrecision"
       id="path186" />
    <path
       d="m 102.32422,66.167969 v -1.566407 h -1.28906 v -0.648437 h 2.07031 v 2.503906 q -0.45703,0.324219 -1.00781,0.492188 -0.55078,0.164062 -1.17578,0.164062 -1.367193,0 -2.14063,-0.796875 -0.769531,-0.800781 -0.769531,-2.226562 0,-1.429688 0.769531,-2.226563 0.773437,-0.800781 2.14063,-0.800781 0.57031,0 1.08203,0.140625 0.51562,0.140625 0.94922,0.414062 v 0.839844 q -0.4375,-0.371094 -0.92969,-0.558594 -0.49219,-0.1875 -1.03516,-0.1875 -1.070311,0 -1.609374,0.597657 -0.535156,0.597656 -0.535156,1.78125 0,1.179687 0.535156,1.777343 0.539063,0.597657 1.609374,0.597657 0.41797,0 0.7461,-0.07031 0.32812,-0.07422 0.58984,-0.226562 z"
       style="font-size:8px;font-family:Raleway;text-anchor:middle;fill:#000000;stroke:none;stroke-width:1px;text-rendering:geometricPrecision"
       id="path188" />
  </g>
  <g
     aria-label="/8"
     style="font-size:6px;font-family:Raleway;fill:#000000;stroke:none;stroke-width:1px;text-rendering:geometricPrecision"
     id="text24">
    <path
       d="m 77.523437,47.625977 h 0.498047 l -1.523437,4.930664 H 76 Z"
       style="font-size:6px;font-family:Raleway;fill:#000000;stroke:none;stroke-width:1px;text-rendering:geometricPrecision"
       id="path191" />
    <path
       d="m 79.93457,49.922852 q -0.421875,0 -0.665039,0.225585 -0.240234,0.225586 -0.240234,0.621094 0,0.395508 0.240234,0.621094 0.243164,0.225586 0.665039,0.225586 0.421875,0 0.665039,-0.225586 0.243164,-0.228516 0.243164,-0.621094 0,-0.395508 -0.243164,-0.621094 -0.240234,-0.225585 -0.665039,-0.225585 z m -0.591797,-0.251954 q -0.380859,-0.09375 -0.594726,-0.354492 -0.210938,-0.260742 -0.210938,-0.635742 0,-0.524414 0.372071,-0.829102 0.375,-0.304687 1.02539,-0.304687 0.653321,0 1.025391,0.304687 0.37207,0.304688 0.37207,0.829102 0,0.375 -0.213867,0.635742 -0.210937,0.260742 -0.588867,0.354492 0.427734,0.09961 0.665039,0.389649 0.240234,0.290039 0.240234,0.708984 0,0.635742 -0.389648,0.975586 -0.386719,0.339844 -1.110352,0.339844 -0.723633,0 -1.113281,-0.339844 -0.386719,-0.339844 -0.386719,-0.975586 0,-0.418945 0.240235,-0.708984 0.240234,-0.290039 0.667968,-0.389649 z m -0.216796,-0.93457 q 0,0.339844 0.210937,0.530274 0.213867,0.190429 0.597656,0.190429 0.38086,0 0.594727,-0.190429 0.216797,-0.19043 0.216797,-0.530274 0,-0.339844 -0.216797,-0.530273 -0.213867,-0.19043 -0.594727,-0.19043 -0.383789,0 -0.597656,0.19043 -0.210937,0.190429 -0.210937,0.530273 z"
       style="font-size:6px;font-family:Raleway;fill:#000000;stroke:none;stroke-width:1px;text-rendering:geometricPrecision"
       id="path193" />
  </g>
  <g
     aria-label="/16"
     style="font-size:6px;font-family:Raleway;fill:#000000;stroke:none;stroke-width:1px;text-rendering:geometricPrecision"
     id="text26">
    <path
       d="m 100.52344,47.625977 h 0.49804 l -1.523433,4.930664 H 99 Z"
       style="font-size:6px;font-family:Raleway;fill:#000000;stroke:none;stroke-width:1px;text-rendering:geometricPrecision"
       id="path196" />
    <path
       d="m 101.77148,51.501953 h 0.9668 v -3.336914 l -1.05176,0.210938 v -0.539063 l 1.0459,-0.210937 h 0.5918 v 3.875976 h 0.9668 V 52 h -2.51954 z"
       style="font-size:6px;font-family:Raleway;fill:#000000;stroke:none;stroke-width:1px;text-rendering:geometricPrecision"
       id="path198" />
    <path
       d="m 106.82813,49.577148 q -0.39844,0 -0.63282,0.272461 -0.23144,0.272461 -0.23144,0.747071 0,0.471679 0.23144,0.74707 0.23438,0.272461 0.63282,0.272461 0.39843,0 0.62988,-0.272461 0.23437,-0.275391 0.23437,-0.74707 0,-0.47461 -0.23437,-0.747071 -0.23145,-0.272461 -0.62988,-0.272461 z m 1.1748,-1.854492 v 0.539063 q -0.22266,-0.105469 -0.45117,-0.161133 -0.22559,-0.05566 -0.44824,-0.05566 -0.58594,0 -0.89649,0.395508 -0.30762,0.395507 -0.35156,1.195312 0.17285,-0.254883 0.43359,-0.389648 0.26074,-0.137696 0.57422,-0.137696 0.65918,0 1.04004,0.401368 0.38379,0.398437 0.38379,1.086914 0,0.673828 -0.39844,1.081054 -0.39844,0.407227 -1.06054,0.407227 -0.75879,0 -1.16016,-0.580078 -0.40137,-0.583008 -0.40137,-1.6875 0,-1.03711 0.49219,-1.652344 0.49219,-0.618164 1.32129,-0.618164 0.22265,0 0.44824,0.04395 0.22852,0.04395 0.47461,0.131836 z"
       style="font-size:6px;font-family:Raleway;fill:#000000;stroke:none;stroke-width:1px;text-rendering:geometricPrecision"
       id="path200" />
  </g>
  <g
     aria-label="BPM"
     style="font-size:8px;font-family:Raleway;text-anchor:middle;fill:#000000;stroke:none;stroke-width:1px;text-rendering:geometricPrecision"
     id="text28">
    <path
       d="m 15.464844,109.21484 v 2.13672 h 1.265625 q 0.636718,0 0.941406,-0.26172 0.308594,-0.26562 0.308594,-0.80859 0,-0.54687 -0.308594,-0.80469 -0.304688,-0.26172 -0.941406,-0.26172 z m 0,-2.39843 v 1.75781 h 1.167968 q 0.578125,0 0.859375,-0.21484 0.285157,-0.21875 0.285157,-0.66407 0,-0.4414 -0.285157,-0.66015 -0.28125,-0.21875 -0.859375,-0.21875 z m -0.789063,-0.64844 h 2.015625 q 0.902344,0 1.390625,0.375 0.488281,0.375 0.488281,1.06641 0,0.53515 -0.25,0.85156 -0.25,0.3164 -0.734375,0.39453 0.582032,0.125 0.902344,0.52344 0.324219,0.39453 0.324219,0.98828 0,0.78125 -0.53125,1.20703 Q 17.75,112 16.769531,112 h -2.09375 z"
       style="font-size:8px;font-family:Raleway;text-anchor:middle;fill:#000000;stroke:none;stroke-width:1px;text-rendering:geometricPrecision"
       id="path203" />
    <path
       d="m 20.949219,106.81641 v 2.1914 h 0.992187 q 0.550781,0 0.851563,-0.28515 0.300781,-0.28516 0.300781,-0.8125 0,-0.52344 -0.300781,-0.8086 -0.300782,-0.28515 -0.851563,-0.28515 z m -0.789063,-0.64844 h 1.78125 q 0.980469,0 1.480469,0.44531 0.503906,0.44141 0.503906,1.29688 0,0.86328 -0.503906,1.30468 -0.5,0.44141 -1.480469,0.44141 H 20.949219 V 112 h -0.789063 z"
       style="font-size:8px;font-family:Raleway;text-anchor:middle;fill:#000000;stroke:none;stroke-width:1px;text-rendering:geometricPrecision"
       id="path205" />
    <path
       d="m 24.988281,106.16797 h 1.175781 l 1.488282,3.96875 1.496093,-3.96875 h 1.175782 V 112 h -0.769532 v -5.12109 l -1.503906,4 h -0.792969 l -1.503906,-4 V 112 h -0.765625 z"
       style="font-size:8px;font-family:Raleway;text-anchor:middle;fill:#000000;stroke:none;stroke-width:1px;text-rendering:geometricPrecision"
       id="path207" />
  </g>
  <g
     aria-label="WIDTH"
     style="font-size:8px;font-family:Raleway;text-anchor:middle;fill:#000000;stroke:none;stroke-width:1px;text-rendering:geometricPrecision"
     id="text30">
    <path
       d="m 9.1015625,151.16797 h 0.796875 l 1.2265625,4.92969 1.222656,-4.92969 h 0.886719 l 1.226563,4.92969 1.222656,-4.92969 h 0.800781 L 15.019531,157 H 14.027344 L 12.796875,151.9375 11.554688,157 H 10.5625 Z"
       style="font-size:8px;font-family:Raleway;text-anchor:middle;fill:#000000;stroke:none;stroke-width:1px;text-rendering:geometricPrecision"
       id="path210" />
    <path
       d="m 17.527344,151.16797 h 0.789062 V 157 h -0.789062 z"
       style="font-size:8px;font-family:Raleway;text-anchor:middle;fill:#000000;stroke:none;stroke-width:1px;text-rendering:geometricPrecision"
       id="path212" />
    <path
       d="m 20.675781,151.81641 v 4.53515 h 0.953125 q 1.207031,0 1.765625,-0.54687 0.5625,-0.54688 0.5625,-1.72657 0,-1.17187 -0.5625,-1.71484 -0.558594,-0.54687 -1.765625,-0.54687 z m -0.789062,-0.64844 h 1.621093 q 1.695313,0 2.488282,0.70703 0.792968,0.70312 0.792968,2.20312 0,1.50782 -0.796875,2.21485 Q 23.195312,157 21.507812,157 h -1.621093 z"
       style="font-size:8px;font-family:Raleway;text-anchor:middle;fill:#000000;stroke:none;stroke-width:1px;text-rendering:geometricPrecision"
       id="path214" />
    <path
       d="m 25.234375,151.16797 h 4.933594 v 0.66406 H 28.097656 V 157 h -0.792969 v -5.16797 h -2.070312 z"
       style="font-size:8px;font-family:Raleway;text-anchor:middle;fill:#000000;stroke:none;stroke-width:1px;text-rendering:geometricPrecision"
       id="path216" />
    <path
       d="m 30.933594,151.16797 h 0.789062 v 2.39062 h 2.867188 v -2.39062 h 0.789062 V 157 h -0.789062 v -2.77734 H 31.722656 V 157 h -0.789062 z"
       style="font-size:8px;font-family:Raleway;text-anchor:middle;fill:#000000;stroke:none;stroke-width:1px;text-rendering:geometricPrecision"
       id="path218" />
  </g>
  <g
     aria-label="RESET"
     style="font-size:8px;font-family:Raleway;text-anchor:middle;fill:#000000;stroke:none;stroke-width:1px;text-rendering:geometricPrecision"
     id="text29">
    <path
       d="m 13.222656,195.26562 q 0.253907,0.0859 0.492188,0.36719 0.242187,0.28125 0.484375,0.77344 L 15,198 h -0.847656 l -0.746094,-1.49609 q -0.289062,-0.58594 -0.5625,-0.77735 -0.269531,-0.1914 -0.738281,-0.1914 H 11.246094 V 198 h -0.789063 v -5.83203 h 1.78125 q 1,0 1.492188,0.41797 0.492187,0.41797 0.492187,1.26172 0,0.55078 -0.257812,0.91406 -0.253906,0.36328 -0.742188,0.5039 z m -1.976562,-2.44921 v 2.07031 h 0.992187 q 0.570313,0 0.859375,-0.26172 0.292969,-0.26563 0.292969,-0.77734 0,-0.51172 -0.292969,-0.76954 -0.289062,-0.26171 -0.859375,-0.26171 z"
       style="font-size:8px;font-family:Raleway;text-anchor:middle;fill:#000000;stroke:none;stroke-width:1px;text-rendering:geometricPrecision"
       id="path221" />
    <path
       d="m 16.019531,192.16797 h 3.6875 v 0.66406 h -2.898437 v 1.72656 h 2.777343 v 0.66407 h -2.777343 v 2.11328 h 2.96875 V 198 h -3.757813 z"
       style="font-size:8px;font-family:Raleway;text-anchor:middle;fill:#000000;stroke:none;stroke-width:1px;text-rendering:geometricPrecision"
       id="path223" />
    <path
       d="m 24.578125,192.35937 v 0.76954 q -0.449219,-0.21485 -0.847656,-0.32032 -0.398438,-0.10547 -0.769532,-0.10547 -0.644531,0 -0.996093,0.25 -0.347657,0.25 -0.347657,0.71094 0,0.38672 0.230469,0.58594 0.234375,0.19531 0.882813,0.31641 l 0.476562,0.0977 q 0.882813,0.16797 1.300781,0.59375 0.421875,0.42188 0.421875,1.13281 0,0.84766 -0.570312,1.28516 -0.566406,0.4375 -1.664063,0.4375 -0.414062,0 -0.882812,-0.0937 -0.464844,-0.0937 -0.964844,-0.27734 v -0.8125 q 0.480469,0.26953 0.941406,0.40625 0.460938,0.13672 0.90625,0.13672 0.675782,0 1.042969,-0.26563 0.367188,-0.26562 0.367188,-0.75781 0,-0.42969 -0.265625,-0.67188 -0.261719,-0.24218 -0.863282,-0.36328 l -0.480468,-0.0937 q -0.882813,-0.17578 -1.277344,-0.55078 -0.394531,-0.375 -0.394531,-1.04297 0,-0.77344 0.542968,-1.21875 0.546875,-0.44531 1.503907,-0.44531 0.410156,0 0.835937,0.0742 0.425781,0.0742 0.871094,0.22265 z"
       style="font-size:8px;font-family:Raleway;text-anchor:middle;fill:#000000;stroke:none;stroke-width:1px;text-rendering:geometricPrecision"
       id="path225" />
    <path
       d="m 26.160156,192.16797 h 3.6875 v 0.66406 h -2.898437 v 1.72656 h 2.777343 v 0.66407 h -2.777343 v 2.11328 h 2.96875 V 198 h -3.757813 z"
       style="font-size:8px;font-family:Raleway;text-anchor:middle;fill:#000000;stroke:none;stroke-width:1px;text-rendering:geometricPrecision"
       id="path227" />
    <path
       d="m 30.414062,192.16797 h 4.933594 v 0.66406 H 33.277344 V 198 h -0.792969 v -5.16797 h -2.070313 z"
       style="font-size:8px;font-family:Raleway;text-anchor:middle;fill:#000000;stroke:none;stroke-width:1px;text-rendering:geometricPrecision"
       id="path229" />
  </g>
  <g
     aria-label="/1"
     style="font-size:8px;font-family:Raleway;text-anchor:middle;fill:#000000;stroke:none;stroke-width:1px;text-rendering:geometricPrecision"
     id="text33">
    <path
       d="m 65.632812,192.16797 h 0.664063 l -2.03125,6.57422 h -0.664063 z"
       style="font-size:8px;font-family:Raleway;text-anchor:middle;fill:#000000;stroke:none;stroke-width:1px;text-rendering:geometricPrecision"
       id="path232" />
    <path
       d="m 67.296875,197.33594 h 1.289062 v -4.44922 l -1.402343,0.28125 v -0.71875 l 1.394531,-0.28125 h 0.789062 v 5.16797 H 70.65625 V 198 h -3.359375 z"
       style="font-size:8px;font-family:Raleway;text-anchor:middle;fill:#000000;stroke:none;stroke-width:1px;text-rendering:geometricPrecision"
       id="path234" />
  </g>
  <g
     aria-label="/2"
     style="font-size:8px;font-family:Raleway;text-anchor:middle;fill:#000000;stroke:none;stroke-width:1px;text-rendering:geometricPrecision"
     id="text35">
    <path
       d="m 110.63281,192.16797 h 0.66407 l -2.03125,6.57422 h -0.66407 z"
       style="font-size:8px;font-family:Raleway;text-anchor:middle;fill:#000000;stroke:none;stroke-width:1px;text-rendering:geometricPrecision"
       id="path237" />
    <path
       d="m 112.83984,197.33594 h 2.75391 V 198 h -3.70312 v -0.66406 q 0.44921,-0.46485 1.22265,-1.2461 0.77735,-0.78515 0.97656,-1.01172 0.37891,-0.42578 0.52735,-0.71875 0.15234,-0.29687 0.15234,-0.58203 0,-0.46484 -0.32812,-0.75781 -0.32422,-0.29297 -0.84766,-0.29297 -0.37109,0 -0.78516,0.12891 -0.41015,0.1289 -0.8789,0.39062 v -0.79687 q 0.47656,-0.19141 0.89062,-0.28906 0.41407,-0.0977 0.75782,-0.0977 0.90625,0 1.44531,0.45312 0.53906,0.45313 0.53906,1.21094 0,0.35938 -0.13672,0.6836 -0.13281,0.32031 -0.48828,0.75781 -0.0977,0.11328 -0.62109,0.65625 -0.52344,0.53906 -1.47657,1.51172 z"
       style="font-size:8px;font-family:Raleway;text-anchor:middle;fill:#000000;stroke:none;stroke-width:1px;text-rendering:geometricPrecision"
       id="path239" />
  </g>
  <g
     aria-label="/4"
     style="font-size:8px;font-family:Raleway;text-anchor:middle;fill:#000000;stroke:none;stroke-width:1px;text-rendering:geometricPrecision"
     id="text37">
    <path
       d="m 20.632812,237.16797 h 0.664063 l -2.03125,6.57422 h -0.664063 z"
       style="font-size:8px;font-family:Raleway;text-anchor:middle;fill:#000000;stroke:none;stroke-width:1px;text-rendering:geometricPrecision"
       id="path242" />
    <path
       d="m 24.328125,237.85547 -1.992188,3.11328 h 1.992188 z m -0.207031,-0.6875 h 0.992187 v 3.80078 h 0.832031 V 241.625 H 25.113281 V 243 h -0.785156 v -1.375 h -2.632813 v -0.76172 z"
       style="font-size:8px;font-family:Raleway;text-anchor:middle;fill:#000000;stroke:none;stroke-width:1px;text-rendering:geometricPrecision"
       id="path244" />
  </g>
  <g
     aria-label="/8"
     style="font-size:8px;font-family:Raleway;text-anchor:middle;fill:#000000;stroke:none;stroke-width:1px;text-rendering:geometricPrecision"
     id="text39">
    <path
       d="m 65.632812,237.16797 h 0.664063 l -2.03125,6.57422 h -0.664063 z"
       style="font-size:8px;font-family:Raleway;text-anchor:middle;fill:#000000;stroke:none;stroke-width:1px;text-rendering:geometricPrecision"
       id="path247" />
    <path
       d="m 68.847656,240.23047 q -0.5625,0 -0.886719,0.30078 -0.320312,0.30078 -0.320312,0.82812 0,0.52735 0.320312,0.82813 0.324219,0.30078 0.886719,0.30078 0.5625,0 0.886719,-0.30078 0.324219,-0.30469 0.324219,-0.82813 0,-0.52734 -0.324219,-0.82812 -0.320313,-0.30078 -0.886719,-0.30078 z m -0.789062,-0.33594 q -0.507813,-0.125 -0.792969,-0.47266 -0.28125,-0.34765 -0.28125,-0.84765 0,-0.69922 0.496094,-1.10547 0.5,-0.40625 1.367187,-0.40625 0.871094,0 1.367188,0.40625 0.496093,0.40625 0.496093,1.10547 0,0.5 -0.285156,0.84765 -0.28125,0.34766 -0.785156,0.47266 0.570312,0.13281 0.886719,0.51953 0.320312,0.38672 0.320312,0.94531 0,0.84766 -0.519531,1.30079 -0.515625,0.45312 -1.480469,0.45312 -0.964844,0 -1.484375,-0.45312 -0.515625,-0.45313 -0.515625,-1.30079 0,-0.55859 0.320313,-0.94531 0.320312,-0.38672 0.890625,-0.51953 z m -0.289063,-1.24609 q 0,0.45312 0.28125,0.70703 0.285156,0.2539 0.796875,0.2539 0.507813,0 0.792969,-0.2539 0.289062,-0.25391 0.289062,-0.70703 0,-0.45313 -0.289062,-0.70703 -0.285156,-0.25391 -0.792969,-0.25391 -0.511719,0 -0.796875,0.25391 -0.28125,0.2539 -0.28125,0.70703 z"
       style="font-size:8px;font-family:Raleway;text-anchor:middle;fill:#000000;stroke:none;stroke-width:1px;text-rendering:geometricPrecision"
       id="path249" />
  </g>
  <g
     aria-label="/16"
     style="font-size:8px;font-family:Raleway;text-anchor:middle;fill:#000000;stroke:none;stroke-width:1px;text-rendering:geometricPrecision"
     id="text41">
    <path
       d="M 108.08594,237.16797 H 108.75 l -2.03125,6.57422 h -0.66406 z"
       style="font-size:8px;font-family:Raleway;text-anchor:middle;fill:#000000;stroke:none;stroke-width:1px;text-rendering:geometricPrecision"
       id="path252" />
    <path
       d="m 109.75,242.33594 h 1.28906 v -4.44922 l -1.40234,0.28125 v -0.71875 l 1.39453,-0.28125 h 0.78906 v 5.16797 h 1.28907 V 243 H 109.75 Z"
       style="font-size:8px;font-family:Raleway;text-anchor:middle;fill:#000000;stroke:none;stroke-width:1px;text-rendering:geometricPrecision"
       id="path254" />
    <path
       d="m 116.49219,239.76953 q -0.53125,0 -0.84375,0.36328 -0.3086,0.36328 -0.3086,0.9961 0,0.6289 0.3086,0.99609 0.3125,0.36328 0.84375,0.36328 0.53125,0 0.83984,-0.36328 0.3125,-0.36719 0.3125,-0.99609 0,-0.63282 -0.3125,-0.9961 -0.30859,-0.36328 -0.83984,-0.36328 z m 1.5664,-2.47266 v 0.71875 q -0.29687,-0.14062 -0.60156,-0.21484 -0.30078,-0.0742 -0.59765,-0.0742 -0.78125,0 -1.19532,0.52735 -0.41015,0.52734 -0.46875,1.59375 0.23047,-0.33985 0.57813,-0.51954 0.34765,-0.18359 0.76562,-0.18359 0.87891,0 1.38672,0.53516 0.51172,0.53125 0.51172,1.44922 0,0.89843 -0.53125,1.4414 -0.53125,0.54297 -1.41406,0.54297 -1.01172,0 -1.54688,-0.77344 -0.53515,-0.77734 -0.53515,-2.25 0,-1.38281 0.65625,-2.20312 0.65625,-0.82422 1.76172,-0.82422 0.29687,0 0.59765,0.0586 0.30469,0.0586 0.63281,0.17578 z"
       style="font-size:8px;font-family:Raleway;text-anchor:middle;fill:#000000;stroke:none;stroke-width:1px;text-rendering:geometricPrecision"
       id="path256" />
  </g>
  <g
     aria-label="/A"
     style="font-size:8px;font-family:Raleway;text-anchor:middle;fill:#000000;stroke:none;stroke-width:1px;text-rendering:geometricPrecision"
     id="text43">
    <path
       d="m 20.445312,282.16797 h 0.664063 l -2.03125,6.57422 h -0.664063 z"
       style="font-size:8px;font-family:Raleway;text-anchor:middle;fill:#000000;stroke:none;stroke-width:1px;text-rendering:geometricPrecision"
       id="path259" />
    <path
       d="m 23.851562,282.94531 -1.070312,2.90235 h 2.144531 z m -0.445312,-0.77734 h 0.894531 L 26.523437,288 h -0.820312 l -0.53125,-1.49609 H 22.542969 L 22.011719,288 h -0.832032 z"
       style="font-size:8px;font-family:Raleway;text-anchor:middle;fill:#000000;stroke:none;stroke-width:1px;text-rendering:geometricPrecision"
       id="path261" />
  </g>
  <g
     aria-label="/B"
     style="font-size:8px;font-family:Raleway;text-anchor:middle;fill:#000000;stroke:none;stroke-width:1px;text-rendering:geometricPrecision"
     id="text45">
    <path
       d="m 65.4375,282.16797 h 0.664062 l -2.03125,6.57422 H 63.40625 Z"
       style="font-size:8px;font-family:Raleway;text-anchor:middle;fill:#000000;stroke:none;stroke-width:1px;text-rendering:geometricPrecision"
       id="path264" />
    <path
       d="m 67.683594,285.21484 v 2.13672 h 1.265625 q 0.636718,0 0.941406,-0.26172 0.308594,-0.26562 0.308594,-0.80859 0,-0.54688 -0.308594,-0.80469 -0.304688,-0.26172 -0.941406,-0.26172 z m 0,-2.39843 v 1.75781 h 1.167968 q 0.578125,0 0.859375,-0.21485 0.285157,-0.21875 0.285157,-0.66406 0,-0.4414 -0.285157,-0.66015 -0.28125,-0.21875 -0.859375,-0.21875 z m -0.789063,-0.64844 h 2.015625 q 0.902344,0 1.390625,0.375 0.488281,0.375 0.488281,1.0664 0,0.53516 -0.25,0.85157 -0.25,0.3164 -0.734375,0.39453 0.582032,0.125 0.902344,0.52344 0.324219,0.39453 0.324219,0.98828 0,0.78125 -0.53125,1.20703 Q 69.96875,288 68.988281,288 h -2.09375 z"
       style="font-size:8px;font-family:Raleway;text-anchor:middle;fill:#000000;stroke:none;stroke-width:1px;text-rendering:geometricPrecision"
       id="path266" />
  </g>
  <g
     aria-label="/C"
     style="font-size:8px;font-family:Raleway;text-anchor:middle;fill:#000000;stroke:none;stroke-width:1px;text-rendering:geometricPrecision"
     id="text47">
    <path
       d="m 110.38281,282.16797 h 0.66407 l -2.03125,6.57422 h -0.66407 z"
       style="font-size:8px;font-family:Raleway;text-anchor:middle;fill:#000000;stroke:none;stroke-width:1px;text-rendering:geometricPrecision"
       id="path269" />
    <path
       d="m 116.20703,282.61719 v 0.83203 q -0.39844,-0.3711 -0.85156,-0.55469 -0.44922,-0.18359 -0.95703,-0.18359 -1,0 -1.53125,0.61328 -0.53125,0.60937 -0.53125,1.76562 0,1.15235 0.53125,1.76563 0.53125,0.60937 1.53125,0.60937 0.50781,0 0.95703,-0.18359 0.45312,-0.18359 0.85156,-0.55469 v 0.82422 q -0.41406,0.28125 -0.8789,0.42188 -0.46094,0.14062 -0.97657,0.14062 -1.32422,0 -2.08593,-0.80859 -0.76172,-0.8125 -0.76172,-2.21485 0,-1.40625 0.76172,-2.21484 0.76171,-0.8125 2.08593,-0.8125 0.52344,0 0.98438,0.14062 0.46484,0.13672 0.87109,0.41407 z"
       style="font-size:8px;font-family:Raleway;text-anchor:middle;fill:#000000;stroke:none;stroke-width:1px;text-rendering:geometricPrecision"
       id="path271" />
  </g>
  <g
     aria-label="/D"
     style="font-size:8px;font-family:Raleway;text-anchor:middle;fill:#000000;stroke:none;stroke-width:1px;text-rendering:geometricPrecision"
     id="text49">
    <path
       d="m 20.101562,327.16797 h 0.664063 l -2.03125,6.57422 h -0.664063 z"
       style="font-size:8px;font-family:Raleway;text-anchor:middle;fill:#000000;stroke:none;stroke-width:1px;text-rendering:geometricPrecision"
       id="path274" />
    <path
       d="m 22.347656,327.81641 v 4.53515 h 0.953125 q 1.207031,0 1.765625,-0.54687 0.5625,-0.54688 0.5625,-1.72657 0,-1.17187 -0.5625,-1.71484 -0.558594,-0.54687 -1.765625,-0.54687 z m -0.789062,-0.64844 h 1.621093 q 1.695313,0 2.488282,0.70703 0.792968,0.70312 0.792968,2.20312 0,1.50782 -0.796875,2.21485 Q 24.867187,333 23.179687,333 h -1.621093 z"
       style="font-size:8px;font-family:Raleway;text-anchor:middle;fill:#000000;stroke:none;stroke-width:1px;text-rendering:geometricPrecision"
       id="path276" />
  </g>
  <g
     aria-label="/E"
     style="font-size:8px;font-family:Raleway;text-anchor:middle;fill:#000000;stroke:none;stroke-width:1px;text-rendering:geometricPrecision"
     id="text51">
    <path
       d="M 65.648437,327.16797 H 66.3125 l -2.03125,6.57422 h -0.664063 z"
       style="font-size:8px;font-family:Raleway;text-anchor:middle;fill:#000000;stroke:none;stroke-width:1px;text-rendering:geometricPrecision"
       id="path279" />
    <path
       d="m 67.105469,327.16797 h 3.6875 v 0.66406 h -2.898438 v 1.72656 h 2.777344 v 0.66407 h -2.777344 v 2.11328 h 2.96875 V 333 h -3.757812 z"
       style="font-size:8px;font-family:Raleway;text-anchor:middle;fill:#000000;stroke:none;stroke-width:1px;text-rendering:geometricPrecision"
       id="path281" />
  </g>
  <g
     aria-label="/F"
     style="font-size:8px;font-family:Raleway;text-anchor:middle;fill:#000000;stroke:none;stroke-width:1px;text-rendering:geometricPrecision"
     id="text53">
    <path
       d="m 110.875,327.16797 h 0.66406 l -2.03125,6.57422 h -0.66406 z"
       style="font-size:8px;font-family:Raleway;text-anchor:middle;fill:#000000;stroke:none;stroke-width:1px;text-rendering:geometricPrecision"
       id="path284" />
    <path
       d="m 112.33203,327.16797 h 3.35156 v 0.66406 h -2.5625 v 1.71875 h 2.3125 v 0.66406 h -2.3125 V 333 h -0.78906 z"
       style="font-size:8px;font-family:Raleway;text-anchor:middle;fill:#000000;stroke:none;stroke-width:1px;text-rendering:geometricPrecision"
       id="path286" />
  </g>
  <g
     aria-label="dk"
     style="font-style:normal;font-variant:normal;font-weight:normal;font-stretch:normal;font-size:32px;font-family:'Circuit board';-inkscape-font-specification:'Circuit board';letter-spacing:0px;word-spacing:0px;text-anchor:middle;fill:#000000;fill-opacity:1;stroke:none"
     id="text850">
    <path
       d="m 67.2385,373.536 q -0.096,0.384 -0.416,0.576 -0.32,0.224 -0.672,0.16 -0.512,-0.096 -0.672,-0.64 l -2.304,-1.152 0.032,-24.224 1.696,-1.44 q -0.032,-0.128 0,-0.256 0.064,-0.384 0.384,-0.576 0.32,-0.192 0.704,-0.128 0.352,0.064 0.576,0.384 0.224,0.32 0.16,0.704 -0.096,0.384 -0.416,0.576 -0.32,0.192 -0.672,0.128 h -0.064 l -1.408,1.184 v 22.752 l 1.824,0.928 q 0.32,-0.096 0.544,-0.064 0.352,0.064 0.544,0.384 0.224,0.32 0.16,0.704 z m -4.352,-28.864 q -0.096,0.352 -0.352,0.544 l -0.032,23.808 -2.048,2.88 h -7.36 v -16.192 h 4.608 q 0.32,-0.512 0.96,-0.384 0.352,0.064 0.576,0.384 0.224,0.32 0.16,0.704 -0.096,0.384 -0.416,0.576 -0.32,0.192 -0.672,0.128 -0.32,-0.032 -0.48,-0.256 h -3.744 l -0.032,13.888 5.984,-0.032 1.344,-1.856 0.064,-23.648 q -0.48,-0.384 -0.384,-0.928 0.096,-0.384 0.416,-0.576 0.32,-0.192 0.704,-0.128 0.352,0.064 0.544,0.384 0.224,0.32 0.16,0.704 z m -1.568,2.368 q -0.096,0.352 -0.384,0.576 v 10.816 l -5.344,-0.064 v 10.592 l 2.848,0.032 q 0.288,-0.448 0.928,-0.352 0.352,0.064 0.544,0.384 0.224,0.32 0.16,0.704 -0.096,0.384 -0.416,0.576 -0.32,0.192 -0.672,0.128 -0.352,-0.096 -0.544,-0.384 l -3.808,0.032 0.064,-12.704 5.152,-0.064 -0.064,-9.76 q -0.384,-0.352 -0.288,-0.896 0.096,-0.384 0.384,-0.576 0.32,-0.192 0.704,-0.128 0.352,0.064 0.576,0.384 0.224,0.32 0.16,0.704 z m 4.864,-0.224 q 0.064,-0.384 -0.288,-0.448 -0.384,-0.064 -0.448,0.288 -0.16,0.448 0.288,0.48 0.352,0.064 0.448,-0.32 z m -3.808,-2.24 q 0.064,-0.416 -0.32,-0.48 -0.416,-0.064 -0.448,0.32 -0.096,0.384 0.288,0.448 0.32,0.064 0.48,-0.288 z m -1.6,2.368 q 0.032,-0.416 -0.288,-0.48 -0.416,-0.064 -0.448,0.32 -0.096,0.384 0.288,0.448 0.352,0.064 0.448,-0.288 z m -1.888,9.376 q 0.064,-0.416 -0.32,-0.48 -0.416,-0.064 -0.448,0.32 -0.096,0.384 0.288,0.448 0.32,0.064 0.48,-0.288 z m 7.84,17.12 q 0.064,-0.384 -0.288,-0.448 -0.448,-0.032 -0.48,0.288 -0.064,0.16 0.032,0.288 0.128,0.16 0.288,0.192 0.352,0.064 0.448,-0.32 z m -7.168,-3.84 q 0.064,-0.384 -0.288,-0.448 -0.448,-0.032 -0.48,0.288 -0.064,0.16 0.032,0.32 0.128,0.128 0.288,0.16 0.352,0.064 0.448,-0.32 z"
       style="font-style:normal;font-variant:normal;font-weight:normal;font-stretch:normal;font-size:32px;font-family:'Circuit board';-inkscape-font-specification:'Circuit board';letter-spacing:0px;word-spacing:0px;text-anchor:middle;fill:#000000;fill-opacity:1;stroke:none"
       id="path289" />
    <path
       d="m 80.136,360.512 q 0,0.256 -0.192,0.48 -0.16,0.192 -0.448,0.224 l -1.888,3.168 h -2.24 -1.344 L 73.992,353.12 q -0.16,-0.16 -0.256,-0.416 -0.064,-0.288 0.096,-0.512 0.192,-0.256 0.48,-0.32 0.32,-0.064 0.544,0.096 0.256,0.16 0.32,0.448 0.096,0.48 -0.352,0.768 v 10.4 h 1.024 1.344 l 1.6,-2.72 q -0.032,-0.064 -0.064,-0.16 -0.032,-0.096 -0.032,-0.192 0,-0.288 0.224,-0.48 0.224,-0.224 0.512,-0.224 0.32,0 0.512,0.224 0.192,0.192 0.192,0.48 z M 73.8,351.264 q 0,0.352 -0.32,0.576 v 21.408 q 0.352,0.256 0.256,0.736 -0.064,0.288 -0.288,0.448 -0.224,0.16 -0.544,0.096 -0.288,-0.064 -0.48,-0.32 -0.16,-0.224 -0.096,-0.512 0.16,-0.352 0.32,-0.48 L 72.68,351.84 q -0.288,-0.224 -0.288,-0.576 0,-0.288 0.192,-0.48 0.224,-0.224 0.512,-0.224 0.32,0 0.512,0.224 0.192,0.192 0.192,0.48 z m 9.088,20.192 q 0,0.288 -0.192,0.512 -0.192,0.192 -0.512,0.192 -0.288,0 -0.512,-0.192 -0.192,-0.224 -0.192,-0.512 0,-0.096 0.032,-0.192 0.032,-0.096 0.064,-0.16 l -4.384,-5.472 h -1.344 -1.024 v 6.304 q 0.448,0.288 0.352,0.768 -0.064,0.288 -0.32,0.448 -0.224,0.16 -0.544,0.096 -0.288,-0.064 -0.48,-0.32 -0.16,-0.224 -0.096,-0.512 0.096,-0.256 0.256,-0.416 l 0.032,-7.168 1.344,-0.032 h 2.24 l 4.672,5.952 q 0.288,0.032 0.448,0.256 0.16,0.192 0.16,0.448 z m -10.432,1.184 q -0.064,0.288 -0.32,0.448 -0.224,0.16 -0.544,0.096 -0.288,-0.064 -0.448,-0.32 -0.16,-0.256 -0.096,-0.544 0.096,-0.32 0.32,-0.448 l 0.032,-17.536 -1.504,-1.248 q -0.064,0 -0.16,0.032 -0.064,0 -0.128,-0.032 -0.288,-0.064 -0.448,-0.32 -0.16,-0.256 -0.096,-0.544 0.064,-0.288 0.288,-0.448 0.256,-0.16 0.544,-0.096 0.576,0.16 0.576,0.672 l 1.728,1.504 -0.032,18.048 q 0.384,0.288 0.288,0.736 z m 2.304,-20.128 q -0.032,-0.32 -0.352,-0.256 -0.32,0.032 -0.256,0.384 0.096,0.288 0.384,0.224 0.384,-0.064 0.224,-0.352 z m -1.344,-1.152 q 0.16,-0.288 -0.256,-0.352 -0.256,-0.064 -0.352,0.224 -0.064,0.32 0.224,0.352 0.352,0.064 0.384,-0.224 z m 6.304,9.088 q -0.032,-0.288 -0.352,-0.224 -0.32,0.032 -0.256,0.352 0.032,0.288 0.384,0.224 0.384,-0.064 0.224,-0.352 z m -9.664,-8 q 0.128,-0.32 -0.224,-0.384 -0.256,-0.064 -0.384,0.256 -0.064,0.32 0.256,0.352 0.32,0.064 0.352,-0.224 z m 12.448,19.072 q 0.064,-0.128 -0.032,-0.224 -0.064,-0.128 -0.224,-0.16 -0.32,-0.064 -0.352,0.256 -0.064,0.32 0.224,0.352 0.352,0.064 0.384,-0.224 z m -7.744,1.088 q 0.16,-0.288 -0.224,-0.352 -0.288,-0.064 -0.384,0.224 -0.064,0.352 0.256,0.384 0.32,0.064 0.352,-0.256 z m -2.72,-0.064 q 0.16,-0.288 -0.224,-0.352 -0.256,-0.064 -0.352,0.224 -0.064,0.32 0.224,0.352 0.32,0.064 0.352,-0.224 z m 1.28,1.376 q 0.064,-0.128 -0.032,-0.256 -0.064,-0.096 -0.224,-0.128 -0.192,-0.032 -0.352,0.256 -0.064,0.32 0.256,0.352 0.32,0.064 0.352,-0.224 z"
       style="font-style:normal;font-variant:normal;font-weight:normal;font-stretch:normal;font-size:32px;font-family:'Circuit board';-inkscape-font-specification:'Circuit board';letter-spacing:0px;word-spacing:0px;text-anchor:middle;fill:#000000;fill-opacity:1;stroke:none"
       id="path291" />
  </g>
  <path
     style="stroke:#111111;stroke-width:0.75"
     d="M 41,85.5 H 57"
     id="SvgjsLine1007" />
  <path
     style="stroke:#111111;stroke-width:0.75"
     d="m 41,85.5 14.915024,1.594398"
     id="SvgjsLine1008" />
  <path
     style="stroke:#111111;stroke-width:0.75"
     d="m 41,85.5 14.661053,3.170738"
     id="SvgjsLine1009" />
  <path
     style="stroke:#111111;stroke-width:0.75"
     d="m 41,85.5 14.240963,4.711151"
     id="SvgjsLine1010" />
  <path
     style="stroke:#111111;stroke-width:0.75"
     d="m 41,85.5 13.659523,6.198181"
     id="SvgjsLine1011" />
  <path
     style="stroke:#111111;stroke-width:0.75"
     d="m 41,85.5 13.784866,8.12265"
     id="SvgjsLine1012" />
  <path
     style="stroke:#111111;stroke-width:0.75"
     d="m 41,85.5 12.040676,8.945511"
     id="SvgjsLine1013" />
  <path
     style="stroke:#111111;stroke-width:0.75"
     d="M 41,85.5 52.021614,95.674675"
     id="SvgjsLine1014" />
  <path
     style="stroke:#111111;stroke-width:0.75"
     d="m 41,85.5 9.87767,11.288559"
     id="SvgjsLine1015" />
  <path
     style="stroke:#111111;stroke-width:0.75"
     d="m 41,85.5 8.621811,12.274544"
     id="SvgjsLine1016" />
  <path
     style="stroke:#111111;stroke-width:0.75"
     d="m 41,85.5 7.752815,13.996208"
     id="SvgjsLine1017" />
  <path
     style="stroke:#111111;stroke-width:0.75"
     d="M 41,85.5 32.513264,99.063751"
     id="SvgjsLine1018" />
  <path
     style="stroke:#111111;stroke-width:0.75"
     d="M 41,85.5 31.737131,97.298271"
     id="SvgjsLine1019" />
  <path
     style="stroke:#111111;stroke-width:0.75"
     d="M 41,85.5 30.535526,96.246849"
     id="SvgjsLine1020" />
  <path
     style="stroke:#111111;stroke-width:0.75"
     d="M 41,85.5 29.45249,95.073662"
     id="SvgjsLine1021" />
  <path
     style="stroke:#111111;stroke-width:0.75"
     d="M 41,85.5 28.500292,93.792"
     id="SvgjsLine1022" />
  <path
     style="stroke:#111111;stroke-width:0.75"
     d="M 41,85.5 26.802366,92.87748"
     id="SvgjsLine1023" />
  <path
     style="stroke:#111111;stroke-width:0.75"
     d="M 41,85.5 27.029957,90.96241"
     id="SvgjsLine1024" />
  <path
     style="stroke:#111111;stroke-width:0.75"
     d="M 41,85.5 26.528482,89.446541"
     id="SvgjsLine1025" />
  <path
     style="stroke:#111111;stroke-width:0.75"
     d="M 41,85.5 26.190975,87.885956"
     id="SvgjsLine1026" />
  <path
     style="stroke:#111111;stroke-width:0.75"
     d="M 41,85.5 26.021259,86.298332"
     id="SvgjsLine1027" />
  <path
     style="stroke:#111111;stroke-width:0.75"
     d="M 41,85.5 25.022676,84.648445"
     id="SvgjsLine1028" />
  <path
     style="stroke:#111111;stroke-width:0.75"
     d="M 41,85.5 26.190975,83.114044"
     id="SvgjsLine1029" />
  <path
     style="stroke:#111111;stroke-width:0.75"
     d="M 41,85.5 26.528482,81.553459"
     id="SvgjsLine1030" />
  <path
     style="stroke:#111111;stroke-width:0.75"
     d="M 41,85.5 27.029957,80.03759"
     id="SvgjsLine1031" />
  <path
     style="stroke:#111111;stroke-width:0.75"
     d="M 41,85.5 27.689718,78.583611"
     id="SvgjsLine1032" />
  <path
     style="stroke:#111111;stroke-width:0.75"
     d="M 41,85.5 27.666977,76.655197"
     id="SvgjsLine1033" />
  <path
     style="stroke:#111111;stroke-width:0.75"
     d="M 41,85.5 29.45249,75.926338"
     id="SvgjsLine1034" />
  <path
     style="stroke:#111111;stroke-width:0.75"
     d="M 41,85.5 30.535526,74.753151"
     id="SvgjsLine1035" />
  <path
     style="stroke:#111111;stroke-width:0.75"
     d="M 41,85.5 31.737131,73.701729"
     id="SvgjsLine1036" />
  <path
     style="stroke:#111111;stroke-width:0.75"
     d="M 41,85.5 33.043686,72.783981"
     id="SvgjsLine1037" />
  <path
     style="stroke:#111111;stroke-width:0.75"
     d="M 41,85.5 34.003082,71.111008"
     id="SvgjsLine1038" />
  <path
     style="stroke:#111111;stroke-width:0.75"
     d="M 41,85.5 35.911419,71.389496"
     id="SvgjsLine1039" />
  <path
     style="stroke:#111111;stroke-width:0.75"
     d="M 41,85.5 37.440098,70.928551"
     id="SvgjsLine1040" />
  <path
     style="stroke:#111111;stroke-width:0.75"
     d="M 41,85.5 39.009117,70.632706"
     id="SvgjsLine1041" />
  <path
     style="stroke:#111111;stroke-width:0.75"
     d="M 41,85.5 40.600693,70.505318"
     id="SvgjsLine1042" />
  <path
     style="stroke:#111111;stroke-width:0.75"
     d="M 41,85.5 42.276577,69.55101"
     id="SvgjsLine1043" />
  <path
     style="stroke:#111111;stroke-width:0.75"
     d="M 41,85.5 43.779331,70.759735"
     id="SvgjsLine1044" />
  <path
     style="stroke:#111111;stroke-width:0.75"
     d="M 41,85.5 45.330379,71.138672"
     id="SvgjsLine1045" />
  <path
     style="stroke:#111111;stroke-width:0.75"
     d="M 41,85.5 46.832363,71.680321"
     id="SvgjsLine1046" />
  <path
     style="stroke:#111111;stroke-width:0.75"
     d="M 41,85.5 48.268265,72.378555"
     id="SvgjsLine1047" />
  <path
     style="stroke:#111111;stroke-width:0.75"
     d="M 41,85.5 50.196598,72.407158"
     id="SvgjsLine1048" />
  <path
     style="stroke:#111111;stroke-width:0.75"
     d="M 41,85.5 50.87767,74.211441"
     id="SvgjsLine1049" />
  <path
     style="stroke:#111111;stroke-width:0.75"
     d="M 41,85.5 52.021614,75.325325"
     id="SvgjsLine1050" />
  <path
     style="stroke:#111111;stroke-width:0.75"
     d="M 41,85.5 53.040676,76.554489"
     id="SvgjsLine1051" />
  <path
     style="stroke:#111111;stroke-width:0.75"
     d="M 41,85.5 53.923309,77.88501"
     id="SvgjsLine1052" />
  <path
     style="stroke:#111111;stroke-width:0.75"
     d="M 41,85.5 55.570156,78.888603"
     id="SvgjsLine1053" />
  <path
     style="stroke:#111111;stroke-width:0.75"
     d="M 41,85.5 55.240963,80.788849"
     id="SvgjsLine1054" />
  <path
     style="stroke:#111111;stroke-width:0.75"
     d="M 41,85.5 55.661053,82.329262"
     id="SvgjsLine1055" />
  <path
     style="stroke:#111111;stroke-width:0.75"
     d="M 41,85.5 55.915024,83.905602"
     id="SvgjsLine1056" />
  <path
     style="stroke:#111111;stroke-width:0.75"
     d="M 41,85.5 H 56"
     id="SvgjsLine1057" />
  <path
     style="fill:#888888;stroke:#111111;stroke-width:0.75"
     d="m 54,85.5 a 13,13 0 0 1 -13,13 13,13 0 0 1 -13,-13 13,13 0 0 1 13,-13 13,13 0 0 1 13,13 z"
     id="SvgjsCircle1058" />
  <path
     style="stroke:#111111;stroke-width:0.75"
     d="M 41,130.5 H 57"
     id="SvgjsLine1059" />
  <path
     style="stroke:#111111;stroke-width:0.75"
     d="m 41,130.5 14.915024,1.59441"
     id="SvgjsLine1060" />
  <path
     style="stroke:#111111;stroke-width:0.75"
     d="m 41,130.5 14.661053,3.17075"
     id="SvgjsLine1061" />
  <path
     style="stroke:#111111;stroke-width:0.75"
     d="m 41,130.5 14.240963,4.71115"
     id="SvgjsLine1062" />
  <path
     style="stroke:#111111;stroke-width:0.75"
     d="m 41,130.5 13.659523,6.19818"
     id="SvgjsLine1063" />
  <path
     style="stroke:#111111;stroke-width:0.75"
     d="m 41,130.5 13.784866,8.12265"
     id="SvgjsLine1064" />
  <path
     style="stroke:#111111;stroke-width:0.75"
     d="m 41,130.5 12.040676,8.94551"
     id="SvgjsLine1065" />
  <path
     style="stroke:#111111;stroke-width:0.75"
     d="m 41,130.5 11.021614,10.17468"
     id="SvgjsLine1066" />
  <path
     style="stroke:#111111;stroke-width:0.75"
     d="m 41,130.5 9.87767,11.28856"
     id="SvgjsLine1067" />
  <path
     style="stroke:#111111;stroke-width:0.75"
     d="m 41,130.5 8.621811,12.27454"
     id="SvgjsLine1068" />
  <path
     style="stroke:#111111;stroke-width:0.75"
     d="m 41,130.5 7.752815,13.99622"
     id="SvgjsLine1069" />
  <path
     style="stroke:#111111;stroke-width:0.75"
     d="m 41,130.5 -8.486736,13.56375"
     id="SvgjsLine1070" />
  <path
     style="stroke:#111111;stroke-width:0.75"
     d="m 41,130.5 -9.262869,11.79828"
     id="SvgjsLine1071" />
  <path
     style="stroke:#111111;stroke-width:0.75"
     d="M 41,130.5 30.535526,141.24686"
     id="SvgjsLine1072" />
  <path
     style="stroke:#111111;stroke-width:0.75"
     d="m 41,130.5 -11.54751,9.57367"
     id="SvgjsLine1073" />
  <path
     style="stroke:#111111;stroke-width:0.75"
     d="m 41,130.5 -12.499708,8.29201"
     id="SvgjsLine1074" />
  <path
     style="stroke:#111111;stroke-width:0.75"
     d="m 41,130.5 -14.197634,7.37749"
     id="SvgjsLine1075" />
  <path
     style="stroke:#111111;stroke-width:0.75"
     d="m 41,130.5 -13.970043,5.4624"
     id="SvgjsLine1076" />
  <path
     style="stroke:#111111;stroke-width:0.75"
     d="m 41,130.5 -14.471518,3.94653"
     id="SvgjsLine1077" />
  <path
     style="stroke:#111111;stroke-width:0.75"
     d="m 41,130.5 -14.809025,2.38596"
     id="SvgjsLine1078" />
  <path
     style="stroke:#111111;stroke-width:0.75"
     d="m 41,130.5 -14.978741,0.79834"
     id="SvgjsLine1079" />
  <path
     style="stroke:#111111;stroke-width:0.75"
     d="M 41,130.5 25.022676,129.64845"
     id="SvgjsLine1080" />
  <path
     style="stroke:#111111;stroke-width:0.75"
     d="M 41,130.5 26.190975,128.11404"
     id="SvgjsLine1081" />
  <path
     style="stroke:#111111;stroke-width:0.75"
     d="M 41,130.5 26.528482,126.55346"
     id="SvgjsLine1082" />
  <path
     style="stroke:#111111;stroke-width:0.75"
     d="M 41,130.5 27.029957,125.03759"
     id="SvgjsLine1083" />
  <path
     style="stroke:#111111;stroke-width:0.75"
     d="M 41,130.5 27.689718,123.58361"
     id="SvgjsLine1084" />
  <path
     style="stroke:#111111;stroke-width:0.75"
     d="M 41,130.5 27.666977,121.6552"
     id="SvgjsLine1085" />
  <path
     style="stroke:#111111;stroke-width:0.75"
     d="M 41,130.5 29.45249,120.92634"
     id="SvgjsLine1086" />
  <path
     style="stroke:#111111;stroke-width:0.75"
     d="M 41,130.5 30.535526,119.75315"
     id="SvgjsLine1087" />
  <path
     style="stroke:#111111;stroke-width:0.75"
     d="M 41,130.5 31.737131,118.70173"
     id="SvgjsLine1088" />
  <path
     style="stroke:#111111;stroke-width:0.75"
     d="M 41,130.5 33.043686,117.78398"
     id="SvgjsLine1089" />
  <path
     style="stroke:#111111;stroke-width:0.75"
     d="M 41,130.5 34.003082,116.11101"
     id="SvgjsLine1090" />
  <path
     style="stroke:#111111;stroke-width:0.75"
     d="M 41,130.5 35.911419,116.3895"
     id="SvgjsLine1091" />
  <path
     style="stroke:#111111;stroke-width:0.75"
     d="M 41,130.5 37.440098,115.92855"
     id="SvgjsLine1092" />
  <path
     style="stroke:#111111;stroke-width:0.75"
     d="M 41,130.5 39.009117,115.63271"
     id="SvgjsLine1093" />
  <path
     style="stroke:#111111;stroke-width:0.75"
     d="M 41,130.5 40.600693,115.50532"
     id="SvgjsLine1094" />
  <path
     style="stroke:#111111;stroke-width:0.75"
     d="m 41,130.5 1.276577,-15.94899"
     id="SvgjsLine1095" />
  <path
     style="stroke:#111111;stroke-width:0.75"
     d="m 41,130.5 2.779331,-14.74026"
     id="SvgjsLine1096" />
  <path
     style="stroke:#111111;stroke-width:0.75"
     d="m 41,130.5 4.330379,-14.36133"
     id="SvgjsLine1097" />
  <path
     style="stroke:#111111;stroke-width:0.75"
     d="m 41,130.5 5.832363,-13.81968"
     id="SvgjsLine1098" />
  <path
     style="stroke:#111111;stroke-width:0.75"
     d="m 41,130.5 7.268265,-13.12144"
     id="SvgjsLine1099" />
  <path
     style="stroke:#111111;stroke-width:0.75"
     d="m 41,130.5 9.196598,-13.09284"
     id="SvgjsLine1100" />
  <path
     style="stroke:#111111;stroke-width:0.75"
     d="m 41,130.5 9.87767,-11.28856"
     id="SvgjsLine1101" />
  <path
     style="stroke:#111111;stroke-width:0.75"
     d="M 41,130.5 52.021614,120.32533"
     id="SvgjsLine1102" />
  <path
     style="stroke:#111111;stroke-width:0.75"
     d="m 41,130.5 12.040676,-8.94551"
     id="SvgjsLine1103" />
  <path
     style="stroke:#111111;stroke-width:0.75"
     d="m 41,130.5 12.923309,-7.61499"
     id="SvgjsLine1104" />
  <path
     style="stroke:#111111;stroke-width:0.75"
     d="m 41,130.5 14.570156,-6.6114"
     id="SvgjsLine1105" />
  <path
     style="stroke:#111111;stroke-width:0.75"
     d="m 41,130.5 14.240963,-4.71115"
     id="SvgjsLine1106" />
  <path
     style="stroke:#111111;stroke-width:0.75"
     d="m 41,130.5 14.661053,-3.17074"
     id="SvgjsLine1107" />
  <path
     style="stroke:#111111;stroke-width:0.75"
     d="m 41,130.5 14.915024,-1.59441"
     id="SvgjsLine1108" />
  <path
     style="stroke:#111111;stroke-width:0.75"
     d="M 41,130.5 H 56"
     id="SvgjsLine1109" />
  <path
     style="fill:#888888;stroke:#111111;stroke-width:0.75"
     d="m 54,130.5 a 13,13 0 0 1 -13,13 13,13 0 0 1 -13,-13 13,13 0 0 1 13,-13 13,13 0 0 1 13,13 z"
     id="SvgjsCircle1110" />
</svg>
