<?xml version="1.0" encoding="UTF-8" standalone="no"?>
<svg
   xmlns:osb0="http://www.CLOSED HIHATswatchbook.org/uri/2009/osb"
   xmlns:dc="http://purl.org/dc/elements/1.1/"
   xmlns:cc="http://creativecommons.org/ns#"
   xmlns:rdf="http://www.w3.org/1999/02/22-rdf-syntax-ns#"
   xmlns:svg="http://www.w3.org/2000/svg"
   xmlns="http://www.w3.org/2000/svg"
   xmlns:xlink="http://www.w3.org/1999/xlink"
   xmlns:sodipodi="http://sodipodi.sourceforge.net/DTD/sodipodi-0.dtd"
   xmlns:inkscape="http://www.inkscape.org/namespaces/inkscape"
   height="380"
   style="zoom: 8;"
   cursor="default"
   id="SvgjsSvg1006"
   sodipodi:docname="OpenHH.svg"
   inkscape:version="0.92.2 5c3e80d, 2017-08-06"
   width="135"
   version="1.1">
  <metadata
     id="metadata7215">
    <rdf:RDF>
      <cc:Work
         rdf:about="">
        <dc:format>image/svg+xml</dc:format>
        <dc:type
           rdf:resource="http://purl.org/dc/dcmitype/StillImage" />
        <dc:title />
      </cc:Work>
    </rdf:RDF>
  </metadata>
  <sodipodi:namedview
     borderopacity="1"
     inkscape:zoom="2.9512404"
     inkscape:cy="135.24546"
     gridtolerance="10"
     inkscape:cx="-57.845509"
     inkscape:window-height="1006"
     inkscape:measure-start="21.6858,252.097"
     inkscape:pagecheckerboard="true"
     inkscape:window-width="901"
     guidetolerance="10"
     id="namedview7213"
     showgrid="false"
     inkscape:pageopacity="0"
     inkscape:pageshadow="2"
     bordercolor="#666666"
     inkscape:current-layer="SvgjsSvg1006"
     inkscape:window-maximized="0"
     inkscape:window-y="11"
     inkscape:measure-end="21.0081,301.907"
     objecttolerance="10"
     pagecolor="#ffffff"
     inkscape:window-x="496"
     visibility="visible" />
  <defs
     id="SvgjsDefs1007">
    <linearGradient
       id="linearGradient2396"
       osb0:paint="gradient">
      <stop
         style="stop-color:#ff8f00;stop-opacity:1;"
         offset="0"
         id="stop2392" />
      <stop
         style="stop-color:#ff8f00;stop-opacity:0;"
         offset="1"
         id="stop2394" />
    </linearGradient>
    <linearGradient
       id="linearGradient2384"
       osb0:paint="solid">
      <stop
         style="stop-color:#ff8f00;stop-opacity:1;"
         offset="0"
         id="stop2382" />
    </linearGradient>
    <linearGradient
       id="linearGradient898"
       osb0:paint="solid">
      <stop
         style="stop-color:#ff8f00;stop-opacity:1;"
         offset="0"
         id="stop896" />
    </linearGradient>
    <linearGradient
       inkscape:collect="always"
       id="linearGradient915">
      <stop
         style="stop-color:#e0e0e0;stop-opacity:1;"
         offset="0"
         id="stop911" />
      <stop
         style="stop-color:#a0a0a0;stop-opacity:1;"
         offset="1"
         id="stop913" />
    </linearGradient>
    <linearGradient
       inkscape:collect="always"
       xlink:href="#linearGradient915"
       id="linearGradient919"
       x1="0"
       y1="190"
       x2="135"
       y2="190"
       gradientUnits="userSpaceOnUse" />
    <style
       id="Audiowide_Google_Webfont_import">@import url(https://fonts.googleapis.com/css?family=Raleway);</style>
  </defs>
  <path
     d="M0,0 H135 V380 H0 Z"
     id="SvgjsRect1008"
     style="fill:url(#linearGradient919);fill-opacity:1;stroke:none;stroke-opacity:1"
     visibility="visible" />
  <g
     aria-label="OPEN HIHAT"
     style="font-size:16px;font-family:Raleway;text-anchor:middle;fill:#000000;stroke:none;stroke-width:1px;text-rendering:geometricPrecision"
     id="text5">
    <path
       d="m 24.960937,6.40625 q -1.71875,0 -2.734375,1.28125 -1.007812,1.28125 -1.007812,3.492188 0,2.203125 1.007812,3.484375 1.015625,1.28125 2.734375,1.28125 1.71875,0 2.71875,-1.28125 1.007813,-1.28125 1.007813,-3.484375 0,-2.210938 -1.007813,-3.492188 -1,-1.28125 -2.71875,-1.28125 z m 0,-1.28125 q 2.453125,0 3.921875,1.6484375 1.46875,1.640625 1.46875,4.4062505 0,2.757812 -1.46875,4.40625 -1.46875,1.640624 -3.921875,1.640624 -2.460937,0 -3.9375,-1.640624 -1.46875,-1.640625 -1.46875,-4.40625 0,-2.7656255 1.46875,-4.4062505 Q 22.5,5.125 24.960937,5.125 Z"
       style="font-size:16px;font-family:Raleway;text-anchor:middle;fill:#000000;stroke:none;stroke-width:1px;text-rendering:geometricPrecision"
       id="path336" />
    <path
       d="m 34.398437,6.6328125 v 4.3828125 h 1.984375 q 1.101563,0 1.703125,-0.570312 Q 38.6875,9.875 38.6875,8.8203125 q 0,-1.046875 -0.601563,-1.6171875 -0.601562,-0.5703125 -1.703125,-0.5703125 z m -1.578125,-1.296875 h 3.5625 q 1.960938,0 2.960938,0.890625 1.007812,0.8828125 1.007812,2.59375 0,1.7265625 -1.007812,2.6093755 -1,0.882812 -2.960938,0.882812 H 34.398437 V 17 h -1.578125 z"
       style="font-size:16px;font-family:Raleway;text-anchor:middle;fill:#000000;stroke:none;stroke-width:1px;text-rendering:geometricPrecision"
       id="path338" />
    <path
       d="m 42.476562,5.3359375 h 7.375 v 1.328125 h -5.796875 v 3.4531255 h 5.554688 v 1.328125 h -5.554688 v 4.226562 h 5.9375 V 17 h -7.515625 z"
       style="font-size:16px;font-family:Raleway;text-anchor:middle;fill:#000000;stroke:none;stroke-width:1px;text-rendering:geometricPrecision"
       id="path340" />
    <path
       d="m 52.601562,5.3359375 h 2.125 L 59.898437,15.09375 V 5.3359375 h 1.53125 V 17 h -2.125 L 54.132812,7.2421875 V 17 h -1.53125 z"
       style="font-size:16px;font-family:Raleway;text-anchor:middle;fill:#000000;stroke:none;stroke-width:1px;text-rendering:geometricPrecision"
       id="path342" />
    <path
       d="m 69.664062,5.3359375 h 1.578125 v 4.7812505 h 5.734375 V 5.3359375 h 1.578125 V 17 H 76.976562 V 11.445313 H 71.242187 V 17 h -1.578125 z"
       style="font-size:16px;font-family:Raleway;text-anchor:middle;fill:#000000;stroke:none;stroke-width:1px;text-rendering:geometricPrecision"
       id="path344" />
    <path
       d="m 81.695312,5.3359375 h 1.578125 V 17 h -1.578125 z"
       style="font-size:16px;font-family:Raleway;text-anchor:middle;fill:#000000;stroke:none;stroke-width:1px;text-rendering:geometricPrecision"
       id="path346" />
    <path
       d="m 86.414062,5.3359375 h 1.578125 v 4.7812505 h 5.734375 V 5.3359375 h 1.578125 V 17 H 93.726562 V 11.445313 H 87.992187 V 17 h -1.578125 z"
       style="font-size:16px;font-family:Raleway;text-anchor:middle;fill:#000000;stroke:none;stroke-width:1px;text-rendering:geometricPrecision"
       id="path348" />
    <path
       d="m 102.34375,6.890625 -2.14062,5.804688 h 4.28906 z m -0.89062,-1.5546875 h 1.78906 L 107.6875,17 h -1.64062 l -1.0625,-2.992187 H 99.726562 L 98.664062,17 H 97 Z"
       style="font-size:16px;font-family:Raleway;text-anchor:middle;fill:#000000;stroke:none;stroke-width:1px;text-rendering:geometricPrecision"
       id="path350" />
    <path
       d="m 106.51563,5.3359375 h 9.86718 v 1.328125 h -4.14062 V 17 h -1.58594 V 6.6640625 h -4.14062 z"
       style="font-size:16px;font-family:Raleway;text-anchor:middle;fill:#000000;stroke:none;stroke-width:1px;text-rendering:geometricPrecision"
       id="path352" />
  </g>
  <g
     aria-label="SELECT CV"
     style="font-size:8px;font-family:Raleway;text-anchor:middle;fill:#000000;stroke:none;stroke-width:1px;text-rendering:geometricPrecision"
     id="text7">
    <path
       d="m 4.90625,57.359375 v 0.769531 Q 4.4570312,57.914062 4.0585937,57.808594 3.6601563,57.703125 3.2890625,57.703125 q -0.6445312,0 -0.9960937,0.25 -0.3476563,0.25 -0.3476563,0.710937 0,0.386719 0.2304688,0.585938 0.234375,0.195312 0.8828125,0.316406 l 0.4765625,0.09766 q 0.8828124,0.167969 1.3007812,0.59375 0.421875,0.421875 0.421875,1.132813 0,0.847656 -0.5703125,1.285156 -0.5664063,0.4375 -1.6640625,0.4375 -0.4140625,0 -0.8828125,-0.09375 -0.4648438,-0.09375 -0.9648438,-0.277344 v -0.8125 q 0.4804688,0.269532 0.9414063,0.40625 0.4609375,0.136719 0.90625,0.136719 0.6757813,0 1.0429687,-0.265625 0.3671875,-0.265625 0.3671875,-0.757812 0,-0.429688 -0.265625,-0.671875 Q 3.90625,60.535156 3.3046875,60.414062 L 2.8242188,60.320312 Q 1.9414062,60.144531 1.546875,59.769531 q -0.3945313,-0.375 -0.3945313,-1.042969 0,-0.773437 0.5429688,-1.21875 0.546875,-0.445312 1.5039063,-0.445312 0.4101562,0 0.8359374,0.07422 0.4257813,0.07422 0.8710938,0.222656 z"
       style="font-size:8px;font-family:Raleway;text-anchor:middle;fill:#000000;stroke:none;stroke-width:1px;text-rendering:geometricPrecision"
       id="path355" />
    <path
       d="m 6.4882812,57.167969 h 3.6874998 v 0.664062 H 7.2773437 v 1.726563 h 2.7773443 v 0.664062 H 7.2773437 v 2.113281 H 10.246094 V 63 H 6.4882812 Z"
       style="font-size:8px;font-family:Raleway;text-anchor:middle;fill:#000000;stroke:none;stroke-width:1px;text-rendering:geometricPrecision"
       id="path357" />
    <path
       d="m 11.550781,57.167969 h 0.789063 v 5.167968 h 2.839844 V 63 h -3.628907 z"
       style="font-size:8px;font-family:Raleway;text-anchor:middle;fill:#000000;stroke:none;stroke-width:1px;text-rendering:geometricPrecision"
       id="path359" />
    <path
       d="m 16.003906,57.167969 h 3.6875 v 0.664062 h -2.898437 v 1.726563 h 2.777343 v 0.664062 h -2.777343 v 2.113281 h 2.96875 V 63 h -3.757813 z"
       style="font-size:8px;font-family:Raleway;text-anchor:middle;fill:#000000;stroke:none;stroke-width:1px;text-rendering:geometricPrecision"
       id="path361" />
    <path
       d="m 25.433594,57.617187 v 0.832032 Q 25.035156,58.078125 24.582031,57.894531 24.132812,57.710937 23.625,57.710937 q -1,0 -1.53125,0.613282 -0.53125,0.609375 -0.53125,1.765625 0,1.152343 0.53125,1.765625 0.53125,0.609375 1.53125,0.609375 0.507812,0 0.957031,-0.183594 0.453125,-0.183594 0.851563,-0.554688 v 0.824219 q -0.414063,0.28125 -0.878907,0.421875 -0.460937,0.140625 -0.976562,0.140625 -1.324219,0 -2.085938,-0.808594 -0.761718,-0.8125 -0.761718,-2.214843 0,-1.40625 0.761718,-2.214844 0.761719,-0.8125 2.085938,-0.8125 0.523437,0 0.984375,0.140625 0.464844,0.136719 0.871094,0.414062 z"
       style="font-size:8px;font-family:Raleway;text-anchor:middle;fill:#000000;stroke:none;stroke-width:1px;text-rendering:geometricPrecision"
       id="path363" />
    <path
       d="m 25.851562,57.167969 h 4.933594 v 0.664062 H 28.714844 V 63 h -0.792969 v -5.167969 h -2.070313 z"
       style="font-size:8px;font-family:Raleway;text-anchor:middle;fill:#000000;stroke:none;stroke-width:1px;text-rendering:geometricPrecision"
       id="path365" />
    <path
       d="m 38.464844,57.617187 v 0.832032 q -0.398438,-0.371094 -0.851563,-0.554688 -0.449219,-0.183594 -0.957031,-0.183594 -1,0 -1.53125,0.613282 -0.53125,0.609375 -0.53125,1.765625 0,1.152343 0.53125,1.765625 0.53125,0.609375 1.53125,0.609375 0.507812,0 0.957031,-0.183594 0.453125,-0.183594 0.851563,-0.554688 v 0.824219 q -0.414063,0.28125 -0.878907,0.421875 -0.460937,0.140625 -0.976562,0.140625 -1.324219,0 -2.085938,-0.808594 -0.761718,-0.8125 -0.761718,-2.214843 0,-1.40625 0.761718,-2.214844 0.761719,-0.8125 2.085938,-0.8125 0.523437,0 0.984375,0.140625 0.464844,0.136719 0.871094,0.414062 z"
       style="font-size:8px;font-family:Raleway;text-anchor:middle;fill:#000000;stroke:none;stroke-width:1px;text-rendering:geometricPrecision"
       id="path367" />
    <path
       d="M 41.195312,63 38.96875,57.167969 h 0.824219 l 1.847656,4.910156 1.851562,-4.910156 H 44.3125 L 42.089844,63 Z"
       style="font-size:8px;font-family:Raleway;text-anchor:middle;fill:#000000;stroke:none;stroke-width:1px;text-rendering:geometricPrecision"
       id="path369" />
  </g>
  <g
     aria-label="TUNE CV"
     style="font-size:8px;font-family:Raleway;text-anchor:middle;fill:#000000;stroke:none;stroke-width:1px;text-rendering:geometricPrecision"
     id="text29">
    <path
       d="m 49.773437,57.167969 h 4.933594 v 0.664062 H 52.636719 V 63 H 51.84375 v -5.167969 h -2.070313 z"
       style="font-size:8px;font-family:Raleway;text-anchor:middle;fill:#000000;stroke:none;stroke-width:1px;text-rendering:geometricPrecision"
       id="path372" />
    <path
       d="m 55.382812,57.167969 h 0.792969 v 3.542968 q 0,0.9375 0.339844,1.351563 0.339844,0.410156 1.101562,0.410156 0.757813,0 1.097657,-0.410156 0.339843,-0.414063 0.339843,-1.351563 v -3.542968 h 0.792969 v 3.640625 q 0,1.140625 -0.566406,1.722656 -0.5625,0.582031 -1.664063,0.582031 -1.105468,0 -1.671875,-0.582031 -0.5625,-0.582031 -0.5625,-1.722656 z"
       style="font-size:8px;font-family:Raleway;text-anchor:middle;fill:#000000;stroke:none;stroke-width:1px;text-rendering:geometricPrecision"
       id="path374" />
    <path
       d="m 61.332031,57.167969 h 1.0625 l 2.585938,4.878906 v -4.878906 h 0.765625 V 63 h -1.0625 L 62.097656,58.121094 V 63 h -0.765625 z"
       style="font-size:8px;font-family:Raleway;text-anchor:middle;fill:#000000;stroke:none;stroke-width:1px;text-rendering:geometricPrecision"
       id="path376" />
    <path
       d="m 67.316406,57.167969 h 3.6875 v 0.664062 h -2.898437 v 1.726563 h 2.777343 v 0.664062 h -2.777343 v 2.113281 h 2.96875 V 63 h -3.757813 z"
       style="font-size:8px;font-family:Raleway;text-anchor:middle;fill:#000000;stroke:none;stroke-width:1px;text-rendering:geometricPrecision"
       id="path378" />
    <path
       d="m 79.292969,57.617187 v 0.832032 q -0.398438,-0.371094 -0.851563,-0.554688 -0.449219,-0.183594 -0.957031,-0.183594 -1,0 -1.53125,0.613282 -0.53125,0.609375 -0.53125,1.765625 0,1.152343 0.53125,1.765625 0.53125,0.609375 1.53125,0.609375 0.507812,0 0.957031,-0.183594 0.453125,-0.183594 0.851563,-0.554688 v 0.824219 q -0.414063,0.28125 -0.878907,0.421875 -0.460937,0.140625 -0.976562,0.140625 -1.324219,0 -2.085938,-0.808594 -0.761718,-0.8125 -0.761718,-2.214843 0,-1.40625 0.761718,-2.214844 0.761719,-0.8125 2.085938,-0.8125 0.523437,0 0.984375,0.140625 0.464844,0.136719 0.871094,0.414062 z"
       style="font-size:8px;font-family:Raleway;text-anchor:middle;fill:#000000;stroke:none;stroke-width:1px;text-rendering:geometricPrecision"
       id="path380" />
    <path
       d="m 82.023437,63 -2.226562,-5.832031 h 0.824219 l 1.847656,4.910156 1.851562,-4.910156 h 0.820313 L 82.917969,63 Z"
       style="font-size:8px;font-family:Raleway;text-anchor:middle;fill:#000000;stroke:none;stroke-width:1px;text-rendering:geometricPrecision"
       id="path382" />
  </g>
  <g
     aria-label="TUNE"
     style="font-size:8px;font-family:Raleway;text-anchor:middle;fill:#000000;stroke:none;stroke-width:1px;text-rendering:geometricPrecision"
     id="text21">
    <path
       d="m 56.578125,106.16797 h 4.933594 v 0.66406 H 59.441406 V 112 h -0.792969 v -5.16797 h -2.070312 z"
       style="font-size:8px;font-family:Raleway;text-anchor:middle;fill:#000000;stroke:none;stroke-width:1px;text-rendering:geometricPrecision"
       id="path385" />
    <path
       d="m 62.1875,106.16797 h 0.792969 v 3.54297 q 0,0.9375 0.339843,1.35156 0.339844,0.41016 1.101563,0.41016 0.757812,0 1.097656,-0.41016 0.339844,-0.41406 0.339844,-1.35156 v -3.54297 h 0.792969 v 3.64062 q 0,1.14063 -0.566407,1.72266 -0.5625,0.58203 -1.664062,0.58203 -1.105469,0 -1.671875,-0.58203 -0.5625,-0.58203 -0.5625,-1.72266 z"
       style="font-size:8px;font-family:Raleway;text-anchor:middle;fill:#000000;stroke:none;stroke-width:1px;text-rendering:geometricPrecision"
       id="path387" />
    <path
       d="m 68.136719,106.16797 h 1.0625 l 2.585937,4.87891 v -4.87891 h 0.765625 V 112 h -1.0625 l -2.585937,-4.87891 V 112 h -0.765625 z"
       style="font-size:8px;font-family:Raleway;text-anchor:middle;fill:#000000;stroke:none;stroke-width:1px;text-rendering:geometricPrecision"
       id="path389" />
    <path
       d="m 74.121094,106.16797 h 3.6875 v 0.66406 h -2.898438 v 1.72656 H 77.6875 v 0.66407 h -2.777344 v 2.11328 h 2.96875 V 112 h -3.757812 z"
       style="font-size:8px;font-family:Raleway;text-anchor:middle;fill:#000000;stroke:none;stroke-width:1px;text-rendering:geometricPrecision"
       id="path391" />
  </g>
  <g
     aria-label="SELECT"
     style="font-size:8px;font-family:Raleway;text-anchor:middle;fill:#000000;stroke:none;stroke-width:1px;text-rendering:geometricPrecision"
     id="text23">
    <path
       d="m 11.710938,106.35938 v 0.76953 q -0.449219,-0.21485 -0.847657,-0.32032 -0.398437,-0.10546 -0.769531,-0.10546 -0.6445312,0 -0.9960937,0.25 Q 8.75,107.20313 8.75,107.66406 q 0,0.38672 0.2304688,0.58594 0.234375,0.19531 0.8828125,0.31641 l 0.4765627,0.0977 q 0.882812,0.16797 1.300781,0.59375 0.421875,0.42188 0.421875,1.13282 0,0.84765 -0.570312,1.28515 -0.566407,0.4375 -1.664063,0.4375 -0.4140625,0 -0.8828125,-0.0937 -0.4648437,-0.0937 -0.9648438,-0.27734 v -0.8125 q 0.4804688,0.26953 0.9414063,0.40625 0.4609375,0.13672 0.90625,0.13672 0.675781,0 1.042969,-0.26563 0.367187,-0.26562 0.367187,-0.75781 0,-0.42969 -0.265625,-0.67188 -0.261718,-0.24218 -0.863281,-0.36328 l -0.4804687,-0.0937 q -0.8828125,-0.17578 -1.2773438,-0.55078 -0.3945313,-0.375 -0.3945313,-1.04297 0,-0.77343 0.5429688,-1.21875 0.546875,-0.44531 1.503906,-0.44531 0.410157,0 0.835938,0.0742 0.425781,0.0742 0.871094,0.22266 z"
       style="font-size:8px;font-family:Raleway;text-anchor:middle;fill:#000000;stroke:none;stroke-width:1px;text-rendering:geometricPrecision"
       id="path394" />
    <path
       d="m 13.292969,106.16797 h 3.6875 v 0.66406 h -2.898438 v 1.72656 h 2.777344 v 0.66407 h -2.777344 v 2.11328 h 2.96875 V 112 h -3.757812 z"
       style="font-size:8px;font-family:Raleway;text-anchor:middle;fill:#000000;stroke:none;stroke-width:1px;text-rendering:geometricPrecision"
       id="path396" />
    <path
       d="m 18.355469,106.16797 h 0.789062 v 5.16797 h 2.839844 V 112 h -3.628906 z"
       style="font-size:8px;font-family:Raleway;text-anchor:middle;fill:#000000;stroke:none;stroke-width:1px;text-rendering:geometricPrecision"
       id="path398" />
    <path
       d="m 22.808594,106.16797 h 3.6875 v 0.66406 h -2.898438 v 1.72656 H 26.375 v 0.66407 h -2.777344 v 2.11328 h 2.96875 V 112 h -3.757812 z"
       style="font-size:8px;font-family:Raleway;text-anchor:middle;fill:#000000;stroke:none;stroke-width:1px;text-rendering:geometricPrecision"
       id="path400" />
    <path
       d="m 32.238281,106.61719 v 0.83203 q -0.398437,-0.37109 -0.851562,-0.55469 -0.449219,-0.18359 -0.957032,-0.18359 -1,0 -1.53125,0.61328 -0.53125,0.60937 -0.53125,1.76562 0,1.15235 0.53125,1.76563 0.53125,0.60937 1.53125,0.60937 0.507813,0 0.957032,-0.18359 0.453125,-0.18359 0.851562,-0.55469 v 0.82422 q -0.414062,0.28125 -0.878906,0.42188 -0.460938,0.14062 -0.976563,0.14062 -1.324218,0 -2.085937,-0.80859 -0.761719,-0.8125 -0.761719,-2.21485 0,-1.40625 0.761719,-2.21484 0.761719,-0.8125 2.085937,-0.8125 0.523438,0 0.984375,0.14063 0.464844,0.13671 0.871094,0.41406 z"
       style="font-size:8px;font-family:Raleway;text-anchor:middle;fill:#000000;stroke:none;stroke-width:1px;text-rendering:geometricPrecision"
       id="path402" />
    <path
       d="m 32.65625,106.16797 h 4.933594 v 0.66406 H 35.519531 V 112 h -0.792969 v -5.16797 H 32.65625 Z"
       style="font-size:8px;font-family:Raleway;text-anchor:middle;fill:#000000;stroke:none;stroke-width:1px;text-rendering:geometricPrecision"
       id="path404" />
  </g>
  <g
     aria-label="GATE"
     style="font-size:8px;font-family:Raleway;text-anchor:middle;fill:#000000;stroke:none;stroke-width:1px;text-rendering:geometricPrecision"
     id="text25">
    <path
       d="m 16.761719,152.16797 v -1.56641 h -1.289063 v -0.64844 h 2.070313 v 2.50391 q -0.457032,0.32422 -1.007813,0.49219 -0.550781,0.16406 -1.175781,0.16406 -1.367187,0 -2.140625,-0.79687 -0.769531,-0.80079 -0.769531,-2.22657 0,-1.42968 0.769531,-2.22656 0.773438,-0.80078 2.140625,-0.80078 0.570313,0 1.082031,0.14062 0.515625,0.14063 0.949219,0.41407 v 0.83984 q -0.4375,-0.37109 -0.929688,-0.55859 -0.492187,-0.1875 -1.035156,-0.1875 -1.070312,0 -1.609375,0.59765 -0.535156,0.59766 -0.535156,1.78125 0,1.17969 0.535156,1.77735 0.539063,0.59765 1.609375,0.59765 0.417969,0 0.746094,-0.0703 0.328125,-0.0742 0.589844,-0.22656 z"
       style="font-size:8px;font-family:Raleway;text-anchor:middle;fill:#000000;stroke:none;stroke-width:1px;text-rendering:geometricPrecision"
       id="path407" />
    <path
       d="m 20.9375,147.94531 -1.070313,2.90235 h 2.144532 z m -0.445313,-0.77734 h 0.894532 L 23.609375,153 h -0.820313 l -0.53125,-1.49609 H 19.628906 L 19.097656,153 h -0.832031 z"
       style="font-size:8px;font-family:Raleway;text-anchor:middle;fill:#000000;stroke:none;stroke-width:1px;text-rendering:geometricPrecision"
       id="path409" />
    <path
       d="m 23.023437,147.16797 h 4.933594 v 0.66406 H 25.886719 V 153 H 25.09375 v -5.16797 h -2.070313 z"
       style="font-size:8px;font-family:Raleway;text-anchor:middle;fill:#000000;stroke:none;stroke-width:1px;text-rendering:geometricPrecision"
       id="path411" />
    <path
       d="m 28.722656,147.16797 h 3.6875 v 0.66406 h -2.898437 v 1.72656 h 2.777343 v 0.66407 h -2.777343 v 2.11328 h 2.96875 V 153 h -3.757813 z"
       style="font-size:8px;font-family:Raleway;text-anchor:middle;fill:#000000;stroke:none;stroke-width:1px;text-rendering:geometricPrecision"
       id="path413" />
  </g>
  <g
     aria-label="OUT"
     style="font-size:8px;font-family:Raleway;text-anchor:middle;fill:#000000;stroke:none;stroke-width:1px;text-rendering:geometricPrecision"
     id="text31">
    <path
       d="m 62.128906,147.70312 q -0.859375,0 -1.367187,0.64063 -0.503907,0.64062 -0.503907,1.74609 0,1.10157 0.503907,1.74219 0.507812,0.64063 1.367187,0.64063 0.859375,0 1.359375,-0.64063 0.503906,-0.64062 0.503906,-1.74219 0,-1.10547 -0.503906,-1.74609 -0.5,-0.64063 -1.359375,-0.64063 z m 0,-0.64062 q 1.226563,0 1.960938,0.82422 0.734375,0.82031 0.734375,2.20312 0,1.37891 -0.734375,2.20313 -0.734375,0.82031 -1.960938,0.82031 -1.230469,0 -1.96875,-0.82031 -0.734375,-0.82031 -0.734375,-2.20313 0,-1.38281 0.734375,-2.20312 0.738281,-0.82422 1.96875,-0.82422 z"
       style="font-size:8px;font-family:Raleway;text-anchor:middle;fill:#000000;stroke:none;stroke-width:1px;text-rendering:geometricPrecision"
       id="path416" />
    <path
       d="m 65.96875,147.16797 h 0.792969 v 3.54297 q 0,0.9375 0.339843,1.35156 0.339844,0.41016 1.101563,0.41016 0.757812,0 1.097656,-0.41016 0.339844,-0.41406 0.339844,-1.35156 v -3.54297 h 0.792969 v 3.64062 q 0,1.14063 -0.566407,1.72266 -0.5625,0.58203 -1.664062,0.58203 -1.105469,0 -1.671875,-0.58203 -0.5625,-0.58203 -0.5625,-1.72266 z"
       style="font-size:8px;font-family:Raleway;text-anchor:middle;fill:#000000;stroke:none;stroke-width:1px;text-rendering:geometricPrecision"
       id="path418" />
    <path
       d="m 71.109375,147.16797 h 4.933594 v 0.66406 H 73.972656 V 153 h -0.792969 v -5.16797 h -2.070312 z"
       style="font-size:8px;font-family:Raleway;text-anchor:middle;fill:#000000;stroke:none;stroke-width:1px;text-rendering:geometricPrecision"
       id="path420" />
  </g>
  <path
     style="fill:#c0c0c0"
     d="m 94,27 h 37 c 1.108,0 2,0.892 2,2 v 136 c 0,1.108 -0.892,2 -2,2 H 94 c -1.108,0 -2,-0.892 -2,-2 V 29 c 0,-1.108 0.892,-2 2,-2 z"
     id="rect28" />
  <g
     aria-label="CV"
     style="font-size:8px;font-family:Raleway;text-anchor:middle;fill:#000000;stroke:none;stroke-width:1px;text-rendering:geometricPrecision"
     id="text30">
    <path
       d="m 112.12109,57.617187 v 0.832032 q -0.39843,-0.371094 -0.85156,-0.554688 -0.44922,-0.183594 -0.95703,-0.183594 -1,0 -1.53125,0.613282 -0.53125,0.609375 -0.53125,1.765625 0,1.152343 0.53125,1.765625 0.53125,0.609375 1.53125,0.609375 0.50781,0 0.95703,-0.183594 0.45313,-0.183594 0.85156,-0.554688 v 0.824219 q -0.41406,0.28125 -0.8789,0.421875 -0.46094,0.140625 -0.97656,0.140625 -1.32422,0 -2.08594,-0.808594 -0.76172,-0.8125 -0.76172,-2.214843 0,-1.40625 0.76172,-2.214844 0.76172,-0.8125 2.08594,-0.8125 0.52343,0 0.98437,0.140625 0.46484,0.136719 0.87109,0.414062 z"
       style="font-size:8px;font-family:Raleway;text-anchor:middle;fill:#000000;stroke:none;stroke-width:1px;text-rendering:geometricPrecision"
       id="path424" />
    <path
       d="M 114.85156,63 112.625,57.167969 h 0.82422 l 1.84766,4.910156 1.85156,-4.910156 h 0.82031 L 115.74609,63 Z"
       style="font-size:8px;font-family:Raleway;text-anchor:middle;fill:#000000;stroke:none;stroke-width:1px;text-rendering:geometricPrecision"
       id="path426" />
  </g>
  <g
     aria-label="TIME"
     style="font-size:8px;font-family:Raleway;text-anchor:middle;fill:#000000;stroke:none;stroke-width:1px;text-rendering:geometricPrecision"
     id="text32">
    <path
       d="m 102.86719,106.16797 h 4.93359 v 0.66406 h -2.07031 V 112 h -0.79297 v -5.16797 h -2.07031 z"
       style="font-size:8px;font-family:Raleway;text-anchor:middle;fill:#000000;stroke:none;stroke-width:1px;text-rendering:geometricPrecision"
       id="path429" />
    <path
       d="m 108.56641,106.16797 h 0.78906 V 112 h -0.78906 z"
       style="font-size:8px;font-family:Raleway;text-anchor:middle;fill:#000000;stroke:none;stroke-width:1px;text-rendering:geometricPrecision"
       id="path431" />
    <path
       d="m 110.92578,106.16797 h 1.17578 l 1.48828,3.96875 1.4961,-3.96875 h 1.17578 V 112 h -0.76953 v -5.12109 l -1.50391,4 h -0.79297 l -1.5039,-4 V 112 h -0.76563 z"
       style="font-size:8px;font-family:Raleway;text-anchor:middle;fill:#000000;stroke:none;stroke-width:1px;text-rendering:geometricPrecision"
       id="path433" />
    <path
       d="m 117.83203,106.16797 h 3.6875 v 0.66406 h -2.89844 v 1.72656 h 2.77735 v 0.66407 h -2.77735 v 2.11328 h 2.96875 V 112 h -3.75781 z"
       style="font-size:8px;font-family:Raleway;text-anchor:middle;fill:#000000;stroke:none;stroke-width:1px;text-rendering:geometricPrecision"
       id="path435" />
  </g>
  <g
     aria-label="CHOKE"
     style="font-size:8px;font-family:Raleway;text-anchor:middle;fill:#000000;stroke:none;stroke-width:1px;text-rendering:geometricPrecision"
     id="text34">
    <path
       d="m 103.54297,147.61719 v 0.83203 q -0.39844,-0.3711 -0.85156,-0.55469 -0.44922,-0.18359 -0.95703,-0.18359 -1,0 -1.53125,0.61328 -0.531255,0.60937 -0.531255,1.76562 0,1.15235 0.531255,1.76563 0.53125,0.60937 1.53125,0.60937 0.50781,0 0.95703,-0.18359 0.45312,-0.18359 0.85156,-0.55469 v 0.82422 q -0.41406,0.28125 -0.87891,0.42188 -0.46093,0.14062 -0.97656,0.14062 -1.32422,0 -2.085938,-0.80859 -0.761718,-0.8125 -0.761718,-2.21485 0,-1.40625 0.761718,-2.21484 0.761718,-0.8125 2.085938,-0.8125 0.52344,0 0.98438,0.14062 0.46484,0.13672 0.87109,0.41407 z"
       style="font-size:8px;font-family:Raleway;text-anchor:middle;fill:#000000;stroke:none;stroke-width:1px;text-rendering:geometricPrecision"
       id="path438" />
    <path
       d="m 104.76953,147.16797 h 0.78906 v 2.39062 h 2.86719 v -2.39062 h 0.78906 V 153 h -0.78906 v -2.77734 h -2.86719 V 153 h -0.78906 z"
       style="font-size:8px;font-family:Raleway;text-anchor:middle;fill:#000000;stroke:none;stroke-width:1px;text-rendering:geometricPrecision"
       id="path440" />
    <path
       d="m 113.15234,147.70312 q -0.85937,0 -1.36718,0.64063 -0.50391,0.64062 -0.50391,1.74609 0,1.10157 0.50391,1.74219 0.50781,0.64063 1.36718,0.64063 0.85938,0 1.35938,-0.64063 0.50391,-0.64062 0.50391,-1.74219 0,-1.10547 -0.50391,-1.74609 -0.5,-0.64063 -1.35938,-0.64063 z m 0,-0.64062 q 1.22657,0 1.96094,0.82422 0.73438,0.82031 0.73438,2.20312 0,1.37891 -0.73438,2.20313 -0.73437,0.82031 -1.96094,0.82031 -1.23046,0 -1.96875,-0.82031 -0.73437,-0.82031 -0.73437,-2.20313 0,-1.38281 0.73437,-2.20312 0.73829,-0.82422 1.96875,-0.82422 z"
       style="font-size:8px;font-family:Raleway;text-anchor:middle;fill:#000000;stroke:none;stroke-width:1px;text-rendering:geometricPrecision"
       id="path442" />
    <path
       d="m 117.08203,147.16797 h 0.78906 v 2.46484 l 2.61719,-2.46484 h 1.01563 l -2.89453,2.71875 3.10156,3.11328 h -1.03906 l -2.80079,-2.80859 V 153 h -0.78906 z"
       style="font-size:8px;font-family:Raleway;text-anchor:middle;fill:#000000;stroke:none;stroke-width:1px;text-rendering:geometricPrecision"
       id="path444" />
    <path
       d="m 122.33203,147.16797 h 3.6875 v 0.66406 h -2.89844 v 1.72656 h 2.77735 v 0.66407 h -2.77735 v 2.11328 h 2.96875 V 153 h -3.75781 z"
       style="font-size:8px;font-family:Raleway;text-anchor:middle;fill:#000000;stroke:none;stroke-width:1px;text-rendering:geometricPrecision"
       id="path446" />
  </g>
  <path
     style="stroke:#222222"
     d="M 0,190 H 135"
     id="line36" />
  <g
     aria-label="OPEN HIHAT"
     style="font-size:16px;font-family:Raleway;text-anchor:middle;fill:#000000;stroke:none;stroke-width:1px;text-rendering:geometricPrecision"
     id="text38">
    <path
       d="m 24.960937,196.40625 q -1.71875,0 -2.734375,1.28125 -1.007812,1.28125 -1.007812,3.49219 0,2.20312 1.007812,3.48437 1.015625,1.28125 2.734375,1.28125 1.71875,0 2.71875,-1.28125 1.007813,-1.28125 1.007813,-3.48437 0,-2.21094 -1.007813,-3.49219 -1,-1.28125 -2.71875,-1.28125 z m 0,-1.28125 q 2.453125,0 3.921875,1.64844 1.46875,1.64062 1.46875,4.40625 0,2.75781 -1.46875,4.40625 -1.46875,1.64062 -3.921875,1.64062 -2.460937,0 -3.9375,-1.64062 -1.46875,-1.64063 -1.46875,-4.40625 0,-2.76563 1.46875,-4.40625 Q 22.5,195.125 24.960937,195.125 Z"
       style="font-size:16px;font-family:Raleway;text-anchor:middle;fill:#000000;stroke:none;stroke-width:1px;text-rendering:geometricPrecision"
       id="path450" />
    <path
       d="m 34.398437,196.63281 v 4.38281 h 1.984375 q 1.101563,0 1.703125,-0.57031 0.601563,-0.57031 0.601563,-1.625 0,-1.04687 -0.601563,-1.61719 -0.601562,-0.57031 -1.703125,-0.57031 z m -1.578125,-1.29687 h 3.5625 q 1.960938,0 2.960938,0.89062 1.007812,0.88281 1.007812,2.59375 0,1.72656 -1.007812,2.60938 -1,0.88281 -2.960938,0.88281 H 34.398437 V 207 h -1.578125 z"
       style="font-size:16px;font-family:Raleway;text-anchor:middle;fill:#000000;stroke:none;stroke-width:1px;text-rendering:geometricPrecision"
       id="path452" />
    <path
       d="m 42.476562,195.33594 h 7.375 v 1.32812 h -5.796875 v 3.45313 h 5.554688 v 1.32812 h -5.554688 v 4.22656 h 5.9375 V 207 h -7.515625 z"
       style="font-size:16px;font-family:Raleway;text-anchor:middle;fill:#000000;stroke:none;stroke-width:1px;text-rendering:geometricPrecision"
       id="path454" />
    <path
       d="m 52.601562,195.33594 h 2.125 l 5.171875,9.75781 v -9.75781 h 1.53125 V 207 h -2.125 l -5.171875,-9.75781 V 207 h -1.53125 z"
       style="font-size:16px;font-family:Raleway;text-anchor:middle;fill:#000000;stroke:none;stroke-width:1px;text-rendering:geometricPrecision"
       id="path456" />
    <path
       d="m 69.664062,195.33594 h 1.578125 v 4.78125 h 5.734375 v -4.78125 h 1.578125 V 207 h -1.578125 v -5.55469 H 71.242187 V 207 h -1.578125 z"
       style="font-size:16px;font-family:Raleway;text-anchor:middle;fill:#000000;stroke:none;stroke-width:1px;text-rendering:geometricPrecision"
       id="path458" />
    <path
       d="m 81.695312,195.33594 h 1.578125 V 207 h -1.578125 z"
       style="font-size:16px;font-family:Raleway;text-anchor:middle;fill:#000000;stroke:none;stroke-width:1px;text-rendering:geometricPrecision"
       id="path460" />
    <path
       d="m 86.414062,195.33594 h 1.578125 v 4.78125 h 5.734375 v -4.78125 h 1.578125 V 207 h -1.578125 v -5.55469 H 87.992187 V 207 h -1.578125 z"
       style="font-size:16px;font-family:Raleway;text-anchor:middle;fill:#000000;stroke:none;stroke-width:1px;text-rendering:geometricPrecision"
       id="path462" />
    <path
       d="m 102.34375,196.89062 -2.14062,5.80469 h 4.28906 z m -0.89062,-1.55468 h 1.78906 L 107.6875,207 h -1.64062 l -1.0625,-2.99219 H 99.726562 L 98.664062,207 H 97 Z"
       style="font-size:16px;font-family:Raleway;text-anchor:middle;fill:#000000;stroke:none;stroke-width:1px;text-rendering:geometricPrecision"
       id="path464" />
    <path
       d="m 106.51563,195.33594 h 9.86718 v 1.32812 h -4.14062 V 207 h -1.58594 v -10.33594 h -4.14062 z"
       style="font-size:16px;font-family:Raleway;text-anchor:middle;fill:#000000;stroke:none;stroke-width:1px;text-rendering:geometricPrecision"
       id="path466" />
  </g>
  <g
     aria-label="SELECT CV"
     style="font-size:8px;font-family:Raleway;text-anchor:middle;fill:#000000;stroke:none;stroke-width:1px;text-rendering:geometricPrecision"
     id="text33">
    <path
       d="m 4.90625,247.35937 v 0.76954 q -0.4492188,-0.21485 -0.8476563,-0.32032 -0.3984374,-0.10547 -0.7695312,-0.10547 -0.6445312,0 -0.9960937,0.25 -0.3476563,0.25 -0.3476563,0.71094 0,0.38672 0.2304688,0.58594 0.234375,0.19531 0.8828125,0.31641 l 0.4765625,0.0977 q 0.8828124,0.16797 1.3007812,0.59375 0.421875,0.42188 0.421875,1.13281 0,0.84766 -0.5703125,1.28516 -0.5664063,0.4375 -1.6640625,0.4375 -0.4140625,0 -0.8828125,-0.0937 -0.4648438,-0.0937 -0.9648438,-0.27734 v -0.8125 q 0.4804688,0.26953 0.9414063,0.40625 0.4609375,0.13672 0.90625,0.13672 0.6757813,0 1.0429687,-0.26563 0.3671875,-0.26562 0.3671875,-0.75781 0,-0.42969 -0.265625,-0.67188 -0.2617187,-0.24218 -0.8632812,-0.36328 l -0.4804687,-0.0937 q -0.8828126,-0.17578 -1.2773438,-0.55078 -0.3945313,-0.375 -0.3945313,-1.04297 0,-0.77344 0.5429688,-1.21875 0.546875,-0.44531 1.5039063,-0.44531 0.4101562,0 0.8359374,0.0742 0.4257813,0.0742 0.8710938,0.22265 z"
       style="font-size:8px;font-family:Raleway;text-anchor:middle;fill:#000000;stroke:none;stroke-width:1px;text-rendering:geometricPrecision"
       id="path469" />
    <path
       d="m 6.4882812,247.16797 h 3.6874998 v 0.66406 H 7.2773437 v 1.72656 h 2.7773443 v 0.66407 H 7.2773437 v 2.11328 H 10.246094 V 253 H 6.4882812 Z"
       style="font-size:8px;font-family:Raleway;text-anchor:middle;fill:#000000;stroke:none;stroke-width:1px;text-rendering:geometricPrecision"
       id="path471" />
    <path
       d="m 11.550781,247.16797 h 0.789063 v 5.16797 h 2.839844 V 253 h -3.628907 z"
       style="font-size:8px;font-family:Raleway;text-anchor:middle;fill:#000000;stroke:none;stroke-width:1px;text-rendering:geometricPrecision"
       id="path473" />
    <path
       d="m 16.003906,247.16797 h 3.6875 v 0.66406 h -2.898437 v 1.72656 h 2.777343 v 0.66407 h -2.777343 v 2.11328 h 2.96875 V 253 h -3.757813 z"
       style="font-size:8px;font-family:Raleway;text-anchor:middle;fill:#000000;stroke:none;stroke-width:1px;text-rendering:geometricPrecision"
       id="path475" />
    <path
       d="m 25.433594,247.61719 v 0.83203 q -0.398438,-0.3711 -0.851563,-0.55469 -0.449219,-0.18359 -0.957031,-0.18359 -1,0 -1.53125,0.61328 -0.53125,0.60937 -0.53125,1.76562 0,1.15235 0.53125,1.76563 0.53125,0.60937 1.53125,0.60937 0.507812,0 0.957031,-0.18359 0.453125,-0.18359 0.851563,-0.55469 v 0.82422 q -0.414063,0.28125 -0.878907,0.42188 -0.460937,0.14062 -0.976562,0.14062 -1.324219,0 -2.085938,-0.80859 -0.761718,-0.8125 -0.761718,-2.21485 0,-1.40625 0.761718,-2.21484 0.761719,-0.8125 2.085938,-0.8125 0.523437,0 0.984375,0.14062 0.464844,0.13672 0.871094,0.41407 z"
       style="font-size:8px;font-family:Raleway;text-anchor:middle;fill:#000000;stroke:none;stroke-width:1px;text-rendering:geometricPrecision"
       id="path477" />
    <path
       d="m 25.851562,247.16797 h 4.933594 v 0.66406 H 28.714844 V 253 h -0.792969 v -5.16797 h -2.070313 z"
       style="font-size:8px;font-family:Raleway;text-anchor:middle;fill:#000000;stroke:none;stroke-width:1px;text-rendering:geometricPrecision"
       id="path479" />
    <path
       d="m 38.464844,247.61719 v 0.83203 q -0.398438,-0.3711 -0.851563,-0.55469 -0.449219,-0.18359 -0.957031,-0.18359 -1,0 -1.53125,0.61328 -0.53125,0.60937 -0.53125,1.76562 0,1.15235 0.53125,1.76563 0.53125,0.60937 1.53125,0.60937 0.507812,0 0.957031,-0.18359 0.453125,-0.18359 0.851563,-0.55469 v 0.82422 q -0.414063,0.28125 -0.878907,0.42188 -0.460937,0.14062 -0.976562,0.14062 -1.324219,0 -2.085938,-0.80859 -0.761718,-0.8125 -0.761718,-2.21485 0,-1.40625 0.761718,-2.21484 0.761719,-0.8125 2.085938,-0.8125 0.523437,0 0.984375,0.14062 0.464844,0.13672 0.871094,0.41407 z"
       style="font-size:8px;font-family:Raleway;text-anchor:middle;fill:#000000;stroke:none;stroke-width:1px;text-rendering:geometricPrecision"
       id="path481" />
    <path
       d="m 41.195312,253 -2.226562,-5.83203 h 0.824219 l 1.847656,4.91015 1.851562,-4.91015 H 44.3125 L 42.089844,253 Z"
       style="font-size:8px;font-family:Raleway;text-anchor:middle;fill:#000000;stroke:none;stroke-width:1px;text-rendering:geometricPrecision"
       id="path483" />
  </g>
  <g
     aria-label="SELECT"
     style="font-size:8px;font-family:Raleway;text-anchor:middle;fill:#000000;stroke:none;stroke-width:1px;text-rendering:geometricPrecision"
     id="text35">
    <path
       d="m 11.710938,296.35937 v 0.76954 q -0.449219,-0.21485 -0.847657,-0.32032 -0.398437,-0.10547 -0.769531,-0.10547 -0.6445312,0 -0.9960937,0.25 Q 8.75,297.20312 8.75,297.66406 q 0,0.38672 0.2304688,0.58594 0.234375,0.19531 0.8828125,0.31641 l 0.4765627,0.0976 q 0.882812,0.16797 1.300781,0.59375 0.421875,0.42188 0.421875,1.13281 0,0.84766 -0.570312,1.28516 -0.566407,0.4375 -1.664063,0.4375 -0.4140625,0 -0.8828125,-0.0937 -0.4648437,-0.0937 -0.9648438,-0.27734 v -0.8125 q 0.4804688,0.26953 0.9414063,0.40625 0.4609375,0.13672 0.90625,0.13672 0.675781,0 1.042969,-0.26563 0.367187,-0.26562 0.367187,-0.75781 0,-0.42969 -0.265625,-0.67188 -0.261718,-0.24218 -0.863281,-0.36328 l -0.4804687,-0.0937 q -0.8828125,-0.17578 -1.2773438,-0.55078 -0.3945313,-0.375 -0.3945313,-1.04297 0,-0.77344 0.5429688,-1.21875 0.546875,-0.44531 1.503906,-0.44531 0.410157,0 0.835938,0.0742 0.425781,0.0742 0.871094,0.22265 z"
       style="font-size:8px;font-family:Raleway;text-anchor:middle;fill:#000000;stroke:none;stroke-width:1px;text-rendering:geometricPrecision"
       id="path486" />
    <path
       d="m 13.292969,296.16797 h 3.6875 v 0.66406 h -2.898438 v 1.72656 h 2.777344 v 0.66407 h -2.777344 v 2.11328 h 2.96875 V 302 h -3.757812 z"
       style="font-size:8px;font-family:Raleway;text-anchor:middle;fill:#000000;stroke:none;stroke-width:1px;text-rendering:geometricPrecision"
       id="path488" />
    <path
       d="m 18.355469,296.16797 h 0.789062 v 5.16797 h 2.839844 V 302 h -3.628906 z"
       style="font-size:8px;font-family:Raleway;text-anchor:middle;fill:#000000;stroke:none;stroke-width:1px;text-rendering:geometricPrecision"
       id="path490" />
    <path
       d="m 22.808594,296.16797 h 3.6875 v 0.66406 h -2.898438 v 1.72656 H 26.375 v 0.66407 h -2.777344 v 2.11328 h 2.96875 V 302 h -3.757812 z"
       style="font-size:8px;font-family:Raleway;text-anchor:middle;fill:#000000;stroke:none;stroke-width:1px;text-rendering:geometricPrecision"
       id="path492" />
    <path
       d="m 32.238281,296.61719 v 0.83203 q -0.398437,-0.3711 -0.851562,-0.55469 -0.449219,-0.18359 -0.957032,-0.18359 -1,0 -1.53125,0.61328 -0.53125,0.60937 -0.53125,1.76562 0,1.15235 0.53125,1.76563 0.53125,0.60937 1.53125,0.60937 0.507813,0 0.957032,-0.18359 0.453125,-0.18359 0.851562,-0.55469 v 0.82422 q -0.414062,0.28125 -0.878906,0.42188 -0.460938,0.14062 -0.976563,0.14062 -1.324218,0 -2.085937,-0.80859 -0.761719,-0.8125 -0.761719,-2.21485 0,-1.40625 0.761719,-2.21484 0.761719,-0.8125 2.085937,-0.8125 0.523438,0 0.984375,0.14062 0.464844,0.13672 0.871094,0.41407 z"
       style="font-size:8px;font-family:Raleway;text-anchor:middle;fill:#000000;stroke:none;stroke-width:1px;text-rendering:geometricPrecision"
       id="path494" />
    <path
       d="m 32.65625,296.16797 h 4.933594 v 0.66406 H 35.519531 V 302 h -0.792969 v -5.16797 H 32.65625 Z"
       style="font-size:8px;font-family:Raleway;text-anchor:middle;fill:#000000;stroke:none;stroke-width:1px;text-rendering:geometricPrecision"
       id="path496" />
  </g>
  <g
     aria-label="TUNE CV"
     style="font-size:8px;font-family:Raleway;text-anchor:middle;fill:#000000;stroke:none;stroke-width:1px;text-rendering:geometricPrecision"
     id="text42">
    <path
       d="m 49.773437,247.16797 h 4.933594 v 0.66406 H 52.636719 V 253 H 51.84375 v -5.16797 h -2.070313 z"
       style="font-size:8px;font-family:Raleway;text-anchor:middle;fill:#000000;stroke:none;stroke-width:1px;text-rendering:geometricPrecision"
       id="path499" />
    <path
       d="m 55.382812,247.16797 h 0.792969 v 3.54297 q 0,0.9375 0.339844,1.35156 0.339844,0.41016 1.101562,0.41016 0.757813,0 1.097657,-0.41016 0.339843,-0.41406 0.339843,-1.35156 v -3.54297 h 0.792969 v 3.64062 q 0,1.14063 -0.566406,1.72266 -0.5625,0.58203 -1.664063,0.58203 -1.105468,0 -1.671875,-0.58203 -0.5625,-0.58203 -0.5625,-1.72266 z"
       style="font-size:8px;font-family:Raleway;text-anchor:middle;fill:#000000;stroke:none;stroke-width:1px;text-rendering:geometricPrecision"
       id="path501" />
    <path
       d="m 61.332031,247.16797 h 1.0625 l 2.585938,4.8789 v -4.8789 h 0.765625 V 253 h -1.0625 l -2.585938,-4.87891 V 253 h -0.765625 z"
       style="font-size:8px;font-family:Raleway;text-anchor:middle;fill:#000000;stroke:none;stroke-width:1px;text-rendering:geometricPrecision"
       id="path503" />
    <path
       d="m 67.316406,247.16797 h 3.6875 v 0.66406 h -2.898437 v 1.72656 h 2.777343 v 0.66407 h -2.777343 v 2.11328 h 2.96875 V 253 h -3.757813 z"
       style="font-size:8px;font-family:Raleway;text-anchor:middle;fill:#000000;stroke:none;stroke-width:1px;text-rendering:geometricPrecision"
       id="path505" />
    <path
       d="m 79.292969,247.61719 v 0.83203 q -0.398438,-0.3711 -0.851563,-0.55469 -0.449219,-0.18359 -0.957031,-0.18359 -1,0 -1.53125,0.61328 -0.53125,0.60937 -0.53125,1.76562 0,1.15235 0.53125,1.76563 0.53125,0.60937 1.53125,0.60937 0.507812,0 0.957031,-0.18359 0.453125,-0.18359 0.851563,-0.55469 v 0.82422 q -0.414063,0.28125 -0.878907,0.42188 -0.460937,0.14062 -0.976562,0.14062 -1.324219,0 -2.085938,-0.80859 -0.761718,-0.8125 -0.761718,-2.21485 0,-1.40625 0.761718,-2.21484 0.761719,-0.8125 2.085938,-0.8125 0.523437,0 0.984375,0.14062 0.464844,0.13672 0.871094,0.41407 z"
       style="font-size:8px;font-family:Raleway;text-anchor:middle;fill:#000000;stroke:none;stroke-width:1px;text-rendering:geometricPrecision"
       id="path507" />
    <path
       d="m 82.023437,253 -2.226562,-5.83203 h 0.824219 l 1.847656,4.91015 1.851562,-4.91015 h 0.820313 L 82.917969,253 Z"
       style="font-size:8px;font-family:Raleway;text-anchor:middle;fill:#000000;stroke:none;stroke-width:1px;text-rendering:geometricPrecision"
       id="path509" />
  </g>
  <g
     aria-label="TUNE"
     style="font-size:8px;font-family:Raleway;text-anchor:middle;fill:#000000;stroke:none;stroke-width:1px;text-rendering:geometricPrecision"
     id="text44">
    <path
       d="m 56.578125,296.16797 h 4.933594 v 0.66406 H 59.441406 V 302 h -0.792969 v -5.16797 h -2.070312 z"
       style="font-size:8px;font-family:Raleway;text-anchor:middle;fill:#000000;stroke:none;stroke-width:1px;text-rendering:geometricPrecision"
       id="path512" />
    <path
       d="m 62.1875,296.16797 h 0.792969 v 3.54297 q 0,0.9375 0.339843,1.35156 0.339844,0.41016 1.101563,0.41016 0.757812,0 1.097656,-0.41016 0.339844,-0.41406 0.339844,-1.35156 v -3.54297 h 0.792969 v 3.64062 q 0,1.14063 -0.566407,1.72266 -0.5625,0.58203 -1.664062,0.58203 -1.105469,0 -1.671875,-0.58203 -0.5625,-0.58203 -0.5625,-1.72266 z"
       style="font-size:8px;font-family:Raleway;text-anchor:middle;fill:#000000;stroke:none;stroke-width:1px;text-rendering:geometricPrecision"
       id="path514" />
    <path
       d="m 68.136719,296.16797 h 1.0625 l 2.585937,4.8789 v -4.8789 h 0.765625 V 302 h -1.0625 l -2.585937,-4.87891 V 302 h -0.765625 z"
       style="font-size:8px;font-family:Raleway;text-anchor:middle;fill:#000000;stroke:none;stroke-width:1px;text-rendering:geometricPrecision"
       id="path516" />
    <path
       d="m 74.121094,296.16797 h 3.6875 v 0.66406 h -2.898438 v 1.72656 H 77.6875 v 0.66407 h -2.777344 v 2.11328 h 2.96875 V 302 h -3.757812 z"
       style="font-size:8px;font-family:Raleway;text-anchor:middle;fill:#000000;stroke:none;stroke-width:1px;text-rendering:geometricPrecision"
       id="path518" />
  </g>
  <g
     aria-label="GATE"
     style="font-size:8px;font-family:Raleway;text-anchor:middle;fill:#000000;stroke:none;stroke-width:1px;text-rendering:geometricPrecision"
     id="text46">
    <path
       d="m 16.761719,342.16797 v -1.56641 h -1.289063 v -0.64844 h 2.070313 v 2.50391 q -0.457032,0.32422 -1.007813,0.49219 -0.550781,0.16406 -1.175781,0.16406 -1.367187,0 -2.140625,-0.79687 -0.769531,-0.80079 -0.769531,-2.22657 0,-1.42968 0.769531,-2.22656 0.773438,-0.80078 2.140625,-0.80078 0.570313,0 1.082031,0.14062 0.515625,0.14063 0.949219,0.41407 v 0.83984 q -0.4375,-0.37109 -0.929688,-0.55859 -0.492187,-0.1875 -1.035156,-0.1875 -1.070312,0 -1.609375,0.59765 -0.535156,0.59766 -0.535156,1.78125 0,1.17969 0.535156,1.77735 0.539063,0.59765 1.609375,0.59765 0.417969,0 0.746094,-0.0703 0.328125,-0.0742 0.589844,-0.22656 z"
       style="font-size:8px;font-family:Raleway;text-anchor:middle;fill:#000000;stroke:none;stroke-width:1px;text-rendering:geometricPrecision"
       id="path521" />
    <path
       d="m 20.9375,337.94531 -1.070313,2.90235 h 2.144532 z m -0.445313,-0.77734 h 0.894532 L 23.609375,343 h -0.820313 l -0.53125,-1.49609 H 19.628906 L 19.097656,343 h -0.832031 z"
       style="font-size:8px;font-family:Raleway;text-anchor:middle;fill:#000000;stroke:none;stroke-width:1px;text-rendering:geometricPrecision"
       id="path523" />
    <path
       d="m 23.023437,337.16797 h 4.933594 v 0.66406 H 25.886719 V 343 H 25.09375 v -5.16797 h -2.070313 z"
       style="font-size:8px;font-family:Raleway;text-anchor:middle;fill:#000000;stroke:none;stroke-width:1px;text-rendering:geometricPrecision"
       id="path525" />
    <path
       d="m 28.722656,337.16797 h 3.6875 v 0.66406 h -2.898437 v 1.72656 h 2.777343 v 0.66407 h -2.777343 v 2.11328 h 2.96875 V 343 h -3.757813 z"
       style="font-size:8px;font-family:Raleway;text-anchor:middle;fill:#000000;stroke:none;stroke-width:1px;text-rendering:geometricPrecision"
       id="path527" />
  </g>
  <g
     aria-label="OUT"
     style="font-size:8px;font-family:Raleway;text-anchor:middle;fill:#000000;stroke:none;stroke-width:1px;text-rendering:geometricPrecision"
     id="text36">
    <path
       d="m 62.128906,337.70312 q -0.859375,0 -1.367187,0.64063 -0.503907,0.64062 -0.503907,1.74609 0,1.10157 0.503907,1.74219 0.507812,0.64063 1.367187,0.64063 0.859375,0 1.359375,-0.64063 0.503906,-0.64062 0.503906,-1.74219 0,-1.10547 -0.503906,-1.74609 -0.5,-0.64063 -1.359375,-0.64063 z m 0,-0.64062 q 1.226563,0 1.960938,0.82422 0.734375,0.82031 0.734375,2.20312 0,1.37891 -0.734375,2.20313 -0.734375,0.82031 -1.960938,0.82031 -1.230469,0 -1.96875,-0.82031 -0.734375,-0.82031 -0.734375,-2.20313 0,-1.38281 0.734375,-2.20312 0.738281,-0.82422 1.96875,-0.82422 z"
       style="font-size:8px;font-family:Raleway;text-anchor:middle;fill:#000000;stroke:none;stroke-width:1px;text-rendering:geometricPrecision"
       id="path530" />
    <path
       d="m 65.96875,337.16797 h 0.792969 v 3.54297 q 0,0.9375 0.339843,1.35156 0.339844,0.41016 1.101563,0.41016 0.757812,0 1.097656,-0.41016 0.339844,-0.41406 0.339844,-1.35156 v -3.54297 h 0.792969 v 3.64062 q 0,1.14063 -0.566407,1.72266 -0.5625,0.58203 -1.664062,0.58203 -1.105469,0 -1.671875,-0.58203 -0.5625,-0.58203 -0.5625,-1.72266 z"
       style="font-size:8px;font-family:Raleway;text-anchor:middle;fill:#000000;stroke:none;stroke-width:1px;text-rendering:geometricPrecision"
       id="path532" />
    <path
       d="m 71.109375,337.16797 h 4.933594 v 0.66406 H 73.972656 V 343 h -0.792969 v -5.16797 h -2.070312 z"
       style="font-size:8px;font-family:Raleway;text-anchor:middle;fill:#000000;stroke:none;stroke-width:1px;text-rendering:geometricPrecision"
       id="path534" />
  </g>
  <path
     style="fill:#c0c0c0"
     d="m 94,217 h 37 c 1.108,0 2,0.892 2,2 v 136 c 0,1.108 -0.892,2 -2,2 H 94 c -1.108,0 -2,-0.892 -2,-2 V 219 c 0,-1.108 0.892,-2 2,-2 z"
     id="rect49" />
  <g
     aria-label="CV"
     style="font-size:8px;font-family:Raleway;text-anchor:middle;fill:#000000;stroke:none;stroke-width:1px;text-rendering:geometricPrecision"
     id="text51">
    <path
       d="m 112.12109,247.61719 v 0.83203 q -0.39843,-0.3711 -0.85156,-0.55469 -0.44922,-0.18359 -0.95703,-0.18359 -1,0 -1.53125,0.61328 -0.53125,0.60937 -0.53125,1.76562 0,1.15235 0.53125,1.76563 0.53125,0.60937 1.53125,0.60937 0.50781,0 0.95703,-0.18359 0.45313,-0.18359 0.85156,-0.55469 v 0.82422 q -0.41406,0.28125 -0.8789,0.42188 -0.46094,0.14062 -0.97656,0.14062 -1.32422,0 -2.08594,-0.80859 -0.76172,-0.8125 -0.76172,-2.21485 0,-1.40625 0.76172,-2.21484 0.76172,-0.8125 2.08594,-0.8125 0.52343,0 0.98437,0.14062 0.46484,0.13672 0.87109,0.41407 z"
       style="font-size:8px;font-family:Raleway;text-anchor:middle;fill:#000000;stroke:none;stroke-width:1px;text-rendering:geometricPrecision"
       id="path538" />
    <path
       d="m 114.85156,253 -2.22656,-5.83203 h 0.82422 l 1.84766,4.91015 1.85156,-4.91015 h 0.82031 L 115.74609,253 Z"
       style="font-size:8px;font-family:Raleway;text-anchor:middle;fill:#000000;stroke:none;stroke-width:1px;text-rendering:geometricPrecision"
       id="path540" />
  </g>
  <g
     aria-label="TIME"
     style="font-size:8px;font-family:Raleway;text-anchor:middle;fill:#000000;stroke:none;stroke-width:1px;text-rendering:geometricPrecision"
     id="text53">
    <path
       d="m 102.86719,296.16797 h 4.93359 v 0.66406 h -2.07031 V 302 h -0.79297 v -5.16797 h -2.07031 z"
       style="font-size:8px;font-family:Raleway;text-anchor:middle;fill:#000000;stroke:none;stroke-width:1px;text-rendering:geometricPrecision"
       id="path543" />
    <path
       d="m 108.56641,296.16797 h 0.78906 V 302 h -0.78906 z"
       style="font-size:8px;font-family:Raleway;text-anchor:middle;fill:#000000;stroke:none;stroke-width:1px;text-rendering:geometricPrecision"
       id="path545" />
    <path
       d="m 110.92578,296.16797 h 1.17578 l 1.48828,3.96875 1.4961,-3.96875 h 1.17578 V 302 h -0.76953 v -5.12109 l -1.50391,4 h -0.79297 l -1.5039,-4 V 302 h -0.76563 z"
       style="font-size:8px;font-family:Raleway;text-anchor:middle;fill:#000000;stroke:none;stroke-width:1px;text-rendering:geometricPrecision"
       id="path547" />
    <path
       d="m 117.83203,296.16797 h 3.6875 v 0.66406 h -2.89844 v 1.72656 h 2.77735 v 0.66407 h -2.77735 v 2.11328 h 2.96875 V 302 h -3.75781 z"
       style="font-size:8px;font-family:Raleway;text-anchor:middle;fill:#000000;stroke:none;stroke-width:1px;text-rendering:geometricPrecision"
       id="path549" />
  </g>
  <g
     aria-label="CHOKE"
     style="font-size:8px;font-family:Raleway;text-anchor:middle;fill:#000000;stroke:none;stroke-width:1px;text-rendering:geometricPrecision"
     id="text55">
    <path
       d="m 103.54297,337.61719 v 0.83203 q -0.39844,-0.3711 -0.85156,-0.55469 -0.44922,-0.18359 -0.95703,-0.18359 -1,0 -1.53125,0.61328 -0.531255,0.60937 -0.531255,1.76562 0,1.15235 0.531255,1.76563 0.53125,0.60937 1.53125,0.60937 0.50781,0 0.95703,-0.18359 0.45312,-0.18359 0.85156,-0.55469 v 0.82422 q -0.41406,0.28125 -0.87891,0.42188 -0.46093,0.14062 -0.97656,0.14062 -1.32422,0 -2.085938,-0.80859 -0.761718,-0.8125 -0.761718,-2.21485 0,-1.40625 0.761718,-2.21484 0.761718,-0.8125 2.085938,-0.8125 0.52344,0 0.98438,0.14062 0.46484,0.13672 0.87109,0.41407 z"
       style="font-size:8px;font-family:Raleway;text-anchor:middle;fill:#000000;stroke:none;stroke-width:1px;text-rendering:geometricPrecision"
       id="path552" />
    <path
       d="m 104.76953,337.16797 h 0.78906 v 2.39062 h 2.86719 v -2.39062 h 0.78906 V 343 h -0.78906 v -2.77734 h -2.86719 V 343 h -0.78906 z"
       style="font-size:8px;font-family:Raleway;text-anchor:middle;fill:#000000;stroke:none;stroke-width:1px;text-rendering:geometricPrecision"
       id="path554" />
    <path
       d="m 113.15234,337.70312 q -0.85937,0 -1.36718,0.64063 -0.50391,0.64062 -0.50391,1.74609 0,1.10157 0.50391,1.74219 0.50781,0.64063 1.36718,0.64063 0.85938,0 1.35938,-0.64063 0.50391,-0.64062 0.50391,-1.74219 0,-1.10547 -0.50391,-1.74609 -0.5,-0.64063 -1.35938,-0.64063 z m 0,-0.64062 q 1.22657,0 1.96094,0.82422 0.73438,0.82031 0.73438,2.20312 0,1.37891 -0.73438,2.20313 -0.73437,0.82031 -1.96094,0.82031 -1.23046,0 -1.96875,-0.82031 -0.73437,-0.82031 -0.73437,-2.20313 0,-1.38281 0.73437,-2.20312 0.73829,-0.82422 1.96875,-0.82422 z"
       style="font-size:8px;font-family:Raleway;text-anchor:middle;fill:#000000;stroke:none;stroke-width:1px;text-rendering:geometricPrecision"
       id="path556" />
    <path
       d="m 117.08203,337.16797 h 0.78906 v 2.46484 l 2.61719,-2.46484 h 1.01563 l -2.89453,2.71875 3.10156,3.11328 h -1.03906 l -2.80079,-2.80859 V 343 h -0.78906 z"
       style="font-size:8px;font-family:Raleway;text-anchor:middle;fill:#000000;stroke:none;stroke-width:1px;text-rendering:geometricPrecision"
       id="path558" />
    <path
       d="m 122.33203,337.16797 h 3.6875 v 0.66406 h -2.89844 v 1.72656 h 2.77735 v 0.66407 h -2.77735 v 2.11328 h 2.96875 V 343 h -3.75781 z"
       style="font-size:8px;font-family:Raleway;text-anchor:middle;fill:#000000;stroke:none;stroke-width:1px;text-rendering:geometricPrecision"
       id="path560" />
  </g>
  <g
     aria-label="dk"
     style="font-style:normal;font-variant:normal;font-weight:normal;font-stretch:normal;font-size:32px;font-family:'Circuit board';-inkscape-font-specification:'Circuit board';letter-spacing:0px;word-spacing:0px;text-anchor:middle;fill:#000000;fill-opacity:1;stroke:none"
     id="text850">
    <path
       d="m 67.2385,373.536 q -0.096,0.384 -0.416,0.576 -0.32,0.224 -0.672,0.16 -0.512,-0.096 -0.672,-0.64 l -2.304,-1.152 0.032,-24.224 1.696,-1.44 q -0.032,-0.128 0,-0.256 0.064,-0.384 0.384,-0.576 0.32,-0.192 0.704,-0.128 0.352,0.064 0.576,0.384 0.224,0.32 0.16,0.704 -0.096,0.384 -0.416,0.576 -0.32,0.192 -0.672,0.128 h -0.064 l -1.408,1.184 v 22.752 l 1.824,0.928 q 0.32,-0.096 0.544,-0.064 0.352,0.064 0.544,0.384 0.224,0.32 0.16,0.704 z m -4.352,-28.864 q -0.096,0.352 -0.352,0.544 l -0.032,23.808 -2.048,2.88 h -7.36 v -16.192 h 4.608 q 0.32,-0.512 0.96,-0.384 0.352,0.064 0.576,0.384 0.224,0.32 0.16,0.704 -0.096,0.384 -0.416,0.576 -0.32,0.192 -0.672,0.128 -0.32,-0.032 -0.48,-0.256 h -3.744 l -0.032,13.888 5.984,-0.032 1.344,-1.856 0.064,-23.648 q -0.48,-0.384 -0.384,-0.928 0.096,-0.384 0.416,-0.576 0.32,-0.192 0.704,-0.128 0.352,0.064 0.544,0.384 0.224,0.32 0.16,0.704 z m -1.568,2.368 q -0.096,0.352 -0.384,0.576 v 10.816 l -5.344,-0.064 v 10.592 l 2.848,0.032 q 0.288,-0.448 0.928,-0.352 0.352,0.064 0.544,0.384 0.224,0.32 0.16,0.704 -0.096,0.384 -0.416,0.576 -0.32,0.192 -0.672,0.128 -0.352,-0.096 -0.544,-0.384 l -3.808,0.032 0.064,-12.704 5.152,-0.064 -0.064,-9.76 q -0.384,-0.352 -0.288,-0.896 0.096,-0.384 0.384,-0.576 0.32,-0.192 0.704,-0.128 0.352,0.064 0.576,0.384 0.224,0.32 0.16,0.704 z m 4.864,-0.224 q 0.064,-0.384 -0.288,-0.448 -0.384,-0.064 -0.448,0.288 -0.16,0.448 0.288,0.48 0.352,0.064 0.448,-0.32 z m -3.808,-2.24 q 0.064,-0.416 -0.32,-0.48 -0.416,-0.064 -0.448,0.32 -0.096,0.384 0.288,0.448 0.32,0.064 0.48,-0.288 z m -1.6,2.368 q 0.032,-0.416 -0.288,-0.48 -0.416,-0.064 -0.448,0.32 -0.096,0.384 0.288,0.448 0.352,0.064 0.448,-0.288 z m -1.888,9.376 q 0.064,-0.416 -0.32,-0.48 -0.416,-0.064 -0.448,0.32 -0.096,0.384 0.288,0.448 0.32,0.064 0.48,-0.288 z m 7.84,17.12 q 0.064,-0.384 -0.288,-0.448 -0.448,-0.032 -0.48,0.288 -0.064,0.16 0.032,0.288 0.128,0.16 0.288,0.192 0.352,0.064 0.448,-0.32 z m -7.168,-3.84 q 0.064,-0.384 -0.288,-0.448 -0.448,-0.032 -0.48,0.288 -0.064,0.16 0.032,0.32 0.128,0.128 0.288,0.16 0.352,0.064 0.448,-0.32 z"
       style="font-style:normal;font-variant:normal;font-weight:normal;font-stretch:normal;font-size:32px;font-family:'Circuit board';-inkscape-font-specification:'Circuit board';letter-spacing:0px;word-spacing:0px;text-anchor:middle;fill:#000000;fill-opacity:1;stroke:none"
       id="path563" />
    <path
       d="m 80.136,360.512 q 0,0.256 -0.192,0.48 -0.16,0.192 -0.448,0.224 l -1.888,3.168 h -2.24 -1.344 L 73.992,353.12 q -0.16,-0.16 -0.256,-0.416 -0.064,-0.288 0.096,-0.512 0.192,-0.256 0.48,-0.32 0.32,-0.064 0.544,0.096 0.256,0.16 0.32,0.448 0.096,0.48 -0.352,0.768 v 10.4 h 1.024 1.344 l 1.6,-2.72 q -0.032,-0.064 -0.064,-0.16 -0.032,-0.096 -0.032,-0.192 0,-0.288 0.224,-0.48 0.224,-0.224 0.512,-0.224 0.32,0 0.512,0.224 0.192,0.192 0.192,0.48 z M 73.8,351.264 q 0,0.352 -0.32,0.576 v 21.408 q 0.352,0.256 0.256,0.736 -0.064,0.288 -0.288,0.448 -0.224,0.16 -0.544,0.096 -0.288,-0.064 -0.48,-0.32 -0.16,-0.224 -0.096,-0.512 0.16,-0.352 0.32,-0.48 L 72.68,351.84 q -0.288,-0.224 -0.288,-0.576 0,-0.288 0.192,-0.48 0.224,-0.224 0.512,-0.224 0.32,0 0.512,0.224 0.192,0.192 0.192,0.48 z m 9.088,20.192 q 0,0.288 -0.192,0.512 -0.192,0.192 -0.512,0.192 -0.288,0 -0.512,-0.192 -0.192,-0.224 -0.192,-0.512 0,-0.096 0.032,-0.192 0.032,-0.096 0.064,-0.16 l -4.384,-5.472 h -1.344 -1.024 v 6.304 q 0.448,0.288 0.352,0.768 -0.064,0.288 -0.32,0.448 -0.224,0.16 -0.544,0.096 -0.288,-0.064 -0.48,-0.32 -0.16,-0.224 -0.096,-0.512 0.096,-0.256 0.256,-0.416 l 0.032,-7.168 1.344,-0.032 h 2.24 l 4.672,5.952 q 0.288,0.032 0.448,0.256 0.16,0.192 0.16,0.448 z m -10.432,1.184 q -0.064,0.288 -0.32,0.448 -0.224,0.16 -0.544,0.096 -0.288,-0.064 -0.448,-0.32 -0.16,-0.256 -0.096,-0.544 0.096,-0.32 0.32,-0.448 l 0.032,-17.536 -1.504,-1.248 q -0.064,0 -0.16,0.032 -0.064,0 -0.128,-0.032 -0.288,-0.064 -0.448,-0.32 -0.16,-0.256 -0.096,-0.544 0.064,-0.288 0.288,-0.448 0.256,-0.16 0.544,-0.096 0.576,0.16 0.576,0.672 l 1.728,1.504 -0.032,18.048 q 0.384,0.288 0.288,0.736 z m 2.304,-20.128 q -0.032,-0.32 -0.352,-0.256 -0.32,0.032 -0.256,0.384 0.096,0.288 0.384,0.224 0.384,-0.064 0.224,-0.352 z m -1.344,-1.152 q 0.16,-0.288 -0.256,-0.352 -0.256,-0.064 -0.352,0.224 -0.064,0.32 0.224,0.352 0.352,0.064 0.384,-0.224 z m 6.304,9.088 q -0.032,-0.288 -0.352,-0.224 -0.32,0.032 -0.256,0.352 0.032,0.288 0.384,0.224 0.384,-0.064 0.224,-0.352 z m -9.664,-8 q 0.128,-0.32 -0.224,-0.384 -0.256,-0.064 -0.384,0.256 -0.064,0.32 0.256,0.352 0.32,0.064 0.352,-0.224 z m 12.448,19.072 q 0.064,-0.128 -0.032,-0.224 -0.064,-0.128 -0.224,-0.16 -0.32,-0.064 -0.352,0.256 -0.064,0.32 0.224,0.352 0.352,0.064 0.384,-0.224 z m -7.744,1.088 q 0.16,-0.288 -0.224,-0.352 -0.288,-0.064 -0.384,0.224 -0.064,0.352 0.256,0.384 0.32,0.064 0.352,-0.256 z m -2.72,-0.064 q 0.16,-0.288 -0.224,-0.352 -0.256,-0.064 -0.352,0.224 -0.064,0.32 0.224,0.352 0.32,0.064 0.352,-0.224 z m 1.28,1.376 q 0.064,-0.128 -0.032,-0.256 -0.064,-0.096 -0.224,-0.128 -0.192,-0.032 -0.352,0.256 -0.064,0.32 0.256,0.352 0.32,0.064 0.352,-0.224 z"
       style="font-style:normal;font-variant:normal;font-weight:normal;font-stretch:normal;font-size:32px;font-family:'Circuit board';-inkscape-font-specification:'Circuit board';letter-spacing:0px;word-spacing:0px;text-anchor:middle;fill:#000000;fill-opacity:1;stroke:none"
       id="path565" />
  </g>
  <path
     style="stroke:#111111;stroke-width:0.75"
     d="M 22.5,85.5 7.6235762,91.389992"
     id="SvgjsLine1007" />
  <path
     style="stroke:#111111;stroke-width:0.75"
     d="M 22.5,85.5 6.5493226,86.755348"
     id="SvgjsLine1008" />
  <path
     style="stroke:#111111;stroke-width:0.75"
     d="M 22.5,85.5 6.8853316,82.009705"
     id="SvgjsLine1009" />
  <path
     style="stroke:#111111;stroke-width:0.75"
     d="M 22.5,85.5 8.6018953,77.572662"
     id="SvgjsLine1010" />
  <path
     style="stroke:#111111;stroke-width:0.75"
     d="M 22.5,85.5 11.547246,73.836502"
     id="SvgjsLine1011" />
  <path
     style="stroke:#111111;stroke-width:0.75"
     d="M 22.5,85.5 15.460974,71.131561"
     id="SvgjsLine1012" />
  <path
     style="stroke:#111111;stroke-width:0.75"
     d="M 22.5,85.5 19.997049,69.696983"
     id="SvgjsLine1013" />
  <path
     style="stroke:#111111;stroke-width:0.75"
     d="M 22.5,85.5 24.754419,69.659622"
     id="SvgjsLine1014" />
  <path
     style="stroke:#111111;stroke-width:0.75"
     d="M 22.5,85.5 29.312469,71.022766"
     id="SvgjsLine1015" />
  <path
     style="stroke:#111111;stroke-width:0.75"
     d="M 22.5,85.5 33.2682,73.665901"
     id="SvgjsLine1016" />
  <path
     style="stroke:#111111;stroke-width:0.75"
     d="M 22.5,85.5 36.271873,77.355339"
     id="SvgjsLine1017" />
  <path
     style="stroke:#111111;stroke-width:0.75"
     d="M 22.5,85.5 38.057919,81.764877"
     id="SvgjsLine1018" />
  <path
     style="stroke:#111111;stroke-width:0.75"
     d="m 22.5,85.5 15.968426,1.004646"
     id="SvgjsLine1019" />
  <path
     style="stroke:#111111;stroke-width:0.75"
     d="m 22.5,85.5 14.967106,5.655594"
     id="SvgjsLine1020" />
  <path
     style="fill:#a8a8a8;stroke:#111111;stroke-width:0.75"
     d="m 35.5,85.5 a 13,13 0 0 1 -13,13 13,13 0 0 1 -13,-13 13,13 0 0 1 13,-13 13,13 0 0 1 13,13 z"
     id="SvgjsCircle1021" />
  <path
     style="stroke:#111111;stroke-width:0.75"
     d="m 67.5,85.5 h 16"
     id="SvgjsLine1022" />
  <path
     style="stroke:#111111;stroke-width:0.75"
     d="m 67.5,85.5 14.915024,1.594398"
     id="SvgjsLine1023" />
  <path
     style="stroke:#111111;stroke-width:0.75"
     d="m 67.5,85.5 14.661049,3.170738"
     id="SvgjsLine1024" />
  <path
     style="stroke:#111111;stroke-width:0.75"
     d="m 67.5,85.5 14.240967,4.711151"
     id="SvgjsLine1025" />
  <path
     style="stroke:#111111;stroke-width:0.75"
     d="m 67.5,85.5 13.659523,6.198181"
     id="SvgjsLine1026" />
  <path
     style="stroke:#111111;stroke-width:0.75"
     d="m 67.5,85.5 13.784866,8.12265"
     id="SvgjsLine1027" />
  <path
     style="stroke:#111111;stroke-width:0.75"
     d="M 67.5,85.5 53.302368,92.87748"
     id="SvgjsLine1028" />
  <path
     style="stroke:#111111;stroke-width:0.75"
     d="M 67.5,85.5 53.529957,90.96241"
     id="SvgjsLine1029" />
  <path
     style="stroke:#111111;stroke-width:0.75"
     d="M 67.5,85.5 53.028481,89.446541"
     id="SvgjsLine1030" />
  <path
     style="stroke:#111111;stroke-width:0.75"
     d="M 67.5,85.5 52.690975,87.885956"
     id="SvgjsLine1031" />
  <path
     style="stroke:#111111;stroke-width:0.75"
     d="M 67.5,85.5 52.521259,86.298332"
     id="SvgjsLine1032" />
  <path
     style="stroke:#111111;stroke-width:0.75"
     d="M 67.5,85.5 51.522678,84.648445"
     id="SvgjsLine1033" />
  <path
     style="stroke:#111111;stroke-width:0.75"
     d="M 67.5,85.5 52.690975,83.114044"
     id="SvgjsLine1034" />
  <path
     style="stroke:#111111;stroke-width:0.75"
     d="M 67.5,85.5 53.028481,81.553459"
     id="SvgjsLine1035" />
  <path
     style="stroke:#111111;stroke-width:0.75"
     d="M 67.5,85.5 53.529957,80.03759"
     id="SvgjsLine1036" />
  <path
     style="stroke:#111111;stroke-width:0.75"
     d="M 67.5,85.5 54.18972,78.583611"
     id="SvgjsLine1037" />
  <path
     style="stroke:#111111;stroke-width:0.75"
     d="M 67.5,85.5 54.166977,76.655197"
     id="SvgjsLine1038" />
  <path
     style="stroke:#111111;stroke-width:0.75"
     d="M 67.5,85.5 55.952492,75.926338"
     id="SvgjsLine1039" />
  <path
     style="stroke:#111111;stroke-width:0.75"
     d="M 67.5,85.5 57.035526,74.753151"
     id="SvgjsLine1040" />
  <path
     style="stroke:#111111;stroke-width:0.75"
     d="M 67.5,85.5 58.237129,73.701729"
     id="SvgjsLine1041" />
  <path
     style="stroke:#111111;stroke-width:0.75"
     d="M 67.5,85.5 59.543686,72.783981"
     id="SvgjsLine1042" />
  <path
     style="stroke:#111111;stroke-width:0.75"
     d="M 67.5,85.5 60.503082,71.111008"
     id="SvgjsLine1043" />
  <path
     style="stroke:#111111;stroke-width:0.75"
     d="M 67.5,85.5 62.411419,71.389496"
     id="SvgjsLine1044" />
  <path
     style="stroke:#111111;stroke-width:0.75"
     d="M 67.5,85.5 63.940098,70.928551"
     id="SvgjsLine1045" />
  <path
     style="stroke:#111111;stroke-width:0.75"
     d="M 67.5,85.5 65.509117,70.632706"
     id="SvgjsLine1046" />
  <path
     style="stroke:#111111;stroke-width:0.75"
     d="M 67.5,85.5 67.100693,70.505318"
     id="SvgjsLine1047" />
  <path
     style="stroke:#111111;stroke-width:0.75"
     d="M 67.5,85.5 68.776581,69.55101"
     id="SvgjsLine1048" />
  <path
     style="stroke:#111111;stroke-width:0.75"
     d="M 67.5,85.5 70.279327,70.759735"
     id="SvgjsLine1049" />
  <path
     style="stroke:#111111;stroke-width:0.75"
     d="M 67.5,85.5 71.830376,71.138672"
     id="SvgjsLine1050" />
  <path
     style="stroke:#111111;stroke-width:0.75"
     d="M 67.5,85.5 73.332359,71.680321"
     id="SvgjsLine1051" />
  <path
     style="stroke:#111111;stroke-width:0.75"
     d="M 67.5,85.5 74.768265,72.378555"
     id="SvgjsLine1052" />
  <path
     style="stroke:#111111;stroke-width:0.75"
     d="M 67.5,85.5 76.696602,72.407158"
     id="SvgjsLine1053" />
  <path
     style="stroke:#111111;stroke-width:0.75"
     d="M 67.5,85.5 77.37767,74.211441"
     id="SvgjsLine1054" />
  <path
     style="stroke:#111111;stroke-width:0.75"
     d="M 67.5,85.5 78.521614,75.325325"
     id="SvgjsLine1055" />
  <path
     style="stroke:#111111;stroke-width:0.75"
     d="M 67.5,85.5 79.540672,76.554489"
     id="SvgjsLine1056" />
  <path
     style="stroke:#111111;stroke-width:0.75"
     d="M 67.5,85.5 80.423309,77.88501"
     id="SvgjsLine1057" />
  <path
     style="stroke:#111111;stroke-width:0.75"
     d="M 67.5,85.5 82.07016,78.888603"
     id="SvgjsLine1058" />
  <path
     style="stroke:#111111;stroke-width:0.75"
     d="M 67.5,85.5 81.740967,80.788849"
     id="SvgjsLine1059" />
  <path
     style="stroke:#111111;stroke-width:0.75"
     d="M 67.5,85.5 82.161049,82.329262"
     id="SvgjsLine1060" />
  <path
     style="stroke:#111111;stroke-width:0.75"
     d="M 67.5,85.5 82.415024,83.905602"
     id="SvgjsLine1061" />
  <path
     style="stroke:#111111;stroke-width:0.75"
     d="m 67.5,85.5 h 15"
     id="SvgjsLine1062" />
  <path
     style="fill:#888888;stroke:#111111;stroke-width:0.75"
     d="m 80.5,85.5 a 13,13 0 0 1 -13,13 13,13 0 0 1 -13,-13 13,13 0 0 1 13,-13 13,13 0 0 1 13,13 z"
     id="SvgjsCircle1063" />
  <path
     style="stroke:#111111;stroke-width:0.75"
     d="M 22.5,275.5 7.6235762,281.38998"
     id="SvgjsLine1064" />
  <path
     style="stroke:#111111;stroke-width:0.75"
     d="M 22.5,275.5 6.5493226,276.75534"
     id="SvgjsLine1065" />
  <path
     style="stroke:#111111;stroke-width:0.75"
     d="M 22.5,275.5 6.8853316,272.0097"
     id="SvgjsLine1066" />
  <path
     style="stroke:#111111;stroke-width:0.75"
     d="M 22.5,275.5 8.6018953,267.57266"
     id="SvgjsLine1067" />
  <path
     style="stroke:#111111;stroke-width:0.75"
     d="M 22.5,275.5 11.547246,263.83649"
     id="SvgjsLine1068" />
  <path
     style="stroke:#111111;stroke-width:0.75"
     d="M 22.5,275.5 15.460974,261.13156"
     id="SvgjsLine1069" />
  <path
     style="stroke:#111111;stroke-width:0.75"
     d="M 22.5,275.5 19.997049,259.69699"
     id="SvgjsLine1070" />
  <path
     style="stroke:#111111;stroke-width:0.75"
     d="m 22.5,275.5 2.254419,-15.84039"
     id="SvgjsLine1071" />
  <path
     style="stroke:#111111;stroke-width:0.75"
     d="m 22.5,275.5 6.812469,-14.47723"
     id="SvgjsLine1072" />
  <path
     style="stroke:#111111;stroke-width:0.75"
     d="M 22.5,275.5 33.2682,263.66589"
     id="SvgjsLine1073" />
  <path
     style="stroke:#111111;stroke-width:0.75"
     d="m 22.5,275.5 13.771873,-8.14465"
     id="SvgjsLine1074" />
  <path
     style="stroke:#111111;stroke-width:0.75"
     d="m 22.5,275.5 15.557919,-3.73514"
     id="SvgjsLine1075" />
  <path
     style="stroke:#111111;stroke-width:0.75"
     d="m 22.5,275.5 15.968426,1.00464"
     id="SvgjsLine1076" />
  <path
     style="stroke:#111111;stroke-width:0.75"
     d="m 22.5,275.5 14.967106,5.65561"
     id="SvgjsLine1077" />
  <path
     style="fill:#a8a8a8;stroke:#111111;stroke-width:0.75"
     d="m 35.5,275.5 a 13,13 0 0 1 -13,13 13,13 0 0 1 -13,-13 13,13 0 0 1 13,-13 13,13 0 0 1 13,13 z"
     id="SvgjsCircle1078" />
  <path
     style="stroke:#111111;stroke-width:0.75"
     d="m 67.5,275.5 h 16"
     id="SvgjsLine1079" />
  <path
     style="stroke:#111111;stroke-width:0.75"
     d="m 67.5,275.5 14.915024,1.59439"
     id="SvgjsLine1080" />
  <path
     style="stroke:#111111;stroke-width:0.75"
     d="m 67.5,275.5 14.661049,3.17075"
     id="SvgjsLine1081" />
  <path
     style="stroke:#111111;stroke-width:0.75"
     d="m 67.5,275.5 14.240967,4.71115"
     id="SvgjsLine1082" />
  <path
     style="stroke:#111111;stroke-width:0.75"
     d="m 67.5,275.5 13.659523,6.19818"
     id="SvgjsLine1083" />
  <path
     style="stroke:#111111;stroke-width:0.75"
     d="m 67.5,275.5 13.784866,8.12265"
     id="SvgjsLine1084" />
  <path
     style="stroke:#111111;stroke-width:0.75"
     d="m 67.5,275.5 -14.197632,7.37747"
     id="SvgjsLine1085" />
  <path
     style="stroke:#111111;stroke-width:0.75"
     d="m 67.5,275.5 -13.970043,5.4624"
     id="SvgjsLine1086" />
  <path
     style="stroke:#111111;stroke-width:0.75"
     d="m 67.5,275.5 -14.471519,3.94653"
     id="SvgjsLine1087" />
  <path
     style="stroke:#111111;stroke-width:0.75"
     d="m 67.5,275.5 -14.809025,2.38596"
     id="SvgjsLine1088" />
  <path
     style="stroke:#111111;stroke-width:0.75"
     d="m 67.5,275.5 -14.978741,0.79834"
     id="SvgjsLine1089" />
  <path
     style="stroke:#111111;stroke-width:0.75"
     d="M 67.5,275.5 51.522678,274.64844"
     id="SvgjsLine1090" />
  <path
     style="stroke:#111111;stroke-width:0.75"
     d="M 67.5,275.5 52.690975,273.11404"
     id="SvgjsLine1091" />
  <path
     style="stroke:#111111;stroke-width:0.75"
     d="M 67.5,275.5 53.028481,271.55347"
     id="SvgjsLine1092" />
  <path
     style="stroke:#111111;stroke-width:0.75"
     d="M 67.5,275.5 53.529957,270.0376"
     id="SvgjsLine1093" />
  <path
     style="stroke:#111111;stroke-width:0.75"
     d="M 67.5,275.5 54.18972,268.58362"
     id="SvgjsLine1094" />
  <path
     style="stroke:#111111;stroke-width:0.75"
     d="M 67.5,275.5 54.166977,266.65521"
     id="SvgjsLine1095" />
  <path
     style="stroke:#111111;stroke-width:0.75"
     d="M 67.5,275.5 55.952492,265.92633"
     id="SvgjsLine1096" />
  <path
     style="stroke:#111111;stroke-width:0.75"
     d="M 67.5,275.5 57.035526,264.75314"
     id="SvgjsLine1097" />
  <path
     style="stroke:#111111;stroke-width:0.75"
     d="M 67.5,275.5 58.237129,263.70172"
     id="SvgjsLine1098" />
  <path
     style="stroke:#111111;stroke-width:0.75"
     d="M 67.5,275.5 59.543686,262.784"
     id="SvgjsLine1099" />
  <path
     style="stroke:#111111;stroke-width:0.75"
     d="M 67.5,275.5 60.503082,261.11099"
     id="SvgjsLine1100" />
  <path
     style="stroke:#111111;stroke-width:0.75"
     d="M 67.5,275.5 62.411419,261.3895"
     id="SvgjsLine1101" />
  <path
     style="stroke:#111111;stroke-width:0.75"
     d="M 67.5,275.5 63.940098,260.92856"
     id="SvgjsLine1102" />
  <path
     style="stroke:#111111;stroke-width:0.75"
     d="M 67.5,275.5 65.509117,260.63272"
     id="SvgjsLine1103" />
  <path
     style="stroke:#111111;stroke-width:0.75"
     d="M 67.5,275.5 67.100693,260.50531"
     id="SvgjsLine1104" />
  <path
     style="stroke:#111111;stroke-width:0.75"
     d="m 67.5,275.5 1.276581,-15.94901"
     id="SvgjsLine1105" />
  <path
     style="stroke:#111111;stroke-width:0.75"
     d="m 67.5,275.5 2.779327,-14.74026"
     id="SvgjsLine1106" />
  <path
     style="stroke:#111111;stroke-width:0.75"
     d="m 67.5,275.5 4.330376,-14.36133"
     id="SvgjsLine1107" />
  <path
     style="stroke:#111111;stroke-width:0.75"
     d="m 67.5,275.5 5.832359,-13.81967"
     id="SvgjsLine1108" />
  <path
     style="stroke:#111111;stroke-width:0.75"
     d="m 67.5,275.5 7.268265,-13.12146"
     id="SvgjsLine1109" />
  <path
     style="stroke:#111111;stroke-width:0.75"
     d="m 67.5,275.5 9.196602,-13.09283"
     id="SvgjsLine1110" />
  <path
     style="stroke:#111111;stroke-width:0.75"
     d="m 67.5,275.5 9.87767,-11.28857"
     id="SvgjsLine1111" />
  <path
     style="stroke:#111111;stroke-width:0.75"
     d="M 67.5,275.5 78.521614,265.32532"
     id="SvgjsLine1112" />
  <path
     style="stroke:#111111;stroke-width:0.75"
     d="m 67.5,275.5 12.040672,-8.9455"
     id="SvgjsLine1113" />
  <path
     style="stroke:#111111;stroke-width:0.75"
     d="m 67.5,275.5 12.923309,-7.61499"
     id="SvgjsLine1114" />
  <path
     style="stroke:#111111;stroke-width:0.75"
     d="m 67.5,275.5 14.57016,-6.61139"
     id="SvgjsLine1115" />
  <path
     style="stroke:#111111;stroke-width:0.75"
     d="m 67.5,275.5 14.240967,-4.71115"
     id="SvgjsLine1116" />
  <path
     style="stroke:#111111;stroke-width:0.75"
     d="m 67.5,275.5 14.661049,-3.17075"
     id="SvgjsLine1117" />
  <path
     style="stroke:#111111;stroke-width:0.75"
     d="m 67.5,275.5 14.915024,-1.59439"
     id="SvgjsLine1118" />
  <path
     style="stroke:#111111;stroke-width:0.75"
     d="m 67.5,275.5 h 15"
     id="SvgjsLine1119" />
  <path
     style="fill:#888888;stroke:#111111;stroke-width:0.75"
     d="m 80.5,275.5 a 13,13 0 0 1 -13,13 13,13 0 0 1 -13,-13 13,13 0 0 1 13,-13 13,13 0 0 1 13,13 z"
     id="SvgjsCircle1120" />
  <path
     style="stroke:#111111;stroke-width:0.75"
     d="m 112.5,85.5 h 16"
     id="line172" />
  <path
     style="stroke:#111111;stroke-width:0.75"
     d="m 112.5,85.5 14.91502,1.594398"
     id="line174" />
  <path
     style="stroke:#111111;stroke-width:0.75"
     d="m 112.5,85.5 14.66105,3.170738"
     id="line176" />
  <path
     style="stroke:#111111;stroke-width:0.75"
     d="m 112.5,85.5 14.24097,4.711151"
     id="line178" />
  <path
     style="stroke:#111111;stroke-width:0.75"
     d="m 112.5,85.5 13.65952,6.198181"
     id="line180" />
  <path
     style="stroke:#111111;stroke-width:0.75"
     d="m 112.5,85.5 13.78487,8.12265"
     id="line182" />
  <path
     style="stroke:#111111;stroke-width:0.75"
     d="M 112.5,85.5 98.302368,92.87748"
     id="line184" />
  <path
     style="stroke:#111111;stroke-width:0.75"
     d="M 112.5,85.5 98.529961,90.96241"
     id="line186" />
  <path
     style="stroke:#111111;stroke-width:0.75"
     d="M 112.5,85.5 98.028481,89.446541"
     id="line188" />
  <path
     style="stroke:#111111;stroke-width:0.75"
     d="M 112.5,85.5 97.690971,87.885956"
     id="line190" />
  <path
     style="stroke:#111111;stroke-width:0.75"
     d="M 112.5,85.5 97.521263,86.298332"
     id="line192" />
  <path
     style="stroke:#111111;stroke-width:0.75"
     d="M 112.5,85.5 96.522675,84.648445"
     id="line194" />
  <path
     style="stroke:#111111;stroke-width:0.75"
     d="M 112.5,85.5 97.690971,83.114044"
     id="line196" />
  <path
     style="stroke:#111111;stroke-width:0.75"
     d="M 112.5,85.5 98.028481,81.553459"
     id="line198" />
  <path
     style="stroke:#111111;stroke-width:0.75"
     d="M 112.5,85.5 98.529961,80.03759"
     id="SvgjsLine1021" />
  <path
     style="stroke:#111111;stroke-width:0.75"
     d="M 112.5,85.5 99.18972,78.583611"
     id="line201" />
  <path
     style="stroke:#111111;stroke-width:0.75"
     d="M 112.5,85.5 99.166977,76.655197"
     id="line203" />
  <path
     style="stroke:#111111;stroke-width:0.75"
     d="M 112.5,85.5 100.95249,75.926338"
     id="line205" />
  <path
     style="stroke:#111111;stroke-width:0.75"
     d="M 112.5,85.5 102.03553,74.753151"
     id="line207" />
  <path
     style="stroke:#111111;stroke-width:0.75"
     d="M 112.5,85.5 103.23713,73.701729"
     id="line209" />
  <path
     style="stroke:#111111;stroke-width:0.75"
     d="M 112.5,85.5 104.54369,72.783981"
     id="line211" />
  <path
     style="stroke:#111111;stroke-width:0.75"
     d="M 112.5,85.5 105.50308,71.111008"
     id="line213" />
  <path
     style="stroke:#111111;stroke-width:0.75"
     d="M 112.5,85.5 107.41142,71.389496"
     id="line215" />
  <path
     style="stroke:#111111;stroke-width:0.75"
     d="M 112.5,85.5 108.9401,70.928551"
     id="line217" />
  <path
     style="stroke:#111111;stroke-width:0.75"
     d="M 112.5,85.5 110.50912,70.632706"
     id="line219" />
  <path
     style="stroke:#111111;stroke-width:0.75"
     d="M 112.5,85.5 112.10069,70.505318"
     id="line221" />
  <path
     style="stroke:#111111;stroke-width:0.75"
     d="m 112.5,85.5 1.27658,-15.94899"
     id="line223" />
  <path
     style="stroke:#111111;stroke-width:0.75"
     d="m 112.5,85.5 2.77933,-14.740265"
     id="line225" />
  <path
     style="stroke:#111111;stroke-width:0.75"
     d="m 112.5,85.5 4.33038,-14.361328"
     id="line227" />
  <path
     style="stroke:#111111;stroke-width:0.75"
     d="m 112.5,85.5 5.83236,-13.819679"
     id="line229" />
  <path
     style="stroke:#111111;stroke-width:0.75"
     d="m 112.5,85.5 7.26826,-13.121445"
     id="line231" />
  <path
     style="stroke:#111111;stroke-width:0.75"
     d="m 112.5,85.5 9.1966,-13.092842"
     id="line233" />
  <path
     style="stroke:#111111;stroke-width:0.75"
     d="m 112.5,85.5 9.87767,-11.288559"
     id="line235" />
  <path
     style="stroke:#111111;stroke-width:0.75"
     d="M 112.5,85.5 123.52161,75.325325"
     id="line237" />
  <path
     style="stroke:#111111;stroke-width:0.75"
     d="m 112.5,85.5 12.04067,-8.945511"
     id="line239" />
  <path
     style="stroke:#111111;stroke-width:0.75"
     d="m 112.5,85.5 12.92331,-7.61499"
     id="line241" />
  <path
     style="stroke:#111111;stroke-width:0.75"
     d="m 112.5,85.5 14.57016,-6.611397"
     id="line243" />
  <path
     style="stroke:#111111;stroke-width:0.75"
     d="m 112.5,85.5 14.24097,-4.711151"
     id="line245" />
  <path
     style="stroke:#111111;stroke-width:0.75"
     d="m 112.5,85.5 14.66105,-3.170738"
     id="line247" />
  <path
     style="stroke:#111111;stroke-width:0.75"
     d="m 112.5,85.5 14.91502,-1.594398"
     id="line249" />
  <path
     style="stroke:#111111;stroke-width:0.75"
     d="m 112.5,85.5 h 15"
     id="line251" />
  <path
     style="fill:#888888;stroke:#111111;stroke-width:0.75"
     d="m 125.5,85.5 a 13,13 0 0 1 -13,13 13,13 0 0 1 -13,-13 13,13 0 0 1 13,-13 13,13 0 0 1 13,13 z"
     id="SvgjsCircle1048" />
  <path
     style="stroke:#111111;stroke-width:0.75"
     d="m 112.5,275.5 h 16"
     id="line254" />
  <path
     style="stroke:#111111;stroke-width:0.75"
     d="m 112.5,275.5 14.91502,1.59439"
     id="line256" />
  <path
     style="stroke:#111111;stroke-width:0.75"
     d="m 112.5,275.5 14.66105,3.17075"
     id="line258" />
  <path
     style="stroke:#111111;stroke-width:0.75"
     d="m 112.5,275.5 14.24097,4.71115"
     id="line260" />
  <path
     style="stroke:#111111;stroke-width:0.75"
     d="m 112.5,275.5 13.65952,6.19818"
     id="line262" />
  <path
     style="stroke:#111111;stroke-width:0.75"
     d="m 112.5,275.5 13.78487,8.12265"
     id="line264" />
  <path
     style="stroke:#111111;stroke-width:0.75"
     d="m 112.5,275.5 -14.197632,7.37747"
     id="line266" />
  <path
     style="stroke:#111111;stroke-width:0.75"
     d="m 112.5,275.5 -13.970039,5.4624"
     id="line268" />
  <path
     style="stroke:#111111;stroke-width:0.75"
     d="m 112.5,275.5 -14.471519,3.94653"
     id="line270" />
  <path
     style="stroke:#111111;stroke-width:0.75"
     d="m 112.5,275.5 -14.809029,2.38596"
     id="line272" />
  <path
     style="stroke:#111111;stroke-width:0.75"
     d="m 112.5,275.5 -14.978737,0.79834"
     id="line274" />
  <path
     style="stroke:#111111;stroke-width:0.75"
     d="M 112.5,275.5 96.522675,274.64844"
     id="line276" />
  <path
     style="stroke:#111111;stroke-width:0.75"
     d="M 112.5,275.5 97.690971,273.11404"
     id="line278" />
  <path
     style="stroke:#111111;stroke-width:0.75"
     d="M 112.5,275.5 98.028481,271.55347"
     id="line280" />
  <path
     style="stroke:#111111;stroke-width:0.75"
     d="M 112.5,275.5 98.529961,270.0376"
     id="SvgjsLine1063" />
  <path
     style="stroke:#111111;stroke-width:0.75"
     d="M 112.5,275.5 99.18972,268.58362"
     id="line283" />
  <path
     style="stroke:#111111;stroke-width:0.75"
     d="M 112.5,275.5 99.166977,266.65521"
     id="line285" />
  <path
     style="stroke:#111111;stroke-width:0.75"
     d="m 112.5,275.5 -11.54751,-9.57367"
     id="line287" />
  <path
     style="stroke:#111111;stroke-width:0.75"
     d="M 112.5,275.5 102.03553,264.75314"
     id="line289" />
  <path
     style="stroke:#111111;stroke-width:0.75"
     d="m 112.5,275.5 -9.26287,-11.79828"
     id="line291" />
  <path
     style="stroke:#111111;stroke-width:0.75"
     d="m 112.5,275.5 -7.95631,-12.716"
     id="line293" />
  <path
     style="stroke:#111111;stroke-width:0.75"
     d="m 112.5,275.5 -6.99692,-14.38901"
     id="line295" />
  <path
     style="stroke:#111111;stroke-width:0.75"
     d="m 112.5,275.5 -5.08858,-14.1105"
     id="line297" />
  <path
     style="stroke:#111111;stroke-width:0.75"
     d="m 112.5,275.5 -3.5599,-14.57144"
     id="line299" />
  <path
     style="stroke:#111111;stroke-width:0.75"
     d="m 112.5,275.5 -1.99088,-14.86728"
     id="line301" />
  <path
     style="stroke:#111111;stroke-width:0.75"
     d="m 112.5,275.5 -0.39931,-14.99469"
     id="line303" />
  <path
     style="stroke:#111111;stroke-width:0.75"
     d="m 112.5,275.5 1.27658,-15.94901"
     id="line305" />
  <path
     style="stroke:#111111;stroke-width:0.75"
     d="m 112.5,275.5 2.77933,-14.74026"
     id="line307" />
  <path
     style="stroke:#111111;stroke-width:0.75"
     d="m 112.5,275.5 4.33038,-14.36133"
     id="line309" />
  <path
     style="stroke:#111111;stroke-width:0.75"
     d="m 112.5,275.5 5.83236,-13.81967"
     id="SvgjsLine1078" />
  <path
     style="stroke:#111111;stroke-width:0.75"
     d="m 112.5,275.5 7.26826,-13.12146"
     id="line312" />
  <path
     style="stroke:#111111;stroke-width:0.75"
     d="m 112.5,275.5 9.1966,-13.09283"
     id="line314" />
  <path
     style="stroke:#111111;stroke-width:0.75"
     d="m 112.5,275.5 9.87767,-11.28857"
     id="line316" />
  <path
     style="stroke:#111111;stroke-width:0.75"
     d="m 112.5,275.5 11.02161,-10.17468"
     id="line318" />
  <path
     style="stroke:#111111;stroke-width:0.75"
     d="m 112.5,275.5 12.04067,-8.9455"
     id="line320" />
  <path
     style="stroke:#111111;stroke-width:0.75"
     d="m 112.5,275.5 12.92331,-7.61499"
     id="line322" />
  <path
     style="stroke:#111111;stroke-width:0.75"
     d="m 112.5,275.5 14.57016,-6.61139"
     id="line324" />
  <path
     style="stroke:#111111;stroke-width:0.75"
     d="m 112.5,275.5 14.24097,-4.71115"
     id="line326" />
  <path
     style="stroke:#111111;stroke-width:0.75"
     d="m 112.5,275.5 14.66105,-3.17075"
     id="line328" />
  <path
     style="stroke:#111111;stroke-width:0.75"
     d="m 112.5,275.5 14.91502,-1.59439"
     id="line330" />
  <path
     style="stroke:#111111;stroke-width:0.75"
     d="m 112.5,275.5 h 15"
     id="line332" />
  <path
     style="fill:#888888;stroke:#111111;stroke-width:0.75"
     d="m 125.5,275.5 a 13,13 0 0 1 -13,13 13,13 0 0 1 -13,-13 13,13 0 0 1 13,-13 13,13 0 0 1 13,13 z"
     id="SvgjsCircle1090" />
</svg>
