<svg xmlns:osb="http://www.openswatchbook.org/uri/2009/osb" xmlns="http://www.w3.org/2000/svg" xmlns:xlink="http://www.w3.org/1999/xlink" height="380" style="zoom:8" cursor="default" id="SvgjsSvg1006" width="135"><defs id="SvgjsDefs1007"><linearGradient id="linearGradient2396" osb:paint="gradient"><stop offset="0" id="stop2392" stop-color="#ff8f00"/><stop offset="1" id="stop2394" stop-color="#ff8f00" stop-opacity="0"/></linearGradient><linearGradient id="linearGradient2384" osb:paint="solid"><stop offset="0" id="stop2382" stop-color="#ff8f00"/></linearGradient><linearGradient id="linearGradient898" osb:paint="solid"><stop offset="0" id="stop896" stop-color="#ff8f00"/></linearGradient><linearGradient id="linearGradient915"><stop offset="0" id="stop911" stop-color="#e0e0e0"/><stop offset="1" id="stop913" stop-color="#d0d0d0"/></linearGradient><linearGradient xlink:href="#linearGradient915" id="linearGradient919" y1="190" x2="135" y2="190" gradientUnits="userSpaceOnUse"/><style id="Audiowide_Google_Webfont_import">@import url(https://fonts.googleapis.com/css?family=Raleway);</style></defs><path d="M0 0h135v380H0z" id="SvgjsRect1008" fill="url(#linearGradient919)"/><g aria-label="SYNTHETIC" id="text5" font-size="12" font-family="Raleway" text-anchor="middle" text-rendering="geometricPrecision"><path d="M40.348 16.54v1.153q-.674-.322-1.272-.48-.597-.158-1.154-.158-.967 0-1.494.375-.522.375-.522 1.066 0 .58.346.879.352.293 1.324.475l.715.146q1.324.252 1.951.89.633.634.633 1.7 0 1.271-.855 1.928-.85.656-2.497.656-.62 0-1.324-.14-.697-.141-1.447-.417v-1.218q.72.404 1.412.609.691.205 1.36.205 1.013 0 1.564-.398.55-.399.55-1.137 0-.645-.398-1.008-.392-.363-1.295-.545l-.72-.14q-1.325-.264-1.916-.827-.592-.562-.592-1.564 0-1.16.814-1.828.82-.668 2.256-.668.615 0 1.254.111t1.307.334z" id="path1185"/><path d="M41.52 16.252h1.271l2.426 3.598 2.408-3.598h1.271l-3.093 4.582V25h-1.19v-4.166z" id="path1187"/><path d="M50.057 16.252h1.593l3.88 7.318v-7.318h1.148V25h-1.594l-3.879-7.318V25h-1.148z" id="path1189"/><path d="M57.82 16.252h7.4v.996h-3.105V25h-1.19v-7.752H57.82z" id="path1191"/><path d="M66.37 16.252h1.183v3.586h4.3v-3.586h1.184V25h-1.183v-4.166h-4.301V25h-1.184z" id="path1193"/><path d="M75.393 16.252h5.53v.996h-4.347v2.59h4.166v.996h-4.166v3.17h4.453V25h-5.636z" id="path1195"/><path d="M81.773 16.252h7.4v.996h-3.105V25h-1.19v-7.752h-3.105z" id="path1197"/><path d="M90.322 16.252h1.184V25h-1.184z" id="path1199"/><path d="M100.412 16.926v1.248q-.598-.557-1.277-.832-.674-.276-1.436-.276-1.5 0-2.297.92-.797.914-.797 2.649 0 1.728.797 2.648.797.914 2.297.914.762 0 1.436-.275.68-.276 1.277-.832v1.236q-.621.422-1.318.633-.692.21-1.465.21-1.986 0-3.129-1.212-1.143-1.219-1.143-3.322 0-2.11 1.143-3.323 1.143-1.218 3.129-1.218.785 0 1.476.21.698.206 1.307.622z" id="path1201"/></g><g aria-label="BASS DRUM" id="text19" font-size="12" font-family="Raleway" text-anchor="middle" text-rendering="geometricPrecision"><path d="M33.756 32.822v3.205h1.898q.955 0 1.412-.392.463-.399.463-1.213 0-.82-.463-1.207-.457-.393-1.412-.393zm0-3.597v2.636h1.752q.867 0 1.289-.322.428-.328.428-.996 0-.662-.428-.99-.422-.328-1.29-.328zm-1.184-.973h3.024q1.353 0 2.086.562.732.563.732 1.6 0 .803-.375 1.277-.375.475-1.102.592.874.188 1.354.785.486.592.486 1.483 0 1.172-.797 1.81-.796.639-2.267.639h-3.14z" id="path1204"/><path d="M43.723 29.418l-1.606 4.353h3.217zm-.668-1.166h1.341L47.73 37H46.5l-.797-2.244H41.76L40.963 37h-1.248z" id="path1206"/><path d="M54.246 28.54v1.153q-.674-.322-1.271-.48-.598-.158-1.155-.158-.966 0-1.494.375-.521.375-.521 1.066 0 .58.345.879.352.293 1.325.475l.714.146q1.325.252 1.952.89.632.634.632 1.7 0 1.271-.855 1.928-.85.656-2.496.656-.621 0-1.324-.14-.698-.141-1.448-.417v-1.218q.721.404 1.413.609.69.205 1.359.205 1.014 0 1.564-.398.551-.399.551-1.137 0-.645-.398-1.008-.393-.363-1.295-.545l-.721-.14q-1.324-.264-1.916-.827-.592-.562-.592-1.564 0-1.16.815-1.828.82-.668 2.256-.668.615 0 1.253.111.64.111 1.307.334z" id="path1208"/><path d="M61.863 28.54v1.153q-.674-.322-1.271-.48-.598-.158-1.154-.158-.967 0-1.495.375-.521.375-.521 1.066 0 .58.346.879.351.293 1.324.475l.715.146q1.324.252 1.95.89.634.634.634 1.7 0 1.271-.856 1.928-.85.656-2.496.656-.621 0-1.324-.14-.697-.141-1.447-.417v-1.218q.72.404 1.412.609.691.205 1.36.205 1.013 0 1.564-.398.55-.399.55-1.137 0-.645-.398-1.008-.393-.363-1.295-.545l-.72-.14q-1.325-.264-1.917-.827-.592-.562-.592-1.564 0-1.16.815-1.828.82-.668 2.256-.668.615 0 1.254.111.638.111 1.306.334z" id="path1210"/><path d="M69.24 29.225v6.802h1.43q1.81 0 2.648-.82.844-.82.844-2.59 0-1.758-.844-2.572-.838-.82-2.648-.82zm-1.183-.973h2.431q2.543 0 3.733 1.06 1.19 1.055 1.19 3.305 0 2.262-1.196 3.322Q73.02 37 70.488 37h-2.431z" id="path1212"/><path d="M81.44 32.898q.38.13.738.551.363.422.726 1.16L84.105 37h-1.271l-1.12-2.244q-.433-.879-.843-1.166-.404-.287-1.107-.287h-1.29V37h-1.183v-8.748h2.672q1.5 0 2.238.627t.738 1.892q0 .827-.386 1.372-.381.544-1.114.755zm-2.965-3.673v3.105h1.488q.855 0 1.289-.392.44-.399.44-1.167 0-.767-.44-1.154-.434-.392-1.29-.392z" id="path1214"/><path d="M85.5 28.252h1.19v5.314q0 1.407.51 2.028.509.615 1.652.615 1.136 0 1.646-.615.51-.621.51-2.028v-5.314h1.19v5.46q0 1.712-.85 2.585-.844.873-2.496.873-1.659 0-2.508-.873-.844-.873-.844-2.584z" id="path1216"/><path d="M94.424 28.252h1.763l2.233 5.953 2.244-5.953h1.764V37h-1.155v-7.682l-2.255 6h-1.19l-2.256-6V37h-1.148z" id="path1218"/></g><g aria-label="PITCH" id="text7" font-size="8" font-family="Raleway" text-anchor="middle" text-rendering="geometricPrecision"><path d="M12.465 92.816v2.192h.992q.55 0 .852-.285.3-.285.3-.813 0-.523-.3-.808-.301-.286-.852-.286zm-.79-.648h1.782q.98 0 1.48.445.504.442.504 1.297 0 .863-.504 1.305-.5.441-1.48.441h-.992V98h-.79z" id="path1221"/><path d="M16.504 92.168h.789V98h-.79z" id="path1223"/><path d="M18.055 92.168h4.933v.664h-2.07V98h-.793v-5.168h-2.07z" id="path1225"/><path d="M27.652 92.617v.832q-.398-.37-.851-.554-.45-.184-.957-.184-1 0-1.532.613-.53.61-.53 1.766 0 1.152.53 1.765.532.61 1.532.61.508 0 .957-.184.453-.183.851-.554v.824q-.414.281-.879.422-.46.14-.976.14-1.324 0-2.086-.808-.762-.813-.762-2.215 0-1.406.762-2.215.762-.813 2.086-.813.523 0 .984.141.465.137.871.414z" id="path1227"/><path d="M28.879 92.168h.789v2.39h2.867v-2.39h.79V98h-.79v-2.777h-2.867V98h-.79z" id="path1229"/></g><g aria-label="PITCH" id="text31" font-size="8" font-family="Raleway" text-anchor="middle" text-rendering="geometricPrecision"><path d="M57.465 92.816v2.192h.992q.55 0 .852-.285.3-.285.3-.813 0-.523-.3-.808-.301-.286-.852-.286zm-.79-.648h1.782q.98 0 1.48.445.504.442.504 1.297 0 .863-.504 1.305-.5.441-1.48.441h-.992V98h-.79z" id="path1232"/><path d="M61.504 92.168h.789V98h-.79z" id="path1234"/><path d="M63.055 92.168h4.933v.664h-2.07V98h-.793v-5.168h-2.07z" id="path1236"/><path d="M72.652 92.617v.832q-.398-.37-.851-.554-.45-.184-.957-.184-1 0-1.531.613-.532.61-.532 1.766 0 1.152.531 1.765.532.61 1.532.61.508 0 .957-.184.453-.183.851-.554v.824q-.414.281-.879.422-.46.14-.976.14-1.324 0-2.086-.808-.762-.813-.762-2.215 0-1.406.762-2.215.762-.813 2.086-.813.523 0 .984.141.465.137.871.414z" id="path1238"/><path d="M73.879 92.168h.789v2.39h2.867v-2.39h.79V98h-.79v-2.777h-2.867V98h-.79z" id="path1240"/></g><g aria-label="DECAY" id="text23" font-size="8" font-family="Raleway" text-anchor="middle" text-rendering="geometricPrecision"><path d="M55.8 102.816v4.536h.954q1.207 0 1.766-.547.562-.547.562-1.727 0-1.172-.562-1.715-.56-.547-1.766-.547zm-.788-.648h1.62q1.696 0 2.49.707.792.703.792 2.203 0 1.508-.797 2.215-.797.707-2.484.707h-1.621z" id="path1243"/><path d="M61.168 102.168h3.687v.664h-2.898v1.727h2.777v.664h-2.777v2.113h2.969V108h-3.758z" id="path1245"/><path d="M70.598 102.617v.832q-.399-.37-.852-.554-.45-.184-.957-.184-1 0-1.531.613-.531.61-.531 1.766 0 1.152.53 1.765.532.61 1.532.61.508 0 .957-.184.453-.183.852-.554v.824q-.414.281-.88.422-.46.14-.976.14-1.324 0-2.086-.808-.761-.813-.761-2.215 0-1.406.761-2.215.762-.812 2.086-.812.524 0 .985.14.464.137.87.414z" id="path1247"/><path d="M73.773 102.945l-1.07 2.903h2.145zm-.445-.777h.895L76.445 108h-.82l-.531-1.496h-2.63l-.53 1.496h-.832z" id="path1249"/><path d="M75.867 102.168h.848l1.617 2.398 1.606-2.398h.847l-2.062 3.055V108h-.793v-2.777z" id="path1251"/></g><g aria-label="AMP" id="text25" font-size="8" font-family="Raleway" text-anchor="middle" text-rendering="geometricPrecision"><path d="M106.633 92.945l-1.07 2.903h2.144zm-.445-.777h.894L109.305 98h-.82l-.532-1.496h-2.629L104.793 98h-.832z" id="path1254"/><path d="M110.152 92.168h1.176l1.488 3.969 1.497-3.969h1.175V98h-.77v-5.121l-1.503 4h-.793l-1.504-4V98h-.766z" id="path1256"/><path d="M117.848 92.816v2.192h.992q.55 0 .851-.285.301-.285.301-.813 0-.523-.3-.808-.301-.286-.852-.286zm-.79-.648h1.782q.98 0 1.48.445.504.442.504 1.297 0 .863-.504 1.305-.5.441-1.48.441h-.992V98h-.79z" id="path1258"/></g><g aria-label="DECAY" id="text27" font-size="8" font-family="Raleway" text-anchor="middle" text-rendering="geometricPrecision"><path d="M100.8 102.816v4.536h.954q1.207 0 1.766-.547.562-.547.562-1.727 0-1.172-.562-1.715-.56-.547-1.766-.547zm-.788-.648h1.62q1.696 0 2.49.707.792.703.792 2.203 0 1.508-.797 2.215-.797.707-2.484.707h-1.621z" id="path1261"/><path d="M106.168 102.168h3.687v.664h-2.898v1.727h2.777v.664h-2.777v2.113h2.969V108h-3.758z" id="path1263"/><path d="M115.598 102.617v.832q-.399-.37-.852-.554-.45-.184-.957-.184-1 0-1.531.613-.531.61-.531 1.766 0 1.152.53 1.765.532.61 1.532.61.508 0 .957-.184.453-.183.852-.554v.824q-.414.281-.88.422-.46.14-.976.14-1.324 0-2.086-.808-.761-.813-.761-2.215 0-1.406.761-2.215.762-.812 2.086-.812.524 0 .985.14.464.137.87.414z" id="path1265"/><path d="M118.773 102.945l-1.07 2.903h2.145zm-.445-.777h.895l2.222 5.832h-.82l-.531-1.496h-2.63l-.53 1.496h-.832z" id="path1267"/><path d="M120.867 102.168h.848l1.617 2.398 1.605-2.398h.848l-2.062 3.055V108h-.793v-2.777z" id="path1269"/></g><g aria-label="PITCH" id="text29" font-size="8" font-family="Raleway" text-anchor="middle" text-rendering="geometricPrecision"><path d="M12.465 152.816v2.192h.992q.55 0 .852-.285.3-.286.3-.813 0-.523-.3-.808-.301-.286-.852-.286zm-.79-.648h1.782q.98 0 1.48.445.504.442.504 1.297 0 .863-.504 1.305-.5.441-1.48.441h-.992V158h-.79z" id="path1272"/><path d="M16.504 152.168h.789V158h-.79z" id="path1274"/><path d="M18.055 152.168h4.933v.664h-2.07V158h-.793v-5.168h-2.07z" id="path1276"/><path d="M27.652 152.617v.832q-.398-.37-.851-.554-.45-.184-.957-.184-1 0-1.532.613-.53.61-.53 1.766 0 1.152.53 1.765.532.61 1.532.61.508 0 .957-.184.453-.183.851-.554v.824q-.414.281-.879.422-.46.14-.976.14-1.324 0-2.086-.808-.762-.813-.762-2.215 0-1.406.762-2.215.762-.813 2.086-.813.523 0 .984.141.465.137.871.414z" id="path1278"/><path d="M28.879 152.168h.789v2.39h2.867v-2.39h.79V158h-.79v-2.777h-2.867V158h-.79z" id="path1280"/></g><g aria-label="CV" id="text32" font-size="8" font-family="Raleway" text-anchor="middle" text-rendering="geometricPrecision"><path d="M22.121 162.617v.832q-.398-.37-.851-.554-.45-.184-.957-.184-1 0-1.532.613-.531.61-.531 1.766 0 1.152.531 1.765.532.61 1.532.61.507 0 .957-.184.453-.183.851-.554v.824q-.414.281-.879.422-.46.14-.976.14-1.325 0-2.086-.808-.762-.813-.762-2.215 0-1.406.762-2.215.761-.813 2.086-.813.523 0 .984.141.465.137.871.414z" id="path1283"/><path d="M24.852 168l-2.227-5.832h.824l1.848 4.91 1.851-4.91h.82L25.747 168z" id="path1285"/></g><g aria-label="PITCH" id="text34" font-size="8" font-family="Raleway" text-anchor="middle" text-rendering="geometricPrecision"><path d="M57.465 152.816v2.192h.992q.55 0 .852-.285.3-.286.3-.813 0-.523-.3-.808-.301-.286-.852-.286zm-.79-.648h1.782q.98 0 1.48.445.504.442.504 1.297 0 .863-.504 1.305-.5.441-1.48.441h-.992V158h-.79z" id="path1288"/><path d="M61.504 152.168h.789V158h-.79z" id="path1290"/><path d="M63.055 152.168h4.933v.664h-2.07V158h-.793v-5.168h-2.07z" id="path1292"/><path d="M72.652 152.617v.832q-.398-.37-.851-.554-.45-.184-.957-.184-1 0-1.531.613-.532.61-.532 1.766 0 1.152.531 1.765.532.61 1.532.61.508 0 .957-.184.453-.183.851-.554v.824q-.414.281-.879.422-.46.14-.976.14-1.324 0-2.086-.808-.762-.813-.762-2.215 0-1.406.762-2.215.762-.813 2.086-.813.523 0 .984.141.465.137.871.414z" id="path1294"/><path d="M73.879 152.168h.789v2.39h2.867v-2.39h.79V158h-.79v-2.777h-2.867V158h-.79z" id="path1296"/></g><g aria-label="DECAY CV" id="text36" font-size="8" font-family="Raleway" text-anchor="middle" text-rendering="geometricPrecision"><path d="M48.996 162.816v4.536h.953q1.207 0 1.766-.547.562-.547.562-1.727 0-1.172-.562-1.715-.559-.547-1.766-.547zm-.789-.648h1.621q1.695 0 2.488.707.793.703.793 2.203 0 1.508-.797 2.215-.796.707-2.484.707h-1.621z" id="path1299"/><path d="M54.363 162.168h3.688v.664h-2.899v1.727h2.778v.664h-2.778v2.113h2.97V168h-3.759z" id="path1301"/><path d="M63.793 162.617v.832q-.398-.37-.852-.554-.449-.184-.957-.184-1 0-1.53.613-.532.61-.532 1.766 0 1.152.531 1.765.531.61 1.531.61.508 0 .957-.184.454-.183.852-.554v.824q-.414.281-.879.422-.46.14-.977.14-1.324 0-2.085-.808-.762-.813-.762-2.215 0-1.406.762-2.215.761-.813 2.086-.813.523 0 .984.141.465.137.871.414z" id="path1303"/><path d="M66.969 162.945l-1.07 2.903h2.144zm-.446-.777h.895L69.641 168h-.82l-.532-1.496H65.66L65.13 168h-.832z" id="path1305"/><path d="M69.063 162.168h.847l1.617 2.398 1.606-2.398h.847l-2.062 3.055V168h-.793v-2.777z" id="path1307"/><path d="M81.668 162.617v.832q-.398-.37-.852-.554-.449-.184-.957-.184-1 0-1.53.613-.532.61-.532 1.766 0 1.152.531 1.765.531.61 1.531.61.508 0 .957-.184.454-.183.852-.554v.824q-.414.281-.879.422-.46.14-.977.14-1.324 0-2.085-.808-.762-.813-.762-2.215 0-1.406.762-2.215.761-.813 2.085-.813.524 0 .985.141.465.137.871.414z" id="path1309"/><path d="M84.398 168l-2.226-5.832h.824l1.848 4.91 1.851-4.91h.82L85.294 168z" id="path1311"/></g><g aria-label="AMP" id="text38" font-size="8" font-family="Raleway" text-anchor="middle" text-rendering="geometricPrecision"><path d="M106.633 152.945l-1.07 2.903h2.144zm-.445-.777h.894l2.223 5.832h-.82l-.532-1.496h-2.629l-.531 1.496h-.832z" id="path1314"/><path d="M110.152 152.168h1.176l1.488 3.969 1.497-3.969h1.175V158h-.77v-5.121l-1.503 4h-.793l-1.504-4V158h-.766z" id="path1316"/><path d="M117.848 152.816v2.192h.992q.55 0 .851-.285.301-.286.301-.813 0-.523-.3-.808-.301-.286-.852-.286zm-.79-.648h1.782q.98 0 1.48.445.504.442.504 1.297 0 .863-.504 1.305-.5.441-1.48.441h-.992V158h-.79z" id="path1318"/></g><g aria-label="DECAY CV" id="text40" font-size="8" font-family="Raleway" text-anchor="middle" text-rendering="geometricPrecision"><path d="M93.996 162.816v4.536h.953q1.207 0 1.766-.547.562-.547.562-1.727 0-1.172-.562-1.715-.559-.547-1.766-.547zm-.789-.648h1.621q1.695 0 2.488.707.793.703.793 2.203 0 1.508-.796 2.215-.797.707-2.485.707h-1.621z" id="path1321"/><path d="M99.363 162.168h3.688v.664h-2.899v1.727h2.778v.664h-2.778v2.113h2.97V168h-3.759z" id="path1323"/><path d="M108.793 162.617v.832q-.398-.37-.852-.554-.449-.184-.957-.184-1 0-1.53.613-.532.61-.532 1.766 0 1.152.531 1.765.531.61 1.531.61.508 0 .957-.184.454-.183.852-.554v.824q-.414.281-.879.422-.46.14-.977.14-1.324 0-2.085-.808-.762-.813-.762-2.215 0-1.406.762-2.215.761-.813 2.085-.813.524 0 .985.141.465.137.871.414z" id="path1325"/><path d="M111.969 162.945l-1.07 2.903h2.144zm-.446-.777h.895l2.223 5.832h-.82l-.532-1.496h-2.629L110.13 168h-.832z" id="path1327"/><path d="M114.063 162.168h.847l1.617 2.398 1.606-2.398h.847l-2.062 3.055V168h-.793v-2.777z" id="path1329"/><path d="M126.668 162.617v.832q-.398-.37-.852-.554-.449-.184-.957-.184-1 0-1.53.613-.532.61-.532 1.766 0 1.152.531 1.765.531.61 1.531.61.508 0 .957-.184.454-.183.852-.554v.824q-.414.281-.879.422-.46.14-.977.14-1.324 0-2.085-.808-.762-.813-.762-2.215 0-1.406.762-2.215.761-.813 2.085-.813.524 0 .985.141.465.137.871.414z" id="path1331"/><path d="M129.398 168l-2.226-5.832h.824l1.848 4.91 1.851-4.91h.82L130.294 168z" id="path1333"/></g><g aria-label="SUB LVL" id="text42" font-size="8" font-family="Raleway" text-anchor="middle" text-rendering="geometricPrecision"><path d="M10.547 212.36v.769q-.45-.215-.848-.32-.398-.106-.77-.106-.644 0-.995.25-.348.25-.348.711 0 .387.23.586.235.195.883.316l.477.098q.883.168 1.3.594.422.422.422 1.133 0 .847-.57 1.285-.566.437-1.664.437-.414 0-.883-.093-.465-.094-.965-.278v-.812q.48.27.942.406.46.137.906.137.676 0 1.043-.266.367-.265.367-.758 0-.43-.265-.672-.262-.242-.864-.363l-.48-.094q-.883-.175-1.277-.55-.395-.375-.395-1.043 0-.774.543-1.22.547-.444 1.504-.444.41 0 .836.074t.87.222z" id="path1336"/><path d="M12.04 212.168h.792v3.543q0 .937.34 1.351.34.41 1.101.41.758 0 1.098-.41.34-.414.34-1.351v-3.543h.793v3.64q0 1.141-.567 1.723-.562.582-1.664.582-1.105 0-1.671-.582-.563-.582-.563-1.722z" id="path1338"/><path d="M18.777 215.215v2.137h1.266q.637 0 .941-.262.309-.266.309-.809 0-.547-.309-.804-.304-.262-.941-.262zm0-2.399v1.758h1.168q.578 0 .86-.215.285-.218.285-.664 0-.441-.285-.66-.282-.219-.86-.219zm-.789-.648h2.016q.902 0 1.39.375.489.375.489 1.066 0 .536-.25.852-.25.316-.735.394.582.125.903.524.324.394.324.988 0 .781-.531 1.207-.532.426-1.512.426h-2.094z" id="path1340"/><path d="M26.02 212.168h.789v5.168h2.84V218h-3.63z" id="path1342"/><path d="M31.102 218l-2.227-5.832h.824l1.848 4.91 1.851-4.91h.82L31.997 218z" id="path1344"/><path d="M35.066 212.168h.79v5.168h2.84V218h-3.63z" id="path1346"/></g><g aria-label="DRIVE" id="text44" font-size="8" font-family="Raleway" text-anchor="middle" text-rendering="geometricPrecision"><path d="M56.77 212.816v4.536h.953q1.207 0 1.765-.547.563-.547.563-1.727 0-1.172-.563-1.715-.558-.547-1.765-.547zm-.79-.648h1.622q1.695 0 2.488.707.793.703.793 2.203 0 1.508-.797 2.215-.797.707-2.484.707H55.98z" id="path1349"/><path d="M64.902 215.266q.254.086.493.367.242.281.484.773l.8 1.594h-.847l-.746-1.496q-.29-.586-.563-.777-.27-.192-.738-.192h-.86V218h-.788v-5.832h1.781q1 0 1.492.418t.492 1.262q0 .55-.257.914-.254.363-.743.504zm-1.976-2.45v2.07h.992q.57 0 .86-.261.292-.266.292-.777 0-.512-.293-.77-.289-.262-.859-.262z" id="path1351"/><path d="M67.7 212.168h.788V218H67.7z" id="path1353"/><path d="M71.563 218l-2.227-5.832h.824l1.848 4.91 1.851-4.91h.82L72.458 218z" id="path1355"/><path d="M75.527 212.168h3.688v.664h-2.899v1.727h2.778v.664h-2.778v2.113h2.97V218h-3.759z" id="path1357"/></g><g aria-label="CLICK LVL" id="text46" font-size="8" font-family="Raleway" text-anchor="middle" text-rendering="geometricPrecision"><path d="M98.004 212.617v.832q-.399-.37-.852-.554-.449-.184-.957-.184-1 0-1.53.613-.532.61-.532 1.766 0 1.152.531 1.765.531.61 1.531.61.508 0 .957-.184.453-.183.852-.554v.824q-.414.281-.879.422-.46.14-.977.14-1.324 0-2.085-.808-.762-.813-.762-2.215 0-1.406.761-2.215.762-.813 2.086-.813.524 0 .985.141.465.137.87.414z" id="path1360"/><path d="M99.23 212.168h.79v5.168h2.84V218h-3.63z" id="path1362"/><path d="M103.684 212.168h.789V218h-.79z" id="path1364"/><path d="M110.41 212.617v.832q-.398-.37-.851-.554-.45-.184-.957-.184-1 0-1.532.613-.53.61-.53 1.766 0 1.152.53 1.765.532.61 1.532.61.507 0 .957-.184.453-.183.851-.554v.824q-.414.281-.879.422-.46.14-.976.14-1.325 0-2.086-.808-.762-.813-.762-2.215 0-1.406.762-2.215.761-.813 2.086-.813.523 0 .984.141.465.137.871.414z" id="path1366"/><path d="M111.637 212.168h.789v2.465l2.617-2.465h1.016l-2.895 2.719 3.102 3.113h-1.04l-2.8-2.809V218h-.79z" id="path1368"/><path d="M119.434 212.168h.789v5.168h2.84V218h-3.63z" id="path1370"/><path d="M124.516 218l-2.227-5.832h.824l1.848 4.91 1.852-4.91h.82L125.41 218z" id="path1372"/><path d="M128.48 212.168h.79v5.168h2.84V218h-3.63z" id="path1374"/></g><g aria-label="-2" id="text48" font-size="6" font-family="Raleway" text-rendering="geometricPrecision"><path d="M39.043 236.116h1.58v.48h-1.58z" id="path1377"/><path d="M42.07 237.502h2.065V238h-2.778v-.498q.337-.349.917-.935.583-.588.733-.758.284-.32.395-.54.115-.222.115-.436 0-.349-.246-.568-.244-.22-.636-.22-.279 0-.59.097-.307.096-.658.293v-.598q.357-.144.668-.217.31-.073.568-.073.68 0 1.084.34t.404.908q0 .27-.102.513-.1.24-.366.568-.074.085-.466.492-.393.405-1.108 1.134z" id="path1379"/></g><g aria-label="-1" id="text50" font-size="6" font-family="Raleway" text-rendering="geometricPrecision"><path d="M39.043 246.116h1.58v.48h-1.58z" id="path1382"/><path d="M41.662 247.502h.967v-3.337l-1.052.211v-.54l1.046-.21h.592v3.876h.967V248h-2.52z" id="path1384"/></g><g aria-label="0" id="text52" font-size="6" font-family="Raleway" text-rendering="geometricPrecision"><path d="M39.043 256.116h1.58v.48h-1.58z" id="path1387"/><path d="M42.825 254.016q-.457 0-.688.45-.229.449-.229 1.351 0 .9.229 1.351.231.448.688.448.46 0 .689-.448.231-.451.231-1.35 0-.903-.231-1.351-.229-.451-.689-.451zm0-.47q.736 0 1.122.584.39.58.39 1.687 0 1.105-.39 1.688-.386.58-1.122.58-.735 0-1.125-.58-.387-.583-.387-1.688 0-1.107.387-1.687.39-.583 1.125-.583z" id="path1389"/></g><g aria-label="-SIN" id="text54" font-size="6" font-family="Raleway" text-rendering="geometricPrecision"><path d="M106.543 242.116h1.58v.48h-1.58z" id="path1392"/><path d="M111.629 239.77v.577q-.337-.161-.636-.24-.299-.08-.577-.08-.483 0-.747.188-.26.187-.26.533 0 .29.172.44.176.146.662.237l.358.073q.662.126.975.445.317.317.317.85 0 .636-.428.964-.425.328-1.248.328-.31 0-.662-.07-.349-.07-.724-.208v-.61q.36.202.706.305.346.103.68.103.507 0 .782-.2.275-.199.275-.568 0-.322-.199-.504-.196-.182-.647-.272l-.36-.07q-.663-.133-.959-.414-.296-.281-.296-.782 0-.58.408-.914.41-.334 1.128-.334.307 0 .627.056.319.055.653.167z" id="path1394"/><path d="M112.815 239.626h.592V244h-.592z" id="path1396"/><path d="M114.585 239.626h.797l1.94 3.66v-3.66h.574V244h-.797l-1.94-3.66V244h-.574z" id="path1398"/></g><g aria-label="-SQR" id="text56" font-size="6" font-family="Raleway" text-rendering="geometricPrecision"><path d="M106.543 252.116h1.58v.48h-1.58z" id="path1401"/><path d="M111.629 249.77v.577q-.337-.161-.636-.24-.299-.08-.577-.08-.483 0-.747.188-.26.187-.26.533 0 .29.172.44.176.146.662.237l.358.073q.662.126.975.445.317.317.317.85 0 .636-.428.964-.425.328-1.248.328-.31 0-.662-.07-.349-.07-.724-.208v-.61q.36.202.706.305.346.103.68.103.507 0 .782-.2.275-.199.275-.568 0-.322-.199-.504-.196-.182-.647-.272l-.36-.07q-.663-.133-.959-.414-.296-.281-.296-.782 0-.58.408-.914.41-.334 1.128-.334.307 0 .627.056.319.055.653.167z" id="path1403"/><path d="M114.59 250.027q-.644 0-1.025.48-.378.481-.378 1.31 0 .827.378 1.307.381.48 1.026.48.644 0 1.02-.48.377-.48.377-1.307 0-.829-.378-1.31-.375-.48-1.02-.48zm.83 3.894l.78.852h-.716l-.647-.7-.15.01-.096.002q-.923 0-1.477-.615-.55-.618-.55-1.652 0-1.037.55-1.653.554-.618 1.477-.618.92 0 1.47.618.551.616.551 1.653 0 .761-.307 1.303-.305.542-.885.8z" id="path1405"/><path d="M119.612 251.95q.19.064.37.275.181.21.363.58l.6 1.195h-.635l-.56-1.122q-.217-.44-.422-.583-.202-.144-.554-.144h-.644V254h-.592v-4.374h1.336q.75 0 1.12.313.368.314.368.947 0 .413-.193.685-.19.273-.557.378zm-1.482-1.838v1.553h.744q.428 0 .645-.196.22-.2.22-.583 0-.384-.22-.577-.217-.197-.645-.197z" id="path1407"/></g><g aria-label="SUB OCT" id="text58" font-size="8" font-family="Raleway" text-anchor="middle" text-rendering="geometricPrecision"><path d="M20.156 272.36v.769q-.449-.215-.847-.32-.399-.106-.77-.106-.644 0-.996.25-.348.25-.348.711 0 .387.23.586.235.195.884.316l.476.098q.883.168 1.3.594.423.422.423 1.133 0 .847-.57 1.285-.567.437-1.665.437-.414 0-.882-.093-.465-.094-.965-.278v-.812q.48.27.941.406.461.137.906.137.676 0 1.043-.266.368-.266.368-.758 0-.43-.266-.672-.262-.242-.863-.363l-.48-.094q-.884-.175-1.278-.55-.395-.375-.395-1.043 0-.774.543-1.22.547-.444 1.504-.444.41 0 .836.074t.871.222z" id="path1410"/><path d="M21.648 272.168h.793v3.543q0 .937.34 1.352.34.41 1.102.41.758 0 1.097-.41.34-.415.34-1.352v-3.543h.793v3.64q0 1.141-.566 1.723-.563.582-1.664.582-1.106 0-1.672-.582-.563-.582-.563-1.722z" id="path1412"/><path d="M28.387 275.215v2.137h1.265q.637 0 .942-.262.308-.266.308-.809 0-.547-.308-.804-.305-.262-.942-.262zm0-2.399v1.758h1.168q.578 0 .86-.215.284-.218.284-.664 0-.441-.285-.66-.281-.219-.86-.219zm-.79-.648h2.016q.903 0 1.39.375.49.375.49 1.066 0 .536-.25.852-.25.316-.735.394.582.125.902.524.324.394.324.988 0 .781-.53 1.207-.532.426-1.513.426h-2.093z" id="path1414"/><path d="M37.996 272.703q-.86 0-1.367.64-.504.641-.504 1.747 0 1.101.504 1.742.508.64 1.367.64.86 0 1.36-.64.503-.64.503-1.742 0-1.106-.504-1.746-.5-.64-1.359-.64zm0-.64q1.227 0 1.961.824.734.82.734 2.203 0 1.379-.734 2.203-.734.82-1.96.82-1.231 0-1.97-.82-.734-.82-.734-2.203t.734-2.203q.739-.824 1.97-.824z" id="path1416"/><path d="M46.293 272.617v.832q-.398-.37-.852-.554-.449-.184-.957-.184-1 0-1.53.613-.532.61-.532 1.766 0 1.152.531 1.765.531.61 1.531.61.508 0 .957-.184.454-.183.852-.554v.824q-.414.281-.879.422-.46.14-.977.14-1.324 0-2.085-.808-.762-.813-.762-2.215 0-1.406.762-2.215.761-.812 2.086-.812.523 0 .984.14.465.137.871.414z" id="path1418"/><path d="M46.71 272.168h4.935v.664h-2.07V278h-.794v-5.168h-2.07z" id="path1420"/></g><g aria-label="WAVE" id="text60" font-size="8" font-family="Raleway" text-anchor="middle" text-rendering="geometricPrecision"><path d="M90.031 272.168h.797l1.227 4.93 1.222-4.93h.887l1.227 4.93 1.222-4.93h.801L95.95 278h-.992l-1.23-5.063L92.484 278h-.992z" id="path1423"/><path d="M99.969 272.945l-1.07 2.903h2.144zm-.446-.777h.895l2.223 5.832h-.82l-.532-1.496H98.66L98.13 278h-.832z" id="path1425"/><path d="M104.484 278l-2.226-5.832h.824l1.848 4.91 1.851-4.91h.82L105.38 278z" id="path1427"/><path d="M108.457 272.168h3.688v.664h-2.899v1.727h2.777v.664h-2.777v2.113h2.969V278h-3.758z" id="path1429"/></g><g aria-label="GATE IN" id="text62" font-size="8" font-family="Raleway" text-anchor="middle" text-rendering="geometricPrecision"><path d="M22.566 337.168v-1.566h-1.289v-.649h2.07v2.504q-.456.324-1.007.492-.55.164-1.176.164-1.367 0-2.14-.797-.77-.8-.77-2.226 0-1.43.77-2.227.773-.8 2.14-.8.57 0 1.082.14.516.14.95.414v.84q-.438-.371-.93-.559-.493-.187-1.036-.187-1.07 0-1.609.598-.535.597-.535 1.78 0 1.18.535 1.778.54.598 1.61.598.417 0 .746-.07.328-.075.59-.227z" id="path1432"/><path d="M26.742 332.945l-1.07 2.903h2.144zm-.445-.777h.894L29.414 338h-.82l-.532-1.496h-2.628L24.902 338h-.832z" id="path1434"/><path d="M28.828 332.168h4.934v.664h-2.07V338h-.794v-5.168h-2.07z" id="path1436"/><path d="M34.527 332.168h3.688v.664h-2.899v1.727h2.778v.664h-2.778v2.113h2.97V338h-3.759z" id="path1438"/><path d="M42.137 332.168h.789V338h-.79z" id="path1440"/><path d="M44.496 332.168h1.063l2.586 4.879v-4.879h.765V338h-1.062l-2.586-4.879V338h-.766z" id="path1442"/></g><g aria-label="OUT" id="text64" font-size="8" font-family="Raleway" text-anchor="middle" text-rendering="geometricPrecision"><path d="M95.879 332.703q-.86 0-1.367.64-.504.641-.504 1.747 0 1.101.504 1.742.508.64 1.367.64.86 0 1.36-.64.503-.64.503-1.742 0-1.106-.504-1.746-.5-.64-1.36-.64zm0-.64q1.226 0 1.96.824.735.82.735 2.203 0 1.379-.734 2.203-.735.82-1.961.82-1.23 0-1.969-.82-.734-.82-.734-2.203t.734-2.203q.738-.824 1.969-.824z" id="path1445"/><path d="M99.719 332.168h.793v3.543q0 .937.34 1.352.34.41 1.101.41.758 0 1.098-.41.34-.415.34-1.352v-3.543h.793v3.64q0 1.141-.567 1.723-.562.582-1.664.582-1.105 0-1.672-.582-.562-.582-.562-1.722z" id="path1447"/><path d="M104.86 332.168h4.933v.664h-2.07V338h-.793v-5.168h-2.07z" id="path1449"/></g><g aria-label="dk" style="-inkscape-font-specification:'Circuit board'" id="text850" font-weight="400" font-size="32" font-family="Circuit board" letter-spacing="0" word-spacing="0" text-anchor="middle"><path d="M67.239 373.536q-.097.384-.417.576-.32.224-.671.16-.512-.096-.672-.64l-2.304-1.152.032-24.224 1.696-1.44q-.033-.128 0-.256.063-.384.383-.576.32-.192.705-.128.351.064.575.384.224.32.16.704-.096.384-.416.576-.32.192-.672.128h-.064l-1.407 1.184v22.752l1.823.928q.32-.096.545-.064.351.064.543.384.224.32.16.704zm-4.353-28.864q-.096.352-.352.544l-.031 23.808-2.048 2.88h-7.36v-16.192h4.608q.32-.512.96-.384.352.064.576.384.224.32.16.704-.097.384-.417.576-.32.192-.671.128-.32-.032-.48-.256h-3.744l-.032 13.888 5.984-.032 1.344-1.856.064-23.648q-.48-.384-.384-.928.096-.384.416-.576.32-.192.704-.128.352.064.544.384.224.32.16.704zm-1.568 2.368q-.095.352-.383.576v10.816l-5.345-.064v10.592l2.848.032q.288-.448.928-.352.352.064.544.384.224.32.16.704-.096.384-.416.576-.32.192-.672.128-.352-.096-.544-.384l-3.808.032.064-12.704 5.152-.064-.063-9.76q-.385-.352-.289-.896.097-.384.385-.576.32-.192.704-.128.352.064.576.384.224.32.16.704zm4.865-.224q.063-.384-.289-.448-.383-.064-.447.288-.16.448.288.48.352.064.448-.32zm-3.809-2.24q.065-.416-.32-.48-.415-.064-.447.32-.096.384.288.448.32.064.48-.288zm-1.6 2.368q.033-.416-.287-.48-.416-.064-.448.32-.096.384.288.448.352.064.448-.288zm-1.887 9.376q.064-.416-.32-.48-.416-.064-.448.32-.096.384.288.448.32.064.48-.288zm7.84 17.12q.063-.384-.289-.448-.447-.032-.48.288-.063.16.033.288.127.16.287.192.352.064.448-.32zm-7.169-3.84q.065-.384-.287-.448-.448-.032-.48.288-.064.16.032.32.128.128.288.16.352.064.448-.32z" style="-inkscape-font-specification:'Circuit board'" id="path1452"/><path d="M80.136 360.512q0 .256-.192.48-.16.192-.448.224l-1.888 3.168H74.024l-.032-11.264q-.16-.16-.256-.416-.064-.288.096-.512.192-.256.48-.32.32-.064.544.096.256.16.32.448.096.48-.352.768v10.4H77.192l1.6-2.72q-.032-.064-.064-.16t-.032-.192q0-.288.224-.48.224-.224.512-.224.32 0 .512.224.192.192.192.48zm-6.336-9.248q0 .352-.32.576v21.408q.352.256.256.736-.064.288-.288.448-.224.16-.544.096-.288-.064-.48-.32-.16-.224-.096-.512.16-.352.32-.48l.032-21.376q-.288-.224-.288-.576 0-.288.192-.48.224-.224.512-.224.32 0 .512.224.192.192.192.48zm9.088 20.192q0 .288-.192.512-.192.192-.512.192-.288 0-.512-.192-.192-.224-.192-.512 0-.096.032-.192t.064-.16l-4.384-5.472H74.824v6.304q.448.288.352.768-.064.288-.32.448-.224.16-.544.096-.288-.064-.48-.32-.16-.224-.096-.512.096-.256.256-.416l.032-7.168 1.344-.032h2.24l4.672 5.952q.288.032.448.256.16.192.16.448zm-10.432 1.184q-.064.288-.32.448-.224.16-.544.096-.288-.064-.448-.32-.16-.256-.096-.544.096-.32.32-.448l.032-17.536-1.504-1.248q-.064 0-.16.032-.064 0-.128-.032-.288-.064-.448-.32-.16-.256-.096-.544.064-.288.288-.448.256-.16.544-.096.576.16.576.672l1.728 1.504-.032 18.048q.384.288.288.736zm2.304-20.128q-.032-.32-.352-.256-.32.032-.256.384.096.288.384.224.384-.064.224-.352zm-1.344-1.152q.16-.288-.256-.352-.256-.064-.352.224-.064.32.224.352.352.064.384-.224zm6.304 9.088q-.032-.288-.352-.224-.32.032-.256.352.032.288.384.224.384-.064.224-.352zm-9.664-8q.128-.32-.224-.384-.256-.064-.384.256-.064.32.256.352.32.064.352-.224zm12.448 19.072q.064-.128-.032-.224-.064-.128-.224-.16-.32-.064-.352.256-.064.32.224.352.352.064.384-.224zm-7.744 1.088q.16-.288-.224-.352-.288-.064-.384.224-.064.352.256.384.32.064.352-.256zm-2.72-.064q.16-.288-.224-.352-.256-.064-.352.224-.064.32.224.352.32.064.352-.224zm1.28 1.376q.064-.128-.032-.256-.064-.096-.224-.128-.192-.032-.352.256-.064.32.256.352.32.064.352-.224z" style="-inkscape-font-specification:'Circuit board'" id="path1454"/></g><path d="M22.5 70h16" id="SvgjsLine1007" stroke="#000" stroke-width=".75"/><path d="M22.5 70l14.915 1.594" id="SvgjsLine1008" stroke="#000" stroke-width=".75"/><path d="M22.5 70l14.661 3.17" id="SvgjsLine1009" stroke="#000" stroke-width=".75"/><path d="M22.5 70l14.241 4.711" id="SvgjsLine1010" stroke="#000" stroke-width=".75"/><path d="M22.5 70l13.66 6.198" id="SvgjsLine1011" stroke="#000" stroke-width=".75"/><path d="M22.5 70l13.785 8.123" id="SvgjsLine1012" stroke="#000" stroke-width=".75"/><path d="M22.5 70l12.04 8.946" id="SvgjsLine1013" stroke="#000" stroke-width=".75"/><path d="M22.5 70l11.022 10.175" id="SvgjsLine1014" stroke="#000" stroke-width=".75"/><path d="M22.5 70l9.878 11.289" id="SvgjsLine1015" stroke="#000" stroke-width=".75"/><path d="M22.5 70l8.622 12.275" id="SvgjsLine1016" stroke="#000" stroke-width=".75"/><path d="M22.5 70l7.753 13.996" id="SvgjsLine1017" stroke="#000" stroke-width=".75"/><path d="M22.5 70l-8.487 13.564" id="SvgjsLine1018" stroke="#000" stroke-width=".75"/><path d="M22.5 70l-9.263 11.798" id="SvgjsLine1019" stroke="#000" stroke-width=".75"/><path d="M22.5 70L12.036 80.747" id="SvgjsLine1020" stroke="#000" stroke-width=".75"/><path d="M22.5 70l-11.548 9.574" id="SvgjsLine1021" stroke="#000" stroke-width=".75"/><path d="M22.5 70L10 78.292" id="SvgjsLine1022" stroke="#000" stroke-width=".75"/><path d="M22.5 70L8.302 77.377" id="SvgjsLine1023" stroke="#000" stroke-width=".75"/><path d="M22.5 70L8.53 75.462" id="SvgjsLine1024" stroke="#000" stroke-width=".75"/><path d="M22.5 70L8.028 73.947" id="SvgjsLine1025" stroke="#000" stroke-width=".75"/><path d="M22.5 70L7.691 72.386" id="SvgjsLine1026" stroke="#000" stroke-width=".75"/><path d="M22.5 70l-14.979.798" id="SvgjsLine1027" stroke="#000" stroke-width=".75"/><path d="M22.5 70l-15.977-.852" id="SvgjsLine1028" stroke="#000" stroke-width=".75"/><path d="M22.5 70L7.691 67.614" id="SvgjsLine1029" stroke="#000" stroke-width=".75"/><path d="M22.5 70L8.028 66.053" id="SvgjsLine1030" stroke="#000" stroke-width=".75"/><path d="M22.5 70L8.53 64.538" id="SvgjsLine1031" stroke="#000" stroke-width=".75"/><path d="M22.5 70L9.19 63.084" id="SvgjsLine1032" stroke="#000" stroke-width=".75"/><path d="M22.5 70L9.167 61.155" id="SvgjsLine1033" stroke="#000" stroke-width=".75"/><path d="M22.5 70l-11.548-9.574" id="SvgjsLine1034" stroke="#000" stroke-width=".75"/><path d="M22.5 70L12.036 59.253" id="SvgjsLine1035" stroke="#000" stroke-width=".75"/><path d="M22.5 70l-9.263-11.798" id="SvgjsLine1036" stroke="#000" stroke-width=".75"/><path d="M22.5 70l-7.956-12.716" id="SvgjsLine1037" stroke="#000" stroke-width=".75"/><path d="M22.5 70l-6.997-14.389" id="SvgjsLine1038" stroke="#000" stroke-width=".75"/><path d="M22.5 70l-5.089-14.11" id="SvgjsLine1039" stroke="#000" stroke-width=".75"/><path d="M22.5 70l-3.56-14.571" id="SvgjsLine1040" stroke="#000" stroke-width=".75"/><path d="M22.5 70l-1.99-14.867" id="SvgjsLine1041" stroke="#000" stroke-width=".75"/><path d="M22.5 70l-.4-14.995" id="SvgjsLine1042" stroke="#000" stroke-width=".75"/><path d="M22.5 70l1.277-15.949" id="SvgjsLine1043" stroke="#000" stroke-width=".75"/><path d="M22.5 70l2.78-14.74" id="SvgjsLine1044" stroke="#000" stroke-width=".75"/><path d="M22.5 70l4.33-14.361" id="SvgjsLine1045" stroke="#000" stroke-width=".75"/><path d="M22.5 70l5.832-13.82" id="SvgjsLine1046" stroke="#000" stroke-width=".75"/><path d="M22.5 70l7.268-13.121" id="SvgjsLine1047" stroke="#000" stroke-width=".75"/><path d="M22.5 70l9.197-13.093" id="SvgjsLine1048" stroke="#000" stroke-width=".75"/><path d="M22.5 70l9.878-11.289" id="SvgjsLine1049" stroke="#000" stroke-width=".75"/><path d="M22.5 70l11.022-10.175" id="SvgjsLine1050" stroke="#000" stroke-width=".75"/><path d="M22.5 70l12.04-8.946" id="SvgjsLine1051" stroke="#000" stroke-width=".75"/><path d="M22.5 70l12.923-7.615" id="SvgjsLine1052" stroke="#000" stroke-width=".75"/><path d="M22.5 70l14.57-6.611" id="SvgjsLine1053" stroke="#000" stroke-width=".75"/><path d="M22.5 70l14.241-4.711" id="SvgjsLine1054" stroke="#000" stroke-width=".75"/><path d="M22.5 70l14.661-3.17" id="SvgjsLine1055" stroke="#000" stroke-width=".75"/><path d="M22.5 70l14.915-1.594" id="SvgjsLine1056" stroke="#000" stroke-width=".75"/><path d="M22.5 70h15" id="SvgjsLine1057" stroke="#000" stroke-width=".75"/><path d="M35.5 70a13 13 0 0 1-13 13 13 13 0 0 1-13-13 13 13 0 0 1 13-13 13 13 0 0 1 13 13z" id="SvgjsCircle1058" fill="#888" stroke="#111" stroke-width=".75"/><path d="M67.5 70h16" id="SvgjsLine1059" stroke="#000" stroke-width=".75"/><path d="M67.5 70l14.915 1.594" id="SvgjsLine1060" stroke="#000" stroke-width=".75"/><path d="M67.5 70l14.661 3.17" id="SvgjsLine1061" stroke="#000" stroke-width=".75"/><path d="M67.5 70l14.241 4.711" id="SvgjsLine1062" stroke="#000" stroke-width=".75"/><path d="M67.5 70l13.66 6.198" id="SvgjsLine1063" stroke="#000" stroke-width=".75"/><path d="M67.5 70l13.785 8.123" id="SvgjsLine1064" stroke="#000" stroke-width=".75"/><path d="M67.5 70l12.04 8.946" id="SvgjsLine1065" stroke="#000" stroke-width=".75"/><path d="M67.5 70l11.022 10.175" id="SvgjsLine1066" stroke="#000" stroke-width=".75"/><path d="M67.5 70l9.878 11.289" id="SvgjsLine1067" stroke="#000" stroke-width=".75"/><path d="M67.5 70l8.622 12.275" id="SvgjsLine1068" stroke="#000" stroke-width=".75"/><path d="M67.5 70l7.753 13.996" id="SvgjsLine1069" stroke="#000" stroke-width=".75"/><path d="M67.5 70l-8.487 13.564" id="SvgjsLine1070" stroke="#000" stroke-width=".75"/><path d="M67.5 70l-9.263 11.798" id="SvgjsLine1071" stroke="#000" stroke-width=".75"/><path d="M67.5 70L57.036 80.747" id="SvgjsLine1072" stroke="#000" stroke-width=".75"/><path d="M67.5 70l-11.548 9.574" id="SvgjsLine1073" stroke="#000" stroke-width=".75"/><path d="M67.5 70L55 78.292" id="SvgjsLine1074" stroke="#000" stroke-width=".75"/><path d="M67.5 70l-14.198 7.377" id="SvgjsLine1075" stroke="#000" stroke-width=".75"/><path d="M67.5 70l-13.97 5.462" id="SvgjsLine1076" stroke="#000" stroke-width=".75"/><path d="M67.5 70l-14.472 3.947" id="SvgjsLine1077" stroke="#000" stroke-width=".75"/><path d="M67.5 70l-14.809 2.386" id="SvgjsLine1078" stroke="#000" stroke-width=".75"/><path d="M67.5 70l-14.979.798" id="SvgjsLine1079" stroke="#000" stroke-width=".75"/><path d="M67.5 70l-15.977-.852" id="SvgjsLine1080" stroke="#000" stroke-width=".75"/><path d="M67.5 70l-14.809-2.386" id="SvgjsLine1081" stroke="#000" stroke-width=".75"/><path d="M67.5 70l-14.472-3.947" id="SvgjsLine1082" stroke="#000" stroke-width=".75"/><path d="M67.5 70l-13.97-5.462" id="SvgjsLine1083" stroke="#000" stroke-width=".75"/><path d="M67.5 70l-13.31-6.916" id="SvgjsLine1084" stroke="#000" stroke-width=".75"/><path d="M67.5 70l-13.333-8.845" id="SvgjsLine1085" stroke="#000" stroke-width=".75"/><path d="M67.5 70l-11.548-9.574" id="SvgjsLine1086" stroke="#000" stroke-width=".75"/><path d="M67.5 70L57.036 59.253" id="SvgjsLine1087" stroke="#000" stroke-width=".75"/><path d="M67.5 70l-9.263-11.798" id="SvgjsLine1088" stroke="#000" stroke-width=".75"/><path d="M67.5 70l-7.956-12.716" id="SvgjsLine1089" stroke="#000" stroke-width=".75"/><path d="M67.5 70l-6.997-14.389" id="SvgjsLine1090" stroke="#000" stroke-width=".75"/><path d="M67.5 70l-5.089-14.11" id="SvgjsLine1091" stroke="#000" stroke-width=".75"/><path d="M67.5 70l-3.56-14.571" id="SvgjsLine1092" stroke="#000" stroke-width=".75"/><path d="M67.5 70l-1.99-14.867" id="SvgjsLine1093" stroke="#000" stroke-width=".75"/><path d="M67.5 70l-.4-14.995" id="SvgjsLine1094" stroke="#000" stroke-width=".75"/><path d="M67.5 70l1.277-15.949" id="SvgjsLine1095" stroke="#000" stroke-width=".75"/><path d="M67.5 70l2.78-14.74" id="SvgjsLine1096" stroke="#000" stroke-width=".75"/><path d="M67.5 70l4.33-14.361" id="SvgjsLine1097" stroke="#000" stroke-width=".75"/><path d="M67.5 70l5.832-13.82" id="SvgjsLine1098" stroke="#000" stroke-width=".75"/><path d="M67.5 70l7.268-13.121" id="SvgjsLine1099" stroke="#000" stroke-width=".75"/><path d="M67.5 70l9.197-13.093" id="SvgjsLine1100" stroke="#000" stroke-width=".75"/><path d="M67.5 70l9.878-11.289" id="SvgjsLine1101" stroke="#000" stroke-width=".75"/><path d="M67.5 70l11.022-10.175" id="SvgjsLine1102" stroke="#000" stroke-width=".75"/><path d="M67.5 70l12.04-8.946" id="SvgjsLine1103" stroke="#000" stroke-width=".75"/><path d="M67.5 70l12.923-7.615" id="SvgjsLine1104" stroke="#000" stroke-width=".75"/><path d="M67.5 70l14.57-6.611" id="SvgjsLine1105" stroke="#000" stroke-width=".75"/><path d="M67.5 70l14.241-4.711" id="SvgjsLine1106" stroke="#000" stroke-width=".75"/><path d="M67.5 70l14.661-3.17" id="SvgjsLine1107" stroke="#000" stroke-width=".75"/><path d="M67.5 70l14.915-1.594" id="SvgjsLine1108" stroke="#000" stroke-width=".75"/><path d="M67.5 70h15" id="SvgjsLine1109" stroke="#000" stroke-width=".75"/><path d="M80.5 70a13 13 0 0 1-13 13 13 13 0 0 1-13-13 13 13 0 0 1 13-13 13 13 0 0 1 13 13z" id="SvgjsCircle1110" fill="#888" stroke="#111" stroke-width=".75"/><path d="M112.5 70h16" id="SvgjsLine1111" stroke="#000" stroke-width=".75"/><path d="M112.5 70l14.915 1.594" id="SvgjsLine1112" stroke="#000" stroke-width=".75"/><path d="M112.5 70l14.661 3.17" id="SvgjsLine1113" stroke="#000" stroke-width=".75"/><path d="M112.5 70l14.241 4.711" id="SvgjsLine1114" stroke="#000" stroke-width=".75"/><path d="M112.5 70l13.66 6.198" id="SvgjsLine1115" stroke="#000" stroke-width=".75"/><path d="M112.5 70l13.785 8.123" id="SvgjsLine1116" stroke="#000" stroke-width=".75"/><path d="M112.5 70l12.04 8.946" id="SvgjsLine1117" stroke="#000" stroke-width=".75"/><path d="M112.5 70l11.022 10.175" id="SvgjsLine1118" stroke="#000" stroke-width=".75"/><path d="M112.5 70l9.878 11.289" id="SvgjsLine1119" stroke="#000" stroke-width=".75"/><path d="M112.5 70l8.622 12.275" id="SvgjsLine1120" stroke="#000" stroke-width=".75"/><path d="M112.5 70l7.753 13.996" id="SvgjsLine1121" stroke="#000" stroke-width=".75"/><path d="M112.5 70l-8.487 13.564" id="SvgjsLine1122" stroke="#000" stroke-width=".75"/><path d="M112.5 70l-9.263 11.798" id="SvgjsLine1123" stroke="#000" stroke-width=".75"/><path d="M112.5 70l-10.464 10.747" id="SvgjsLine1124" stroke="#000" stroke-width=".75"/><path d="M112.5 70l-11.548 9.574" id="SvgjsLine1125" stroke="#000" stroke-width=".75"/><path d="M112.5 70L100 78.292" id="SvgjsLine1126" stroke="#000" stroke-width=".75"/><path d="M112.5 70l-14.198 7.377" id="SvgjsLine1127" stroke="#000" stroke-width=".75"/><path d="M112.5 70l-13.97 5.462" id="SvgjsLine1128" stroke="#000" stroke-width=".75"/><path d="M112.5 70l-14.472 3.947" id="SvgjsLine1129" stroke="#000" stroke-width=".75"/><path d="M112.5 70l-14.809 2.386" id="SvgjsLine1130" stroke="#000" stroke-width=".75"/><path d="M112.5 70l-14.979.798" id="SvgjsLine1131" stroke="#000" stroke-width=".75"/><path d="M112.5 70l-15.977-.852" id="SvgjsLine1132" stroke="#000" stroke-width=".75"/><path d="M112.5 70l-14.809-2.386" id="SvgjsLine1133" stroke="#000" stroke-width=".75"/><path d="M112.5 70l-14.472-3.947" id="SvgjsLine1134" stroke="#000" stroke-width=".75"/><path d="M112.5 70l-13.97-5.462" id="SvgjsLine1135" stroke="#000" stroke-width=".75"/><path d="M112.5 70l-13.31-6.916" id="SvgjsLine1136" stroke="#000" stroke-width=".75"/><path d="M112.5 70l-13.333-8.845" id="SvgjsLine1137" stroke="#000" stroke-width=".75"/><path d="M112.5 70l-11.548-9.574" id="SvgjsLine1138" stroke="#000" stroke-width=".75"/><path d="M112.5 70l-10.464-10.747" id="SvgjsLine1139" stroke="#000" stroke-width=".75"/><path d="M112.5 70l-9.263-11.798" id="SvgjsLine1140" stroke="#000" stroke-width=".75"/><path d="M112.5 70l-7.956-12.716" id="SvgjsLine1141" stroke="#000" stroke-width=".75"/><path d="M112.5 70l-6.997-14.389" id="SvgjsLine1142" stroke="#000" stroke-width=".75"/><path d="M112.5 70l-5.089-14.11" id="SvgjsLine1143" stroke="#000" stroke-width=".75"/><path d="M112.5 70l-3.56-14.571" id="SvgjsLine1144" stroke="#000" stroke-width=".75"/><path d="M112.5 70l-1.99-14.867" id="SvgjsLine1145" stroke="#000" stroke-width=".75"/><path d="M112.5 70l-.4-14.995" id="SvgjsLine1146" stroke="#000" stroke-width=".75"/><path d="M112.5 70l1.277-15.949" id="SvgjsLine1147" stroke="#000" stroke-width=".75"/><path d="M112.5 70l2.78-14.74" id="SvgjsLine1148" stroke="#000" stroke-width=".75"/><path d="M112.5 70l4.33-14.361" id="SvgjsLine1149" stroke="#000" stroke-width=".75"/><path d="M112.5 70l5.832-13.82" id="SvgjsLine1150" stroke="#000" stroke-width=".75"/><path d="M112.5 70l7.268-13.121" id="SvgjsLine1151" stroke="#000" stroke-width=".75"/><path d="M112.5 70l9.197-13.093" id="SvgjsLine1152" stroke="#000" stroke-width=".75"/><path d="M112.5 70l9.878-11.289" id="SvgjsLine1153" stroke="#000" stroke-width=".75"/><path d="M112.5 70l11.022-10.175" id="SvgjsLine1154" stroke="#000" stroke-width=".75"/><path d="M112.5 70l12.04-8.946" id="SvgjsLine1155" stroke="#000" stroke-width=".75"/><path d="M112.5 70l12.923-7.615" id="SvgjsLine1156" stroke="#000" stroke-width=".75"/><path d="M112.5 70l14.57-6.611" id="SvgjsLine1157" stroke="#000" stroke-width=".75"/><path d="M112.5 70l14.241-4.711" id="SvgjsLine1158" stroke="#000" stroke-width=".75"/><path d="M112.5 70l14.661-3.17" id="SvgjsLine1159" stroke="#000" stroke-width=".75"/><path d="M112.5 70l14.915-1.594" id="SvgjsLine1160" stroke="#000" stroke-width=".75"/><path d="M112.5 70h15" id="SvgjsLine1161" stroke="#000" stroke-width=".75"/><path d="M125.5 70a13 13 0 0 1-13 13 13 13 0 0 1-13-13 13 13 0 0 1 13-13 13 13 0 0 1 13 13z" id="SvgjsCircle1162" fill="#888" stroke="#111" stroke-width=".75"/><path d="M22.5 190h16" id="SvgjsLine1163" stroke="#000" stroke-width=".75"/><path d="M22.5 190l14.915 1.594" id="SvgjsLine1164" stroke="#000" stroke-width=".75"/><path d="M22.5 190l14.661 3.17" id="SvgjsLine1165" stroke="#000" stroke-width=".75"/><path d="M22.5 190l14.241 4.711" id="SvgjsLine1166" stroke="#000" stroke-width=".75"/><path d="M22.5 190l13.66 6.198" id="SvgjsLine1167" stroke="#000" stroke-width=".75"/><path d="M22.5 190l13.785 8.123" id="SvgjsLine1168" stroke="#000" stroke-width=".75"/><path d="M22.5 190l12.04 8.946" id="SvgjsLine1169" stroke="#000" stroke-width=".75"/><path d="M22.5 190l11.022 10.175" id="SvgjsLine1170" stroke="#000" stroke-width=".75"/><path d="M22.5 190l9.878 11.289" id="SvgjsLine1171" stroke="#000" stroke-width=".75"/><path d="M22.5 190l8.622 12.275" id="SvgjsLine1172" stroke="#000" stroke-width=".75"/><path d="M22.5 190l7.753 13.996" id="SvgjsLine1173" stroke="#000" stroke-width=".75"/><path d="M22.5 190l-8.487 13.564" id="SvgjsLine1174" stroke="#000" stroke-width=".75"/><path d="M22.5 190l-9.263 11.798" id="SvgjsLine1175" stroke="#000" stroke-width=".75"/><path d="M22.5 190l-10.464 10.747" id="SvgjsLine1176" stroke="#000" stroke-width=".75"/><path d="M22.5 190l-11.548 9.574" id="SvgjsLine1177" stroke="#000" stroke-width=".75"/><path d="M22.5 190L10 198.292" id="SvgjsLine1178" stroke="#000" stroke-width=".75"/><path d="M22.5 190l-14.198 7.377" id="SvgjsLine1179" stroke="#000" stroke-width=".75"/><path d="M22.5 190l-13.97 5.462" id="SvgjsLine1180" stroke="#000" stroke-width=".75"/><path d="M22.5 190l-14.472 3.947" id="SvgjsLine1181" stroke="#000" stroke-width=".75"/><path d="M22.5 190l-14.809 2.386" id="SvgjsLine1182" stroke="#000" stroke-width=".75"/><path d="M22.5 190l-14.979.798" id="SvgjsLine1183" stroke="#000" stroke-width=".75"/><path d="M22.5 190l-15.977-.852" id="SvgjsLine1184" stroke="#000" stroke-width=".75"/><path d="M22.5 190l-14.809-2.386" id="SvgjsLine1185" stroke="#000" stroke-width=".75"/><path d="M22.5 190l-14.472-3.947" id="SvgjsLine1186" stroke="#000" stroke-width=".75"/><path d="M22.5 190l-13.97-5.462" id="SvgjsLine1187" stroke="#000" stroke-width=".75"/><path d="M22.5 190l-13.31-6.916" id="SvgjsLine1188" stroke="#000" stroke-width=".75"/><path d="M22.5 190l-13.333-8.845" id="SvgjsLine1189" stroke="#000" stroke-width=".75"/><path d="M22.5 190l-11.548-9.574" id="SvgjsLine1190" stroke="#000" stroke-width=".75"/><path d="M22.5 190l-10.464-10.747" id="SvgjsLine1191" stroke="#000" stroke-width=".75"/><path d="M22.5 190l-9.263-11.798" id="SvgjsLine1192" stroke="#000" stroke-width=".75"/><path d="M22.5 190l-7.956-12.716" id="SvgjsLine1193" stroke="#000" stroke-width=".75"/><path d="M22.5 190l-6.997-14.389" id="SvgjsLine1194" stroke="#000" stroke-width=".75"/><path d="M22.5 190l-5.089-14.11" id="SvgjsLine1195" stroke="#000" stroke-width=".75"/><path d="M22.5 190l-3.56-14.571" id="SvgjsLine1196" stroke="#000" stroke-width=".75"/><path d="M22.5 190l-1.99-14.867" id="SvgjsLine1197" stroke="#000" stroke-width=".75"/><path d="M22.5 190l-.4-14.995" id="SvgjsLine1198" stroke="#000" stroke-width=".75"/><path d="M22.5 190l1.277-15.949" id="SvgjsLine1199" stroke="#000" stroke-width=".75"/><path d="M22.5 190l2.78-14.74" id="SvgjsLine1200" stroke="#000" stroke-width=".75"/><path d="M22.5 190l4.33-14.361" id="SvgjsLine1201" stroke="#000" stroke-width=".75"/><path d="M22.5 190l5.832-13.82" id="SvgjsLine1202" stroke="#000" stroke-width=".75"/><path d="M22.5 190l7.268-13.121" id="SvgjsLine1203" stroke="#000" stroke-width=".75"/><path d="M22.5 190l9.197-13.093" id="SvgjsLine1204" stroke="#000" stroke-width=".75"/><path d="M22.5 190l9.878-11.289" id="SvgjsLine1205" stroke="#000" stroke-width=".75"/><path d="M22.5 190l11.022-10.175" id="SvgjsLine1206" stroke="#000" stroke-width=".75"/><path d="M22.5 190l12.04-8.946" id="SvgjsLine1207" stroke="#000" stroke-width=".75"/><path d="M22.5 190l12.923-7.615" id="SvgjsLine1208" stroke="#000" stroke-width=".75"/><path d="M22.5 190l14.57-6.611" id="SvgjsLine1209" stroke="#000" stroke-width=".75"/><path d="M22.5 190l14.241-4.711" id="SvgjsLine1210" stroke="#000" stroke-width=".75"/><path d="M22.5 190l14.661-3.17" id="SvgjsLine1211" stroke="#000" stroke-width=".75"/><path d="M22.5 190l14.915-1.594" id="SvgjsLine1212" stroke="#000" stroke-width=".75"/><path d="M22.5 190h15" id="SvgjsLine1213" stroke="#000" stroke-width=".75"/><path d="M35.5 190a13 13 0 0 1-13 13 13 13 0 0 1-13-13 13 13 0 0 1 13-13 13 13 0 0 1 13 13z" id="SvgjsCircle1214" fill="#888" stroke="#111" stroke-width=".75"/><path d="M67.5 190h16" id="SvgjsLine1215" stroke="#000" stroke-width=".75"/><path d="M67.5 190l14.915 1.594" id="SvgjsLine1216" stroke="#000" stroke-width=".75"/><path d="M67.5 190l14.661 3.17" id="SvgjsLine1217" stroke="#000" stroke-width=".75"/><path d="M67.5 190l14.241 4.711" id="SvgjsLine1218" stroke="#000" stroke-width=".75"/><path d="M67.5 190l13.66 6.198" id="SvgjsLine1219" stroke="#000" stroke-width=".75"/><path d="M67.5 190l13.785 8.123" id="SvgjsLine1220" stroke="#000" stroke-width=".75"/><path d="M67.5 190l12.04 8.946" id="SvgjsLine1221" stroke="#000" stroke-width=".75"/><path d="M67.5 190l11.022 10.175" id="SvgjsLine1222" stroke="#000" stroke-width=".75"/><path d="M67.5 190l9.878 11.289" id="SvgjsLine1223" stroke="#000" stroke-width=".75"/><path d="M67.5 190l8.622 12.275" id="SvgjsLine1224" stroke="#000" stroke-width=".75"/><path d="M67.5 190l7.753 13.996" id="SvgjsLine1225" stroke="#000" stroke-width=".75"/><path d="M67.5 190l-8.487 13.564" id="SvgjsLine1226" stroke="#000" stroke-width=".75"/><path d="M67.5 190l-9.263 11.798" id="SvgjsLine1227" stroke="#000" stroke-width=".75"/><path d="M67.5 190l-10.464 10.747" id="SvgjsLine1228" stroke="#000" stroke-width=".75"/><path d="M67.5 190l-11.548 9.574" id="SvgjsLine1229" stroke="#000" stroke-width=".75"/><path d="M67.5 190L55 198.292" id="SvgjsLine1230" stroke="#000" stroke-width=".75"/><path d="M67.5 190l-14.198 7.377" id="SvgjsLine1231" stroke="#000" stroke-width=".75"/><path d="M67.5 190l-13.97 5.462" id="SvgjsLine1232" stroke="#000" stroke-width=".75"/><path d="M67.5 190l-14.472 3.947" id="SvgjsLine1233" stroke="#000" stroke-width=".75"/><path d="M67.5 190l-14.809 2.386" id="SvgjsLine1234" stroke="#000" stroke-width=".75"/><path d="M67.5 190l-14.979.798" id="SvgjsLine1235" stroke="#000" stroke-width=".75"/><path d="M67.5 190l-15.977-.852" id="SvgjsLine1236" stroke="#000" stroke-width=".75"/><path d="M67.5 190l-14.809-2.386" id="SvgjsLine1237" stroke="#000" stroke-width=".75"/><path d="M67.5 190l-14.472-3.947" id="SvgjsLine1238" stroke="#000" stroke-width=".75"/><path d="M67.5 190l-13.97-5.462" id="SvgjsLine1239" stroke="#000" stroke-width=".75"/><path d="M67.5 190l-13.31-6.916" id="SvgjsLine1240" stroke="#000" stroke-width=".75"/><path d="M67.5 190l-13.333-8.845" id="SvgjsLine1241" stroke="#000" stroke-width=".75"/><path d="M67.5 190l-11.548-9.574" id="SvgjsLine1242" stroke="#000" stroke-width=".75"/><path d="M67.5 190l-10.464-10.747" id="SvgjsLine1243" stroke="#000" stroke-width=".75"/><path d="M67.5 190l-9.263-11.798" id="SvgjsLine1244" stroke="#000" stroke-width=".75"/><path d="M67.5 190l-7.956-12.716" id="SvgjsLine1245" stroke="#000" stroke-width=".75"/><path d="M67.5 190l-6.997-14.389" id="SvgjsLine1246" stroke="#000" stroke-width=".75"/><path d="M67.5 190l-5.089-14.11" id="SvgjsLine1247" stroke="#000" stroke-width=".75"/><path d="M67.5 190l-3.56-14.571" id="SvgjsLine1248" stroke="#000" stroke-width=".75"/><path d="M67.5 190l-1.99-14.867" id="SvgjsLine1249" stroke="#000" stroke-width=".75"/><path d="M67.5 190l-.4-14.995" id="SvgjsLine1250" stroke="#000" stroke-width=".75"/><path d="M67.5 190l1.277-15.949" id="SvgjsLine1251" stroke="#000" stroke-width=".75"/><path d="M67.5 190l2.78-14.74" id="SvgjsLine1252" stroke="#000" stroke-width=".75"/><path d="M67.5 190l4.33-14.361" id="SvgjsLine1253" stroke="#000" stroke-width=".75"/><path d="M67.5 190l5.832-13.82" id="SvgjsLine1254" stroke="#000" stroke-width=".75"/><path d="M67.5 190l7.268-13.121" id="SvgjsLine1255" stroke="#000" stroke-width=".75"/><path d="M67.5 190l9.197-13.093" id="SvgjsLine1256" stroke="#000" stroke-width=".75"/><path d="M67.5 190l9.878-11.289" id="SvgjsLine1257" stroke="#000" stroke-width=".75"/><path d="M67.5 190l11.022-10.175" id="SvgjsLine1258" stroke="#000" stroke-width=".75"/><path d="M67.5 190l12.04-8.946" id="SvgjsLine1259" stroke="#000" stroke-width=".75"/><path d="M67.5 190l12.923-7.615" id="SvgjsLine1260" stroke="#000" stroke-width=".75"/><path d="M67.5 190l14.57-6.611" id="SvgjsLine1261" stroke="#000" stroke-width=".75"/><path d="M67.5 190l14.241-4.711" id="SvgjsLine1262" stroke="#000" stroke-width=".75"/><path d="M67.5 190l14.661-3.17" id="SvgjsLine1263" stroke="#000" stroke-width=".75"/><path d="M67.5 190l14.915-1.594" id="SvgjsLine1264" stroke="#000" stroke-width=".75"/><path d="M67.5 190h15" id="SvgjsLine1265" stroke="#000" stroke-width=".75"/><path d="M80.5 190a13 13 0 0 1-13 13 13 13 0 0 1-13-13 13 13 0 0 1 13-13 13 13 0 0 1 13 13z" id="SvgjsCircle1266" fill="#888" stroke="#111" stroke-width=".75"/><path d="M112.5 190h16" id="SvgjsLine1267" stroke="#000" stroke-width=".75"/><path d="M112.5 190l14.915 1.594" id="SvgjsLine1268" stroke="#000" stroke-width=".75"/><path d="M112.5 190l14.661 3.17" id="SvgjsLine1269" stroke="#000" stroke-width=".75"/><path d="M112.5 190l14.241 4.711" id="SvgjsLine1270" stroke="#000" stroke-width=".75"/><path d="M112.5 190l13.66 6.198" id="SvgjsLine1271" stroke="#000" stroke-width=".75"/><path d="M112.5 190l13.785 8.123" id="SvgjsLine1272" stroke="#000" stroke-width=".75"/><path d="M112.5 190l12.04 8.946" id="SvgjsLine1273" stroke="#000" stroke-width=".75"/><path d="M112.5 190l11.022 10.175" id="SvgjsLine1274" stroke="#000" stroke-width=".75"/><path d="M112.5 190l9.878 11.289" id="SvgjsLine1275" stroke="#000" stroke-width=".75"/><path d="M112.5 190l8.622 12.275" id="SvgjsLine1276" stroke="#000" stroke-width=".75"/><path d="M112.5 190l7.753 13.996" id="SvgjsLine1277" stroke="#000" stroke-width=".75"/><path d="M112.5 190l-8.487 13.564" id="SvgjsLine1278" stroke="#000" stroke-width=".75"/><path d="M112.5 190l-9.263 11.798" id="SvgjsLine1279" stroke="#000" stroke-width=".75"/><path d="M112.5 190l-10.464 10.747" id="SvgjsLine1280" stroke="#000" stroke-width=".75"/><path d="M112.5 190l-11.548 9.574" id="SvgjsLine1281" stroke="#000" stroke-width=".75"/><path d="M112.5 190l-12.5 8.292" id="SvgjsLine1282" stroke="#000" stroke-width=".75"/><path d="M112.5 190l-14.198 7.377" id="SvgjsLine1283" stroke="#000" stroke-width=".75"/><path d="M112.5 190l-13.97 5.462" id="SvgjsLine1284" stroke="#000" stroke-width=".75"/><path d="M112.5 190l-14.472 3.947" id="SvgjsLine1285" stroke="#000" stroke-width=".75"/><path d="M112.5 190l-14.809 2.386" id="SvgjsLine1286" stroke="#000" stroke-width=".75"/><path d="M112.5 190l-14.979.798" id="SvgjsLine1287" stroke="#000" stroke-width=".75"/><path d="M112.5 190l-15.977-.852" id="SvgjsLine1288" stroke="#000" stroke-width=".75"/><path d="M112.5 190l-14.809-2.386" id="SvgjsLine1289" stroke="#000" stroke-width=".75"/><path d="M112.5 190l-14.472-3.947" id="SvgjsLine1290" stroke="#000" stroke-width=".75"/><path d="M112.5 190l-13.97-5.462" id="SvgjsLine1291" stroke="#000" stroke-width=".75"/><path d="M112.5 190l-13.31-6.916" id="SvgjsLine1292" stroke="#000" stroke-width=".75"/><path d="M112.5 190l-13.333-8.845" id="SvgjsLine1293" stroke="#000" stroke-width=".75"/><path d="M112.5 190l-11.548-9.574" id="SvgjsLine1294" stroke="#000" stroke-width=".75"/><path d="M112.5 190l-10.464-10.747" id="SvgjsLine1295" stroke="#000" stroke-width=".75"/><path d="M112.5 190l-9.263-11.798" id="SvgjsLine1296" stroke="#000" stroke-width=".75"/><path d="M112.5 190l-7.956-12.716" id="SvgjsLine1297" stroke="#000" stroke-width=".75"/><path d="M112.5 190l-6.997-14.389" id="SvgjsLine1298" stroke="#000" stroke-width=".75"/><path d="M112.5 190l-5.089-14.11" id="SvgjsLine1299" stroke="#000" stroke-width=".75"/><path d="M112.5 190l-3.56-14.571" id="SvgjsLine1300" stroke="#000" stroke-width=".75"/><path d="M112.5 190l-1.99-14.867" id="SvgjsLine1301" stroke="#000" stroke-width=".75"/><path d="M112.5 190l-.4-14.995" id="SvgjsLine1302" stroke="#000" stroke-width=".75"/><path d="M112.5 190l1.277-15.949" id="SvgjsLine1303" stroke="#000" stroke-width=".75"/><path d="M112.5 190l2.78-14.74" id="SvgjsLine1304" stroke="#000" stroke-width=".75"/><path d="M112.5 190l4.33-14.361" id="SvgjsLine1305" stroke="#000" stroke-width=".75"/><path d="M112.5 190l5.832-13.82" id="SvgjsLine1306" stroke="#000" stroke-width=".75"/><path d="M112.5 190l7.268-13.121" id="SvgjsLine1307" stroke="#000" stroke-width=".75"/><path d="M112.5 190l9.197-13.093" id="SvgjsLine1308" stroke="#000" stroke-width=".75"/><path d="M112.5 190l9.878-11.289" id="SvgjsLine1309" stroke="#000" stroke-width=".75"/><path d="M112.5 190l11.022-10.175" id="SvgjsLine1310" stroke="#000" stroke-width=".75"/><path d="M112.5 190l12.04-8.946" id="SvgjsLine1311" stroke="#000" stroke-width=".75"/><path d="M112.5 190l12.923-7.615" id="SvgjsLine1312" stroke="#000" stroke-width=".75"/><path d="M112.5 190l14.57-6.611" id="SvgjsLine1313" stroke="#000" stroke-width=".75"/><path d="M112.5 190l14.241-4.711" id="SvgjsLine1314" stroke="#000" stroke-width=".75"/><path d="M112.5 190l14.661-3.17" id="SvgjsLine1315" stroke="#000" stroke-width=".75"/><path d="M112.5 190l14.915-1.594" id="SvgjsLine1316" stroke="#000" stroke-width=".75"/><path d="M112.5 190h15" id="SvgjsLine1317" stroke="#000" stroke-width=".75"/><path d="M125.5 190a13 13 0 0 1-13 13 13 13 0 0 1-13-13 13 13 0 0 1 13-13 13 13 0 0 1 13 13z" id="SvgjsCircle1318" fill="#888" stroke="#111" stroke-width=".75"/></svg>